<?xml version="1.0" encoding="UTF-8" standalone="no"?>
<!-- Created with Inkscape (http://www.inkscape.org/) -->

<svg
   xmlns:dc="http://purl.org/dc/elements/1.1/"
   xmlns:cc="http://creativecommons.org/ns#"
   xmlns:rdf="http://www.w3.org/1999/02/22-rdf-syntax-ns#"
   xmlns:svg="http://www.w3.org/2000/svg"
   xmlns="http://www.w3.org/2000/svg"
   xmlns:sodipodi="http://sodipodi.sourceforge.net/DTD/sodipodi-0.dtd"
   xmlns:inkscape="http://www.inkscape.org/namespaces/inkscape"
   width="16"
   height="16"
   id="svg3991"
   version="1.1"
   inkscape:version="0.48.4 r9939"
   sodipodi:docname="measure-date-ordinal.svg">
  <title
     id="title4018">GNU PSPP flat icon set</title>
  <defs
     id="defs3993" />
  <sodipodi:namedview
     id="base"
     pagecolor="#ffffff"
     bordercolor="#666666"
     borderopacity="1.0"
     inkscape:pageopacity="0.0"
     inkscape:pageshadow="2"
     inkscape:zoom="22.4"
     inkscape:cx="8"
     inkscape:cy="6.1783041"
     inkscape:document-units="px"
     inkscape:current-layer="layer1"
     showgrid="true"
     inkscape:window-width="683"
     inkscape:window-height="708"
     inkscape:window-x="0"
     inkscape:window-y="27"
     inkscape:window-maximized="0"
     showborder="false"
     inkscape:snap-bbox="true">
    <inkscape:grid
       type="xygrid"
       id="grid2983"
       empspacing="5"
       visible="true"
       enabled="true"
       snapvisiblegridlinesonly="true" />
    <sodipodi:guide
       position="0,0"
       orientation="0,16"
       id="guide2985" />
    <sodipodi:guide
       position="16,0"
       orientation="-16,0"
       id="guide2987" />
    <sodipodi:guide
       position="16,16"
       orientation="0,-16"
       id="guide2989" />
    <sodipodi:guide
       position="0,16"
       orientation="16,0"
       id="guide2991" />
  </sodipodi:namedview>
  <metadata
     id="metadata3996">
    <rdf:RDF>
      <cc:Work
         rdf:about="">
        <dc:format>image/svg+xml</dc:format>
        <dc:type
           rdf:resource="http://purl.org/dc/dcmitype/StillImage" />
        <dc:title>GNU PSPP flat icon set</dc:title>
        <cc:license
           rdf:resource="http://creativecommons.org/licenses/by-sa/3.0/" />
        <dc:creator>
          <cc:Agent>
            <dc:title>Bastián Díaz</dc:title>
          </cc:Agent>
        </dc:creator>
        <dc:source>https://github.com/bedf/PSPPire-artwork</dc:source>
      </cc:Work>
      <cc:License
         rdf:about="http://creativecommons.org/licenses/by-sa/3.0/">
        <cc:permits
           rdf:resource="http://creativecommons.org/ns#Reproduction" />
        <cc:permits
           rdf:resource="http://creativecommons.org/ns#Distribution" />
        <cc:requires
           rdf:resource="http://creativecommons.org/ns#Notice" />
        <cc:requires
           rdf:resource="http://creativecommons.org/ns#Attribution" />
        <cc:permits
           rdf:resource="http://creativecommons.org/ns#DerivativeWorks" />
        <cc:requires
           rdf:resource="http://creativecommons.org/ns#ShareAlike" />
      </cc:License>
    </rdf:RDF>
  </metadata>
  <g
     inkscape:label="Layer 1"
     inkscape:groupmode="layer"
     id="layer1"
     transform="translate(0,-1036.3622)">
    <g
       transform="translate(335,640.00002)"
       style="display:inline"
       id="g6541">
      <g
         id="g5187">
        <rect
           style="fill:none;stroke:none"
           id="rect5382"
           width="16"
           height="16"
           x="-335"
           y="396.36218" />
        <g
           id="g5140"
           transform="translate(-9,1.0000026)">
          <path
             inkscape:connector-curvature="0"
             id="path4334"
             d="m -313.5,404.36218 c -1.933,0 -3.5,1.567 -3.5,3.5 0,1.933 1.567,3.5 3.5,3.5 1.933,0 3.5,-1.567 3.5,-3.5 0,-1.933 -1.567,-3.5 -3.5,-3.5 z m 0,1 c 1.38071,0 2.5,1.11929 2.5,2.5 0,1.38071 -1.11929,2.5 -2.5,2.5 -1.38071,0 -2.5,-1.11929 -2.5,-2.5 0,-1.38071 1.11929,-2.5 2.5,-2.5 z"
             style="fill:#2e3436;fill-opacity:1;stroke:none" />
          <path
             inkscape:connector-curvature="0"
             id="path4341"
             d="m -312.28125,406.34375 a 0.250025,0.250025 0 0 0 -0.125,0.0937 L -313.5,407.5 l -0.4375,-0.4375 a 0.250025,0.250025 0 0 0 -0.0313,-0.0313 0.250025,0.250025 0 0 0 -0.0937,-0.0313 0.250025,0.250025 0 0 0 -0.125,0 0.250025,0.250025 0 0 0 -0.0625,0.0313 0.250025,0.250025 0 0 0 -0.125,0.15625 0.250025,0.250025 0 0 0 0.0937,0.21875 l 0.625,0.625 0.1875,0.1875 0.15625,-0.1875 1.25,-1.25 a 0.250025,0.250025 0 0 0 0.0313,-0.0313 0.250025,0.250025 0 0 0 0.0313,-0.0625 0.250025,0.250025 0 0 0 0,-0.125 0.250025,0.250025 0 0 0 -0.0313,-0.0937 0.250025,0.250025 0 0 0 -0.0625,-0.0625 0.250025,0.250025 0 0 0 -0.0625,-0.0313 0.250025,0.250025 0 0 0 -0.125,-0.0313 z"
             style="font-size:medium;font-style:normal;font-variant:normal;font-weight:normal;font-stretch:normal;text-indent:0;text-align:start;text-decoration:none;line-height:normal;letter-spacing:normal;word-spacing:normal;text-transform:none;direction:ltr;block-progression:tb;writing-mode:lr-tb;text-anchor:start;baseline-shift:baseline;color:#000000;fill:#2e3436;fill-opacity:1;stroke:none;stroke-width:0.5;marker:none;visibility:visible;display:inline;overflow:visible;enable-background:accumulate;font-family:Sans;-inkscape-font-specification:Sans" />
        </g>
        <path
           inkscape:connector-curvature="0"
           style="fill:#2e3436;fill-opacity:1;display:inline"
           d="m -332,397.375 0,12 0,1 0,1 5.78125,0 c -0.39578,-0.58583 -0.63582,-1.26195 -0.71875,-2 l -3.0625,0 0,-1 1,0 0.5,0 0.5,0 0,-0.5 0,-0.5 -0.5,0 -0.5,0 -1,0 0,-1 2,0 0.5,0 0.5,0 0,-0.5 0,-0.5 -0.5,0 -0.5,0 -2,0 0,-1 1,0 0.5,0 0.5,0 0,-0.5 0,-0.5 -0.5,0 -0.5,0 -1,0 0,-1 2,0 0.5,0 0.5,0 0,-0.5 0,-0.5 -0.5,0 -0.5,0 -2,0 0,-2 4,0 c 1.06188,-0.0309 2.16571,-0.0829 2,2 l 0,1 0,2.28125 c 0.47255,-0.16854 0.96957,-0.28125 1.5,-0.28125 0.17178,0 0.33323,0.0438 0.5,0.0625 l 0,-3.0625 c 0,-3 -1,-4 -4,-4 l -4,0 -2,0 z"
           id="rect5888-5" />
      </g>
    </g>
  </g>
</svg>
