<?xml version="1.0" encoding="UTF-8" standalone="no"?>
<!-- Created with Inkscape (http://www.inkscape.org/) -->

<svg
   xmlns:dc="http://purl.org/dc/elements/1.1/"
   xmlns:cc="http://creativecommons.org/ns#"
   xmlns:rdf="http://www.w3.org/1999/02/22-rdf-syntax-ns#"
   xmlns:svg="http://www.w3.org/2000/svg"
   xmlns="http://www.w3.org/2000/svg"
   xmlns:sodipodi="http://sodipodi.sourceforge.net/DTD/sodipodi-0.dtd"
   xmlns:inkscape="http://www.inkscape.org/namespaces/inkscape"
   width="16"
   height="16"
   id="svg3991"
   version="1.1"
   inkscape:version="0.48.4 r9939"
   sodipodi:docname="measure-nominal.svg">
  <title
     id="title4018">GNU PSPP flat icon set</title>
  <defs
     id="defs3993" />
  <sodipodi:namedview
     id="base"
     pagecolor="#ffffff"
     bordercolor="#666666"
     borderopacity="1.0"
     inkscape:pageopacity="0.0"
     inkscape:pageshadow="2"
     inkscape:zoom="22.4"
     inkscape:cx="8"
     inkscape:cy="6.1783041"
     inkscape:document-units="px"
     inkscape:current-layer="layer1"
     showgrid="true"
     inkscape:window-width="683"
     inkscape:window-height="708"
     inkscape:window-x="0"
     inkscape:window-y="27"
     inkscape:window-maximized="0"
     showborder="false"
     inkscape:snap-bbox="true">
    <inkscape:grid
       type="xygrid"
       id="grid2983"
       empspacing="5"
       visible="true"
       enabled="true"
       snapvisiblegridlinesonly="true" />
    <sodipodi:guide
       position="0,0"
       orientation="0,16"
       id="guide2985" />
    <sodipodi:guide
       position="16,0"
       orientation="-16,0"
       id="guide2987" />
    <sodipodi:guide
       position="16,16"
       orientation="0,-16"
       id="guide2989" />
    <sodipodi:guide
       position="0,16"
       orientation="16,0"
       id="guide2991" />
  </sodipodi:namedview>
  <metadata
     id="metadata3996">
    <rdf:RDF>
      <cc:Work
         rdf:about="">
        <dc:format>image/svg+xml</dc:format>
        <dc:type
           rdf:resource="http://purl.org/dc/dcmitype/StillImage" />
        <dc:title>GNU PSPP flat icon set</dc:title>
        <cc:license
           rdf:resource="http://creativecommons.org/licenses/by-sa/3.0/" />
        <dc:creator>
          <cc:Agent>
            <dc:title>Bastián Díaz</dc:title>
          </cc:Agent>
        </dc:creator>
        <dc:source>https://github.com/bedf/PSPPire-artwork</dc:source>
      </cc:Work>
      <cc:License
         rdf:about="http://creativecommons.org/licenses/by-sa/3.0/">
        <cc:permits
           rdf:resource="http://creativecommons.org/ns#Reproduction" />
        <cc:permits
           rdf:resource="http://creativecommons.org/ns#Distribution" />
        <cc:requires
           rdf:resource="http://creativecommons.org/ns#Notice" />
        <cc:requires
           rdf:resource="http://creativecommons.org/ns#Attribution" />
        <cc:permits
           rdf:resource="http://creativecommons.org/ns#DerivativeWorks" />
        <cc:requires
           rdf:resource="http://creativecommons.org/ns#ShareAlike" />
      </cc:License>
    </rdf:RDF>
  </metadata>
  <g
     inkscape:label="Layer 1"
     inkscape:groupmode="layer"
     id="layer1"
     transform="translate(0,-1036.3622)">
    <g
       transform="translate(245,670.00002)"
       style="display:inline"
       id="g6487">
      <g
         id="g4174">
        <rect
           style="fill:none;stroke:none"
           id="rect5334"
           width="16"
           height="16"
           x="-245"
           y="366.36218" />
        <path
           inkscape:connector-curvature="0"
           style="fill:#2e3436;fill-opacity:1;display:inline"
           d="m -242,367.375 0,12 0,1 0,1 5,0 0,-2 -3,0 0,-1 1,0 0.5,0 0.5,0 0,-0.5 0,-0.5 -0.5,0 -0.5,0 -1,0 0,-1 2,0 0.5,0 0.5,0 0,-0.5 0,-0.5 -0.5,0 -0.5,0 -2,0 0,-1 1,0 0.5,0 0.5,0 0,-0.5 0,-0.5 -0.5,0 -0.5,0 -1,0 0,-1 2,0 0.5,0 0.5,0 0,-0.5 0,-0.5 -0.5,0 -0.5,0 -2,0 0,-2 4,0 c 1.06188,-0.0309 2.16571,-0.0829 2,2 l 0,1 0,3.125 c 0.47191,-0.0747 0.97042,-0.125 1.5,-0.125 0.17156,0 0.33343,0.0229 0.5,0.0313 l 0,-4.03125 c 0,-3 -1,-4 -4,-4 l -4,0 -2,0 z"
           id="rect5888-6" />
        <path
           style="fill:#2e3436;fill-opacity:1;stroke:none;display:inline"
           d="m -232.5,376.36218 c -1.933,0 -3.5,0.44772 -3.5,1 l 0,1 0,1 0,1 0,1 0,1 1,0 5,0 1,0 0,-5 c 0,-0.55228 -1.567,-1 -3.5,-1 z m -2.5,2 1,0 0,1 -1,0 0,-1 z m 2,0 1,0 0,1 -1,0 0,-1 z m 2,0 1,0 0,1 -1,0 0,-1 z m -4,2 1,0 0,1 -1,0 0,-1 z m 2,0 1,0 0,1 -1,0 0,-1 z m 2,0 1,0 0,1 -1,0 0,-1 z"
           id="rect3996-9"
           inkscape:connector-curvature="0" />
      </g>
    </g>
  </g>
</svg>
