<?xml version="1.0" encoding="UTF-8" standalone="no"?>
<!-- Created with Inkscape (http://www.inkscape.org/) -->

<svg
   xmlns:dc="http://purl.org/dc/elements/1.1/"
   xmlns:cc="http://creativecommons.org/ns#"
   xmlns:rdf="http://www.w3.org/1999/02/22-rdf-syntax-ns#"
   xmlns:svg="http://www.w3.org/2000/svg"
   xmlns="http://www.w3.org/2000/svg"
   xmlns:sodipodi="http://sodipodi.sourceforge.net/DTD/sodipodi-0.dtd"
   xmlns:inkscape="http://www.inkscape.org/namespaces/inkscape"
   width="16"
   height="16"
   id="svg3991"
   version="1.1"
   inkscape:version="0.48.4 r9939"
   sodipodi:docname="measure-time-scale.svg">
  <title
     id="title4018">GNU PSPP flat icon set</title>
  <defs
     id="defs3993" />
  <sodipodi:namedview
     id="base"
     pagecolor="#ffffff"
     bordercolor="#666666"
     borderopacity="1.0"
     inkscape:pageopacity="0.0"
     inkscape:pageshadow="2"
     inkscape:zoom="22.4"
     inkscape:cx="8"
     inkscape:cy="6.1783041"
     inkscape:document-units="px"
     inkscape:current-layer="layer1"
     showgrid="true"
     inkscape:window-width="683"
     inkscape:window-height="708"
     inkscape:window-x="0"
     inkscape:window-y="27"
     inkscape:window-maximized="0"
     showborder="false"
     inkscape:snap-bbox="true">
    <inkscape:grid
       type="xygrid"
       id="grid2983"
       empspacing="5"
       visible="true"
       enabled="true"
       snapvisiblegridlinesonly="true" />
    <sodipodi:guide
       position="0,0"
       orientation="0,16"
       id="guide2985" />
    <sodipodi:guide
       position="16,0"
       orientation="-16,0"
       id="guide2987" />
    <sodipodi:guide
       position="16,16"
       orientation="0,-16"
       id="guide2989" />
    <sodipodi:guide
       position="0,16"
       orientation="16,0"
       id="guide2991" />
  </sodipodi:namedview>
  <metadata
     id="metadata3996">
    <rdf:RDF>
      <cc:Work
         rdf:about="">
        <dc:format>image/svg+xml</dc:format>
        <dc:type
           rdf:resource="http://purl.org/dc/dcmitype/StillImage" />
        <dc:title>GNU PSPP flat icon set</dc:title>
        <cc:license
           rdf:resource="http://creativecommons.org/licenses/by-sa/3.0/" />
        <dc:creator>
          <cc:Agent>
            <dc:title>Bastián Díaz</dc:title>
          </cc:Agent>
        </dc:creator>
        <dc:source>https://github.com/bedf/PSPPire-artwork</dc:source>
      </cc:Work>
      <cc:License
         rdf:about="http://creativecommons.org/licenses/by-sa/3.0/">
        <cc:permits
           rdf:resource="http://creativecommons.org/ns#Reproduction" />
        <cc:permits
           rdf:resource="http://creativecommons.org/ns#Distribution" />
        <cc:requires
           rdf:resource="http://creativecommons.org/ns#Notice" />
        <cc:requires
           rdf:resource="http://creativecommons.org/ns#Attribution" />
        <cc:permits
           rdf:resource="http://creativecommons.org/ns#DerivativeWorks" />
        <cc:requires
           rdf:resource="http://creativecommons.org/ns#ShareAlike" />
      </cc:License>
    </rdf:RDF>
  </metadata>
  <g
     inkscape:label="Layer 1"
     inkscape:groupmode="layer"
     id="layer1"
     transform="translate(0,-1036.3622)">
    <g
       transform="translate(335,640.00002)"
       style="display:inline"
       id="g6494">
      <rect
         y="396.36218"
         x="-335"
         height="16"
         width="16"
         id="rect5382"
         style="fill:none;stroke:none" />
      <path
         inkscape:connector-curvature="0"
         id="rect5888-4"
         d="m -332,397.375 0,12 0,1 0,1 6,0 0,-2 -4,0 0,-1 1,0 0.5,0 0.5,0 0,-0.5 0,-0.5 -0.5,0 -0.5,0 -1,0 0,-1 2,0 0.5,0 0.5,0 0,-0.5 0,-0.5 -0.5,0 -0.5,0 -2,0 0,-1 1,0 0.5,0 0.5,0 0,-0.5 0,-0.5 -0.5,0 -0.5,0 -1,0 0,-1 2,0 0.5,0 0.5,0 0,-0.5 0,-0.5 -0.5,0 -0.5,0 -2,0 0,-2 4,0 c 1.06188,-0.0309 2.16571,-0.0829 2,2 l 0,1 0,2 2,0 0,-3 c 0,-3 -1,-4 -4,-4 l -4,0 -2,0 z"
         style="fill:#2e3436;fill-opacity:1;display:inline" />
      <g
         transform="translate(-17,-3.4210825e-6)"
         id="g6335">
        <rect
           style="fill:#2e3436;fill-opacity:1;stroke:none;display:inline"
           id="rect5780-8"
           width="6"
           height="1"
           x="-308"
           y="405.36218" />
        <rect
           style="fill:#2e3436;fill-opacity:1;stroke:none;display:inline"
           id="rect5780-9-8"
           width="6"
           height="1"
           x="-308"
           y="411.36218" />
        <path
           sodipodi:type="arc"
           style="fill:none;stroke:#2d3335;stroke-width:0.467879;stroke-miterlimit:4;stroke-opacity:1;stroke-dasharray:none;display:inline"
           id="path5800-9"
           sodipodi:cx="-267"
           sodipodi:cy="404.36218"
           sodipodi:rx="1"
           sodipodi:ry="1"
           d="m -268,404.36218 c 0,-0.55228 0.44772,-1 1,-1 0.55228,0 1,0.44772 1,1 l -1,0 z"
           sodipodi:start="3.1415927"
           sodipodi:end="6.2831853"
           transform="matrix(-1.8029863,0,0,-2.3240972,-786.39735,1345.6181)" />
        <path
           sodipodi:type="arc"
           style="fill:none;stroke:#2d3335;stroke-width:0.46787143;stroke-miterlimit:4;stroke-opacity:1;stroke-dasharray:none;display:inline"
           id="path5800-6-1"
           sodipodi:cx="-267"
           sodipodi:cy="404.36218"
           sodipodi:rx="1"
           sodipodi:ry="1"
           d="m -268,404.36218 c 0,-0.55228 0.44772,-1 1,-1 0.55228,0 1,0.44772 1,1 l -1,0 z"
           sodipodi:start="3.1415927"
           sodipodi:end="6.2831853"
           transform="matrix(1.8029849,0,0,2.3241078,176.39698,-527.89799)" />
        <path
           sodipodi:type="arc"
           style="fill:#2e3436;fill-opacity:1;stroke:none;display:inline"
           id="path5820-6"
           sodipodi:cx="-266.5"
           sodipodi:cy="408.86218"
           sodipodi:rx="0.5"
           sodipodi:ry="0.5"
           d="m -266,408.86218 c 0,0.27614 -0.22386,0.5 -0.5,0.5 -0.27614,0 -0.5,-0.22386 -0.5,-0.5 0,-0.27614 0.22386,-0.5 0.5,-0.5 0.27614,0 0.5,0.22386 0.5,0.5 z"
           transform="matrix(2,0,0,1,228,2.6171874e-6)" />
        <rect
           style="fill:#2e3436;fill-opacity:1;stroke:none;display:inline"
           id="rect5889-9"
           width="3.198874"
           height="0.49719238"
           x="-306.62976"
           y="411.36218" />
        <rect
           style="fill:#2e3436;fill-opacity:1;stroke:none;display:inline"
           id="rect5889-4-7"
           width="1.7073205"
           height="0.38128155"
           x="-305.7879"
           y="407.64651" />
      </g>
    </g>
  </g>
</svg>
