<?xml version="1.0" encoding="UTF-8" standalone="no"?>
<!-- Created with Inkscape (http://www.inkscape.org/) -->

<svg
   xmlns:dc="http://purl.org/dc/elements/1.1/"
   xmlns:cc="http://creativecommons.org/ns#"
   xmlns:rdf="http://www.w3.org/1999/02/22-rdf-syntax-ns#"
   xmlns:svg="http://www.w3.org/2000/svg"
   xmlns="http://www.w3.org/2000/svg"
   xmlns:sodipodi="http://sodipodi.sourceforge.net/DTD/sodipodi-0.dtd"
   xmlns:inkscape="http://www.inkscape.org/namespaces/inkscape"
   width="16"
   height="16"
   id="svg3991"
   version="1.1"
   inkscape:version="0.48.4 r9939"
   sodipodi:docname="measure-currency-ordinal.svg">
  <title
     id="title4018">GNU PSPP flat icon set</title>
  <defs
     id="defs3993" />
  <sodipodi:namedview
     id="base"
     pagecolor="#ffffff"
     bordercolor="#666666"
     borderopacity="1.0"
     inkscape:pageopacity="0.0"
     inkscape:pageshadow="2"
     inkscape:zoom="22.4"
     inkscape:cx="8"
     inkscape:cy="6.1783041"
     inkscape:document-units="px"
     inkscape:current-layer="layer1"
     showgrid="true"
     inkscape:window-width="683"
     inkscape:window-height="708"
     inkscape:window-x="0"
     inkscape:window-y="27"
     inkscape:window-maximized="0"
     showborder="false"
     inkscape:snap-bbox="true">
    <inkscape:grid
       type="xygrid"
       id="grid2983"
       empspacing="5"
       visible="true"
       enabled="true"
       snapvisiblegridlinesonly="true" />
    <sodipodi:guide
       position="0,0"
       orientation="0,16"
       id="guide2985" />
    <sodipodi:guide
       position="16,0"
       orientation="-16,0"
       id="guide2987" />
    <sodipodi:guide
       position="16,16"
       orientation="0,-16"
       id="guide2989" />
    <sodipodi:guide
       position="0,16"
       orientation="16,0"
       id="guide2991" />
  </sodipodi:namedview>
  <metadata
     id="metadata3996">
    <rdf:RDF>
      <cc:Work
         rdf:about="">
        <dc:format>image/svg+xml</dc:format>
        <dc:type
           rdf:resource="http://purl.org/dc/dcmitype/StillImage" />
        <dc:title>GNU PSPP flat icon set</dc:title>
        <cc:license
           rdf:resource="http://creativecommons.org/licenses/by-sa/3.0/" />
        <dc:creator>
          <cc:Agent>
            <dc:title>Bastián Díaz</dc:title>
          </cc:Agent>
        </dc:creator>
        <dc:source>https://github.com/bedf/PSPPire-artwork</dc:source>
      </cc:Work>
      <cc:License
         rdf:about="http://creativecommons.org/licenses/by-sa/3.0/">
        <cc:permits
           rdf:resource="http://creativecommons.org/ns#Reproduction" />
        <cc:permits
           rdf:resource="http://creativecommons.org/ns#Distribution" />
        <cc:requires
           rdf:resource="http://creativecommons.org/ns#Notice" />
        <cc:requires
           rdf:resource="http://creativecommons.org/ns#Attribution" />
        <cc:permits
           rdf:resource="http://creativecommons.org/ns#DerivativeWorks" />
        <cc:requires
           rdf:resource="http://creativecommons.org/ns#ShareAlike" />
      </cc:License>
    </rdf:RDF>
  </metadata>
  <g
     inkscape:label="Layer 1"
     inkscape:groupmode="layer"
     id="layer1"
     transform="translate(0,-1036.3622)">
    <g
       transform="translate(140,670.00002)"
       style="display:inline"
       id="g6188">
      <path
         inkscape:connector-curvature="0"
         id="path6429-5-54"
         d="m -134,367.375 c -2.20914,0 -4,1.79086 -4,4 0,0.554 0.446,1 1,1 0.554,0 1,-0.446 1,-1 0,-1.10457 0.89542,-2 2,-2 l 1,0 c 1.10457,0 2,0.89542 2,2 l -2,0 3,3 3,-3 -2,0 c 0,-2.20914 -1.79086,-4 -4,-4 l -1,0 z"
         style="fill:#2e3436;fill-opacity:1;stroke:none;display:inline" />
      <rect
         y="366.36218"
         x="-140"
         height="16"
         width="16"
         id="rect5445"
         style="fill:none;stroke:none" />
      <path
         id="path7270-2-9"
         sodipodi:nodetypes="ccccsccccc"
         style="font-size:medium;font-style:normal;font-variant:normal;font-weight:normal;font-stretch:normal;text-indent:0;text-align:start;text-decoration:none;line-height:normal;letter-spacing:normal;word-spacing:normal;text-transform:none;direction:ltr;block-progression:tb;writing-mode:lr-tb;text-anchor:start;baseline-shift:baseline;color:#000000;fill:#2e3436;fill-opacity:1;stroke:none;stroke-width:2;marker:none;visibility:visible;display:inline;overflow:visible;enable-background:accumulate;font-family:Sans;-inkscape-font-specification:Sans"
         inkscape:connector-curvature="0"
         d="m -138.99806,378.35803 c 0.004,-0.22003 0.11329,-0.52093 0.30607,-0.69137 l 2.17793,-2.0776 c 0.23439,-0.23907 0.79255,-0.28719 1.01863,-0.15387 0.0811,0.002 1.14398,0.61967 1.2978,0.84953 0.62127,0.92843 -0.34665,1.79379 -1.18273,1.51846 l -0.3522,-0.20781 -1.61434,1.5429 c -0.64196,0.51669 -1.70417,0.0905 -1.6512,-0.7802 z" />
      <path
         id="path6196"
         sodipodi:nodetypes="ccccsccccc"
         style="font-size:medium;font-style:normal;font-variant:normal;font-weight:normal;font-stretch:normal;text-indent:0;text-align:start;text-decoration:none;line-height:normal;letter-spacing:normal;word-spacing:normal;text-transform:none;direction:ltr;block-progression:tb;writing-mode:lr-tb;text-anchor:start;baseline-shift:baseline;color:#000000;fill:#2e3436;fill-opacity:1;stroke:none;stroke-width:2;marker:none;visibility:visible;display:inline;overflow:visible;enable-background:accumulate;font-family:Sans;-inkscape-font-specification:Sans"
         inkscape:connector-curvature="0"
         d="m -125.00193,378.35802 c -0.004,-0.22003 -0.11244,-0.52093 -0.30379,-0.69137 l -2.16171,-2.07759 c -0.23264,-0.23907 -0.78664,-0.28719 -1.01103,-0.15387 -0.0805,0.002 -1.13547,0.61967 -1.28813,0.84952 -0.61666,0.92843 0.34405,1.79378 1.17391,1.51846 l 0.34957,-0.20781 1.60232,1.54289 c 0.63718,0.51669 1.69148,0.0906 1.6389,-0.7802 z" />
      <path
         inkscape:connector-curvature="0"
         id="rect5970"
         d="m -136,375.375 0,1 0,4 c 0,0.554 0.446,1 1,1 l 6,0 c 0.554,0 1,-0.446 1,-1 l 0,-4 0,-1 -1,0 -6,0 -1,0 z"
         style="fill:#2e3436;fill-opacity:1;stroke:none" />
    </g>
  </g>
</svg>
