<?xml version="1.0" encoding="UTF-8" standalone="no"?>
<!-- Created with Inkscape (http://www.inkscape.org/) -->

<svg
   xmlns:dc="http://purl.org/dc/elements/1.1/"
   xmlns:cc="http://creativecommons.org/ns#"
   xmlns:rdf="http://www.w3.org/1999/02/22-rdf-syntax-ns#"
   xmlns:svg="http://www.w3.org/2000/svg"
   xmlns="http://www.w3.org/2000/svg"
   xmlns:sodipodi="http://sodipodi.sourceforge.net/DTD/sodipodi-0.dtd"
   xmlns:inkscape="http://www.inkscape.org/namespaces/inkscape"
   id="svg7384"
   sodipodi:docname="variable-string-ordinal.svg"
   version="1.1"
   inkscape:version="0.48.4 r9939"
   height="16"
   width="16">
  <metadata
     id="metadata90">
    <rdf:RDF>
      <cc:Work
         rdf:about="">
        <dc:format>image/svg+xml</dc:format>
        <dc:type
           rdf:resource="http://purl.org/dc/dcmitype/StillImage" />
        <dc:title></dc:title>
        <dc:creator>
          <cc:Agent>
            <dc:title>GNU PSPP Community</dc:title>
          </cc:Agent>
        </dc:creator>
        <cc:license
           rdf:resource="http://creativecommons.org/licenses/by-sa/3.0/" />
      </cc:Work>
      <cc:License
         rdf:about="http://creativecommons.org/licenses/by-sa/3.0/">
        <cc:permits
           rdf:resource="http://creativecommons.org/ns#Reproduction" />
        <cc:permits
           rdf:resource="http://creativecommons.org/ns#Distribution" />
        <cc:requires
           rdf:resource="http://creativecommons.org/ns#Notice" />
        <cc:requires
           rdf:resource="http://creativecommons.org/ns#Attribution" />
        <cc:permits
           rdf:resource="http://creativecommons.org/ns#DerivativeWorks" />
        <cc:requires
           rdf:resource="http://creativecommons.org/ns#ShareAlike" />
      </cc:License>
    </rdf:RDF>
  </metadata>
  <sodipodi:namedview
     inkscape:cy="5.235931"
     pagecolor="#555753"
     borderopacity="1"
     showborder="false"
     inkscape:bbox-paths="false"
     guidetolerance="10"
     inkscape:object-paths="true"
     inkscape:window-width="1366"
     showguides="true"
     inkscape:object-nodes="true"
     inkscape:snap-bbox="true"
     inkscape:pageshadow="2"
     inkscape:guide-bbox="true"
     inkscape:snap-nodes="false"
     bordercolor="#666666"
     objecttolerance="10"
     id="namedview88"
     showgrid="true"
     inkscape:window-maximized="1"
     inkscape:window-x="0"
     inkscape:snap-global="true"
     inkscape:window-y="28"
     gridtolerance="10"
     inkscape:window-height="675"
     inkscape:snap-to-guides="true"
     inkscape:current-layer="layer9"
     inkscape:snap-bbox-midpoints="false"
     inkscape:zoom="16.000001"
     inkscape:cx="-4.2320684"
     inkscape:snap-grids="true"
     inkscape:pageopacity="0">
    <inkscape:grid
       spacingx="1px"
       spacingy="1px"
       id="grid4866"
       empspacing="2"
       enabled="true"
       type="xygrid"
       snapvisiblegridlinesonly="true"
       visible="true" />
    <sodipodi:guide
       position="0,0"
       orientation="0,16"
       id="guide2995" />
    <sodipodi:guide
       position="16,0"
       orientation="-16,0"
       id="guide2997" />
    <sodipodi:guide
       position="16,16"
       orientation="0,-16"
       id="guide2999" />
    <sodipodi:guide
       position="0,16"
       orientation="16,0"
       id="guide3001" />
    <sodipodi:guide
       position="0,0"
       orientation="0,24"
       id="guide3879" />
    <sodipodi:guide
       position="24,0"
       orientation="-24,0"
       id="guide3881" />
    <sodipodi:guide
       position="24,24"
       orientation="0,-24"
       id="guide3883" />
    <sodipodi:guide
       position="0,24"
       orientation="24,0"
       id="guide3885" />
  </sodipodi:namedview>
  <defs
     id="defs7386" />
  <g
     inkscape:label="GNU PSPP symbolic icon theme"
     transform="translate(-61.0002,-257)"
     inkscape:groupmode="layer"
     id="layer9"
     style="display:inline">
    <g
       id="g3013"
       transform="matrix(0.72727267,0,0,0.72727281,17.363694,70.818161)">
      <path
         id="path3292"
         d="m 75.96895,256 c -1.0972,0 -1.96875,0.9028 -1.96875,2 l 0,0.8125 0,0.0625 0,1.09375 0,1.03125 0,2.15625 C 74.488432,263.04968 74.982433,263 75.5002,263 c 1.270003,0 2.45163,0.34321 3.5,0.9375 l 0,-2.9375 0,-1.03125 0,-1.09375 0,-0.0625 0,-0.8125 c 0,-1.0972 -0.87155,-2 -1.96875,-2 l -1.0625,0 z m -7,5.96875 c -1.0972,0 -1.96875,0.87155 -1.96875,1.96875 0,0.0105 -1.61e-4,0.0208 0,0.0313 l 0,0.84375 0,1.15625 0,0.71875 0,7.4375 0,1.84375 2.625,0 c -1.014199,-1.36438 -1.625,-3.09228 -1.625,-4.96875 0,-3.06361 1.629095,-5.7185 4,-7.0625 0,-1.0972 -0.87155,-1.96875 -1.96875,-1.96875 l -1.0625,0 z m -7,5.03125 c -1.0972,0 -1.96875,0.9028 -1.96875,2 l 0,1.65625 0,0.0625 0,0.25 0,1.03125 0,2.6875 0,1.28125 5,0 0,-1.28125 0,-2.6875 0,-1.03125 0,-0.25 0,-0.0625 0,-1.65625 c 0,-1.0972 -0.87155,-2 -1.96875,-2 l -1.0625,0 z"
         style="font-size:medium;font-style:normal;font-variant:normal;font-weight:normal;font-stretch:normal;text-indent:0;text-align:start;text-decoration:none;line-height:normal;letter-spacing:normal;word-spacing:normal;text-transform:none;direction:ltr;block-progression:tb;writing-mode:lr-tb;text-anchor:start;baseline-shift:baseline;opacity:0.35;color:#000000;fill:#555753;fill-opacity:1;fill-rule:evenodd;stroke:none;stroke-width:3;marker:none;visibility:visible;display:inline;overflow:visible;enable-background:accumulate;font-family:Sans;-inkscape-font-specification:Sans"
         inkscape:connector-curvature="0" />
      <g
         id="text3002"
         style="font-size:21.87023544px;font-style:normal;font-variant:normal;font-weight:normal;font-stretch:normal;line-height:125%;letter-spacing:0px;word-spacing:0px;fill:#555753;fill-opacity:1;stroke:none;display:inline;font-family:Open Sans;-inkscape-font-specification:Open Sans"
         transform="matrix(1.0331747,0,0,0.96789055,-223.99984,-386.00005)">
        <path
           id="path3007"
           style="font-weight:bold;fill:#555753;-inkscape-font-specification:Open Sans Bold"
           d="m 293.89992,685.81445 -0.63005,-1.62318 -0.0854,0 c -0.54819,0.69057 -1.11416,1.17111 -1.69793,1.44164 -0.57666,0.26341 -1.3313,0.39512 -2.26391,0.39512 -1.1462,0 -2.05034,-0.32748 -2.71242,-0.98245 -0.65497,-0.65497 -0.98246,-1.58759 -0.98246,-2.79785 0,-1.26722 0.44139,-2.19984 1.32418,-2.79786 0.8899,-0.60512 2.22831,-0.93973 4.01524,-1.00381 l 2.07169,-0.0641 0,-0.52326 c -10e-6,-1.21026 -0.61938,-1.81539 -1.85812,-1.8154 -0.95398,10e-6 -2.07525,0.28834 -3.36383,0.86498 l -1.07856,-2.19984 c 1.37401,-0.71902 2.89752,-1.07855 4.57054,-1.07856 1.60181,1e-5 2.82988,0.34886 3.68419,1.04653 0.8543,0.69769 1.28145,1.75845 1.28146,3.18229 l 0,7.95572 -2.27459,0 m -0.96109,-5.53163 -1.2601,0.0427 c -0.94686,0.0285 -1.65167,0.19934 -2.11441,0.51258 -0.46275,0.31325 -0.69413,0.79024 -0.69412,1.43096 -10e-6,0.91838 0.52681,1.37757 1.58046,1.37757 0.75463,0 1.35621,-0.21713 1.80472,-0.65141 0.45563,-0.43427 0.68344,-1.01092 0.68345,-1.72997 l 0,-0.98245"
           inkscape:connector-curvature="0" />
      </g>
    </g>
  </g>
</svg>
