<?xml version="1.0" encoding="UTF-8" standalone="no"?>
<!-- Created with Inkscape (http://www.inkscape.org/) -->

<svg
   xmlns:dc="http://purl.org/dc/elements/1.1/"
   xmlns:cc="http://creativecommons.org/ns#"
   xmlns:rdf="http://www.w3.org/1999/02/22-rdf-syntax-ns#"
   xmlns:svg="http://www.w3.org/2000/svg"
   xmlns="http://www.w3.org/2000/svg"
   xmlns:sodipodi="http://sodipodi.sourceforge.net/DTD/sodipodi-0.dtd"
   xmlns:inkscape="http://www.inkscape.org/namespaces/inkscape"
   width="15.999988"
   height="16.000021"
   id="svg2"
   version="1.1"
   inkscape:version="0.48.4 r9939"
   sodipodi:docname="role-partition.svg">
  <title
     id="title2985">role icons</title>
  <defs
     id="defs4" />
  <sodipodi:namedview
     id="base"
     pagecolor="#ffffff"
     bordercolor="#666666"
     borderopacity="1.0"
     inkscape:pageopacity="0.0"
     inkscape:pageshadow="2"
     inkscape:zoom="44.8"
     inkscape:cx="7.7245245"
     inkscape:cy="15.746385"
     inkscape:document-units="px"
     inkscape:current-layer="layer1"
     showgrid="true"
     fit-margin-top="0"
     fit-margin-left="0"
     fit-margin-right="0"
     fit-margin-bottom="0"
     inkscape:window-width="1366"
     inkscape:window-height="711"
     inkscape:window-x="0"
     inkscape:window-y="28"
     inkscape:window-maximized="1"
     inkscape:snap-bbox="true">
    <inkscape:grid
       type="xygrid"
       id="grid3179"
       empspacing="5"
       visible="true"
       enabled="true"
       snapvisiblegridlinesonly="true"
       originx="8.0000001e-07px"
       originy="1.7269649e-05px" />
  </sodipodi:namedview>
  <metadata
     id="metadata7">
    <rdf:RDF>
      <cc:Work
         rdf:about="">
        <dc:format>image/svg+xml</dc:format>
        <dc:type
           rdf:resource="http://purl.org/dc/dcmitype/StillImage" />
        <dc:title>role icons</dc:title>
        <dc:creator>
          <cc:Agent>
            <dc:title>Bastián Díaz</dc:title>
          </cc:Agent>
        </dc:creator>
        <dc:description>Iconos symbólicos para GNU PSPP, basados en los iconos del proyecto GNOME</dc:description>
        <cc:license
           rdf:resource="http://creativecommons.org/licenses/by-sa/3.0/" />
      </cc:Work>
      <cc:License
         rdf:about="http://creativecommons.org/licenses/by-sa/3.0/">
        <cc:permits
           rdf:resource="http://creativecommons.org/ns#Reproduction" />
        <cc:permits
           rdf:resource="http://creativecommons.org/ns#Distribution" />
        <cc:requires
           rdf:resource="http://creativecommons.org/ns#Notice" />
        <cc:requires
           rdf:resource="http://creativecommons.org/ns#Attribution" />
        <cc:permits
           rdf:resource="http://creativecommons.org/ns#DerivativeWorks" />
        <cc:requires
           rdf:resource="http://creativecommons.org/ns#ShareAlike" />
      </cc:License>
    </rdf:RDF>
  </metadata>
  <g
     inkscape:label="Capa 1"
     inkscape:groupmode="layer"
     id="layer1"
     transform="translate(-239.21611,-517.10727)">
    <g
       transform="matrix(0.99999925,0,0,1.0039229,-40.783681,11.130136)"
       style="display:inline"
       id="g6595"
       inkscape:export-filename="/home/raizen/Dropbox/Proyectos/GNU PSPP/PSPPire artwork/icons/actions/16x16/data-split-file.png"
       inkscape:export-xdpi="90"
       inkscape:export-ydpi="90">
      <path
         inkscape:connector-curvature="0"
         id="rect3025"
         d="m 281.15626,503.99999 c -0.63923,0 -1.15625,0.51702 -1.15625,1.15625 l 0,1.15625 0,1.15625 0,2.3125 0,1.15625 1.15625,0 3.46875,0 1.15625,0 3.4375,0 1.15625,0 3.46875,0 1.15625,0 0,-4.625 0,-1.15625 c 0,-0.63923 -0.51702,-1.15625 -1.15625,-1.15625 l -12.6875,0 z m 0,3.46875 3.46875,0 0,2.3125 -3.46875,0 0,-2.3125 z m 4.625,0 3.4375,0 0,2.3125 -3.4375,0 0,-2.3125 z m 4.59375,0 3.46875,0 0,2.3125 -3.46875,0 0,-2.3125 z"
         style="fill:#555753;fill-opacity:1;stroke:none;display:inline" />
      <path
         inkscape:connector-curvature="0"
         id="rect3025-1"
         d="m 281.15626,512.99999 c -0.63923,0 -1.15625,0.51702 -1.15625,1.15625 l 0,1.15625 0,1.15625 0,2.3125 0,1.15625 1.15625,0 3.46875,0 1.15625,0 3.4375,0 1.15625,0 3.46875,0 1.15625,0 0,-4.625 0,-1.15625 c 0,-0.63923 -0.51702,-1.15625 -1.15625,-1.15625 l -12.6875,0 z m 0,3.46875 3.46875,0 0,2.3125 -3.46875,0 0,-2.3125 z m 4.625,0 3.4375,0 0,2.3125 -3.4375,0 0,-2.3125 z m 4.59375,0 3.46875,0 0,2.3125 -3.46875,0 0,-2.3125 z"
         style="fill:#555753;fill-opacity:1;stroke:none;display:inline" />
      <rect
         transform="translate(20,-20.000008)"
         y="524"
         x="260"
         height="15"
         width="16"
         id="rect6593"
         style="opacity:0;fill:#555753;fill-opacity:1;fill-rule:evenodd;stroke:none" />
    </g>
  </g>
</svg>
