<?xml version="1.0" encoding="UTF-8" standalone="no"?>
<!-- Created with Inkscape (http://www.inkscape.org/) -->

<svg
   xmlns:dc="http://purl.org/dc/elements/1.1/"
   xmlns:cc="http://creativecommons.org/ns#"
   xmlns:rdf="http://www.w3.org/1999/02/22-rdf-syntax-ns#"
   xmlns:svg="http://www.w3.org/2000/svg"
   xmlns="http://www.w3.org/2000/svg"
   xmlns:sodipodi="http://sodipodi.sourceforge.net/DTD/sodipodi-0.dtd"
   xmlns:inkscape="http://www.inkscape.org/namespaces/inkscape"
   sodipodi:docname="variable-date-nominal.svg"
   height="16"
   id="svg7384"
   inkscape:version="0.48.4 r9939"
   version="1.1"
   width="16">
  <metadata
     id="metadata90">
    <rdf:RDF>
      <cc:Work
         rdf:about="">
        <dc:format>image/svg+xml</dc:format>
        <dc:type
           rdf:resource="http://purl.org/dc/dcmitype/StillImage" />
        <dc:title />
        <dc:creator>
          <cc:Agent>
            <dc:title>GNU PSPP Community</dc:title>
          </cc:Agent>
        </dc:creator>
        <cc:license
           rdf:resource="http://creativecommons.org/licenses/by-sa/3.0/" />
      </cc:Work>
      <cc:License
         rdf:about="http://creativecommons.org/licenses/by-sa/3.0/">
        <cc:permits
           rdf:resource="http://creativecommons.org/ns#Reproduction" />
        <cc:permits
           rdf:resource="http://creativecommons.org/ns#Distribution" />
        <cc:requires
           rdf:resource="http://creativecommons.org/ns#Notice" />
        <cc:requires
           rdf:resource="http://creativecommons.org/ns#Attribution" />
        <cc:permits
           rdf:resource="http://creativecommons.org/ns#DerivativeWorks" />
        <cc:requires
           rdf:resource="http://creativecommons.org/ns#ShareAlike" />
      </cc:License>
    </rdf:RDF>
  </metadata>
  <sodipodi:namedview
     inkscape:bbox-paths="false"
     bordercolor="#666666"
     borderopacity="1"
     inkscape:current-layer="layer11"
     inkscape:cx="1.2142907"
     inkscape:cy="-0.51107024"
     gridtolerance="10"
     inkscape:guide-bbox="true"
     guidetolerance="10"
     id="namedview88"
     inkscape:object-nodes="false"
     inkscape:object-paths="false"
     objecttolerance="10"
     pagecolor="#555753"
     inkscape:pageopacity="0"
     inkscape:pageshadow="2"
     showborder="false"
     showgrid="true"
     showguides="true"
     inkscape:snap-bbox="true"
     inkscape:snap-bbox-midpoints="false"
     inkscape:snap-global="true"
     inkscape:snap-grids="true"
     inkscape:snap-nodes="false"
     inkscape:snap-others="false"
     inkscape:snap-to-guides="true"
     inkscape:window-height="675"
     inkscape:window-maximized="1"
     inkscape:window-width="1366"
     inkscape:window-x="0"
     inkscape:window-y="28"
     inkscape:zoom="11.313709"
     inkscape:bbox-nodes="true"
     inkscape:snap-bbox-edge-midpoints="true">
    <inkscape:grid
       empspacing="2"
       enabled="true"
       id="grid4866"
       snapvisiblegridlinesonly="true"
       spacingx="1px"
       spacingy="1px"
       type="xygrid"
       visible="true" />
    <sodipodi:guide
       position="0,0"
       orientation="0,16"
       id="guide2996" />
    <sodipodi:guide
       position="16,0"
       orientation="-16,0"
       id="guide2998" />
    <sodipodi:guide
       position="13,16"
       orientation="0,-16"
       id="guide3000" />
    <sodipodi:guide
       position="0,12"
       orientation="16,0"
       id="guide3002" />
    <sodipodi:guide
       position="0,0"
       orientation="0,24"
       id="guide4287" />
    <sodipodi:guide
       position="24,0"
       orientation="-24,0"
       id="guide4289" />
    <sodipodi:guide
       position="24,24"
       orientation="0,-24"
       id="guide4291" />
    <sodipodi:guide
       position="0,24"
       orientation="24,0"
       id="guide4293" />
  </sodipodi:namedview>
  <defs
     id="defs7386" />
  <g
     inkscape:groupmode="layer"
     id="layer9"
     inkscape:label="status"
     style="display:inline"
     transform="translate(-283,-649)" />
  <g
     inkscape:groupmode="layer"
     id="layer10"
     inkscape:label="devices"
     transform="translate(-283,-649)" />
  <g
     inkscape:groupmode="layer"
     id="layer11"
     inkscape:label="apps"
     transform="translate(-283,-649)">
    <g
       id="g3018"
       transform="matrix(0.72727137,0,0,0.72722865,93.182105,178.48306)">
      <path
         id="path8593-8-0-6-9-2-6-5"
         d="m 265.43755,656.34375 c -0.13357,0.0342 -0.24794,0.0511 -0.375,0.0937 -0.299,0.10025 -0.59937,0.23135 -0.875,0.375 -0.0214,0.0111 -0.0414,0.0199 -0.0625,0.0313 -0.26459,0.14199 -0.48019,0.29035 -0.71875,0.46875 -0.21983,0.1644 -0.46163,0.339 -0.65625,0.53125 -0.0108,0.0107 -0.0204,0.0203 -0.0313,0.0313 -0.0218,0.0224 -0.041,0.0397 -0.0625,0.0625 -0.21005,0.21718 -0.38766,0.4407 -0.5625,0.6875 -0.67877,0.95807 -1.09375,2.14793 -1.09375,3.40625 0,2.52496 1.61707,4.62729 3.875,5.46875 -0.003,0.0212 0.003,0.0412 0,0.0625 0.64895,0.23838 1.36073,0.375 2.09375,0.375 1.17441,0 2.26389,-0.35957 3.1875,-0.9375 l -0.1562,-5e-5 0,-0.5625 0,-0.4375 0,-6.21875 c -0.4151,-0.0588 -0.80701,-0.14148 -1.1875,-0.28125 0.003,-0.0213 -0.003,-0.0412 0,-0.0625 -1.49102,-0.55565 -2.72039,-1.67632 -3.375,-3.09375 z"
         style="opacity:0.35;color:#000000;fill:#555753;fill-opacity:1;stroke:none;stroke-width:2.15384626;marker:none;visibility:visible;display:inline;overflow:visible;enable-background:new"
         inkscape:connector-curvature="0" />
      <path
         id="path8593-8-0-6-9-2-5"
         d="m 271.6563,647 c -0.20642,0 -0.42396,0.011 -0.625,0.0313 -0.0218,0.002 -0.0408,-0.002 -0.0625,0 -0.18053,0.02 -0.35624,0.058 -0.53125,0.0937 -0.0449,0.009 -0.0804,0.021 -0.125,0.0313 -0.20018,0.0451 -0.40179,0.123 -0.59375,0.1875 -0.29901,0.10026 -0.59937,0.20009 -0.875,0.34375 -0.0214,0.0112 -0.0414,0.0199 -0.0625,0.0313 -0.26459,0.14199 -0.48018,0.32159 -0.71875,0.5 -0.21984,0.1644 -0.43039,0.33902 -0.625,0.53125 -0.0108,0.0107 -0.0206,0.0204 -0.0313,0.0313 -0.0218,0.0223 -0.0723,0.0398 -0.0937,0.0625 -0.21004,0.21717 -0.38767,0.44069 -0.5625,0.6875 -0.67883,0.95822 -1.09375,2.11669 -1.09375,3.375 0,2.52497 1.64832,4.62729 3.90625,5.46875 -0.003,0.0212 0.003,0.0724 0,0.0937 0.14076,0.0517 0.2913,0.053 0.4375,0.0937 l 0,-1.3125 c 0,-0.67693 0.48435,-1.25 1.09375,-1.25 l 2.21875,0 1.09375,0 2.1875,0 0.125,0 c 0.21065,-0.33636 0.39152,-0.68552 0.53125,-1.0625 0.10057,-0.27143 0.19026,-0.55535 0.25,-0.84375 0.009,-0.0433 0.0233,-0.0814 0.0313,-0.125 0.0103,-0.053 -0.008,-0.13402 0,-0.1875 0.0457,-0.29417 0.0937,-0.56823 0.0937,-0.875 0,-3.26251 -2.666,-5.90625 -5.96875,-5.90625 z"
         style="opacity:0.7;color:#000000;fill:#555753;fill-opacity:1;stroke:none;stroke-width:2.15384626;marker:none;visibility:visible;display:inline;overflow:visible;enable-background:new"
         inkscape:connector-curvature="0" />
      <g
         id="g3003"
         transform="translate(-22.99995,5)">
        <rect
           height="3"
           id="rect27810-4"
           style="opacity:0.35;color:#000000;fill:#555753;fill-opacity:1;stroke:none;stroke-width:1;marker:none;visibility:visible;display:inline;overflow:visible;enable-background:accumulate"
           width="4.0000167"
           x="302"
           y="657.375" />
        <path
           inkscape:connector-curvature="0"
           style="fill:#555753;fill-opacity:1;stroke:none;display:inline"
           d="M 13.09375,12 C 12.48435,12 12,12.57307 12,13.25 l 0,2.4375 0,6.75 c 0.007,0.0551 0.01245,0.13793 0.03125,0.1875 0.0445,0.14782 0.15293,0.28366 0.28125,0.34375 0.008,0.003 0.02325,-0.003 0.03125,0 0.0491,0.0183 0.0703,0.03125 0.125,0.03125 0.0239,0.003 0.06895,0 0.09375,0 l 0.0625,0 9.8125,0 c 0.0855,0 0.17798,0.0071 0.25,-0.03125 0.12395,-0.0581 0.229,-0.17482 0.28125,-0.3125 C 23.00325,22.57625 23,22.46992 23,22.375 L 23,13.78125 23,13.25 C 22.9999,12.57307 22.51565,12 21.90625,12 l -2.21875,0 -1.09375,0 -2.1875,0 -1.09375,0 -2.21875,0 z m 0.25,2 1.8125,0 C 15.345998,14 15.5,14.154002 15.5,14.34375 l 0,1.3125 C 15.5,15.845998 15.345998,16 15.15625,16 l -1.8125,0 C 13.154002,16 13,15.845998 13,15.65625 l 0,-1.3125 C 13,14.154002 13.154002,14 13.34375,14 z m 3.28125,0 1.84375,0 c 0.189748,0 0.34375,0.154002 0.34375,0.34375 l 0,1.3125 C 18.8125,15.845998 18.658498,16 18.46875,16 L 16.625,16 c -0.189748,0 -0.34375,-0.154002 -0.34375,-0.34375 l 0,-1.3125 C 16.28125,14.154002 16.435252,14 16.625,14 z m 3.21875,0 1.8125,0 C 21.845998,14 22,14.154002 22,14.34375 l 0,1.3125 C 22,15.845998 21.845998,16 21.65625,16 l -1.8125,0 C 19.654002,16 19.5,15.845998 19.5,15.65625 l 0,-1.3125 C 19.5,14.154002 19.654002,14 19.84375,14 z m -6.5,3 1.8125,0 C 15.345998,17 15.5,17.154002 15.5,17.34375 l 0,1.3125 C 15.5,18.845998 15.345998,19 15.15625,19 l -1.8125,0 C 13.154002,19 13,18.845998 13,18.65625 l 0,-1.3125 C 13,17.154002 13.154002,17 13.34375,17 z m 3.28125,0 1.84375,0 c 0.189748,0 0.34375,0.154002 0.34375,0.34375 l 0,1.3125 C 18.8125,18.845998 18.658498,19 18.46875,19 L 16.625,19 c -0.189748,0 -0.34375,-0.154002 -0.34375,-0.34375 l 0,-1.3125 C 16.28125,17.154002 16.435252,17 16.625,17 z m 3.21875,0 1.8125,0 C 21.845998,17 22,17.154002 22,17.34375 l 0,1.3125 C 22,18.845998 21.845998,19 21.65625,19 l -1.8125,0 C 19.654002,19 19.5,18.845998 19.5,18.65625 l 0,-1.3125 C 19.5,17.154002 19.654002,17 19.84375,17 z m -6.5,3 1.8125,0 C 15.345998,20 15.5,20.154002 15.5,20.34375 l 0,1.3125 C 15.5,21.845998 15.345998,22 15.15625,22 l -1.8125,0 C 13.154002,22 13,21.845998 13,21.65625 l 0,-1.3125 C 13,20.154002 13.154002,20 13.34375,20 z m 3.28125,0 1.84375,0 c 0.189748,0 0.34375,0.154002 0.34375,0.34375 l 0,1.3125 C 18.8125,21.845998 18.658498,22 18.46875,22 L 16.625,22 c -0.189748,0 -0.34375,-0.154002 -0.34375,-0.34375 l 0,-1.3125 C 16.28125,20.154002 16.435252,20 16.625,20 z m 3.21875,0 1.8125,0 C 21.845998,20 22,20.154002 22,20.34375 l 0,1.3125 C 22,21.845998 21.845998,22 21.65625,22 l -1.8125,0 C 19.654002,22 19.5,21.845998 19.5,21.65625 l 0,-1.3125 C 19.5,20.154002 19.654002,20 19.84375,20 z"
           transform="translate(283,641)"
           id="rect2994-2" />
      </g>
    </g>
  </g>
  <g
     inkscape:groupmode="layer"
     id="layer13"
     inkscape:label="places"
     transform="translate(-283,-649)" />
  <g
     inkscape:groupmode="layer"
     id="layer14"
     inkscape:label="mimetypes"
     transform="translate(-283,-649)" />
  <g
     inkscape:groupmode="layer"
     id="layer15"
     inkscape:label="emblems"
     style="display:inline"
     transform="translate(-283,-649)" />
  <g
     inkscape:groupmode="layer"
     id="g71291"
     inkscape:label="emotes"
     style="display:inline"
     transform="translate(-283,-649)" />
  <g
     inkscape:groupmode="layer"
     id="g4953"
     inkscape:label="categories"
     style="display:inline"
     transform="translate(-283,-649)" />
  <g
     inkscape:groupmode="layer"
     id="layer12"
     inkscape:label="actions"
     style="display:inline"
     transform="translate(-283,-649)" />
</svg>
