<?xml version="1.0" encoding="UTF-8" standalone="no"?>
<!-- Created with Inkscape (http://www.inkscape.org/) -->

<svg
   xmlns:dc="http://purl.org/dc/elements/1.1/"
   xmlns:cc="http://creativecommons.org/ns#"
   xmlns:rdf="http://www.w3.org/1999/02/22-rdf-syntax-ns#"
   xmlns:svg="http://www.w3.org/2000/svg"
   xmlns="http://www.w3.org/2000/svg"
   xmlns:sodipodi="http://sodipodi.sourceforge.net/DTD/sodipodi-0.dtd"
   xmlns:inkscape="http://www.inkscape.org/namespaces/inkscape"
   sodipodi:docname="variable-string-nominal.svg"
   height="16"
   id="svg7384"
   inkscape:version="0.48.4 r9939"
   version="1.1"
   width="16"
   inkscape:export-filename="/home/raizen/Escritorio/PSPP icon set/PSPP icon original/Carpeta sin título/string.png"
   inkscape:export-xdpi="90"
   inkscape:export-ydpi="90">
  <metadata
     id="metadata90">
    <rdf:RDF>
      <cc:Work
         rdf:about="">
        <dc:format>image/svg+xml</dc:format>
        <dc:type
           rdf:resource="http://purl.org/dc/dcmitype/StillImage" />
        <dc:title></dc:title>
        <dc:creator>
          <cc:Agent>
            <dc:title>GNU PSPP Community</dc:title>
          </cc:Agent>
        </dc:creator>
        <cc:license
           rdf:resource="http://creativecommons.org/licenses/by-sa/3.0/" />
      </cc:Work>
      <cc:License
         rdf:about="http://creativecommons.org/licenses/by-sa/3.0/">
        <cc:permits
           rdf:resource="http://creativecommons.org/ns#Reproduction" />
        <cc:permits
           rdf:resource="http://creativecommons.org/ns#Distribution" />
        <cc:requires
           rdf:resource="http://creativecommons.org/ns#Notice" />
        <cc:requires
           rdf:resource="http://creativecommons.org/ns#Attribution" />
        <cc:permits
           rdf:resource="http://creativecommons.org/ns#DerivativeWorks" />
        <cc:requires
           rdf:resource="http://creativecommons.org/ns#ShareAlike" />
      </cc:License>
    </rdf:RDF>
  </metadata>
  <sodipodi:namedview
     inkscape:bbox-paths="false"
     bordercolor="#666666"
     borderopacity="1"
     inkscape:current-layer="layer11"
     inkscape:cx="-0.0766838"
     inkscape:cy="7.6585241"
     gridtolerance="10"
     inkscape:guide-bbox="true"
     guidetolerance="10"
     id="namedview88"
     inkscape:object-nodes="false"
     inkscape:object-paths="false"
     objecttolerance="10"
     pagecolor="#555753"
     inkscape:pageopacity="0"
     inkscape:pageshadow="2"
     showborder="false"
     showgrid="true"
     showguides="true"
     inkscape:snap-bbox="true"
     inkscape:snap-bbox-midpoints="false"
     inkscape:snap-global="true"
     inkscape:snap-grids="true"
     inkscape:snap-nodes="false"
     inkscape:snap-others="false"
     inkscape:snap-to-guides="true"
     inkscape:window-height="675"
     inkscape:window-maximized="1"
     inkscape:window-width="1366"
     inkscape:window-x="0"
     inkscape:window-y="28"
     inkscape:zoom="16"
     inkscape:bbox-nodes="true"
     inkscape:snap-bbox-edge-midpoints="true">
    <inkscape:grid
       empspacing="2"
       enabled="true"
       id="grid4866"
       snapvisiblegridlinesonly="true"
       spacingx="1px"
       spacingy="1px"
       type="xygrid"
       visible="true" />
    <sodipodi:guide
       position="0,0"
       orientation="0,16"
       id="guide2996" />
    <sodipodi:guide
       position="16,0"
       orientation="-16,0"
       id="guide2998" />
    <sodipodi:guide
       position="13,16"
       orientation="0,-16"
       id="guide3000" />
    <sodipodi:guide
       position="0,12"
       orientation="16,0"
       id="guide3002" />
    <sodipodi:guide
       position="0,0"
       orientation="0,24"
       id="guide4287" />
    <sodipodi:guide
       position="24,0"
       orientation="-24,0"
       id="guide4289" />
    <sodipodi:guide
       position="24,24"
       orientation="0,-24"
       id="guide4291" />
    <sodipodi:guide
       position="0,24"
       orientation="24,0"
       id="guide4293" />
    <sodipodi:guide
       position="0,0"
       orientation="0,24"
       id="guide2997" />
    <sodipodi:guide
       position="24,0"
       orientation="-24,0"
       id="guide2999" />
    <sodipodi:guide
       position="24,24"
       orientation="0,-24"
       id="guide3001" />
    <sodipodi:guide
       position="0,24"
       orientation="24,0"
       id="guide3003" />
  </sodipodi:namedview>
  <defs
     id="defs7386" />
  <g
     inkscape:groupmode="layer"
     id="layer11"
     inkscape:label="GNU PSPP symbolic icon theme"
     transform="translate(-283,-649)">
    <g
       id="g3015"
       transform="matrix(0.72727137,0,0,0.72727096,79.364015,179.18297)">
      <path
         inkscape:connector-curvature="0"
         id="path8593-8-0-6-9-2"
         d="m 290.63996,646.00004 c -3.30541,0 -5.98498,2.77024 -5.98498,6.18749 0,2.79833 1.81498,5.12201 4.28092,5.8867 1.25948,-2.28142 3.63628,-3.8242 6.35905,-3.8242 0.32705,0 0.64024,0.0427 0.95594,0.0859 0.24153,-0.67146 0.37405,-1.39 0.37405,-2.14844 0,-3.41727 -2.67957,-6.1875 -5.98498,-6.1875 z"
         style="opacity:0.7;color:#000000;fill:#555753;fill-opacity:1;stroke:none;stroke-width:2.15384626;marker:none;visibility:visible;display:inline;overflow:visible;enable-background:new" />
      <path
         inkscape:connector-curvature="0"
         id="path8593-8-0-6-9-3"
         d="M 284.32247,655.88283 C 281.83091,656.63091 280,658.99532 280,661.81251 c 0,3.41726 2.67957,6.18749 5.98498,6.18749 1.39236,0 2.6823,-0.50763 3.69904,-1.33203 -1.06594,-1.31388 -1.70405,-3.00642 -1.70405,-4.85546 0,-0.86105 0.15927,-1.67813 0.41563,-2.44922 -1.74868,-0.58657 -3.17448,-1.86083 -4.07313,-3.48046 z"
         style="opacity:0.35;color:#000000;fill:#555753;fill-opacity:1;stroke:none;stroke-width:2.15384626;marker:none;visibility:visible;display:inline;overflow:visible;enable-background:new" />
      <g
         id="text3002"
         style="font-size:21.87023544px;font-style:normal;font-variant:normal;font-weight:normal;font-stretch:normal;line-height:125%;letter-spacing:0px;word-spacing:0px;fill:#555753;fill-opacity:1;stroke:none;font-family:Open Sans;-inkscape-font-specification:Open Sans"
         transform="matrix(1.0331747,0,0,0.96789055,-4,4)">
        <path
           id="path3007"
           style="font-weight:bold;fill:#555753;-inkscape-font-specification:Open Sans Bold"
           d="m 293.89992,685.81445 -0.63005,-1.62318 -0.0854,0 c -0.54819,0.69057 -1.11416,1.17111 -1.69793,1.44164 -0.57666,0.26341 -1.3313,0.39512 -2.26391,0.39512 -1.1462,0 -2.05034,-0.32748 -2.71242,-0.98245 -0.65497,-0.65497 -0.98246,-1.58759 -0.98246,-2.79785 0,-1.26722 0.44139,-2.19984 1.32418,-2.79786 0.8899,-0.60512 2.22831,-0.93973 4.01524,-1.00381 l 2.07169,-0.0641 0,-0.52326 c -10e-6,-1.21026 -0.61938,-1.81539 -1.85812,-1.8154 -0.95398,10e-6 -2.07525,0.28834 -3.36383,0.86498 l -1.07856,-2.19984 c 1.37401,-0.71902 2.89752,-1.07855 4.57054,-1.07856 1.60181,1e-5 2.82988,0.34886 3.68419,1.04653 0.8543,0.69769 1.28145,1.75845 1.28146,3.18229 l 0,7.95572 -2.27459,0 m -0.96109,-5.53163 -1.2601,0.0427 c -0.94686,0.0285 -1.65167,0.19934 -2.11441,0.51258 -0.46275,0.31325 -0.69413,0.79024 -0.69412,1.43096 -10e-6,0.91838 0.52681,1.37757 1.58046,1.37757 0.75463,0 1.35621,-0.21713 1.80472,-0.65141 0.45563,-0.43427 0.68344,-1.01092 0.68345,-1.72997 l 0,-0.98245"
           inkscape:connector-curvature="0" />
      </g>
    </g>
  </g>
</svg>
