<?xml version="1.0" encoding="UTF-8" standalone="no"?>
<!-- Created with Inkscape (http://www.inkscape.org/) -->

<svg
   xmlns:dc="http://purl.org/dc/elements/1.1/"
   xmlns:cc="http://creativecommons.org/ns#"
   xmlns:rdf="http://www.w3.org/1999/02/22-rdf-syntax-ns#"
   xmlns:svg="http://www.w3.org/2000/svg"
   xmlns="http://www.w3.org/2000/svg"
   xmlns:sodipodi="http://sodipodi.sourceforge.net/DTD/sodipodi-0.dtd"
   xmlns:inkscape="http://www.inkscape.org/namespaces/inkscape"
   width="15.992429"
   height="15.992429"
   id="svg2"
   version="1.1"
   inkscape:version="0.48.4 r9939"
   sodipodi:docname="role-target.svg">
  <title
     id="title2985">role icons</title>
  <defs
     id="defs4" />
  <sodipodi:namedview
     id="base"
     pagecolor="#ffffff"
     bordercolor="#666666"
     borderopacity="1.0"
     inkscape:pageopacity="0.0"
     inkscape:pageshadow="2"
     inkscape:zoom="11.2"
     inkscape:cx="35.043452"
     inkscape:cy="6.1061886"
     inkscape:document-units="px"
     inkscape:current-layer="layer1"
     showgrid="false"
     fit-margin-top="0"
     fit-margin-left="0"
     fit-margin-right="0"
     fit-margin-bottom="0"
     inkscape:window-width="1366"
     inkscape:window-height="711"
     inkscape:window-x="0"
     inkscape:window-y="28"
     inkscape:window-maximized="1" />
  <metadata
     id="metadata7">
    <rdf:RDF>
      <cc:Work
         rdf:about="">
        <dc:format>image/svg+xml</dc:format>
        <dc:type
           rdf:resource="http://purl.org/dc/dcmitype/StillImage" />
        <dc:title>role icons</dc:title>
        <dc:creator>
          <cc:Agent>
            <dc:title>Bastián Díaz</dc:title>
          </cc:Agent>
        </dc:creator>
        <dc:description>Iconos symbólicos para GNU PSPP, basados en los iconos del proyecto GNOME</dc:description>
        <cc:license
           rdf:resource="http://creativecommons.org/licenses/by-sa/3.0/" />
      </cc:Work>
      <cc:License
         rdf:about="http://creativecommons.org/licenses/by-sa/3.0/">
        <cc:permits
           rdf:resource="http://creativecommons.org/ns#Reproduction" />
        <cc:permits
           rdf:resource="http://creativecommons.org/ns#Distribution" />
        <cc:requires
           rdf:resource="http://creativecommons.org/ns#Notice" />
        <cc:requires
           rdf:resource="http://creativecommons.org/ns#Attribution" />
        <cc:permits
           rdf:resource="http://creativecommons.org/ns#DerivativeWorks" />
        <cc:requires
           rdf:resource="http://creativecommons.org/ns#ShareAlike" />
      </cc:License>
    </rdf:RDF>
  </metadata>
  <g
     inkscape:label="Capa 1"
     inkscape:groupmode="layer"
     id="layer1"
     transform="translate(-237.85896,-518.41395)">
    <g
       transform="translate(82.858961,494.41395)"
       id="g4166">
      <path
         transform="matrix(0.9691116,0,0,0.9691116,68.539162,1.5005274)"
         d="m 105,32 c 0,3.865993 -3.13401,7 -7,7 -3.865993,0 -7,-3.134007 -7,-7 0,-3.865993 3.134007,-7 7,-7 3.86599,0 7,3.134007 7,7 z"
         sodipodi:ry="7"
         sodipodi:rx="7"
         sodipodi:cy="32"
         sodipodi:cx="98"
         id="path3090-1"
         style="opacity:0.35;fill:none;stroke:#555753;stroke-width:1.453125;stroke-miterlimit:4;stroke-dasharray:none"
         sodipodi:type="arc" />
      <path
         transform="matrix(0.58676677,0,0,0.58676677,106.00896,13.735563)"
         d="m 105,32 c 0,3.865993 -3.13401,7 -7,7 -3.865993,0 -7,-3.134007 -7,-7 0,-3.865993 3.134007,-7 7,-7 3.86599,0 7,3.134007 7,7 z"
         sodipodi:ry="7"
         sodipodi:rx="7"
         sodipodi:cy="32"
         sodipodi:cx="98"
         id="path3090-9-0"
         style="opacity:0.35;fill:none;stroke:#555753;stroke-width:2;stroke-miterlimit:4;stroke-dasharray:none"
         sodipodi:type="arc" />
      <path
         inkscape:connector-curvature="0"
         id="path4161"
         d="m 155,24 0,1.9375 5.03125,5.0625 1.25,1.25 -2.5,-0.03125 c -0.35971,0.0064 -0.72034,0.159163 -0.96875,0.40625 l -0.96875,0.96875 0.9375,0.9375 c 0.2976,0.299236 0.62522,0.46126 1,0.46875 l 7.125,-0.03125 0.0625,-7.125 c -0.005,-0.374817 -0.13986,-0.700766 -0.4375,-1 l -0.96875,-0.96875 -0.96875,0.96875 c -0.24841,0.247087 -0.36669,0.640332 -0.375,1 l -0.0313,2.4375 L 163,30.09375 156.9375,24 155,24 z"
         style="font-size:medium;font-style:normal;font-variant:normal;font-weight:normal;font-stretch:normal;text-indent:0;text-align:start;text-decoration:none;line-height:normal;letter-spacing:normal;word-spacing:normal;text-transform:none;direction:ltr;block-progression:tb;writing-mode:lr-tb;text-anchor:start;baseline-shift:baseline;color:#000000;fill:#555753;fill-opacity:1;stroke:none;stroke-width:2;marker:none;visibility:visible;display:inline;overflow:visible;enable-background:accumulate;font-family:Sans;-inkscape-font-specification:Sans" />
    </g>
  </g>
</svg>
