<?xml version="1.0" encoding="UTF-8" standalone="no"?>
<!-- Created with Inkscape (http://www.inkscape.org/) -->

<svg
   xmlns:dc="http://purl.org/dc/elements/1.1/"
   xmlns:cc="http://creativecommons.org/ns#"
   xmlns:rdf="http://www.w3.org/1999/02/22-rdf-syntax-ns#"
   xmlns:svg="http://www.w3.org/2000/svg"
   xmlns="http://www.w3.org/2000/svg"
   xmlns:sodipodi="http://sodipodi.sourceforge.net/DTD/sodipodi-0.dtd"
   xmlns:inkscape="http://www.inkscape.org/namespaces/inkscape"
   sodipodi:docname="variable-string-scale.svg"
   height="16"
   id="svg7384"
   inkscape:version="0.48.4 r9939"
   version="1.1"
   width="16">
  <metadata
     id="metadata90">
    <rdf:RDF>
      <cc:Work
         rdf:about="">
        <dc:format>image/svg+xml</dc:format>
        <dc:type
           rdf:resource="http://purl.org/dc/dcmitype/StillImage" />
        <dc:title></dc:title>
        <dc:creator>
          <cc:Agent>
            <dc:title>GNU PSPP Community</dc:title>
          </cc:Agent>
        </dc:creator>
        <cc:license
           rdf:resource="http://creativecommons.org/licenses/by-sa/3.0/" />
      </cc:Work>
      <cc:License
         rdf:about="http://creativecommons.org/licenses/by-sa/3.0/">
        <cc:permits
           rdf:resource="http://creativecommons.org/ns#Reproduction" />
        <cc:permits
           rdf:resource="http://creativecommons.org/ns#Distribution" />
        <cc:requires
           rdf:resource="http://creativecommons.org/ns#Notice" />
        <cc:requires
           rdf:resource="http://creativecommons.org/ns#Attribution" />
        <cc:permits
           rdf:resource="http://creativecommons.org/ns#DerivativeWorks" />
        <cc:requires
           rdf:resource="http://creativecommons.org/ns#ShareAlike" />
      </cc:License>
    </rdf:RDF>
  </metadata>
  <sodipodi:namedview
     inkscape:bbox-nodes="true"
     inkscape:bbox-paths="true"
     bordercolor="#666666"
     borderopacity="1"
     inkscape:current-layer="layer12"
     inkscape:cx="15.451007"
     inkscape:cy="13.282054"
     gridtolerance="10"
     inkscape:guide-bbox="true"
     guidetolerance="10"
     id="namedview88"
     inkscape:object-nodes="false"
     inkscape:object-paths="false"
     objecttolerance="10"
     pagecolor="#3a3b39"
     inkscape:pageopacity="0"
     inkscape:pageshadow="2"
     showborder="false"
     showgrid="true"
     showguides="true"
     inkscape:snap-bbox="true"
     inkscape:snap-bbox-midpoints="false"
     inkscape:snap-global="true"
     inkscape:snap-grids="true"
     inkscape:snap-nodes="false"
     inkscape:snap-others="false"
     inkscape:snap-to-guides="true"
     inkscape:window-height="675"
     inkscape:window-maximized="1"
     inkscape:window-width="1366"
     inkscape:window-x="0"
     inkscape:window-y="28"
     inkscape:zoom="11.313709"
     inkscape:snap-bbox-edge-midpoints="true">
    <inkscape:grid
       empspacing="2"
       enabled="true"
       id="grid4866"
       originx="119.9998px"
       originy="650px"
       snapvisiblegridlinesonly="true"
       spacingx="1px"
       spacingy="1px"
       type="xygrid"
       visible="true" />
    <sodipodi:guide
       position="0,0"
       orientation="0,16"
       id="guide2995" />
    <sodipodi:guide
       position="16,0"
       orientation="-16,0"
       id="guide2997" />
    <sodipodi:guide
       position="16,16"
       orientation="0,-16"
       id="guide2999" />
    <sodipodi:guide
       position="0,16"
       orientation="16,0"
       id="guide3001" />
    <sodipodi:guide
       position="0,0"
       orientation="0,24"
       id="guide3995" />
    <sodipodi:guide
       position="24,0"
       orientation="-24,0"
       id="guide3997" />
    <sodipodi:guide
       position="24,24"
       orientation="0,-24"
       id="guide3999" />
    <sodipodi:guide
       position="0,24"
       orientation="24,0"
       id="guide4001" />
  </sodipodi:namedview>
  <defs
     id="defs7386" />
  <g
     inkscape:groupmode="layer"
     id="layer12"
     inkscape:label="GNU PSPP symbolic icon theme"
     style="display:inline"
     transform="translate(-121.0004,-867)">
    <rect
       y="863.99988"
       x="102.0004"
       height="24"
       width="24"
       id="rect18776"
       style="fill:none;stroke:none" />
    <path
       inkscape:connector-curvature="0"
       style="opacity:0.35;fill:#555753;fill-opacity:1;stroke:none;display:inline"
       d="m 132.38925,867.01494 c -0.0876,0.0173 -0.16817,0.038 -0.2484,0.091 -0.0402,0.0265 -0.10076,0.0325 -0.1355,0.0682 -0.01,0.0107 -0.0134,0.0348 -0.0226,0.0454 -0.0391,0.0307 -0.077,0.0539 -0.11292,0.091 l -10.56853,10.86893 c -0.036,0.0369 -0.0611,0.074 -0.0903,0.11369 -0.0107,0.01 -0.0127,0.0125 -0.0226,0.0227 -0.0348,0.0357 -0.0655,0.096 -0.0903,0.13644 -0.0993,0.16161 -0.12464,0.34883 -0.0677,0.52298 0.004,0.0185 -0.006,0.0277 0,0.0454 0.002,0.005 0.0203,0.0178 0.0226,0.0227 0.0288,0.077 0.073,0.14741 0.1355,0.20465 0.005,0.005 0.0177,0.0181 0.0226,0.0227 l 3.79384,3.47897 c 0.005,0.005 0.0178,0.0185 0.0226,0.0227 0.0625,0.0572 0.14503,0.0902 0.22583,0.11369 0.24467,0.0889 0.53145,0.0374 0.72263,-0.15917 0.01,-0.0107 0.0133,-0.012 0.0226,-0.0227 0.0391,-0.0307 0.077,-0.054 0.11292,-0.091 l 1.85175,-1.91003 c -0.17438,-0.49259 -0.29506,-1.02279 -0.33874,-1.56894 l -0.36131,0.36381 -1.60335,-1.45525 c -0.16196,-0.14851 -0.43418,-0.15729 -0.58714,0 l -0.36132,0.38655 c -0.15294,0.15727 -0.13938,0.41995 0.0226,0.56845 l 1.60335,1.45526 -0.88071,0.90954 -2.84538,-2.61491 9.91365,-10.20952 2.84538,2.61491 -0.85814,0.90953 -1.60334,-1.47799 c -0.16198,-0.1485 -0.43421,-0.13461 -0.58714,0.0227 l -0.36131,0.36382 c -0.15294,0.15727 -0.16196,0.41995 0,0.56845 l 1.4001,1.29609 c 0.64372,0.0421 1.24292,0.19209 1.80659,0.45477 l 1.5356,-1.56895 c 0.0359,-0.037 0.0385,-0.074 0.0677,-0.1137 0.0107,-0.01 0.0352,-0.0124 0.0452,-0.0227 0.1869,-0.19218 0.23208,-0.47595 0.1355,-0.70489 -0.0282,-0.0845 -0.0906,-0.1655 -0.15808,-0.22738 -0.005,-0.005 -0.0178,0.004 -0.0226,0 l -3.79383,-3.5017 c -0.005,-0.005 -0.018,0.004 -0.0226,0 -0.0624,-0.0572 -0.14502,-0.11299 -0.22582,-0.13643 -0.0248,-0.007 -0.0417,0.003 -0.0677,0 -0.0912,-0.0225 -0.18339,-0.0173 -0.27098,0 z m -3.40993,7.20804 c -0.10631,0.003 -0.2171,0.0351 -0.29357,0.1137 l -0.36133,0.38655 c -0.15293,0.15727 -0.13939,0.39721 0.0226,0.54572 l 0.15807,0.15917 c 0.24075,-0.39017 0.51668,-0.75213 0.83555,-1.0687 l -0.0677,-0.0454 c -0.081,-0.0742 -0.18731,-0.0939 -0.29357,-0.091 z m -1.17428,2.88777 -0.42907,0.43203 c -0.10194,0.10485 -0.0854,0.26481 0.0226,0.36382 l 0.22582,0.20464 c 0.0286,-0.34215 0.0993,-0.67798 0.18066,-1.00049 z"
       id="rect4003" />
    <g
       transform="matrix(0.74660834,0,0,0.70426322,-84.130477,399.85569)"
       style="font-size:21.87023544px;font-style:normal;font-variant:normal;font-weight:normal;font-stretch:normal;line-height:125%;letter-spacing:0px;word-spacing:0px;fill:#555753;fill-opacity:1;stroke:none;display:inline;font-family:Open Sans;-inkscape-font-specification:Open Sans"
       id="text3002">
      <path
         inkscape:connector-curvature="0"
         d="m 293.89992,685.81445 -0.63005,-1.62318 -0.0854,0 c -0.54819,0.69057 -1.11416,1.17111 -1.69793,1.44164 -0.57666,0.26341 -1.3313,0.39512 -2.26391,0.39512 -1.1462,0 -2.05034,-0.32748 -2.71242,-0.98245 -0.65497,-0.65497 -0.98246,-1.58759 -0.98246,-2.79785 0,-1.26722 0.44139,-2.19984 1.32418,-2.79786 0.8899,-0.60512 2.22831,-0.93973 4.01524,-1.00381 l 2.07169,-0.0641 0,-0.52326 c -10e-6,-1.21026 -0.61938,-1.81539 -1.85812,-1.8154 -0.95398,10e-6 -2.07525,0.28834 -3.36383,0.86498 l -1.07856,-2.19984 c 1.37401,-0.71902 2.89752,-1.07855 4.57054,-1.07856 1.60181,1e-5 2.82988,0.34886 3.68419,1.04653 0.8543,0.69769 1.28145,1.75845 1.28146,3.18229 l 0,7.95572 -2.27459,0 m -0.96109,-5.53163 -1.2601,0.0427 c -0.94686,0.0285 -1.65167,0.19934 -2.11441,0.51258 -0.46275,0.31325 -0.69413,0.79024 -0.69412,1.43096 -10e-6,0.91838 0.52681,1.37757 1.58046,1.37757 0.75463,0 1.35621,-0.21713 1.80472,-0.65141 0.45563,-0.43427 0.68344,-1.01092 0.68345,-1.72997 l 0,-0.98245"
         style="font-weight:bold;fill:#555753;-inkscape-font-specification:Open Sans Bold"
         id="path3007" />
    </g>
  </g>
</svg>
