<?xml version="1.0" encoding="UTF-8" standalone="no"?>
<!-- Created with Inkscape (http://www.inkscape.org/) -->

<svg
   xmlns:dc="http://purl.org/dc/elements/1.1/"
   xmlns:cc="http://creativecommons.org/ns#"
   xmlns:rdf="http://www.w3.org/1999/02/22-rdf-syntax-ns#"
   xmlns:svg="http://www.w3.org/2000/svg"
   xmlns="http://www.w3.org/2000/svg"
   xmlns:sodipodi="http://sodipodi.sourceforge.net/DTD/sodipodi-0.dtd"
   xmlns:inkscape="http://www.inkscape.org/namespaces/inkscape"
   id="svg7384"
   sodipodi:docname="variable-date-ordinal.svg"
   version="1.1"
   inkscape:version="0.48.4 r9939"
   height="16"
   width="16">
  <metadata
     id="metadata90">
    <rdf:RDF>
      <cc:Work
         rdf:about="">
        <dc:format>image/svg+xml</dc:format>
        <dc:type
           rdf:resource="http://purl.org/dc/dcmitype/StillImage" />
        <dc:title></dc:title>
        <dc:creator>
          <cc:Agent>
            <dc:title>GNU PSPP Community</dc:title>
          </cc:Agent>
        </dc:creator>
        <cc:license
           rdf:resource="http://creativecommons.org/licenses/by-sa/3.0/" />
      </cc:Work>
      <cc:License
         rdf:about="http://creativecommons.org/licenses/by-sa/3.0/">
        <cc:permits
           rdf:resource="http://creativecommons.org/ns#Reproduction" />
        <cc:permits
           rdf:resource="http://creativecommons.org/ns#Distribution" />
        <cc:requires
           rdf:resource="http://creativecommons.org/ns#Notice" />
        <cc:requires
           rdf:resource="http://creativecommons.org/ns#Attribution" />
        <cc:permits
           rdf:resource="http://creativecommons.org/ns#DerivativeWorks" />
        <cc:requires
           rdf:resource="http://creativecommons.org/ns#ShareAlike" />
      </cc:License>
    </rdf:RDF>
  </metadata>
  <sodipodi:namedview
     inkscape:cy="12.631228"
     pagecolor="#555753"
     borderopacity="1"
     showborder="false"
     inkscape:bbox-paths="false"
     guidetolerance="10"
     inkscape:object-paths="true"
     inkscape:window-width="1366"
     showguides="true"
     inkscape:object-nodes="true"
     inkscape:snap-bbox="true"
     inkscape:pageshadow="2"
     inkscape:guide-bbox="true"
     inkscape:snap-nodes="false"
     bordercolor="#666666"
     objecttolerance="10"
     id="namedview88"
     showgrid="true"
     inkscape:window-maximized="1"
     inkscape:window-x="0"
     inkscape:snap-global="true"
     inkscape:window-y="28"
     gridtolerance="10"
     inkscape:window-height="675"
     inkscape:snap-to-guides="true"
     inkscape:current-layer="layer9"
     inkscape:snap-bbox-midpoints="false"
     inkscape:zoom="16.000001"
     inkscape:cx="4.936301"
     inkscape:snap-grids="true"
     inkscape:pageopacity="0">
    <inkscape:grid
       spacingx="1px"
       spacingy="1px"
       id="grid4866"
       empspacing="2"
       enabled="true"
       type="xygrid"
       snapvisiblegridlinesonly="true"
       visible="true" />
    <sodipodi:guide
       position="0,0"
       orientation="0,16"
       id="guide2995" />
    <sodipodi:guide
       position="16,0"
       orientation="-16,0"
       id="guide2997" />
    <sodipodi:guide
       position="16,16"
       orientation="0,-16"
       id="guide2999" />
    <sodipodi:guide
       position="0,16"
       orientation="16,0"
       id="guide3001" />
    <sodipodi:guide
       position="0,0"
       orientation="0,24"
       id="guide3879" />
    <sodipodi:guide
       position="24,0"
       orientation="-24,0"
       id="guide3881" />
    <sodipodi:guide
       position="24,24"
       orientation="0,-24"
       id="guide3883" />
    <sodipodi:guide
       position="0,24"
       orientation="24,0"
       id="guide3885" />
  </sodipodi:namedview>
  <defs
     id="defs7386" />
  <g
     inkscape:label="GNU PSPP symbolic icon theme"
     transform="translate(-61.0002,-257)"
     inkscape:groupmode="layer"
     id="layer9"
     style="display:inline">
    <g
       id="g3014"
       transform="matrix(0.72727284,0,0,0.72727266,15.909135,74.431873)">
      <path
         inkscape:connector-curvature="0"
         id="path3920"
         d="m 77.96895,251.0312 c -1.0972,0 -1.96875,0.9028 -1.96875,2 l 0,0.8125 0,0.0625 0,1.09375 0,1.03125 0,3.96875 1.59375,0 1.09375,0 2.21875,0 c 0.03199,0 0.0625,-0.003 0.09375,0 l 0,-3.96875 0,-1.03125 0,-1.09375 0,-0.0625 0,-0.8125 c 0,-1.0972 -0.87155,-2 -1.96875,-2 l -1.0625,0 z m -7,5.96875 c -1.0972,0 -1.96875,0.87155 -1.96875,1.96875 0,0.0105 -1.61e-4,0.0208 0,0.0313 l 0,0.84375 0,1.15625 0,0.71875 0,7.4375 0,1.84375 2,0 0,-0.5625 0,-0.4375 0,-6.3125 0,-2.4375 c 0,-0.67684 0.48435,-1.25 1.09375,-1.25 l 1.90625,0 0,-0.15625 0,-0.84375 c 1.61e-4,-0.0104 0,-0.0208 0,-0.0313 0,-1.0972 -0.87155,-1.96875 -1.96875,-1.96875 l -1.0625,0 z m -7,5.03125 c -1.0972,0 -1.96875,0.9028 -1.96875,2 l 0,1.65625 0,0.0625 0,0.25 0,1.03125 0,2.6875 0,1.28125 5,0 0,-1.28125 0,-2.6875 0,-1.03125 0,-0.25 0,-0.0625 0,-1.65625 c 0,-1.0972 -0.87155,-2 -1.96875,-2 l -1.0625,0 z"
         style="font-size:medium;font-style:normal;font-variant:normal;font-weight:normal;font-stretch:normal;text-indent:0;text-align:start;text-decoration:none;line-height:normal;letter-spacing:normal;word-spacing:normal;text-transform:none;direction:ltr;block-progression:tb;writing-mode:lr-tb;text-anchor:start;baseline-shift:baseline;opacity:0.35;color:#000000;fill:#555753;fill-opacity:1;fill-rule:evenodd;stroke:none;stroke-width:3;marker:none;visibility:visible;display:inline;overflow:visible;enable-background:accumulate;font-family:Sans;-inkscape-font-specification:Sans" />
      <rect
         y="266.40482"
         x="80.000061"
         width="4.0000167"
         style="opacity:0.35;color:#000000;fill:#555753;fill-opacity:1;stroke:none;stroke-width:1;marker:none;visibility:visible;display:inline;overflow:visible;enable-background:accumulate"
         id="rect27810"
         height="3" />
      <path
         id="rect2994"
         d="m 74.093822,262.02982 c -0.6094,0 -1.09375,0.57307 -1.09375,1.25 l 0,2.4375 0,6.75 c 0.007,0.0551 0.01245,0.13793 0.03125,0.1875 0.0445,0.14782 0.15293,0.28366 0.28125,0.34375 0.008,0.003 0.02325,-0.003 0.03125,0 0.0491,0.0183 0.0703,0.0313 0.125,0.0313 0.0239,0.003 0.06895,0 0.09375,0 l 0.0625,0 9.8125,0 c 0.0855,0 0.17798,0.007 0.25,-0.0313 0.12395,-0.0581 0.229,-0.17482 0.28125,-0.3125 0.0345,-0.08 0.0313,-0.18633 0.0313,-0.28125 l 0,-8.59375 0,-0.53125 c -1e-4,-0.67693 -0.48435,-1.25 -1.09375,-1.25 l -2.21875,0 -1.09375,0 -2.1875,0 -1.09375,0 -2.21875,0 z m 0.25,2 1.8125,0 c 0.18975,0 0.34375,0.154 0.34375,0.34375 l 0,1.3125 c 0,0.18975 -0.154,0.34375 -0.34375,0.34375 l -1.8125,0 c -0.189748,0 -0.34375,-0.154 -0.34375,-0.34375 l 0,-1.3125 c 0,-0.18975 0.154002,-0.34375 0.34375,-0.34375 z m 3.28125,0 1.84375,0 c 0.18975,0 0.34375,0.154 0.34375,0.34375 l 0,1.3125 c 0,0.18975 -0.154,0.34375 -0.34375,0.34375 l -1.84375,0 c -0.18975,0 -0.34375,-0.154 -0.34375,-0.34375 l 0,-1.3125 c 0,-0.18975 0.154,-0.34375 0.34375,-0.34375 z m 3.21875,0 1.8125,0 c 0.18975,0 0.34375,0.154 0.34375,0.34375 l 0,1.3125 c 0,0.18975 -0.154,0.34375 -0.34375,0.34375 l -1.8125,0 c -0.18975,0 -0.34375,-0.154 -0.34375,-0.34375 l 0,-1.3125 c 0,-0.18975 0.154,-0.34375 0.34375,-0.34375 z m -6.5,3 1.8125,0 c 0.18975,0 0.34375,0.154 0.34375,0.34375 l 0,1.3125 c 0,0.18975 -0.154,0.34375 -0.34375,0.34375 l -1.8125,0 c -0.189748,0 -0.34375,-0.154 -0.34375,-0.34375 l 0,-1.3125 c 0,-0.18975 0.154002,-0.34375 0.34375,-0.34375 z m 3.28125,0 1.84375,0 c 0.18975,0 0.34375,0.154 0.34375,0.34375 l 0,1.3125 c 0,0.18975 -0.154,0.34375 -0.34375,0.34375 l -1.84375,0 c -0.18975,0 -0.34375,-0.154 -0.34375,-0.34375 l 0,-1.3125 c 0,-0.18975 0.154,-0.34375 0.34375,-0.34375 z m 3.21875,0 1.8125,0 c 0.18975,0 0.34375,0.154 0.34375,0.34375 l 0,1.3125 c 0,0.18975 -0.154,0.34375 -0.34375,0.34375 l -1.8125,0 c -0.18975,0 -0.34375,-0.154 -0.34375,-0.34375 l 0,-1.3125 c 0,-0.18975 0.154,-0.34375 0.34375,-0.34375 z m -6.5,3 1.8125,0 c 0.18975,0 0.34375,0.154 0.34375,0.34375 l 0,1.3125 c 0,0.18975 -0.154,0.34375 -0.34375,0.34375 l -1.8125,0 c -0.189748,0 -0.34375,-0.154 -0.34375,-0.34375 l 0,-1.3125 c 0,-0.18975 0.154002,-0.34375 0.34375,-0.34375 z m 3.28125,0 1.84375,0 c 0.18975,0 0.34375,0.154 0.34375,0.34375 l 0,1.3125 c 0,0.18975 -0.154,0.34375 -0.34375,0.34375 l -1.84375,0 c -0.18975,0 -0.34375,-0.154 -0.34375,-0.34375 l 0,-1.3125 c 0,-0.18975 0.154,-0.34375 0.34375,-0.34375 z m 3.21875,0 1.8125,0 c 0.18975,0 0.34375,0.154 0.34375,0.34375 l 0,1.3125 c 0,0.18975 -0.154,0.34375 -0.34375,0.34375 l -1.8125,0 c -0.18975,0 -0.34375,-0.154 -0.34375,-0.34375 l 0,-1.3125 c 0,-0.18975 0.154,-0.34375 0.34375,-0.34375 z"
         style="fill:#555753;fill-opacity:1;stroke:none;display:inline"
         inkscape:connector-curvature="0" />
    </g>
  </g>
</svg>
