<?xml version="1.0" encoding="UTF-8" standalone="no"?>
<!-- Created with Inkscape (http://www.inkscape.org/) -->

<svg
   xmlns:dc="http://purl.org/dc/elements/1.1/"
   xmlns:cc="http://creativecommons.org/ns#"
   xmlns:rdf="http://www.w3.org/1999/02/22-rdf-syntax-ns#"
   xmlns:svg="http://www.w3.org/2000/svg"
   xmlns="http://www.w3.org/2000/svg"
   xmlns:sodipodi="http://sodipodi.sourceforge.net/DTD/sodipodi-0.dtd"
   xmlns:inkscape="http://www.inkscape.org/namespaces/inkscape"
   id="svg7384"
   sodipodi:docname="data-select-case.svg"
   version="1.1"
   inkscape:version="0.48.4 r9939"
   height="16"
   width="16">
  <metadata
     id="metadata90">
    <rdf:RDF>
      <cc:Work
         rdf:about="">
        <dc:format>image/svg+xml</dc:format>
        <dc:type
           rdf:resource="http://purl.org/dc/dcmitype/StillImage" />
        <dc:title />
        <dc:creator>
          <cc:Agent>
            <dc:title>GNU PSPP Community</dc:title>
          </cc:Agent>
        </dc:creator>
        <cc:license
           rdf:resource="http://creativecommons.org/licenses/by-sa/3.0/" />
      </cc:Work>
      <cc:License
         rdf:about="http://creativecommons.org/licenses/by-sa/3.0/">
        <cc:permits
           rdf:resource="http://creativecommons.org/ns#Reproduction" />
        <cc:permits
           rdf:resource="http://creativecommons.org/ns#Distribution" />
        <cc:requires
           rdf:resource="http://creativecommons.org/ns#Notice" />
        <cc:requires
           rdf:resource="http://creativecommons.org/ns#Attribution" />
        <cc:permits
           rdf:resource="http://creativecommons.org/ns#DerivativeWorks" />
        <cc:requires
           rdf:resource="http://creativecommons.org/ns#ShareAlike" />
      </cc:License>
    </rdf:RDF>
  </metadata>
  <sodipodi:namedview
     inkscape:cy="7.173573"
     pagecolor="#555753"
     borderopacity="1"
     showborder="false"
     inkscape:bbox-paths="false"
     guidetolerance="10"
     inkscape:window-width="1366"
     showguides="true"
     inkscape:object-nodes="true"
     inkscape:snap-bbox="true"
     inkscape:pageshadow="2"
     inkscape:guide-bbox="true"
     inkscape:snap-nodes="true"
     bordercolor="#666666"
     objecttolerance="10"
     id="namedview88"
     showgrid="true"
     inkscape:window-maximized="1"
     inkscape:window-x="0"
     inkscape:snap-global="true"
     inkscape:window-y="28"
     gridtolerance="10"
     inkscape:window-height="675"
     inkscape:snap-to-guides="true"
     inkscape:current-layer="layer11"
     inkscape:zoom="16.000001"
     inkscape:cx="-4.764199"
     inkscape:snap-grids="true"
     inkscape:pageopacity="0"
     inkscape:bbox-nodes="true"
     inkscape:snap-bbox-midpoints="true">
    <inkscape:grid
       spacingx="1px"
       spacingy="1px"
       id="grid4866"
       empspacing="2"
       enabled="true"
       type="xygrid"
       snapvisiblegridlinesonly="true"
       visible="true" />
    <sodipodi:guide
       position="0,0"
       orientation="0,16"
       id="guide2992" />
    <sodipodi:guide
       position="16,16"
       orientation="1,0"
       id="guide2994" />
    <sodipodi:guide
       position="16,16"
       orientation="0,1"
       id="guide2996" />
    <sodipodi:guide
       position="0,16"
       orientation="16,0"
       id="guide2998" />
    <sodipodi:guide
       position="0,0"
       orientation="0,24"
       id="guide3890" />
    <sodipodi:guide
       position="24,0"
       orientation="-24,0"
       id="guide3892" />
    <sodipodi:guide
       position="24,24"
       orientation="0,-24"
       id="guide3894" />
    <sodipodi:guide
       position="0,24"
       orientation="24,0"
       id="guide3896" />
    <sodipodi:guide
       position="0,0"
       orientation="0,16"
       id="guide3119" />
    <sodipodi:guide
       position="16,0"
       orientation="-16,0"
       id="guide3121" />
    <sodipodi:guide
       position="16,16"
       orientation="0,-16"
       id="guide3123" />
    <sodipodi:guide
       position="0,16"
       orientation="16,0"
       id="guide3125" />
  </sodipodi:namedview>
  <defs
     id="defs7386" />
  <g
     inkscape:label="status"
     transform="translate(-62,-381)"
     inkscape:groupmode="layer"
     id="layer9"
     style="display:inline" />
  <g
     inkscape:label="devices"
     transform="translate(-62,-381)"
     inkscape:groupmode="layer"
     id="layer10" />
  <g
     inkscape:label="apps"
     transform="translate(-62,-381)"
     inkscape:groupmode="layer"
     id="layer11">
    <path
       style="opacity:0.35;fill:#555753;fill-opacity:1;stroke:none;display:inline"
       d="m 62,391 0,1 0,1 0,2 0,2 1.153846,0 3.461539,0 L 77,397 l 0,-1 0,-1 0,-4 -1.153846,0 0,1 -12.692308,0 0,-1 L 62,391 z m 1.153846,2 3.461539,0 0,2 -3.461539,0 0,-2 z m 4.615385,0 3.461538,0 0,2 -3.461538,0 0,-2 z m 4.615384,0 3.461539,0 0,2 -3.461539,0 0,-2 z"
       id="rect3025"
       inkscape:connector-curvature="0" />
    <path
       style="opacity:0.35;fill:#555753;fill-opacity:1;stroke:none;display:inline"
       d="M 63.153846,382 C 62.514615,382 62,382.446 62,383 l 0,2 0,2 0,1 0,1 1.153846,0 0,-1 12.692308,0 0,1 1.153846,0 0,-4 0,-1 0,-1 c 0,-0.554 -0.514615,-1 -1.153846,-1 l -12.692308,0 z m 0,3 3.461539,0 0,2 -3.461539,0 0,-2 z m 4.615385,0 3.461538,0 0,2 -3.461538,0 0,-2 z m 4.615384,0 3.461539,0 0,2 -3.461539,0 0,-2 z"
       id="rect3025-2-0"
       inkscape:connector-curvature="0" />
    <path
       style="fill:#555753;fill-opacity:1;stroke:none"
       d="M 62.576923,388 C 62.257308,388 62,388.223 62,388.5 l 0,3 c 0,0.277 0.257308,0.5 0.576923,0.5 l 13.846154,0 c 0.0799,0 0.147278,-0.006 0.216346,-0.0313 C 76.846628,391.89305 77,391.70775 77,391.5 l 0,-3 c 0,-0.277 -0.257308,-0.5 -0.576923,-0.5 l -13.846154,0 z m 0.576923,1 12.692308,0 0,2 -12.692308,0 0,-2 z"
       id="rect3101"
       inkscape:connector-curvature="0" />
  </g>
  <g
     inkscape:label="actions"
     transform="translate(-62,-381)"
     inkscape:groupmode="layer"
     id="layer12" />
  <g
     inkscape:label="places"
     transform="translate(-62,-381)"
     inkscape:groupmode="layer"
     id="layer13" />
  <g
     inkscape:label="mimetypes"
     transform="translate(-62,-381)"
     inkscape:groupmode="layer"
     id="layer14" />
  <g
     inkscape:label="emblems"
     transform="translate(-62,-381)"
     inkscape:groupmode="layer"
     id="layer15" />
</svg>
