<?xml version="1.0" encoding="UTF-8" standalone="no"?>
<!-- Created with Inkscape (http://www.inkscape.org/) -->

<svg
   xmlns:dc="http://purl.org/dc/elements/1.1/"
   xmlns:cc="http://creativecommons.org/ns#"
   xmlns:rdf="http://www.w3.org/1999/02/22-rdf-syntax-ns#"
   xmlns:svg="http://www.w3.org/2000/svg"
   xmlns="http://www.w3.org/2000/svg"
   xmlns:sodipodi="http://sodipodi.sourceforge.net/DTD/sodipodi-0.dtd"
   xmlns:inkscape="http://www.inkscape.org/namespaces/inkscape"
   sodipodi:docname="data-transpose.svg"
   height="16"
   id="svg7384"
   inkscape:version="0.48.4 r9939"
   version="1.1"
   width="16">
  <metadata
     id="metadata90">
    <rdf:RDF>
      <cc:Work
         rdf:about="">
        <dc:format>image/svg+xml</dc:format>
        <dc:type
           rdf:resource="http://purl.org/dc/dcmitype/StillImage" />
        <dc:title />
        <dc:creator>
          <cc:Agent>
            <dc:title>GNU PSPP Community</dc:title>
          </cc:Agent>
        </dc:creator>
        <cc:license
           rdf:resource="http://creativecommons.org/licenses/by-sa/3.0/" />
      </cc:Work>
      <cc:License
         rdf:about="http://creativecommons.org/licenses/by-sa/3.0/">
        <cc:permits
           rdf:resource="http://creativecommons.org/ns#Reproduction" />
        <cc:permits
           rdf:resource="http://creativecommons.org/ns#Distribution" />
        <cc:requires
           rdf:resource="http://creativecommons.org/ns#Notice" />
        <cc:requires
           rdf:resource="http://creativecommons.org/ns#Attribution" />
        <cc:permits
           rdf:resource="http://creativecommons.org/ns#DerivativeWorks" />
        <cc:requires
           rdf:resource="http://creativecommons.org/ns#ShareAlike" />
      </cc:License>
    </rdf:RDF>
  </metadata>
  <sodipodi:namedview
     inkscape:bbox-paths="false"
     bordercolor="#666666"
     borderopacity="1"
     inkscape:current-layer="layer11"
     inkscape:cx="5.5957042"
     inkscape:cy="9.3887247"
     gridtolerance="10"
     inkscape:guide-bbox="true"
     guidetolerance="10"
     id="namedview88"
     inkscape:object-nodes="false"
     inkscape:object-paths="false"
     objecttolerance="10"
     pagecolor="#555753"
     inkscape:pageopacity="0"
     inkscape:pageshadow="2"
     showborder="false"
     showgrid="true"
     showguides="true"
     inkscape:snap-bbox="true"
     inkscape:snap-bbox-midpoints="false"
     inkscape:snap-global="true"
     inkscape:snap-grids="true"
     inkscape:snap-nodes="true"
     inkscape:snap-others="false"
     inkscape:snap-to-guides="true"
     inkscape:window-height="675"
     inkscape:window-maximized="1"
     inkscape:window-width="1366"
     inkscape:window-x="0"
     inkscape:window-y="28"
     inkscape:zoom="16.82915"
     inkscape:bbox-nodes="true"
     inkscape:snap-bbox-edge-midpoints="true">
    <inkscape:grid
       empspacing="2"
       enabled="true"
       id="grid4866"
       snapvisiblegridlinesonly="true"
       spacingx="1px"
       spacingy="1px"
       type="xygrid"
       visible="true" />
    <sodipodi:guide
       position="0,0"
       orientation="0,16"
       id="guide2996" />
    <sodipodi:guide
       position="16,2"
       orientation="-16,0"
       id="guide2998" />
    <sodipodi:guide
       position="13,16"
       orientation="0,-16"
       id="guide3000" />
    <sodipodi:guide
       position="0,12"
       orientation="16,0"
       id="guide3002" />
    <sodipodi:guide
       position="0,0"
       orientation="0,24"
       id="guide4287" />
    <sodipodi:guide
       position="24,8"
       orientation="-24,0"
       id="guide4289" />
    <sodipodi:guide
       position="24,24"
       orientation="0,-24"
       id="guide4291" />
    <sodipodi:guide
       position="0,24"
       orientation="24,0"
       id="guide4293" />
  </sodipodi:namedview>
  <defs
     id="defs7386" />
  <g
     inkscape:groupmode="layer"
     id="layer9"
     inkscape:label="status"
     style="display:inline"
     transform="translate(-283,-649)" />
  <g
     inkscape:groupmode="layer"
     id="layer10"
     inkscape:label="devices"
     transform="translate(-283,-649)" />
  <g
     inkscape:groupmode="layer"
     id="layer11"
     inkscape:label="apps"
     transform="translate(-283,-649)">
    <g
       id="g3009"
       transform="matrix(0.90777361,0,0,0.96993806,26.473863,18.890691)">
      <path
         sodipodi:nodetypes="cccccscscscc"
         inkscape:connector-curvature="0"
         style="fill:#555753;fill-opacity:1;stroke:none;display:inline"
         d="m 288.59773,650.40589 2.80327,2.44478 c -0.99968,0.8382 -1.88631,1.571 -2.88947,2.40647 l 0.0312,-1.75858 -0.0175,-0.0153 c -0.6229,-0.17791 -1.44376,-0.0223 -2.09083,0.5166 -0.86275,0.71854 -0.9176,1.72453 -0.32451,2.24178 0.35526,0.22205 0.39466,0.72689 0.0773,0.99117 -0.31731,0.26427 -0.90863,0.21907 -1.16091,-0.0887 -1.26476,-1.10302 -1.01456,-2.91887 0.35683,-4.06102 0.88992,-0.74113 2.09652,-1.07797 3.18332,-0.91863 z"
         id="path7756-4" />
      <path
         sodipodi:nodetypes="cccccscscscc"
         inkscape:connector-curvature="0"
         style="fill:#555753;fill-opacity:1;stroke:none;display:inline"
         d="m 282.58823,656.19142 2.51386,2.72623 c 0.8619,-0.97222 1.6154,-1.83448 2.47448,-2.81007 l -1.80827,0.0304 -0.0158,-0.017 c -0.18294,-0.60578 -0.023,-1.40408 0.5312,-2.03337 0.73884,-0.83904 1.77326,-0.89238 2.30513,-0.31559 0.22832,0.34549 0.74743,0.38381 1.01917,0.0752 0.27174,-0.30858 0.22527,-0.88366 -0.0912,-1.129 -1.13419,-1.23 -3.00136,-0.98668 -4.17578,0.34703 -0.76207,0.86546 -1.10843,2.0389 -0.94458,3.09583 z"
         id="path7756-4-3" />
    </g>
    <path
       inkscape:connector-curvature="0"
       style="fill:#555753;fill-opacity:1;stroke:none;display:inline"
       d="m 292.25005,650 0,9.21875 -0.0313,0 -3.4375,0 -1.15625,0 -3.46875,0 -1.15625,0 0,1.15625 0,4.625 1.15625,0 8.0625,0 1.15625,0 4.625,0 0,-2.3125 0,-10.375 0,-1.15625 C 298.00005,650.51702 297.48303,650 296.8438,650 l -4.59375,0 z m 1.125,3.46875 3.46875,0 0,2.3125 -3.46875,0 0,-2.3125 z m 0,3.46875 3.46875,0 0,2.28125 -3.46875,0 0,-2.28125 z m -9.21875,3.4375 3.46875,0 0,2.3125 -3.46875,0 0,-2.3125 z m 4.625,0 3.4375,0 0,2.3125 -3.4375,0 0,-2.3125 z m 4.59375,0 3.46875,0 0,2.3125 -3.46875,0 0,-2.3125 z"
       id="rect3025-5" />
  </g>
  <g
     inkscape:groupmode="layer"
     id="layer13"
     inkscape:label="places"
     transform="translate(-283,-649)" />
  <g
     inkscape:groupmode="layer"
     id="layer14"
     inkscape:label="mimetypes"
     transform="translate(-283,-649)" />
  <g
     inkscape:groupmode="layer"
     id="layer15"
     inkscape:label="emblems"
     style="display:inline"
     transform="translate(-283,-649)" />
  <g
     inkscape:groupmode="layer"
     id="g71291"
     inkscape:label="emotes"
     style="display:inline"
     transform="translate(-283,-649)" />
  <g
     inkscape:groupmode="layer"
     id="g4953"
     inkscape:label="categories"
     style="display:inline"
     transform="translate(-283,-649)" />
  <g
     inkscape:groupmode="layer"
     id="layer12"
     inkscape:label="actions"
     style="display:inline"
     transform="translate(-283,-649)" />
</svg>
