<?xml version="1.0" encoding="UTF-8" standalone="no"?>
<!-- Created with Inkscape (http://www.inkscape.org/) -->

<svg
   xmlns:dc="http://purl.org/dc/elements/1.1/"
   xmlns:cc="http://creativecommons.org/ns#"
   xmlns:rdf="http://www.w3.org/1999/02/22-rdf-syntax-ns#"
   xmlns:svg="http://www.w3.org/2000/svg"
   xmlns="http://www.w3.org/2000/svg"
   xmlns:xlink="http://www.w3.org/1999/xlink"
   xmlns:sodipodi="http://sodipodi.sourceforge.net/DTD/sodipodi-0.dtd"
   xmlns:inkscape="http://www.inkscape.org/namespaces/inkscape"
   width="16"
   height="16"
   id="svg2"
   version="1.1"
   inkscape:version="0.48.4 r9939"
   sodipodi:docname="transform-compute.svg">
  <title
     id="title6197">GNU PSPP flat icon theme</title>
  <defs
     id="defs4">
    <linearGradient
       y2="98.883202"
       x2="118.3481"
       y1="81.1763"
       x1="106.0254"
       gradientUnits="userSpaceOnUse"
       id="linearGradient17659-4">
      <stop
         id="stop17661-0"
         style="stop-color:#da4522;stop-opacity:1;"
         offset="0" />
      <stop
         offset="0.02529254"
         style="stop-color:#953a24;stop-opacity:1;"
         id="stop17667-4" />
      <stop
         offset="0.18952666"
         style="stop-color:#c15236;stop-opacity:1;"
         id="stop17665-75" />
      <stop
         id="stop17669-0"
         style="stop-color:#6f1f09;stop-opacity:1"
         offset="0.94432735" />
      <stop
         id="stop17663-8"
         style="stop-color:#ba310b;stop-opacity:1"
         offset="1" />
    </linearGradient>
    <linearGradient
       id="linearGradient5257-3">
      <stop
         style="stop-color:#ef2929;stop-opacity:1;"
         offset="0"
         id="stop5259-87" />
      <stop
         style="stop-color:#f68383;stop-opacity:1;"
         offset="1"
         id="stop5261-1" />
    </linearGradient>
    <linearGradient
       id="linearGradient17864-9">
      <stop
         style="stop-color:#d1f7ab;stop-opacity:1;"
         offset="0"
         id="stop17866-9" />
      <stop
         style="stop-color:#85e923;stop-opacity:1;"
         offset="1"
         id="stop17868-41" />
    </linearGradient>
    <linearGradient
       id="linearGradient17317-98">
      <stop
         style="stop-color:#dde8f4;stop-opacity:1;"
         offset="0"
         id="stop17319-1" />
      <stop
         style="stop-color:#bad0e8;stop-opacity:1;"
         offset="1"
         id="stop17321-6" />
    </linearGradient>
    <linearGradient
       id="linearGradient17325-1">
      <stop
         style="stop-color:#729fcf;stop-opacity:1;"
         offset="0"
         id="stop17327-8" />
      <stop
         style="stop-color:#3f7ab9;stop-opacity:1;"
         offset="1"
         id="stop17329-8" />
    </linearGradient>
    <linearGradient
       id="linearGradient17339-7">
      <stop
         id="stop17341-6"
         offset="0"
         style="stop-color:#729fcf;stop-opacity:0;" />
      <stop
         id="stop17343-4"
         offset="1"
         style="stop-color:#3f7ab9;stop-opacity:1;" />
    </linearGradient>
    <linearGradient
       id="linearGradient17767-1">
      <stop
         id="stop17771-8"
         offset="0"
         style="stop-color:#edc200;stop-opacity:1;" />
      <stop
         id="stop17769-4"
         offset="1"
         style="stop-color:#c4a000;stop-opacity:1;" />
    </linearGradient>
    <linearGradient
       y2="98.883202"
       x2="118.3481"
       y1="81.1763"
       x1="106.0254"
       gradientUnits="userSpaceOnUse"
       id="linearGradient17659-4-4">
      <stop
         id="stop17661-0-5"
         style="stop-color:#da4522;stop-opacity:1;"
         offset="0" />
      <stop
         offset="0.02529254"
         style="stop-color:#953a24;stop-opacity:1;"
         id="stop17667-4-2" />
      <stop
         offset="0.18952666"
         style="stop-color:#c15236;stop-opacity:1;"
         id="stop17665-75-0" />
      <stop
         id="stop17669-0-2"
         style="stop-color:#6f1f09;stop-opacity:1"
         offset="0.94432735" />
      <stop
         id="stop17663-8-2"
         style="stop-color:#ba310b;stop-opacity:1"
         offset="1" />
    </linearGradient>
    <linearGradient
       id="linearGradient5257-3-4">
      <stop
         style="stop-color:#ef2929;stop-opacity:1;"
         offset="0"
         id="stop5259-87-7" />
      <stop
         style="stop-color:#f68383;stop-opacity:1;"
         offset="1"
         id="stop5261-1-9" />
    </linearGradient>
    <linearGradient
       id="linearGradient17864-9-9">
      <stop
         style="stop-color:#d1f7ab;stop-opacity:1;"
         offset="0"
         id="stop17866-9-5" />
      <stop
         style="stop-color:#85e923;stop-opacity:1;"
         offset="1"
         id="stop17868-41-4" />
    </linearGradient>
    <linearGradient
       id="linearGradient17317-98-6">
      <stop
         style="stop-color:#dde8f4;stop-opacity:1;"
         offset="0"
         id="stop17319-1-0" />
      <stop
         style="stop-color:#bad0e8;stop-opacity:1;"
         offset="1"
         id="stop17321-6-9" />
    </linearGradient>
    <linearGradient
       id="linearGradient17325-1-6">
      <stop
         style="stop-color:#729fcf;stop-opacity:1;"
         offset="0"
         id="stop17327-8-0" />
      <stop
         style="stop-color:#3f7ab9;stop-opacity:1;"
         offset="1"
         id="stop17329-8-6" />
    </linearGradient>
    <linearGradient
       id="linearGradient17339-7-9">
      <stop
         id="stop17341-6-2"
         offset="0"
         style="stop-color:#729fcf;stop-opacity:0;" />
      <stop
         id="stop17343-4-5"
         offset="1"
         style="stop-color:#3f7ab9;stop-opacity:1;" />
    </linearGradient>
    <linearGradient
       id="linearGradient17767-1-0">
      <stop
         id="stop17771-8-6"
         offset="0"
         style="stop-color:#edc200;stop-opacity:1;" />
      <stop
         id="stop17769-4-4"
         offset="1"
         style="stop-color:#c4a000;stop-opacity:1;" />
    </linearGradient>
    <linearGradient
       y2="98.883202"
       x2="118.3481"
       y1="81.1763"
       x1="106.0254"
       gradientUnits="userSpaceOnUse"
       id="linearGradient17659-4-4-7">
      <stop
         id="stop17661-0-5-4"
         style="stop-color:#da4522;stop-opacity:1;"
         offset="0" />
      <stop
         offset="0.02529254"
         style="stop-color:#953a24;stop-opacity:1;"
         id="stop17667-4-2-0" />
      <stop
         offset="0.18952666"
         style="stop-color:#c15236;stop-opacity:1;"
         id="stop17665-75-0-9" />
      <stop
         id="stop17669-0-2-6"
         style="stop-color:#6f1f09;stop-opacity:1"
         offset="0.94432735" />
      <stop
         id="stop17663-8-2-6"
         style="stop-color:#ba310b;stop-opacity:1"
         offset="1" />
    </linearGradient>
    <linearGradient
       id="linearGradient5257-3-4-2">
      <stop
         style="stop-color:#ef2929;stop-opacity:1;"
         offset="0"
         id="stop5259-87-7-3" />
      <stop
         style="stop-color:#f68383;stop-opacity:1;"
         offset="1"
         id="stop5261-1-9-9" />
    </linearGradient>
    <linearGradient
       id="linearGradient17864-9-9-0">
      <stop
         style="stop-color:#d1f7ab;stop-opacity:1;"
         offset="0"
         id="stop17866-9-5-1" />
      <stop
         style="stop-color:#85e923;stop-opacity:1;"
         offset="1"
         id="stop17868-41-4-3" />
    </linearGradient>
    <linearGradient
       id="linearGradient17317-98-6-2">
      <stop
         style="stop-color:#dde8f4;stop-opacity:1;"
         offset="0"
         id="stop17319-1-0-9" />
      <stop
         style="stop-color:#bad0e8;stop-opacity:1;"
         offset="1"
         id="stop17321-6-9-5" />
    </linearGradient>
    <linearGradient
       id="linearGradient17325-1-6-3">
      <stop
         style="stop-color:#729fcf;stop-opacity:1;"
         offset="0"
         id="stop17327-8-0-3" />
      <stop
         style="stop-color:#3f7ab9;stop-opacity:1;"
         offset="1"
         id="stop17329-8-6-7" />
    </linearGradient>
    <linearGradient
       id="linearGradient17339-7-9-0">
      <stop
         id="stop17341-6-2-7"
         offset="0"
         style="stop-color:#729fcf;stop-opacity:0;" />
      <stop
         id="stop17343-4-5-0"
         offset="1"
         style="stop-color:#3f7ab9;stop-opacity:1;" />
    </linearGradient>
    <linearGradient
       id="linearGradient17767-1-0-8">
      <stop
         id="stop17771-8-6-5"
         offset="0"
         style="stop-color:#edc200;stop-opacity:1;" />
      <stop
         id="stop17769-4-4-4"
         offset="1"
         style="stop-color:#c4a000;stop-opacity:1;" />
    </linearGradient>
    <linearGradient
       y2="98.883202"
       x2="118.3481"
       y1="81.1763"
       x1="106.0254"
       gradientUnits="userSpaceOnUse"
       id="linearGradient17659-7-6-1">
      <stop
         id="stop17661-8-4-5"
         style="stop-color:#da4522;stop-opacity:1;"
         offset="0" />
      <stop
         offset="0.02529254"
         style="stop-color:#953a24;stop-opacity:1;"
         id="stop17667-7-0-2" />
      <stop
         offset="0.18952666"
         style="stop-color:#c15236;stop-opacity:1;"
         id="stop17665-7-6-9" />
      <stop
         id="stop17669-1-7-1"
         style="stop-color:#6f1f09;stop-opacity:1"
         offset="0.94432735" />
      <stop
         id="stop17663-6-1-7"
         style="stop-color:#ba310b;stop-opacity:1"
         offset="1" />
    </linearGradient>
    <linearGradient
       id="linearGradient5257-5-8-9">
      <stop
         style="stop-color:#ef2929;stop-opacity:1;"
         offset="0"
         id="stop5259-8-8-1" />
      <stop
         style="stop-color:#f68383;stop-opacity:1;"
         offset="1"
         id="stop5261-4-5-2" />
    </linearGradient>
    <linearGradient
       id="linearGradient17864-3-1-8">
      <stop
         style="stop-color:#d1f7ab;stop-opacity:1;"
         offset="0"
         id="stop17866-3-1-8" />
      <stop
         style="stop-color:#85e923;stop-opacity:1;"
         offset="1"
         id="stop17868-4-0-2" />
    </linearGradient>
    <linearGradient
       id="linearGradient17317-9-7-0">
      <stop
         style="stop-color:#dde8f4;stop-opacity:1;"
         offset="0"
         id="stop17319-6-5-2" />
      <stop
         style="stop-color:#bad0e8;stop-opacity:1;"
         offset="1"
         id="stop17321-4-8-6" />
    </linearGradient>
    <linearGradient
       id="linearGradient17325-8-0-5">
      <stop
         style="stop-color:#729fcf;stop-opacity:1;"
         offset="0"
         id="stop17327-6-2-5" />
      <stop
         style="stop-color:#3f7ab9;stop-opacity:1;"
         offset="1"
         id="stop17329-2-4-8" />
    </linearGradient>
    <linearGradient
       id="linearGradient17767-8-8-9">
      <stop
         id="stop17771-2-4-1"
         offset="0"
         style="stop-color:#edc200;stop-opacity:1;" />
      <stop
         id="stop17769-3-1-3"
         offset="1"
         style="stop-color:#c4a000;stop-opacity:1;" />
    </linearGradient>
    <radialGradient
       inkscape:collect="always"
       xlink:href="#linearGradient17039-3-7-98-4"
       id="radialGradient6108"
       gradientUnits="userSpaceOnUse"
       gradientTransform="matrix(0.38094187,-0.01176371,0.00313628,0.12879596,279.1225,160.18858)"
       cx="55.640617"
       cy="193.2952"
       fx="55.640617"
       fy="193.2952"
       r="96.546875" />
    <linearGradient
       id="linearGradient17039-3-7-98-4"
       inkscape:collect="always">
      <stop
         id="stop17041-0-1-6-1"
         offset="0"
         style="stop-color:#ffffff;stop-opacity:1;" />
      <stop
         id="stop17043-1-0-3-4"
         offset="1"
         style="stop-color:#ffffff;stop-opacity:0;" />
    </linearGradient>
    <linearGradient
       y2="98.883202"
       x2="118.3481"
       y1="81.1763"
       x1="106.0254"
       gradientUnits="userSpaceOnUse"
       id="linearGradient17659-7-6-1-5">
      <stop
         id="stop17661-8-4-5-9"
         style="stop-color:#da4522;stop-opacity:1;"
         offset="0" />
      <stop
         offset="0.02529254"
         style="stop-color:#953a24;stop-opacity:1;"
         id="stop17667-7-0-2-2" />
      <stop
         offset="0.18952666"
         style="stop-color:#c15236;stop-opacity:1;"
         id="stop17665-7-6-9-5" />
      <stop
         id="stop17669-1-7-1-0"
         style="stop-color:#6f1f09;stop-opacity:1"
         offset="0.94432735" />
      <stop
         id="stop17663-6-1-7-6"
         style="stop-color:#ba310b;stop-opacity:1"
         offset="1" />
    </linearGradient>
    <linearGradient
       id="linearGradient5257-5-8-9-7">
      <stop
         style="stop-color:#ef2929;stop-opacity:1;"
         offset="0"
         id="stop5259-8-8-1-7" />
      <stop
         style="stop-color:#f68383;stop-opacity:1;"
         offset="1"
         id="stop5261-4-5-2-7" />
    </linearGradient>
    <linearGradient
       id="linearGradient17864-3-1-8-9">
      <stop
         style="stop-color:#d1f7ab;stop-opacity:1;"
         offset="0"
         id="stop17866-3-1-8-4" />
      <stop
         style="stop-color:#85e923;stop-opacity:1;"
         offset="1"
         id="stop17868-4-0-2-8" />
    </linearGradient>
    <linearGradient
       id="linearGradient17317-9-7-0-0">
      <stop
         style="stop-color:#dde8f4;stop-opacity:1;"
         offset="0"
         id="stop17319-6-5-2-0" />
      <stop
         style="stop-color:#bad0e8;stop-opacity:1;"
         offset="1"
         id="stop17321-4-8-6-3" />
    </linearGradient>
    <linearGradient
       id="linearGradient17325-8-0-5-2">
      <stop
         style="stop-color:#729fcf;stop-opacity:1;"
         offset="0"
         id="stop17327-6-2-5-9" />
      <stop
         style="stop-color:#3f7ab9;stop-opacity:1;"
         offset="1"
         id="stop17329-2-4-8-7" />
    </linearGradient>
    <linearGradient
       id="linearGradient17767-8-8-9-7">
      <stop
         id="stop17771-2-4-1-1"
         offset="0"
         style="stop-color:#edc200;stop-opacity:1;" />
      <stop
         id="stop17769-3-1-3-1"
         offset="1"
         style="stop-color:#c4a000;stop-opacity:1;" />
    </linearGradient>
    <radialGradient
       r="96.546875"
       fy="193.2952"
       fx="55.640617"
       cy="193.2952"
       cx="55.640617"
       gradientTransform="matrix(0.38094187,-0.01176371,0.00313628,0.12879596,279.1225,160.18858)"
       gradientUnits="userSpaceOnUse"
       id="radialGradient6241"
       xlink:href="#linearGradient17039-3-7-98-4-3"
       inkscape:collect="always" />
    <linearGradient
       id="linearGradient17039-3-7-98-4-3"
       inkscape:collect="always">
      <stop
         id="stop17041-0-1-6-1-8"
         offset="0"
         style="stop-color:#ffffff;stop-opacity:1;" />
      <stop
         id="stop17043-1-0-3-4-9"
         offset="1"
         style="stop-color:#ffffff;stop-opacity:0;" />
    </linearGradient>
    <linearGradient
       y2="98.883202"
       x2="118.3481"
       y1="81.1763"
       x1="106.0254"
       gradientUnits="userSpaceOnUse"
       id="linearGradient17659-7-6-1-5-4">
      <stop
         id="stop17661-8-4-5-9-1"
         style="stop-color:#da4522;stop-opacity:1;"
         offset="0" />
      <stop
         offset="0.02529254"
         style="stop-color:#953a24;stop-opacity:1;"
         id="stop17667-7-0-2-2-2" />
      <stop
         offset="0.18952666"
         style="stop-color:#c15236;stop-opacity:1;"
         id="stop17665-7-6-9-5-7" />
      <stop
         id="stop17669-1-7-1-0-7"
         style="stop-color:#6f1f09;stop-opacity:1"
         offset="0.94432735" />
      <stop
         id="stop17663-6-1-7-6-8"
         style="stop-color:#ba310b;stop-opacity:1"
         offset="1" />
    </linearGradient>
    <linearGradient
       id="linearGradient5257-5-8-9-7-8">
      <stop
         style="stop-color:#ef2929;stop-opacity:1;"
         offset="0"
         id="stop5259-8-8-1-7-1" />
      <stop
         style="stop-color:#f68383;stop-opacity:1;"
         offset="1"
         id="stop5261-4-5-2-7-5" />
    </linearGradient>
  </defs>
  <sodipodi:namedview
     id="base"
     pagecolor="#ffffff"
     bordercolor="#666666"
     borderopacity="1.0"
     inkscape:pageopacity="0.0"
     inkscape:pageshadow="2"
     inkscape:zoom="25.234873"
     inkscape:cx="7.3427354"
     inkscape:cy="7.0159417"
     inkscape:document-units="px"
     inkscape:current-layer="layer1"
     showgrid="true"
     showborder="false"
     fit-margin-top="0"
     fit-margin-left="0"
     fit-margin-right="0"
     fit-margin-bottom="0"
     inkscape:window-width="1366"
     inkscape:window-height="709"
     inkscape:window-x="0"
     inkscape:window-y="27"
     inkscape:window-maximized="1"
     inkscape:snap-bbox="true"
     inkscape:bbox-nodes="true">
    <inkscape:grid
       type="xygrid"
       id="grid6195"
       empspacing="5"
       visible="true"
       enabled="true"
       snapvisiblegridlinesonly="true"
       originx="-4.9999616px"
       originy="-6.9999994px" />
    <sodipodi:guide
       position="0,0"
       orientation="0,16"
       id="guide10748" />
    <sodipodi:guide
       position="16,0"
       orientation="-16,0"
       id="guide10750" />
    <sodipodi:guide
       position="16,16"
       orientation="0,-16"
       id="guide10752" />
    <sodipodi:guide
       position="0,16"
       orientation="16,0"
       id="guide10754" />
  </sodipodi:namedview>
  <metadata
     id="metadata7">
    <rdf:RDF>
      <cc:Work
         rdf:about="">
        <dc:format>image/svg+xml</dc:format>
        <dc:type
           rdf:resource="http://purl.org/dc/dcmitype/StillImage" />
        <dc:title>GNU PSPP flat icon theme</dc:title>
        <dc:description>Set de iconos derivados del proyecto GNOME icon theme symbolic.</dc:description>
        <dc:creator>
          <cc:Agent>
            <dc:title>GNU PSPP Community</dc:title>
          </cc:Agent>
        </dc:creator>
        <cc:license
           rdf:resource="http://creativecommons.org/licenses/by-sa/3.0/" />
        <dc:source></dc:source>
        <dc:subject>
          <rdf:Bag />
        </dc:subject>
        <dc:contributor>
          <cc:Agent>
            <dc:title>Bastián Díaz
Hugo Valencia</dc:title>
          </cc:Agent>
        </dc:contributor>
      </cc:Work>
      <cc:License
         rdf:about="http://creativecommons.org/licenses/by-sa/3.0/">
        <cc:permits
           rdf:resource="http://creativecommons.org/ns#Reproduction" />
        <cc:permits
           rdf:resource="http://creativecommons.org/ns#Distribution" />
        <cc:requires
           rdf:resource="http://creativecommons.org/ns#Notice" />
        <cc:requires
           rdf:resource="http://creativecommons.org/ns#Attribution" />
        <cc:permits
           rdf:resource="http://creativecommons.org/ns#DerivativeWorks" />
        <cc:requires
           rdf:resource="http://creativecommons.org/ns#ShareAlike" />
      </cc:License>
    </rdf:RDF>
  </metadata>
  <g
     inkscape:label="Capa 1"
     inkscape:groupmode="layer"
     id="layer1"
     transform="translate(-1938.7427,-892.77905)">
    <g
       transform="translate(1838.7427,343.77906)"
       style="display:inline"
       id="g6618"
       inkscape:export-filename="/home/raizen/Dropbox/Proyectos/GNU PSPP/PSPPire artwork/icons/actions/16x16/data-weight-cases.png"
       inkscape:export-xdpi="90"
       inkscape:export-ydpi="90">
      <rect
         ry="0.69294375"
         transform="matrix(-0.94579714,0.32475801,-0.25077377,-0.96804572,0,0)"
         y="-562.237"
         x="27.423368"
         height="1.3858875"
         width="14.784943"
         id="rect3007-9-8"
         style="fill:#555753;fill-opacity:1;stroke:none" />
      <path
         inkscape:connector-curvature="0"
         id="path3901-5-7-0"
         d="m 109.76355,558.60085 2.67487,-4.10683 2.67488,4.10683 z"
         style="fill:none;stroke:#555753;stroke-width:0.92434269;stroke-opacity:1" />
      <path
         sodipodi:open="true"
         sodipodi:end="3.1415927"
         sodipodi:start="0"
         transform="matrix(1.1749946,0,0,0.48276205,128.88429,553.28585)"
         d="m -11,12 c 0,2.209139 -1.343146,4 -3,4 -1.656854,0 -3,-1.790861 -3,-4 0,0 0,0 0,0"
         sodipodi:ry="4"
         sodipodi:rx="3"
         sodipodi:cy="12"
         sodipodi:cx="-14"
         id="path3961-7-1"
         style="fill:#555753;fill-opacity:1;stroke:none"
         sodipodi:type="arc" />
      <path
         inkscape:connector-curvature="0"
         id="path3901-5-73"
         d="m 101.09101,562.31838 3.37108,-4.75298 3.37108,4.75298 z"
         style="fill:none;stroke:#555753;stroke-width:1.11633635;stroke-opacity:1" />
      <path
         sodipodi:open="true"
         sodipodi:end="3.1415927"
         sodipodi:start="0"
         transform="matrix(1.4856537,0,0,0.53514395,125.25611,556.43769)"
         d="m -11,12 c 0,2.209139 -1.343146,4 -3,4 -1.656854,0 -3,-1.790861 -3,-4 0,0 0,0 0,0"
         sodipodi:ry="4"
         sodipodi:rx="3"
         sodipodi:cy="12"
         sodipodi:cx="-14"
         id="path3961-8"
         style="fill:#555753;fill-opacity:1;stroke:none"
         sodipodi:type="arc" />
      <path
         inkscape:connector-curvature="0"
         id="path3044-1"
         d="m 107.90658,550.00723 c 0.49442,0 0.90208,0.17081 0.90625,0.38728 l 0,0.0125 c 0,0.005 2.8e-4,0.007 0,0.0125 l 0,4.58868 -1.78125,0 0,-4.58868 c -2.9e-4,-0.005 0,-0.007 0,-0.0125 0,-0.21776 0.37761,-0.39902 0.875,-0.39902 z"
         style="fill:#555753;fill-opacity:1;stroke:none" />
      <rect
         ry="0.34435236"
         y="562.65558"
         x="100.03002"
         height="0.68870473"
         width="8.8072872"
         id="rect3014-8"
         style="fill:#555753;fill-opacity:1;stroke:none" />
      <rect
         ry="0.22900091"
         y="558.77094"
         x="109.00002"
         height="0.45800182"
         width="6.8492088"
         id="rect3014-7-0"
         style="fill:#555753;fill-opacity:1;stroke:none" />
      <path
         inkscape:connector-curvature="0"
         d="m 108.93472,559.11586 c -0.006,-0.007 -0.01,-0.0157 -0.014,-0.0241 -6.2e-4,-10e-4 -0.003,-0.003 -0.002,-0.003 0.006,-0.002 0.0121,-0.002 0.0178,-0.004 8.1e-4,-2.9e-4 -0.002,-0.002 -0.001,-0.002 0.0221,-0.003 0.0841,0.006 0.0663,-0.007 -10e-4,-6.1e-4 -0.002,-9.6e-4 -0.004,-9.8e-4 0,0 0.005,-7.8e-4 0.005,-7.8e-4 l 0,0 c 0.001,1.6e-4 0.002,5.7e-4 0.004,0.001 0.0216,0.0193 -0.12094,-8.4e-4 0.072,8e-5 9.3e-4,0 4.9e-4,0.002 0.001,0.002 0.007,10e-4 0.0143,3.3e-4 0.0212,0.002 10e-4,3.4e-4 10e-4,0.002 0.002,0.004 0.004,0.008 0.009,0.0152 0.0139,0.0228 0,0 -0.18242,0.01 -0.18242,0.01 z"
         id="path5888"
         style="fill:#4d4d4d;fill-opacity:1;fill-rule:evenodd;stroke:none" />
      <path
         inkscape:connector-curvature="0"
         d="m 109.15175,558.95119 c 0,0.008 0,0.0155 0,0.0232 0,0.003 0,0.005 0,0.008 -0.0104,-0.0169 -0.004,-0.007 -8.5e-4,-0.003 0.003,0.004 -0.006,-0.006 -0.003,-0.009 7.8e-4,-9.5e-4 8.3e-4,-7.3e-4 0.002,-7e-4 0.004,0.005 0.008,0.01 0.0105,0.0155 0.002,0.003 0.003,0.006 0.003,0.009 -0.002,-0.004 -0.005,-0.008 -0.007,-0.0126 -2.3e-4,-5.7e-4 -5.8e-4,-0.002 -2.2e-4,-0.002 0.004,0.005 0.005,0.007 0.007,0.0109 0.006,0.0115 -0.003,-0.002 -0.003,-0.007 0.0194,-0.0852 -0.30718,0.0989 -0.22525,0.12564 0.001,4.7e-4 0.002,0.002 0.003,0.003 0.001,-7.1e-4 3.2e-4,-0.002 2.4e-4,-0.004 -2.9e-4,-0.007 -0.002,-0.006 0.008,0.0122 0.001,0.002 -8.8e-4,0.003 -0.003,0.003 -0.006,3.9e-4 -0.005,-2.9e-4 -0.0101,-0.008 -0.002,-0.003 -0.002,-0.004 -0.004,-0.007 -3e-4,-5.8e-4 -10e-4,-0.002 -8.7e-4,-0.002 0.006,0.0118 0.002,0.004 2e-5,0.001 -9.7e-4,-0.001 -0.002,-0.003 -0.003,-0.004 -10e-4,-0.003 -0.009,-0.0192 9.9e-4,-4.3e-4 0.004,0.009 -0.004,-0.006 -0.005,-0.007 -0.002,-0.003 -0.003,-0.006 -0.003,-0.009 -3e-5,-2.2e-4 -1.8e-4,-8.3e-4 -8e-5,-6.4e-4 10e-4,0.002 0.0145,0.0259 0.002,0.007 -0.002,-0.004 -0.001,-0.002 -0.003,-0.005 0,0 0.22857,-0.12748 0.22857,-0.12748 l 0,0 c -9.2e-4,-10e-4 -3.3e-4,-4e-4 -0.002,-0.003 -0.0121,-0.0191 0.009,0.009 0.007,0.01 -5e-4,0.002 -0.002,-9.8e-4 -0.002,-0.002 9.1e-4,0.002 -0.006,-0.01 9.9e-4,5.1e-4 0.002,0.003 0.004,0.006 0.005,0.009 8e-5,1.5e-4 -2.9e-4,10e-4 -4.1e-4,10e-4 -0.009,-0.0135 -0.002,-0.003 -0.003,-0.005 3.9e-4,5.8e-4 7.8e-4,0.001 0.001,0.002 -1e-5,-3e-5 -0.006,-0.0111 0.004,0.006 0.002,0.003 -0.005,-0.007 -0.003,-0.005 -0.005,-0.008 -0.006,-0.007 4.8e-4,-0.007 0.003,9e-5 0.005,6.5e-4 0.007,0.003 0.008,0.0136 0.009,0.009 0.009,0.0167 0,0.002 -1.1e-4,0.004 6.4e-4,0.005 8.8e-4,0.003 3.1e-4,10e-4 0.002,0.006 7e-5,2.7e-4 5.3e-4,0.004 2e-4,0.004 -0.22693,0.13004 -0.15824,0.18109 -0.2291,0.12791 -0.002,-0.002 -0.0131,-0.0162 -0.008,-0.0116 0.002,0.003 0.004,0.006 0.005,0.008 5.6e-4,10e-4 -0.002,-0.002 -0.003,-0.002 -0.004,-0.005 -0.005,-0.007 -0.009,-0.0139 5.1e-4,-0.003 0.001,-5.5e-4 0.003,0.002 0.002,0.003 0.002,0.007 0.005,0.009 -10e-4,5e-5 -0.002,-10e-6 -0.003,-7e-4 -0.005,-0.002 -0.007,-0.006 -0.009,-0.0105 -0.004,-0.005 -8.1e-4,0.002 -0.007,-0.0112 0,-0.003 0,-0.005 0,-0.008 0,-0.008 0,-0.0154 0,-0.0232 0,0 0.23319,-0.11881 0.23319,-0.11881 z"
         id="path5904"
         style="fill:#4d4d4d;fill-opacity:1;fill-rule:evenodd;stroke:none" />
      <path
         inkscape:connector-curvature="0"
         d="m 109.03154,559.16318 c -0.0112,-0.007 -0.0228,-0.0144 -0.0335,-0.0226 -0.007,-0.004 -0.0132,-0.0102 -0.0189,-0.0163 -0.004,-0.004 -0.006,-0.008 -0.008,-0.0133 10e-4,10e-4 -0.003,-0.007 -0.001,-0.006 6.5e-4,4.2e-4 0.002,0.003 0.001,0.002 -0.002,-0.004 -0.004,-0.007 -0.007,-0.0104 -0.002,-0.002 -0.003,-0.004 -0.005,-0.005 10e-4,0.002 0.002,0.004 0.003,0.006 1.2e-4,5e-4 7.7e-4,0.002 3.5e-4,10e-4 -0.001,-9e-4 -0.002,-0.002 -0.003,-0.003 -7e-4,-5.5e-4 -0.004,-8.2e-4 -0.005,-0.001 -0.001,-2.9e-4 -0.003,6.4e-4 -0.005,0.001 -0.002,-0.003 -0.004,-0.005 -0.005,-0.008 -4.4e-4,-10e-4 -0.001,2.4e-4 -0.002,-9e-5 -0.002,-0.002 -0.005,-0.005 -0.007,-0.007 -0.003,-0.004 -0.006,-0.009 -0.007,-0.0132 -10e-4,-0.002 -0.002,-0.004 -0.002,-0.007 -9.8e-4,-0.01 0.004,0.005 0.006,0.008 -0.003,-0.005 -0.002,-0.003 -0.004,-0.006 0,0 0.22515,-0.13343 0.22515,-0.13343 l 0,0 c -6.4e-4,-0.002 -1.2e-4,-3.9e-4 -0.002,-0.004 0.004,0.005 0.009,0.0103 0.008,0.0169 2e-5,0.002 6e-5,0.003 -10e-4,10e-4 -0.001,4.6e-4 -0.002,-0.002 -1.6e-4,6e-5 0.001,10e-4 0.003,0.002 0.004,0.003 0.003,0.002 0.0103,0.0122 1.9e-4,-0.002 0.003,0.001 0.006,0.002 0.009,0.004 9e-4,3.5e-4 0.003,10e-4 0.004,10e-4 7e-4,3.5e-4 0.001,0.002 0.002,0.001 5.9e-4,-6.3e-4 -0.001,-0.002 -8.6e-4,-0.002 0.003,-0.002 0.005,0.0168 0.006,0.008 0.002,0.002 0.004,0.004 0.006,0.007 0.003,0.004 0.008,0.01 0.009,0.014 0.002,0.003 0.006,0.008 0.004,0.0116 -0.006,-0.006 -0.002,-0.004 7e-4,-3.2e-4 0.005,0.005 0.0109,0.009 0.0167,0.0127 0.0104,0.007 0.0211,0.0138 0.032,0.0202 0,0 -0.21944,0.14264 -0.21944,0.14264 z"
         id="path5906"
         style="fill:#4d4d4d;fill-opacity:1;fill-rule:evenodd;stroke:none" />
      <path
         inkscape:connector-curvature="0"
         d="m 108.92444,559.11795 c -0.003,-0.006 -0.007,-0.0101 -0.0109,-0.0153 -6.1e-4,-3.1e-4 -0.005,-0.01 -0.003,-0.005 -0.003,-0.002 -0.004,-0.006 -0.006,-0.009 0.001,0.002 0.002,0.004 0.002,0.006 -0.002,-0.002 -0.007,-0.01 -0.008,-0.015 -3.7e-4,-10e-4 -2.9e-4,-0.003 -2.9e-4,-0.004 6e-5,-10e-4 5e-5,-0.003 6e-5,-0.004 1e-5,-0.002 1e-5,-0.003 1e-5,-0.005 0,-9.1e-4 0,-0.002 0,-0.003 0,0 0.23319,-0.11882 0.23319,-0.11882 l 0,0 c 0,9.1e-4 0,0.002 0,0.003 0,0.002 0,0.003 10e-6,0.005 0,0.001 -10e-6,0.003 3e-5,0.004 -2e-5,10e-4 1.3e-4,0.002 -3.1e-4,0.003 -0.002,0.002 -0.0105,-0.0141 -0.006,-0.009 0.004,0.004 0.007,0.007 0.009,0.0122 -0.006,-0.006 -0.002,-0.004 3.6e-4,-3.4e-4 10e-4,0.002 0.002,0.004 0.004,0.006 0.004,0.006 0.009,0.0107 0.0118,0.0169 0,0 -0.22644,0.13124 -0.22644,0.13124 z"
         id="path5908"
         style="fill:#4d4d4d;fill-opacity:1;fill-rule:evenodd;stroke:none" />
      <path
         inkscape:connector-curvature="0"
         d="m 115.8681,558.98596 c 0.006,0.007 0.0125,0.0138 0.0178,0.0215 0.005,0.005 0.008,0.0108 0.0113,0.0165 0.002,0.003 0.003,0.006 0.005,0.008 -5.5e-4,7e-5 1e-5,-7.3e-4 1.3e-4,-5.8e-4 6.4e-4,8.3e-4 10e-4,0.002 0.002,0.003 0.003,0.006 0.007,0.011 0.0101,0.0166 0.003,0.004 0.005,0.009 0.006,0.0137 -10e-4,-0.002 -0.002,-0.004 -0.003,-0.006 -1.6e-4,-4.1e-4 -6.4e-4,-0.002 -4e-4,-10e-4 0.003,0.004 0.005,0.008 0.007,0.0127 0.002,0.004 0.004,0.007 0.006,0.0111 -6.6e-4,-0.001 0.002,0.003 0.001,0.003 -0.001,-0.002 -0.003,-0.006 -0.004,-0.008 -1.5e-4,-4.2e-4 -6e-4,-0.002 -3.2e-4,-10e-4 0.002,0.002 0.003,0.004 0.004,0.006 0.002,0.003 0.003,0.005 0.005,0.008 0,0 -0.22938,0.12602 -0.22938,0.12602 l 0,0 c 7.8e-4,7.6e-4 0.001,0.002 0.002,0.003 0.008,0.0137 -0.006,-0.007 -0.006,-0.008 -0.001,-0.004 -0.005,-0.008 -0.007,-0.0117 -7.4e-4,-0.002 -0.004,-0.01 0.002,10e-4 4.1e-4,8.3e-4 -10e-4,-10e-4 -0.002,-0.002 -0.003,-0.004 -0.003,-0.004 -0.006,-0.009 1e-5,-4e-5 2.7e-4,-7.7e-4 3.4e-4,-8.1e-4 1.1e-4,-5e-5 4e-4,2.2e-4 3.7e-4,10e-5 -5.2e-4,-0.002 -0.002,-0.004 -0.003,-0.006 -0.003,-0.005 -0.006,-0.01 -0.009,-0.0149 -0.003,-0.004 -0.005,-0.007 -0.007,-0.0113 -0.003,-0.005 -0.006,-0.0102 -0.0103,-0.0148 -0.006,-0.007 -0.0118,-0.0135 -0.0173,-0.0205 0,0 0.22465,-0.13427 0.22465,-0.13427 z"
         id="path5910"
         style="fill:#4d4d4d;fill-opacity:1;fill-rule:evenodd;stroke:none" />
      <path
         inkscape:connector-curvature="0"
         d="m 115.90368,559.01482 c 0.003,0.006 0.007,0.0111 0.0108,0.0164 0.001,-0.004 0.003,-7e-4 0.005,0.001 3.8e-4,3.3e-4 6.8e-4,10e-4 0.001,10e-4 4.4e-4,-1.9e-4 -2.1e-4,-9.9e-4 -8e-5,-10e-4 4.3e-4,-0.001 0.002,1.2e-4 0.002,-0.002 0.001,-7.5e-4 0.003,-10e-4 0.004,-10e-4 0.002,-1.3e-4 0.003,-5e-5 0.005,-4e-5 0.002,2e-5 0.004,2e-5 0.006,3e-5 0.005,0.005 0.009,0.0107 0.0127,0.0171 10e-4,0.003 0.002,0.006 0.003,0.009 1.3e-4,0.002 4e-5,0.003 2e-5,0.005 -1e-5,0.001 -4e-5,0.003 -4e-5,0.004 0,10e-4 0,0.003 0,0.004 -1.5e-4,0.003 0.002,0.005 -0.004,-0.006 6.9e-4,5.8e-4 0.001,10e-4 0.002,0.002 0.003,0.004 0.005,0.008 0.005,0.0126 6e-5,10e-4 4e-5,5.5e-4 5e-5,0.002 0,0 -0.23326,0.1187 -0.23326,0.1187 l 0,0 c 2e-5,-0.001 0,-5.4e-4 7e-5,-0.001 0.001,-0.003 0.004,0.005 0.005,0.006 -0.001,-0.001 -0.002,-0.002 -0.003,-0.003 -0.003,-0.003 -0.006,-0.007 -0.006,-0.0111 0,-10e-4 0,-0.003 0,-0.004 -1e-5,-0.001 -3e-5,-0.003 -2e-5,-0.004 0,-0.002 -8e-5,-0.003 8e-5,-0.005 1.3e-4,-10e-4 7.9e-4,-0.002 0.002,-7.9e-4 0.002,0.004 0.002,0.006 0.004,0.01 -0.002,0 -0.004,0 -0.006,3e-5 -0.002,2e-5 -0.003,1.3e-4 -0.005,10e-6 -0.002,-1.5e-4 -0.005,-8.5e-4 -0.007,-0.002 -0.003,-0.002 -0.007,-0.004 -0.01,-0.008 -2.6e-4,-9e-5 -5.3e-4,-3.7e-4 -7.8e-4,-2.5e-4 -2.3e-4,10e-5 2e-5,8e-4 -2.1e-4,7.1e-4 -0.003,-10e-4 -0.006,-0.007 -0.009,-0.009 -0.004,-0.006 -0.008,-0.012 -0.0119,-0.0183 0,0 0.22643,-0.13124 0.22643,-0.13124 z"
         id="path5912"
         style="fill:#4d4d4d;fill-opacity:1;fill-rule:evenodd;stroke:none" />
      <rect
         ry="1.0736192"
         transform="translate(20,-20.000008)"
         y="569"
         x="80"
         height="16"
         width="16"
         id="rect6616"
         style="opacity:0;fill:#555753;fill-opacity:1;fill-rule:evenodd;stroke:none" />
    </g>
  </g>
</svg>
