<?xml version="1.0" encoding="UTF-8" standalone="no"?>
<!-- Created with Inkscape (http://www.inkscape.org/) -->

<svg
   xmlns:dc="http://purl.org/dc/elements/1.1/"
   xmlns:cc="http://creativecommons.org/ns#"
   xmlns:rdf="http://www.w3.org/1999/02/22-rdf-syntax-ns#"
   xmlns:svg="http://www.w3.org/2000/svg"
   xmlns="http://www.w3.org/2000/svg"
   xmlns:sodipodi="http://sodipodi.sourceforge.net/DTD/sodipodi-0.dtd"
   xmlns:inkscape="http://www.inkscape.org/namespaces/inkscape"
   sodipodi:docname="data-sort-cases.svg"
   height="16"
   id="svg7384"
   inkscape:version="0.48.4 r9939"
   version="1.1"
   width="16">
  <metadata
     id="metadata90">
    <rdf:RDF>
      <cc:Work
         rdf:about="">
        <dc:format>image/svg+xml</dc:format>
        <dc:type
           rdf:resource="http://purl.org/dc/dcmitype/StillImage" />
        <dc:title />
        <dc:creator>
          <cc:Agent>
            <dc:title>GNU PSPP Community</dc:title>
          </cc:Agent>
        </dc:creator>
        <cc:license
           rdf:resource="http://creativecommons.org/licenses/by-sa/3.0/" />
      </cc:Work>
      <cc:License
         rdf:about="http://creativecommons.org/licenses/by-sa/3.0/">
        <cc:permits
           rdf:resource="http://creativecommons.org/ns#Reproduction" />
        <cc:permits
           rdf:resource="http://creativecommons.org/ns#Distribution" />
        <cc:requires
           rdf:resource="http://creativecommons.org/ns#Notice" />
        <cc:requires
           rdf:resource="http://creativecommons.org/ns#Attribution" />
        <cc:permits
           rdf:resource="http://creativecommons.org/ns#DerivativeWorks" />
        <cc:requires
           rdf:resource="http://creativecommons.org/ns#ShareAlike" />
      </cc:License>
    </rdf:RDF>
  </metadata>
  <sodipodi:namedview
     inkscape:bbox-paths="false"
     bordercolor="#666666"
     borderopacity="1"
     inkscape:current-layer="layer11"
     inkscape:cx="14.507676"
     inkscape:cy="9.6481777"
     gridtolerance="10"
     inkscape:guide-bbox="true"
     guidetolerance="10"
     id="namedview88"
     inkscape:object-nodes="false"
     inkscape:object-paths="false"
     objecttolerance="10"
     pagecolor="#555753"
     inkscape:pageopacity="0"
     inkscape:pageshadow="2"
     showborder="false"
     showgrid="true"
     showguides="true"
     inkscape:snap-bbox="true"
     inkscape:snap-bbox-midpoints="true"
     inkscape:snap-global="true"
     inkscape:snap-grids="true"
     inkscape:snap-nodes="false"
     inkscape:snap-others="false"
     inkscape:snap-to-guides="true"
     inkscape:window-height="675"
     inkscape:window-maximized="1"
     inkscape:window-width="1366"
     inkscape:window-x="0"
     inkscape:window-y="28"
     inkscape:zoom="16.000001"
     inkscape:bbox-nodes="true"
     inkscape:snap-bbox-edge-midpoints="true">
    <inkscape:grid
       empspacing="2"
       enabled="true"
       id="grid4866"
       snapvisiblegridlinesonly="true"
       spacingx="1px"
       spacingy="1px"
       type="xygrid"
       visible="true" />
    <sodipodi:guide
       position="0,0"
       orientation="0,16"
       id="guide2996" />
    <sodipodi:guide
       position="16,0"
       orientation="-16,0"
       id="guide2998" />
    <sodipodi:guide
       position="13,16"
       orientation="0,-16"
       id="guide3000" />
    <sodipodi:guide
       position="0,12"
       orientation="16,0"
       id="guide3002" />
    <sodipodi:guide
       position="0,0"
       orientation="0,24"
       id="guide4287" />
    <sodipodi:guide
       position="24,0"
       orientation="-24,0"
       id="guide4289" />
    <sodipodi:guide
       position="24,24"
       orientation="0,-24"
       id="guide4291" />
    <sodipodi:guide
       position="0,24"
       orientation="24,0"
       id="guide4293" />
  </sodipodi:namedview>
  <defs
     id="defs7386">
    <inkscape:path-effect
       is_visible="true"
       id="path-effect11866"
       effect="spiro" />
  </defs>
  <g
     inkscape:groupmode="layer"
     id="layer9"
     inkscape:label="status"
     style="display:inline"
     transform="translate(-283,-649)" />
  <g
     inkscape:groupmode="layer"
     id="layer10"
     inkscape:label="devices"
     transform="translate(-283,-649)" />
  <g
     inkscape:groupmode="layer"
     id="layer11"
     inkscape:label="apps"
     transform="translate(-283,-649)">
    <g
       transform="matrix(0,-1,1,0,-364.00002,987.06272)"
       id="g7284"
       style="display:inline">
      <path
         sodipodi:nodetypes="ccccccccscccccccc"
         inkscape:connector-curvature="0"
         id="path7286"
         d="m 326.06266,662.00001 -1,-10e-6 c -0.26531,-3e-5 -0.53058,-0.0931 -0.71875,-0.28124 l -2,-2.00001 -0.28126,-0.28125 0,-0.87499 0.28126,-0.28126 2,-1.99999 c 0.18818,-0.18821 0.45347,-0.28121 0.71876,-0.28121 l 1,-10e-6 0,1 c 4e-5,0.26531 -0.0931,0.53059 -0.28121,0.71877 l -1.28126,1.28124 1.28125,1.28125 c 0.18815,0.18817 0.28125,0.45345 0.28125,0.71875 l 0,1 z"
         style="font-size:medium;font-style:normal;font-variant:normal;font-weight:normal;font-stretch:normal;text-indent:0;text-align:start;text-decoration:none;line-height:normal;letter-spacing:normal;word-spacing:normal;text-transform:none;direction:ltr;block-progression:tb;writing-mode:lr-tb;text-anchor:start;color:#000000;fill:#555753;fill-opacity:1;stroke:none;stroke-width:2;marker:none;visibility:visible;display:inline;overflow:visible;enable-background:accumulate;font-family:Bitstream Vera Sans;-inkscape-font-specification:Bitstream Vera Sans" />
      <path
         style="color:#000000;fill:none;stroke:#555753;stroke-width:2;stroke-linecap:butt;stroke-linejoin:miter;stroke-miterlimit:4;stroke-opacity:1;stroke-dashoffset:0;marker:none;visibility:visible;display:inline;overflow:visible;enable-background:accumulate"
         d="m 337.0627,659 -13.0625,0"
         id="path7288"
         inkscape:connector-curvature="0"
         sodipodi:nodetypes="cc" />
    </g>
    <g
       transform="scale(0.97656493,1.0239975)"
       style="font-size:10.51728725px;font-style:normal;font-variant:normal;font-weight:normal;font-stretch:normal;line-height:125%;letter-spacing:0px;word-spacing:0px;fill:#555753;fill-opacity:1;stroke:none;font-family:Open Sans;-inkscape-font-specification:Open Sans"
       id="text3013">
      <path
         d="m 295.86544,640.62659 -0.30299,-0.78058 -0.0411,0 c -0.26363,0.33209 -0.5358,0.56318 -0.81653,0.69328 -0.27732,0.12667 -0.64022,0.19 -1.08871,0.19 -0.5512,0 -0.98599,-0.15748 -1.30439,-0.47245 -0.31497,-0.31497 -0.47245,-0.76346 -0.47245,-1.34547 0,-0.6094 0.21226,-1.05789 0.63679,-1.34548 0.42794,-0.291 1.07158,-0.45191 1.93091,-0.48273 l 0.99626,-0.0308 0,-0.25163 c 0,-0.58201 -0.29786,-0.87301 -0.89356,-0.87302 -0.45876,1e-5 -0.99798,0.13866 -1.61765,0.41597 l -0.51867,-1.05789 c 0.66075,-0.34578 1.3934,-0.51867 2.19795,-0.51868 0.7703,10e-6 1.36087,0.16776 1.77171,0.50327 0.41082,0.33552 0.61624,0.84563 0.61625,1.53035 l 0,3.82587 -1.09384,0 m -0.46219,-2.66014 -0.60598,0.0205 c -0.45534,0.0137 -0.79427,0.0959 -1.0168,0.2465 -0.22254,0.15064 -0.33381,0.38002 -0.3338,0.68815 -10e-6,0.44164 0.25334,0.66246 0.76003,0.66246 0.3629,0 0.6522,-0.10442 0.86789,-0.31326 0.2191,-0.20883 0.32866,-0.48615 0.32866,-0.83193 l 0,-0.47246"
         style="font-weight:bold;fill:#555753;-inkscape-font-specification:Open Sans Bold"
         id="path3037" />
    </g>
    <g
       transform="scale(1.051158,0.95133179)"
       style="font-size:11.03244686px;font-style:normal;font-variant:normal;font-weight:normal;font-stretch:normal;line-height:125%;letter-spacing:0px;word-spacing:0px;fill:#555753;fill-opacity:1;stroke:none;font-family:Open Sans;-inkscape-font-specification:Open Sans"
       id="text3017">
      <path
         d="m 275.88623,697.68457 -4.75667,0 0,-0.96965 2.79044,-3.79779 -2.62344,0 0,-1.25516 4.4927,0 0,1.06662 -2.71501,3.70082 2.81198,0 0,1.25516"
         style="font-weight:bold;fill:#555753;-inkscape-font-specification:Open Sans Bold"
         id="path3034" />
    </g>
  </g>
  <g
     inkscape:groupmode="layer"
     id="layer13"
     inkscape:label="places"
     transform="translate(-283,-649)" />
  <g
     inkscape:groupmode="layer"
     id="layer14"
     inkscape:label="mimetypes"
     transform="translate(-283,-649)" />
  <g
     inkscape:groupmode="layer"
     id="layer15"
     inkscape:label="emblems"
     style="display:inline"
     transform="translate(-283,-649)" />
  <g
     inkscape:groupmode="layer"
     id="g71291"
     inkscape:label="emotes"
     style="display:inline"
     transform="translate(-283,-649)" />
  <g
     inkscape:groupmode="layer"
     id="g4953"
     inkscape:label="categories"
     style="display:inline"
     transform="translate(-283,-649)" />
  <g
     inkscape:groupmode="layer"
     id="layer12"
     inkscape:label="actions"
     style="display:inline"
     transform="translate(-283,-649)" />
</svg>
