<?xml version="1.0" encoding="UTF-8" standalone="no"?>
<!-- Created with Inkscape (http://www.inkscape.org/) -->

<svg
   xmlns:dc="http://purl.org/dc/elements/1.1/"
   xmlns:cc="http://creativecommons.org/ns#"
   xmlns:rdf="http://www.w3.org/1999/02/22-rdf-syntax-ns#"
   xmlns:svg="http://www.w3.org/2000/svg"
   xmlns="http://www.w3.org/2000/svg"
   xmlns:sodipodi="http://sodipodi.sourceforge.net/DTD/sodipodi-0.dtd"
   xmlns:inkscape="http://www.inkscape.org/namespaces/inkscape"
   width="16"
   height="16"
   id="svg3991"
   version="1.1"
   inkscape:version="0.48.4 r9939"
   sodipodi:docname="file-export-data.svg">
  <title
     id="title4018">GNU PSPP flat icon set</title>
  <defs
     id="defs3993" />
  <sodipodi:namedview
     id="base"
     pagecolor="#ffffff"
     bordercolor="#666666"
     borderopacity="1.0"
     inkscape:pageopacity="0.0"
     inkscape:pageshadow="2"
     inkscape:zoom="22.4"
     inkscape:cx="8"
     inkscape:cy="7.9640184"
     inkscape:document-units="px"
     inkscape:current-layer="layer1"
     showgrid="true"
     inkscape:window-width="683"
     inkscape:window-height="709"
     inkscape:window-x="0"
     inkscape:window-y="27"
     inkscape:window-maximized="0"
     showborder="false"
     inkscape:snap-bbox="true">
    <inkscape:grid
       type="xygrid"
       id="grid2983"
       empspacing="5"
       visible="true"
       enabled="true"
       snapvisiblegridlinesonly="true" />
    <sodipodi:guide
       position="0,0"
       orientation="0,16"
       id="guide2985" />
    <sodipodi:guide
       position="16,0"
       orientation="-16,0"
       id="guide2987" />
    <sodipodi:guide
       position="16,16"
       orientation="0,-16"
       id="guide2989" />
    <sodipodi:guide
       position="0,16"
       orientation="16,0"
       id="guide2991" />
  </sodipodi:namedview>
  <metadata
     id="metadata3996">
    <rdf:RDF>
      <cc:Work
         rdf:about="">
        <dc:format>image/svg+xml</dc:format>
        <dc:type
           rdf:resource="http://purl.org/dc/dcmitype/StillImage" />
        <dc:title>GNU PSPP flat icon set</dc:title>
        <cc:license
           rdf:resource="http://creativecommons.org/licenses/by-sa/3.0/" />
        <dc:creator>
          <cc:Agent>
            <dc:title>Bastián Díaz</dc:title>
          </cc:Agent>
        </dc:creator>
        <dc:source>https://github.com/bedf/PSPPire-artwork</dc:source>
      </cc:Work>
      <cc:License
         rdf:about="http://creativecommons.org/licenses/by-sa/3.0/">
        <cc:permits
           rdf:resource="http://creativecommons.org/ns#Reproduction" />
        <cc:permits
           rdf:resource="http://creativecommons.org/ns#Distribution" />
        <cc:requires
           rdf:resource="http://creativecommons.org/ns#Notice" />
        <cc:requires
           rdf:resource="http://creativecommons.org/ns#Attribution" />
        <cc:permits
           rdf:resource="http://creativecommons.org/ns#DerivativeWorks" />
        <cc:requires
           rdf:resource="http://creativecommons.org/ns#ShareAlike" />
      </cc:License>
    </rdf:RDF>
  </metadata>
  <g
     inkscape:label="Layer 1"
     inkscape:groupmode="layer"
     id="layer1"
     transform="translate(0,-1036.3622)">
    <g
       transform="translate(440,915.00002)"
       style="display:inline"
       id="g3904">
      <rect
         style="opacity:0;fill:#ffffff;fill-opacity:1;stroke:none;display:inline"
         id="rect4861"
         width="16"
         height="16.000017"
         x="-440"
         y="121.36218" />
      <path
         id="rect4390-9"
         d="m -435.625,130.375 a 0.49861137,0.522077 0 0 0 -0.28125,0.21875 l -0.96875,1.5625 a 0.49861137,0.522077 0 0 0 -0.125,0.21875 0.49861137,0.522077 0 0 0 0,0.0313 l 0,0.25 a 0.49861137,0.522077 0 0 0 0,0.0313 l 0,3.6875 10,0 0,-3.6875 0,-0.3125 a 0.49861137,0.522077 0 0 0 -0.0937,-0.21875 l -1,-1.5625 a 0.49861137,0.522077 0 0 0 -0.5,-0.21875 0.49861137,0.522077 0 0 0 -0.0625,0 0.49861137,0.522077 0 0 0 -0.25,0.8125 l 0.75,1.1875 -7.6875,0 0.75,-1.1875 a 0.49861137,0.522077 0 0 0 -0.5,-0.8125 0.49861137,0.522077 0 0 0 -0.0313,0 z m 5.125,3.40625 c 0.26418,0 0.50373,0.26709 0.5,0.53125 l 0,0.0625 c 0,0.54535 -0.45465,1 -1,1 l -2,0 c -0.54535,0 -1,-0.45465 -1,-1 l 0,-0.0625 c -0.0108,-0.21706 0.13723,-0.43234 0.34375,-0.5 0.0208,-0.001 0.0417,-0.001 0.0625,0 0.29096,-0.0556 0.59898,0.20383 0.59375,0.5 l 0,0.0625 2,0 0,-0.0625 c -0.004,-0.26416 0.23582,-0.53125 0.5,-0.53125 z"
         style="font-size:medium;font-style:normal;font-variant:normal;font-weight:normal;font-stretch:normal;text-indent:0;text-align:start;text-decoration:none;line-height:normal;letter-spacing:normal;word-spacing:normal;text-transform:none;direction:ltr;block-progression:tb;writing-mode:lr-tb;text-anchor:start;baseline-shift:baseline;color:#bebebe;fill:#555753;fill-opacity:1;stroke:none;stroke-width:1;marker:none;visibility:visible;display:inline;overflow:visible;enable-background:accumulate;font-family:Sans;-inkscape-font-specification:Sans"
         inkscape:connector-curvature="0" />
      <path
         inkscape:connector-curvature="0"
         d="m -433,122.36218 0,5.5625 -1.28125,-1.28125 c -0.18816,-0.18815 -0.45345,-0.28124 -0.71875,-0.28125 l -1,0 0,1 c 10e-6,0.2653 0.0931,0.53058 0.28125,0.71875 l 3,3 0.28125,0.28125 0.875,0 0.28125,-0.28125 3,-3 c 0.18819,-0.18817 0.28124,-0.45345 0.28125,-0.71875 l 0,-1 -1,0 c -0.2653,1e-5 -0.53059,0.0931 -0.71875,0.28125 l -1.28125,1.28125 0,-5.5625 z"
         id="path3613"
         sodipodi:nodetypes="ccccccccccccccccccc"
         style="font-size:medium;font-style:normal;font-variant:normal;font-weight:normal;font-stretch:normal;text-indent:0;text-align:start;text-decoration:none;line-height:normal;letter-spacing:normal;word-spacing:normal;text-transform:none;direction:ltr;block-progression:tb;writing-mode:lr-tb;text-anchor:start;color:#000000;fill:#555753;fill-opacity:1;stroke:none;stroke-width:2;marker:none;visibility:visible;display:inline;overflow:visible;enable-background:accumulate;font-family:Bitstream Vera Sans;-inkscape-font-specification:Bitstream Vera Sans" />
    </g>
  </g>
</svg>
