<?xml version="1.0" encoding="UTF-8" standalone="no"?>
<!-- Created with Inkscape (http://www.inkscape.org/) -->

<svg
   xmlns:dc="http://purl.org/dc/elements/1.1/"
   xmlns:cc="http://creativecommons.org/ns#"
   xmlns:rdf="http://www.w3.org/1999/02/22-rdf-syntax-ns#"
   xmlns:svg="http://www.w3.org/2000/svg"
   xmlns="http://www.w3.org/2000/svg"
   xmlns:sodipodi="http://sodipodi.sourceforge.net/DTD/sodipodi-0.dtd"
   xmlns:inkscape="http://www.inkscape.org/namespaces/inkscape"
   id="svg7384"
   sodipodi:docname="file-saveas-document.svg"
   version="1.1"
   inkscape:version="0.48.4 r9939"
   height="16"
   width="16"
   inkscape:export-filename="/home/raizen/Escritorio/PSPP icon original/Carpeta sin título/goto-case.png"
   inkscape:export-xdpi="90"
   inkscape:export-ydpi="90">
  <metadata
     id="metadata90">
    <rdf:RDF>
      <cc:Work
         rdf:about="">
        <dc:format>image/svg+xml</dc:format>
        <dc:type
           rdf:resource="http://purl.org/dc/dcmitype/StillImage" />
        <dc:title />
        <dc:creator>
          <cc:Agent>
            <dc:title>GNU PSPP Community</dc:title>
          </cc:Agent>
        </dc:creator>
        <cc:license
           rdf:resource="http://creativecommons.org/licenses/by-sa/3.0/" />
      </cc:Work>
      <cc:License
         rdf:about="http://creativecommons.org/licenses/by-sa/3.0/">
        <cc:permits
           rdf:resource="http://creativecommons.org/ns#Reproduction" />
        <cc:permits
           rdf:resource="http://creativecommons.org/ns#Distribution" />
        <cc:requires
           rdf:resource="http://creativecommons.org/ns#Notice" />
        <cc:requires
           rdf:resource="http://creativecommons.org/ns#Attribution" />
        <cc:permits
           rdf:resource="http://creativecommons.org/ns#DerivativeWorks" />
        <cc:requires
           rdf:resource="http://creativecommons.org/ns#ShareAlike" />
      </cc:License>
    </rdf:RDF>
  </metadata>
  <sodipodi:namedview
     inkscape:cy="0.56037179"
     pagecolor="#555753"
     borderopacity="1"
     showborder="false"
     inkscape:bbox-paths="false"
     guidetolerance="10"
     inkscape:object-paths="true"
     inkscape:window-width="1366"
     showguides="true"
     inkscape:object-nodes="true"
     inkscape:snap-bbox="true"
     inkscape:pageshadow="2"
     inkscape:guide-bbox="true"
     inkscape:snap-nodes="false"
     bordercolor="#666666"
     objecttolerance="10"
     id="namedview88"
     showgrid="true"
     inkscape:window-maximized="1"
     inkscape:window-x="0"
     inkscape:snap-global="true"
     inkscape:window-y="28"
     gridtolerance="10"
     inkscape:window-height="675"
     inkscape:snap-others="false"
     inkscape:snap-to-guides="true"
     inkscape:current-layer="layer12"
     inkscape:snap-bbox-midpoints="false"
     inkscape:zoom="14.852481"
     inkscape:cx="18.042758"
     inkscape:snap-grids="true"
     inkscape:pageopacity="0"
     inkscape:bbox-nodes="false"
     inkscape:snap-bbox-edge-midpoints="true">
    <inkscape:grid
       spacingx="1px"
       spacingy="1px"
       id="grid4866"
       empspacing="2"
       enabled="true"
       type="xygrid"
       snapvisiblegridlinesonly="true"
       visible="true" />
    <sodipodi:guide
       position="0,0"
       orientation="0,16.085251"
       id="guide3001" />
    <sodipodi:guide
       position="24,16.798541"
       orientation="-16.02426,0"
       id="guide3003" />
    <sodipodi:guide
       position="15.620287,24"
       orientation="0,-16.085251"
       id="guide3005" />
    <sodipodi:guide
       position="0,16.02426"
       orientation="16.02426,0"
       id="guide3007" />
    <sodipodi:guide
       position="0,0"
       orientation="0,24"
       id="guide3022" />
    <sodipodi:guide
       position="24,0"
       orientation="-24,0"
       id="guide3024" />
    <sodipodi:guide
       position="24,24"
       orientation="0,-24"
       id="guide3026" />
    <sodipodi:guide
       position="0,24"
       orientation="24,0"
       id="guide3028" />
    <sodipodi:guide
       position="0,0"
       orientation="0,16"
       id="guide3814" />
    <sodipodi:guide
       position="16,0"
       orientation="-16,0"
       id="guide3816" />
    <sodipodi:guide
       position="16,16"
       orientation="0,-16"
       id="guide3818" />
    <sodipodi:guide
       position="0,16"
       orientation="16,0"
       id="guide3820" />
  </sodipodi:namedview>
  <defs
     id="defs7386" />
  <g
     inkscape:label="open-document"
     transform="translate(-60.952227,-647)"
     inkscape:groupmode="layer"
     id="layer12"
     style="display:inline">
    <path
       sodipodi:nodetypes="sssscccccssssssssssssscccccccccccc"
       inkscape:connector-curvature="0"
       id="path3316-7-8-3"
       d="m 74.072229,651.36534 c 0.709117,0 1.279998,0.51896 1.279998,1.1636 l 0,9.30748 c 0,0.64462 -0.570881,1.16358 -1.280001,1.16358 l -0.64,0 0,-5.23615 -8.959999,0 0,5.23615 -0.64,0 c -0.70912,0 -1.28,-0.51896 -1.28,-1.16358 l 3e-6,-9.30748 c 0,-0.64464 0.57088,-1.1636 1.28,-1.1636 z m -1.919999,1.74651 -6.400001,0 c -0.70912,0 -1.28,0.51897 -1.28,1.16359 l 0,0.58067 c 0,0.64463 0.57088,1.16359 1.28,1.16359 l 6.400001,0 c 0.709119,0 1.279999,-0.51896 1.279999,-1.16359 l 0,-0.58067 c 0,-0.64462 -0.57088,-1.16359 -1.279999,-1.16359 z m -3e-6,5.81558 0,4.07257 -6.4,0 0,-4.07257 1.28,0 1.92,0 z m -3.84,1.16359 -1.28,0 0,1.7454 1.28,0 z"
       style="font-size:medium;font-style:normal;font-variant:normal;font-weight:normal;font-stretch:normal;text-indent:0;text-align:start;text-decoration:none;line-height:normal;letter-spacing:normal;word-spacing:normal;text-transform:none;direction:ltr;block-progression:tb;writing-mode:lr-tb;text-anchor:start;baseline-shift:baseline;color:#000000;fill:#555753;fill-opacity:1;stroke:none;stroke-width:1.99999988;marker:none;visibility:visible;display:inline;overflow:visible;enable-background:accumulate;font-family:Sans;-inkscape-font-specification:Sans" />
    <path
       style="fill:#555753;fill-opacity:1;stroke:none;display:inline"
       d="m 62.027227,647 c -0.601596,0 -1.075,0.4304 -1.075,0.97735 l 0,1.68196 c 0,0.54695 0.473404,0.97735 1.075,0.97735 l 13.85,0 c 0.601596,0 1.075,-0.4304 1.075,-0.97735 l 0,-1.68196 c 0,-0.54695 -0.473404,-0.97735 -1.075,-0.97735 l -13.85,0 z m 0.625,0.72734 12.6,0 c 0.50477,0 0.9,0.35932 0.9,0.81824 l 0,0.59096 c 0,0.45892 -0.39523,0.84098 -0.9,0.84098 l -12.6,0 c -0.50477,0 -0.9,-0.38206 -0.9,-0.84098 l 0,-0.59096 c 0,-0.45892 0.39523,-0.81824 0.9,-0.81824 z m -0.1,0.36366 0,0.72734 0,0.72732 0.5,0 5.025,0 1.975,0 c 0.277,0 0.5,-0.32439 0.5,-0.72732 0,-0.40295 -0.223,-0.72734 -0.5,-0.72734 l -1.975,0 -5.025,0 -0.5,0 z"
       id="rect3036-0"
       inkscape:connector-curvature="0" />
  </g>
</svg>
