<?xml version="1.0" encoding="UTF-8" standalone="no"?>
<!-- Created with Inkscape (http://www.inkscape.org/) -->

<svg
   xmlns:dc="http://purl.org/dc/elements/1.1/"
   xmlns:cc="http://creativecommons.org/ns#"
   xmlns:rdf="http://www.w3.org/1999/02/22-rdf-syntax-ns#"
   xmlns:svg="http://www.w3.org/2000/svg"
   xmlns="http://www.w3.org/2000/svg"
   xmlns:sodipodi="http://sodipodi.sourceforge.net/DTD/sodipodi-0.dtd"
   xmlns:inkscape="http://www.inkscape.org/namespaces/inkscape"
   width="16"
   height="16"
   id="svg3991"
   version="1.1"
   inkscape:version="0.48.4 r9939"
   sodipodi:docname="windows-split.svg">
  <title
     id="title4018">GNU PSPP flat icon set</title>
  <defs
     id="defs3993" />
  <sodipodi:namedview
     id="base"
     pagecolor="#ffffff"
     bordercolor="#666666"
     borderopacity="1.0"
     inkscape:pageopacity="0.0"
     inkscape:pageshadow="2"
     inkscape:zoom="22.4"
     inkscape:cx="8"
     inkscape:cy="6.1783041"
     inkscape:document-units="px"
     inkscape:current-layer="layer1"
     showgrid="true"
     inkscape:window-width="683"
     inkscape:window-height="709"
     inkscape:window-x="0"
     inkscape:window-y="27"
     inkscape:window-maximized="0"
     showborder="false"
     inkscape:snap-bbox="true">
    <inkscape:grid
       type="xygrid"
       id="grid2983"
       empspacing="5"
       visible="true"
       enabled="true"
       snapvisiblegridlinesonly="true" />
    <sodipodi:guide
       position="0,0"
       orientation="0,16"
       id="guide2985" />
    <sodipodi:guide
       position="16,0"
       orientation="-16,0"
       id="guide2987" />
    <sodipodi:guide
       position="16,16"
       orientation="0,-16"
       id="guide2989" />
    <sodipodi:guide
       position="0,16"
       orientation="16,0"
       id="guide2991" />
  </sodipodi:namedview>
  <metadata
     id="metadata3996">
    <rdf:RDF>
      <cc:Work
         rdf:about="">
        <dc:format>image/svg+xml</dc:format>
        <dc:type
           rdf:resource="http://purl.org/dc/dcmitype/StillImage" />
        <dc:title>GNU PSPP flat icon set</dc:title>
        <cc:license
           rdf:resource="http://creativecommons.org/licenses/by-sa/3.0/" />
        <dc:creator>
          <cc:Agent>
            <dc:title>Bastián Díaz</dc:title>
          </cc:Agent>
        </dc:creator>
        <dc:source>https://github.com/bedf/PSPPire-artwork</dc:source>
      </cc:Work>
      <cc:License
         rdf:about="http://creativecommons.org/licenses/by-sa/3.0/">
        <cc:permits
           rdf:resource="http://creativecommons.org/ns#Reproduction" />
        <cc:permits
           rdf:resource="http://creativecommons.org/ns#Distribution" />
        <cc:requires
           rdf:resource="http://creativecommons.org/ns#Notice" />
        <cc:requires
           rdf:resource="http://creativecommons.org/ns#Attribution" />
        <cc:permits
           rdf:resource="http://creativecommons.org/ns#DerivativeWorks" />
        <cc:requires
           rdf:resource="http://creativecommons.org/ns#ShareAlike" />
      </cc:License>
    </rdf:RDF>
  </metadata>
  <g
     inkscape:label="Layer 1"
     inkscape:groupmode="layer"
     id="layer1"
     transform="translate(0,-1036.3622)">
    <g
       transform="translate(-340,805.00002)"
       style="display:inline"
       id="g5028">
      <g
         inkscape:export-ydpi="90"
         inkscape:export-xdpi="90"
         inkscape:export-filename="/home/raizen/Dropbox/Proyectos/GNU PSPP/PSPPire artwork/icons/actions/16x16/help-reference-manual.png"
         id="g7214"
         style="display:inline"
         transform="translate(-20,-97.6378)">
        <rect
           transform="translate(0,-552.3622)"
           y="881.36218"
           x="360.00003"
           height="16.000017"
           width="16"
           id="rect5058"
           style="opacity:0;fill:#ffffff;fill-opacity:1;stroke:none;display:inline" />
        <path
           inkscape:connector-curvature="0"
           d="m 361.96875,328.99999 c -1.0912,0 -1.96875,0.87755 -1.96875,1.96875 l 0,12.0625 c 0,1.0912 0.87755,1.96875 1.96875,1.96875 l 12.03125,0 c 0.554,0 1,-0.446 1,-1 l 0,-11 c 0,-0.554 -0.446,-1 -1,-1 l -12,0 c -0.554,0 -1,-0.446 -1,-1 0,-0.554 0.446,-1 1,-1 l 12,0 c 0,-0.55856 -0.44144,-1 -1,-1 z M 368,333.06249 c 2.72669,0 4.9375,2.20786 4.9375,4.9375 0,2.72964 -2.21081,4.9375 -4.9375,4.9375 -2.72669,0 -4.9375,-2.20786 -4.9375,-4.9375 0,-2.72964 2.21081,-4.9375 4.9375,-4.9375 z m 0,1 c -0.63685,0 -1.21995,0.17421 -1.75,0.4375 l 0.71875,1.5 c 0.31325,-0.1625 0.65582,-0.28125 1.03125,-0.28125 0.37543,0 0.718,0.11875 1.03125,0.28125 l 0.71875,-1.5 c -0.53005,-0.26329 -1.11315,-0.4375 -1.75,-0.4375 z m -3.5,2.1875 c -0.26373,0.53017 -0.4375,1.11182 -0.4375,1.75 0,0.64816 0.16599,1.24503 0.4375,1.78125 l 1.5,-0.75 c -0.16256,-0.31326 -0.28125,-0.65563 -0.28125,-1.03125 0,-0.36123 0.0989,-0.69568 0.25,-1 z m 7.03125,0 -1.5,0.75 c 0.1511,0.30432 0.25,0.63877 0.25,1 0,0.37562 -0.11869,0.71799 -0.28125,1.03125 l 1.5,0.75 c 0.27151,-0.53622 0.4375,-1.13309 0.4375,-1.78125 0,-0.6332 -0.14638,-1.22289 -0.40625,-1.75 z M 368,336.71874 c -0.71682,0 -1.28125,0.56221 -1.28125,1.28125 0,0.71904 0.56443,1.28125 1.28125,1.28125 0.71682,0 1.28125,-0.56221 1.28125,-1.28125 0,-0.71904 -0.56443,-1.28125 -1.28125,-1.28125 z m 1.03125,3.28125 c -0.31325,0.1625 -0.65582,0.28125 -1.03125,0.28125 -0.36105,0 -0.6957,-0.099 -1,-0.25 l -0.75,1.5 c 0.52698,0.25944 1.11813,0.40625 1.75,0.40625 0.63685,0 1.21995,-0.17421 1.75,-0.4375 z"
           style="color:#000000;fill:#555753;fill-opacity:1;fill-rule:nonzero;stroke:none;stroke-width:2;marker:none;visibility:visible;display:inline;overflow:visible;enable-background:accumulate"
           id="rect4665-8"
           sodipodi:nodetypes="cccccssccsccccssssssccsccscsccsccccsccscssssscsccscc" />
      </g>
    </g>
  </g>
</svg>
