<?xml version="1.0" encoding="UTF-8" standalone="no"?>
<!-- Created with Inkscape (http://www.inkscape.org/) -->

<svg
   xmlns:dc="http://purl.org/dc/elements/1.1/"
   xmlns:cc="http://creativecommons.org/ns#"
   xmlns:rdf="http://www.w3.org/1999/02/22-rdf-syntax-ns#"
   xmlns:svg="http://www.w3.org/2000/svg"
   xmlns="http://www.w3.org/2000/svg"
   xmlns:sodipodi="http://sodipodi.sourceforge.net/DTD/sodipodi-0.dtd"
   xmlns:inkscape="http://www.inkscape.org/namespaces/inkscape"
   width="16"
   height="16"
   id="svg3991"
   version="1.1"
   inkscape:version="0.48.4 r9939"
   sodipodi:docname="transform-in-to-different-variables.svg">
  <title
     id="title4018">GNU PSPP flat icon set</title>
  <defs
     id="defs3993" />
  <sodipodi:namedview
     id="base"
     pagecolor="#ffffff"
     bordercolor="#666666"
     borderopacity="1.0"
     inkscape:pageopacity="0.0"
     inkscape:pageshadow="2"
     inkscape:zoom="22.4"
     inkscape:cx="8"
     inkscape:cy="6.1783041"
     inkscape:document-units="px"
     inkscape:current-layer="layer1"
     showgrid="true"
     inkscape:window-width="683"
     inkscape:window-height="709"
     inkscape:window-x="0"
     inkscape:window-y="27"
     inkscape:window-maximized="0"
     showborder="false"
     inkscape:snap-bbox="true">
    <inkscape:grid
       type="xygrid"
       id="grid2983"
       empspacing="5"
       visible="true"
       enabled="true"
       snapvisiblegridlinesonly="true" />
    <sodipodi:guide
       position="0,0"
       orientation="0,16"
       id="guide2985" />
    <sodipodi:guide
       position="16,0"
       orientation="-16,0"
       id="guide2987" />
    <sodipodi:guide
       position="16,16"
       orientation="0,-16"
       id="guide2989" />
    <sodipodi:guide
       position="0,16"
       orientation="16,0"
       id="guide2991" />
  </sodipodi:namedview>
  <metadata
     id="metadata3996">
    <rdf:RDF>
      <cc:Work
         rdf:about="">
        <dc:format>image/svg+xml</dc:format>
        <dc:type
           rdf:resource="http://purl.org/dc/dcmitype/StillImage" />
        <dc:title>GNU PSPP flat icon set</dc:title>
        <cc:license
           rdf:resource="http://creativecommons.org/licenses/by-sa/3.0/" />
        <dc:creator>
          <cc:Agent>
            <dc:title>Bastián Díaz</dc:title>
          </cc:Agent>
        </dc:creator>
        <dc:source>https://github.com/bedf/PSPPire-artwork</dc:source>
      </cc:Work>
      <cc:License
         rdf:about="http://creativecommons.org/licenses/by-sa/3.0/">
        <cc:permits
           rdf:resource="http://creativecommons.org/ns#Reproduction" />
        <cc:permits
           rdf:resource="http://creativecommons.org/ns#Distribution" />
        <cc:requires
           rdf:resource="http://creativecommons.org/ns#Notice" />
        <cc:requires
           rdf:resource="http://creativecommons.org/ns#Attribution" />
        <cc:permits
           rdf:resource="http://creativecommons.org/ns#DerivativeWorks" />
        <cc:requires
           rdf:resource="http://creativecommons.org/ns#ShareAlike" />
      </cc:License>
    </rdf:RDF>
  </metadata>
  <g
     inkscape:label="Layer 1"
     inkscape:groupmode="layer"
     id="layer1"
     transform="translate(0,-1036.3622)">
    <g
       transform="translate(575,775.00002)"
       style="display:inline"
       id="g7207">
      <rect
         ry="1.6073395"
         rx="0.7692309"
         y="261.36218"
         x="-575"
         height="16"
         width="16"
         id="rect3001"
         style="opacity:0.35;fill:none;stroke:none" />
      <path
         inkscape:connector-curvature="0"
         id="path6429-8-0"
         d="m -575,271.36218 c 0,2.20914 1.79086,4 4,4 l 0,2 3,-3 -3,-3 0,2 c -1.10457,0 -2,-0.89542 -2,-2 l -2,0 z"
         style="fill:#555753;fill-opacity:1;stroke:none;display:inline" />
      <path
         id="path42972-6-5"
         style="color:#000000;fill:#555753;fill-opacity:1;fill-rule:nonzero;stroke:none;stroke-width:1;marker:none;visibility:visible;display:inline;overflow:visible;enable-background:accumulate"
         inkscape:connector-curvature="0"
         d="m -563.91771,269.36497 c -0.25505,0.0518 -0.49195,0.14383 -0.72728,0.24026 -0.0185,0.68573 0.0963,1.58356 -0.17316,1.81914 -0.26483,0.23149 -1.15073,0.0377 -1.83549,-0.0344 -0.14561,0.25975 -0.26073,0.53295 -0.34633,0.82376 0.52984,0.43479 1.26394,0.92153 1.28139,1.26996 0.0177,0.35278 -0.69421,0.88405 -1.17749,1.37294 0.11457,0.28319 0.27721,0.54208 0.45022,0.78944 0.67415,-0.13885 1.51427,-0.41028 1.80086,-0.20594 0.29181,0.20804 0.29391,1.10421 0.38096,1.78481 0.27655,0.0824 0.56797,0.11478 0.8658,0.13729 0.3118,-0.60917 0.62882,-1.4496 0.96969,-1.54455 0.34993,-0.0974 1.06783,0.50319 1.66234,0.85808 0.24238,-0.1665 0.45763,-0.3702 0.65801,-0.5835 -0.28131,-0.6286 -0.79913,-1.41897 -0.65801,-1.75049 0.14125,-0.33181 1.08097,-0.51581 1.7316,-0.75511 0.004,-0.0807 0.0346,-0.15831 0.0346,-0.24026 0,-0.21019 -0.0382,-0.41626 -0.0693,-0.61782 -0.6717,-0.17663 -1.626,-0.26503 -1.80087,-0.58349 -0.17371,-0.31634 0.26795,-1.1658 0.48485,-1.81914 -0.22294,-0.19615 -0.46481,-0.37032 -0.72728,-0.51485 -0.5551,0.41202 -1.20168,1.09215 -1.55844,1.02969 -0.35118,-0.0615 -0.73463,-0.90015 -1.10822,-1.4759 -0.0445,0.008 -0.0944,-0.009 -0.13853,0 z m 0.69263,2.0594 c 1.03285,0 1.87014,0.82982 1.87014,1.85346 0,1.02363 -0.83729,1.85346 -1.87014,1.85346 -1.03283,0 -1.87012,-0.82983 -1.87012,-1.85346 0,-1.02364 0.83729,-1.85346 1.87012,-1.85346 z" />
      <path
         inkscape:connector-curvature="0"
         id="rect6194-0-7"
         d="m -573,261.36218 c -1.108,0 -2,0.89377 -2,2 l 0,4 c 0,1.10622 0.892,2 2,2 l 4,0 c 1.108,0 2,-0.89378 2,-2 l 0,-4 c 0,-1.10623 -0.892,-2 -2,-2 l -4,0 z m 0.0313,1 0.5,0 0.0625,0 c 0.0969,-8e-4 0.19695,0.0107 0.28125,0.0625 l 3.875,2.40625 c 0.17209,0.10313 0.25,0.32032 0.25,0.53125 0,0.21092 -0.0779,0.39687 -0.25,0.5 l -3.875,2.40625 c -0.0843,0.0517 -0.18435,0.0943 -0.28125,0.0937 l -0.0625,0 -0.5,0 0,-6 z"
         style="fill:#555753;fill-opacity:1;stroke:none;display:inline" />
    </g>
  </g>
</svg>
