<?xml version="1.0" encoding="UTF-8" standalone="no"?>
<!-- Created with Inkscape (http://www.inkscape.org/) -->

<svg
   xmlns:dc="http://purl.org/dc/elements/1.1/"
   xmlns:cc="http://creativecommons.org/ns#"
   xmlns:rdf="http://www.w3.org/1999/02/22-rdf-syntax-ns#"
   xmlns:svg="http://www.w3.org/2000/svg"
   xmlns="http://www.w3.org/2000/svg"
   xmlns:xlink="http://www.w3.org/1999/xlink"
   xmlns:sodipodi="http://sodipodi.sourceforge.net/DTD/sodipodi-0.dtd"
   xmlns:inkscape="http://www.inkscape.org/namespaces/inkscape"
   width="16"
   height="16"
   id="svg2"
   version="1.1"
   inkscape:version="0.48.4 r9939"
   sodipodi:docname="transform-count.svg">
  <title
     id="title6197">GNU PSPP flat icon theme</title>
  <defs
     id="defs4">
    <linearGradient
       y2="98.883202"
       x2="118.3481"
       y1="81.1763"
       x1="106.0254"
       gradientUnits="userSpaceOnUse"
       id="linearGradient17659-4">
      <stop
         id="stop17661-0"
         style="stop-color:#da4522;stop-opacity:1;"
         offset="0" />
      <stop
         offset="0.02529254"
         style="stop-color:#953a24;stop-opacity:1;"
         id="stop17667-4" />
      <stop
         offset="0.18952666"
         style="stop-color:#c15236;stop-opacity:1;"
         id="stop17665-75" />
      <stop
         id="stop17669-0"
         style="stop-color:#6f1f09;stop-opacity:1"
         offset="0.94432735" />
      <stop
         id="stop17663-8"
         style="stop-color:#ba310b;stop-opacity:1"
         offset="1" />
    </linearGradient>
    <linearGradient
       id="linearGradient5257-3">
      <stop
         style="stop-color:#ef2929;stop-opacity:1;"
         offset="0"
         id="stop5259-87" />
      <stop
         style="stop-color:#f68383;stop-opacity:1;"
         offset="1"
         id="stop5261-1" />
    </linearGradient>
    <linearGradient
       id="linearGradient17864-9">
      <stop
         style="stop-color:#d1f7ab;stop-opacity:1;"
         offset="0"
         id="stop17866-9" />
      <stop
         style="stop-color:#85e923;stop-opacity:1;"
         offset="1"
         id="stop17868-41" />
    </linearGradient>
    <linearGradient
       id="linearGradient17317-98">
      <stop
         style="stop-color:#dde8f4;stop-opacity:1;"
         offset="0"
         id="stop17319-1" />
      <stop
         style="stop-color:#bad0e8;stop-opacity:1;"
         offset="1"
         id="stop17321-6" />
    </linearGradient>
    <linearGradient
       id="linearGradient17325-1">
      <stop
         style="stop-color:#729fcf;stop-opacity:1;"
         offset="0"
         id="stop17327-8" />
      <stop
         style="stop-color:#3f7ab9;stop-opacity:1;"
         offset="1"
         id="stop17329-8" />
    </linearGradient>
    <linearGradient
       id="linearGradient17339-7">
      <stop
         id="stop17341-6"
         offset="0"
         style="stop-color:#729fcf;stop-opacity:0;" />
      <stop
         id="stop17343-4"
         offset="1"
         style="stop-color:#3f7ab9;stop-opacity:1;" />
    </linearGradient>
    <linearGradient
       id="linearGradient17767-1">
      <stop
         id="stop17771-8"
         offset="0"
         style="stop-color:#edc200;stop-opacity:1;" />
      <stop
         id="stop17769-4"
         offset="1"
         style="stop-color:#c4a000;stop-opacity:1;" />
    </linearGradient>
    <linearGradient
       y2="98.883202"
       x2="118.3481"
       y1="81.1763"
       x1="106.0254"
       gradientUnits="userSpaceOnUse"
       id="linearGradient17659-4-4">
      <stop
         id="stop17661-0-5"
         style="stop-color:#da4522;stop-opacity:1;"
         offset="0" />
      <stop
         offset="0.02529254"
         style="stop-color:#953a24;stop-opacity:1;"
         id="stop17667-4-2" />
      <stop
         offset="0.18952666"
         style="stop-color:#c15236;stop-opacity:1;"
         id="stop17665-75-0" />
      <stop
         id="stop17669-0-2"
         style="stop-color:#6f1f09;stop-opacity:1"
         offset="0.94432735" />
      <stop
         id="stop17663-8-2"
         style="stop-color:#ba310b;stop-opacity:1"
         offset="1" />
    </linearGradient>
    <linearGradient
       id="linearGradient5257-3-4">
      <stop
         style="stop-color:#ef2929;stop-opacity:1;"
         offset="0"
         id="stop5259-87-7" />
      <stop
         style="stop-color:#f68383;stop-opacity:1;"
         offset="1"
         id="stop5261-1-9" />
    </linearGradient>
    <linearGradient
       id="linearGradient17864-9-9">
      <stop
         style="stop-color:#d1f7ab;stop-opacity:1;"
         offset="0"
         id="stop17866-9-5" />
      <stop
         style="stop-color:#85e923;stop-opacity:1;"
         offset="1"
         id="stop17868-41-4" />
    </linearGradient>
    <linearGradient
       id="linearGradient17317-98-6">
      <stop
         style="stop-color:#dde8f4;stop-opacity:1;"
         offset="0"
         id="stop17319-1-0" />
      <stop
         style="stop-color:#bad0e8;stop-opacity:1;"
         offset="1"
         id="stop17321-6-9" />
    </linearGradient>
    <linearGradient
       id="linearGradient17325-1-6">
      <stop
         style="stop-color:#729fcf;stop-opacity:1;"
         offset="0"
         id="stop17327-8-0" />
      <stop
         style="stop-color:#3f7ab9;stop-opacity:1;"
         offset="1"
         id="stop17329-8-6" />
    </linearGradient>
    <linearGradient
       id="linearGradient17339-7-9">
      <stop
         id="stop17341-6-2"
         offset="0"
         style="stop-color:#729fcf;stop-opacity:0;" />
      <stop
         id="stop17343-4-5"
         offset="1"
         style="stop-color:#3f7ab9;stop-opacity:1;" />
    </linearGradient>
    <linearGradient
       id="linearGradient17767-1-0">
      <stop
         id="stop17771-8-6"
         offset="0"
         style="stop-color:#edc200;stop-opacity:1;" />
      <stop
         id="stop17769-4-4"
         offset="1"
         style="stop-color:#c4a000;stop-opacity:1;" />
    </linearGradient>
    <linearGradient
       y2="98.883202"
       x2="118.3481"
       y1="81.1763"
       x1="106.0254"
       gradientUnits="userSpaceOnUse"
       id="linearGradient17659-4-4-7">
      <stop
         id="stop17661-0-5-4"
         style="stop-color:#da4522;stop-opacity:1;"
         offset="0" />
      <stop
         offset="0.02529254"
         style="stop-color:#953a24;stop-opacity:1;"
         id="stop17667-4-2-0" />
      <stop
         offset="0.18952666"
         style="stop-color:#c15236;stop-opacity:1;"
         id="stop17665-75-0-9" />
      <stop
         id="stop17669-0-2-6"
         style="stop-color:#6f1f09;stop-opacity:1"
         offset="0.94432735" />
      <stop
         id="stop17663-8-2-6"
         style="stop-color:#ba310b;stop-opacity:1"
         offset="1" />
    </linearGradient>
    <linearGradient
       id="linearGradient5257-3-4-2">
      <stop
         style="stop-color:#ef2929;stop-opacity:1;"
         offset="0"
         id="stop5259-87-7-3" />
      <stop
         style="stop-color:#f68383;stop-opacity:1;"
         offset="1"
         id="stop5261-1-9-9" />
    </linearGradient>
    <linearGradient
       id="linearGradient17864-9-9-0">
      <stop
         style="stop-color:#d1f7ab;stop-opacity:1;"
         offset="0"
         id="stop17866-9-5-1" />
      <stop
         style="stop-color:#85e923;stop-opacity:1;"
         offset="1"
         id="stop17868-41-4-3" />
    </linearGradient>
    <linearGradient
       id="linearGradient17317-98-6-2">
      <stop
         style="stop-color:#dde8f4;stop-opacity:1;"
         offset="0"
         id="stop17319-1-0-9" />
      <stop
         style="stop-color:#bad0e8;stop-opacity:1;"
         offset="1"
         id="stop17321-6-9-5" />
    </linearGradient>
    <linearGradient
       id="linearGradient17325-1-6-3">
      <stop
         style="stop-color:#729fcf;stop-opacity:1;"
         offset="0"
         id="stop17327-8-0-3" />
      <stop
         style="stop-color:#3f7ab9;stop-opacity:1;"
         offset="1"
         id="stop17329-8-6-7" />
    </linearGradient>
    <linearGradient
       id="linearGradient17339-7-9-0">
      <stop
         id="stop17341-6-2-7"
         offset="0"
         style="stop-color:#729fcf;stop-opacity:0;" />
      <stop
         id="stop17343-4-5-0"
         offset="1"
         style="stop-color:#3f7ab9;stop-opacity:1;" />
    </linearGradient>
    <linearGradient
       id="linearGradient17767-1-0-8">
      <stop
         id="stop17771-8-6-5"
         offset="0"
         style="stop-color:#edc200;stop-opacity:1;" />
      <stop
         id="stop17769-4-4-4"
         offset="1"
         style="stop-color:#c4a000;stop-opacity:1;" />
    </linearGradient>
    <linearGradient
       y2="98.883202"
       x2="118.3481"
       y1="81.1763"
       x1="106.0254"
       gradientUnits="userSpaceOnUse"
       id="linearGradient17659-7-6-1">
      <stop
         id="stop17661-8-4-5"
         style="stop-color:#da4522;stop-opacity:1;"
         offset="0" />
      <stop
         offset="0.02529254"
         style="stop-color:#953a24;stop-opacity:1;"
         id="stop17667-7-0-2" />
      <stop
         offset="0.18952666"
         style="stop-color:#c15236;stop-opacity:1;"
         id="stop17665-7-6-9" />
      <stop
         id="stop17669-1-7-1"
         style="stop-color:#6f1f09;stop-opacity:1"
         offset="0.94432735" />
      <stop
         id="stop17663-6-1-7"
         style="stop-color:#ba310b;stop-opacity:1"
         offset="1" />
    </linearGradient>
    <linearGradient
       id="linearGradient5257-5-8-9">
      <stop
         style="stop-color:#ef2929;stop-opacity:1;"
         offset="0"
         id="stop5259-8-8-1" />
      <stop
         style="stop-color:#f68383;stop-opacity:1;"
         offset="1"
         id="stop5261-4-5-2" />
    </linearGradient>
    <linearGradient
       id="linearGradient17864-3-1-8">
      <stop
         style="stop-color:#d1f7ab;stop-opacity:1;"
         offset="0"
         id="stop17866-3-1-8" />
      <stop
         style="stop-color:#85e923;stop-opacity:1;"
         offset="1"
         id="stop17868-4-0-2" />
    </linearGradient>
    <linearGradient
       id="linearGradient17317-9-7-0">
      <stop
         style="stop-color:#dde8f4;stop-opacity:1;"
         offset="0"
         id="stop17319-6-5-2" />
      <stop
         style="stop-color:#bad0e8;stop-opacity:1;"
         offset="1"
         id="stop17321-4-8-6" />
    </linearGradient>
    <linearGradient
       id="linearGradient17325-8-0-5">
      <stop
         style="stop-color:#729fcf;stop-opacity:1;"
         offset="0"
         id="stop17327-6-2-5" />
      <stop
         style="stop-color:#3f7ab9;stop-opacity:1;"
         offset="1"
         id="stop17329-2-4-8" />
    </linearGradient>
    <linearGradient
       id="linearGradient17767-8-8-9">
      <stop
         id="stop17771-2-4-1"
         offset="0"
         style="stop-color:#edc200;stop-opacity:1;" />
      <stop
         id="stop17769-3-1-3"
         offset="1"
         style="stop-color:#c4a000;stop-opacity:1;" />
    </linearGradient>
    <radialGradient
       inkscape:collect="always"
       xlink:href="#linearGradient17039-3-7-98-4"
       id="radialGradient6108"
       gradientUnits="userSpaceOnUse"
       gradientTransform="matrix(0.38094187,-0.01176371,0.00313628,0.12879596,279.1225,160.18858)"
       cx="55.640617"
       cy="193.2952"
       fx="55.640617"
       fy="193.2952"
       r="96.546875" />
    <linearGradient
       id="linearGradient17039-3-7-98-4"
       inkscape:collect="always">
      <stop
         id="stop17041-0-1-6-1"
         offset="0"
         style="stop-color:#ffffff;stop-opacity:1;" />
      <stop
         id="stop17043-1-0-3-4"
         offset="1"
         style="stop-color:#ffffff;stop-opacity:0;" />
    </linearGradient>
    <linearGradient
       y2="98.883202"
       x2="118.3481"
       y1="81.1763"
       x1="106.0254"
       gradientUnits="userSpaceOnUse"
       id="linearGradient17659-7-6-1-5">
      <stop
         id="stop17661-8-4-5-9"
         style="stop-color:#da4522;stop-opacity:1;"
         offset="0" />
      <stop
         offset="0.02529254"
         style="stop-color:#953a24;stop-opacity:1;"
         id="stop17667-7-0-2-2" />
      <stop
         offset="0.18952666"
         style="stop-color:#c15236;stop-opacity:1;"
         id="stop17665-7-6-9-5" />
      <stop
         id="stop17669-1-7-1-0"
         style="stop-color:#6f1f09;stop-opacity:1"
         offset="0.94432735" />
      <stop
         id="stop17663-6-1-7-6"
         style="stop-color:#ba310b;stop-opacity:1"
         offset="1" />
    </linearGradient>
    <linearGradient
       id="linearGradient5257-5-8-9-7">
      <stop
         style="stop-color:#ef2929;stop-opacity:1;"
         offset="0"
         id="stop5259-8-8-1-7" />
      <stop
         style="stop-color:#f68383;stop-opacity:1;"
         offset="1"
         id="stop5261-4-5-2-7" />
    </linearGradient>
    <linearGradient
       id="linearGradient17864-3-1-8-9">
      <stop
         style="stop-color:#d1f7ab;stop-opacity:1;"
         offset="0"
         id="stop17866-3-1-8-4" />
      <stop
         style="stop-color:#85e923;stop-opacity:1;"
         offset="1"
         id="stop17868-4-0-2-8" />
    </linearGradient>
    <linearGradient
       id="linearGradient17317-9-7-0-0">
      <stop
         style="stop-color:#dde8f4;stop-opacity:1;"
         offset="0"
         id="stop17319-6-5-2-0" />
      <stop
         style="stop-color:#bad0e8;stop-opacity:1;"
         offset="1"
         id="stop17321-4-8-6-3" />
    </linearGradient>
    <linearGradient
       id="linearGradient17325-8-0-5-2">
      <stop
         style="stop-color:#729fcf;stop-opacity:1;"
         offset="0"
         id="stop17327-6-2-5-9" />
      <stop
         style="stop-color:#3f7ab9;stop-opacity:1;"
         offset="1"
         id="stop17329-2-4-8-7" />
    </linearGradient>
    <linearGradient
       id="linearGradient17767-8-8-9-7">
      <stop
         id="stop17771-2-4-1-1"
         offset="0"
         style="stop-color:#edc200;stop-opacity:1;" />
      <stop
         id="stop17769-3-1-3-1"
         offset="1"
         style="stop-color:#c4a000;stop-opacity:1;" />
    </linearGradient>
    <radialGradient
       r="96.546875"
       fy="193.2952"
       fx="55.640617"
       cy="193.2952"
       cx="55.640617"
       gradientTransform="matrix(0.38094187,-0.01176371,0.00313628,0.12879596,279.1225,160.18858)"
       gradientUnits="userSpaceOnUse"
       id="radialGradient6241"
       xlink:href="#linearGradient17039-3-7-98-4-3"
       inkscape:collect="always" />
    <linearGradient
       id="linearGradient17039-3-7-98-4-3"
       inkscape:collect="always">
      <stop
         id="stop17041-0-1-6-1-8"
         offset="0"
         style="stop-color:#ffffff;stop-opacity:1;" />
      <stop
         id="stop17043-1-0-3-4-9"
         offset="1"
         style="stop-color:#ffffff;stop-opacity:0;" />
    </linearGradient>
    <linearGradient
       y2="98.883202"
       x2="118.3481"
       y1="81.1763"
       x1="106.0254"
       gradientUnits="userSpaceOnUse"
       id="linearGradient17659-7-6-1-5-4">
      <stop
         id="stop17661-8-4-5-9-1"
         style="stop-color:#da4522;stop-opacity:1;"
         offset="0" />
      <stop
         offset="0.02529254"
         style="stop-color:#953a24;stop-opacity:1;"
         id="stop17667-7-0-2-2-2" />
      <stop
         offset="0.18952666"
         style="stop-color:#c15236;stop-opacity:1;"
         id="stop17665-7-6-9-5-7" />
      <stop
         id="stop17669-1-7-1-0-7"
         style="stop-color:#6f1f09;stop-opacity:1"
         offset="0.94432735" />
      <stop
         id="stop17663-6-1-7-6-8"
         style="stop-color:#ba310b;stop-opacity:1"
         offset="1" />
    </linearGradient>
    <linearGradient
       id="linearGradient5257-5-8-9-7-8">
      <stop
         style="stop-color:#ef2929;stop-opacity:1;"
         offset="0"
         id="stop5259-8-8-1-7-1" />
      <stop
         style="stop-color:#f68383;stop-opacity:1;"
         offset="1"
         id="stop5261-4-5-2-7-5" />
    </linearGradient>
  </defs>
  <sodipodi:namedview
     id="base"
     pagecolor="#ffffff"
     bordercolor="#666666"
     borderopacity="1.0"
     inkscape:pageopacity="0.0"
     inkscape:pageshadow="2"
     inkscape:zoom="25.234873"
     inkscape:cx="7.3427354"
     inkscape:cy="7.0159417"
     inkscape:document-units="px"
     inkscape:current-layer="layer1"
     showgrid="true"
     showborder="false"
     fit-margin-top="0"
     fit-margin-left="0"
     fit-margin-right="0"
     fit-margin-bottom="0"
     inkscape:window-width="1366"
     inkscape:window-height="709"
     inkscape:window-x="0"
     inkscape:window-y="27"
     inkscape:window-maximized="1"
     inkscape:snap-bbox="true"
     inkscape:bbox-nodes="true">
    <inkscape:grid
       type="xygrid"
       id="grid6195"
       empspacing="5"
       visible="true"
       enabled="true"
       snapvisiblegridlinesonly="true"
       originx="-4.9999616px"
       originy="-6.9999994px" />
    <sodipodi:guide
       position="0,0"
       orientation="0,16"
       id="guide10748" />
    <sodipodi:guide
       position="16,0"
       orientation="-16,0"
       id="guide10750" />
    <sodipodi:guide
       position="16,16"
       orientation="0,-16"
       id="guide10752" />
    <sodipodi:guide
       position="0,16"
       orientation="16,0"
       id="guide10754" />
  </sodipodi:namedview>
  <metadata
     id="metadata7">
    <rdf:RDF>
      <cc:Work
         rdf:about="">
        <dc:format>image/svg+xml</dc:format>
        <dc:type
           rdf:resource="http://purl.org/dc/dcmitype/StillImage" />
        <dc:title>GNU PSPP flat icon theme</dc:title>
        <dc:description>Set de iconos derivados del proyecto GNOME icon theme symbolic.</dc:description>
        <dc:creator>
          <cc:Agent>
            <dc:title>GNU PSPP Community</dc:title>
          </cc:Agent>
        </dc:creator>
        <cc:license
           rdf:resource="http://creativecommons.org/licenses/by-sa/3.0/" />
        <dc:source></dc:source>
        <dc:subject>
          <rdf:Bag />
        </dc:subject>
        <dc:contributor>
          <cc:Agent>
            <dc:title>Bastián Díaz
Hugo Valencia</dc:title>
          </cc:Agent>
        </dc:contributor>
      </cc:Work>
      <cc:License
         rdf:about="http://creativecommons.org/licenses/by-sa/3.0/">
        <cc:permits
           rdf:resource="http://creativecommons.org/ns#Reproduction" />
        <cc:permits
           rdf:resource="http://creativecommons.org/ns#Distribution" />
        <cc:requires
           rdf:resource="http://creativecommons.org/ns#Notice" />
        <cc:requires
           rdf:resource="http://creativecommons.org/ns#Attribution" />
        <cc:permits
           rdf:resource="http://creativecommons.org/ns#DerivativeWorks" />
        <cc:requires
           rdf:resource="http://creativecommons.org/ns#ShareAlike" />
      </cc:License>
    </rdf:RDF>
  </metadata>
  <g
     inkscape:label="Capa 1"
     inkscape:groupmode="layer"
     id="layer1"
     transform="translate(-1938.7427,-892.77905)">
    <g
       transform="translate(1898.7427,273.77906)"
       style="display:inline"
       id="g6682"
       inkscape:export-filename="/home/raizen/Dropbox/Proyectos/GNU PSPP/PSPPire artwork/icons/actions/16x16/transform-compute.png"
       inkscape:export-xdpi="90"
       inkscape:export-ydpi="90">
      <g
         style="fill:#555753"
         id="g11525"
         transform="translate(-8,221)"
         inkscape:label="accessories-calculator">
        <path
           style="fill:#555753;fill-opacity:1;stroke:none;display:inline"
           id="rect5122-3-5"
           d="m 50.03125,398 c -0.542165,0 -1,0.32904 -1,0.9375 l 0,14.125 c 0,0.58636 0.376673,0.9375 1,0.9375 l 13.03125,0 C 63.582568,414 64,413.64886 64,413.0625 l 0,-14.125 C 64,398.39533 63.604665,398 63.0625,398 l -13.03125,0 z M 51,400.03125 l 11.03125,0 0,2.96875 L 51,403 51,400.03125 z M 51.1875,404 l 1.625,0 C 52.9233,404 53,404.0767 53,404.1875 l 0,1.625 C 53,405.9233 52.9233,406 52.8125,406 l -1.625,0 C 51.0767,406 51,405.9233 51,405.8125 l 0,-1.625 C 51,404.0767 51.0767,404 51.1875,404 z m 3,0 1.625,0 C 55.9233,404 56,404.0767 56,404.1875 l 0,1.625 C 56,405.9233 55.9233,406 55.8125,406 l -1.625,0 C 54.0767,406 54,405.9233 54,405.8125 l 0,-1.625 C 54,404.0767 54.0767,404 54.1875,404 z m 3,0 1.625,0 C 58.9233,404 59,404.0767 59,404.1875 l 0,1.625 C 59,405.9233 58.9233,406 58.8125,406 l -1.625,0 C 57.0767,406 57,405.9233 57,405.8125 l 0,-1.625 C 57,404.0767 57.0767,404 57.1875,404 z m 3,0 1.625,0 C 61.9233,404 62,404.0767 62,404.1875 l 0,1.625 C 62,405.9233 61.9233,406 61.8125,406 l -1.625,0 C 60.0767,406 60,405.9233 60,405.8125 l 0,-1.625 C 60,404.0767 60.0767,404 60.1875,404 z m -9,3 1.625,0 C 52.9233,407 53,407.0767 53,407.1875 l 0,1.625 C 53,408.9233 52.9233,409 52.8125,409 l -1.625,0 C 51.0767,409 51,408.9233 51,408.8125 l 0,-1.625 C 51,407.0767 51.0767,407 51.1875,407 z m 3,0 1.625,0 C 55.9233,407 56,407.0767 56,407.1875 l 0,1.625 C 56,408.9233 55.9233,409 55.8125,409 l -1.625,0 C 54.0767,409 54,408.9233 54,408.8125 l 0,-1.625 C 54,407.0767 54.0767,407 54.1875,407 z m 3,0 1.625,0 C 58.9233,407 59,407.0767 59,407.1875 l 0,1.625 C 59,408.9233 58.9233,409 58.8125,409 l -1.625,0 C 57.0767,409 57,408.9233 57,408.8125 l 0,-1.625 C 57,407.0767 57.0767,407 57.1875,407 z m 3,0 1.625,0 C 61.9233,407 62,407.0767 62,407.1875 l 0,1.625 C 62,408.9233 61.9233,409 61.8125,409 l -1.625,0 C 60.0767,409 60,408.9233 60,408.8125 l 0,-1.625 C 60,407.0767 60.0767,407 60.1875,407 z m -9,3 1.625,0 C 52.9233,410 53,410.0767 53,410.1875 l 0,1.625 C 53,411.9233 52.9233,412 52.8125,412 l -1.625,0 C 51.0767,412 51,411.9233 51,411.8125 l 0,-1.625 C 51,410.0767 51.0767,410 51.1875,410 z m 3,0 1.625,0 C 55.9233,410 56,410.0767 56,410.1875 l 0,1.625 C 56,411.9233 55.9233,412 55.8125,412 l -1.625,0 C 54.0767,412 54,411.9233 54,411.8125 l 0,-1.625 C 54,410.0767 54.0767,410 54.1875,410 z m 3,0 1.625,0 C 58.9233,410 59,410.0767 59,410.1875 l 0,1.625 C 59,411.9233 58.9233,412 58.8125,412 l -1.625,0 C 57.0767,412 57,411.9233 57,411.8125 l 0,-1.625 C 57,410.0767 57.0767,410 57.1875,410 z m 3,0 1.625,0 C 61.9233,410 62,410.0767 62,410.1875 l 0,1.625 C 62,411.9233 61.9233,412 61.8125,412 l -1.625,0 C 60.0767,412 60,411.9233 60,411.8125 l 0,-1.625 C 60,410.0767 60.0767,410 60.1875,410 z"
           inkscape:connector-curvature="0" />
      </g>
      <path
         inkscape:connector-curvature="0"
         id="rect7181"
         d="m 42,623.99885 0,10 10,0 0,-10 -10,0 z m 2,1 c 0.552285,0 1,0.44772 1,1 0,0.55228 -0.447715,1 -1,1 -0.552285,0 -1,-0.44772 -1,-1 0,-0.55228 0.447715,-1 1,-1 z m 3,0 c 0.552285,0 1,0.44772 1,1 0,0.55228 -0.447715,1 -1,1 -0.552285,0 -1,-0.44772 -1,-1 0,-0.55228 0.447715,-1 1,-1 z m 3,0 c 0.552285,0 1,0.44772 1,1 0,0.55228 -0.447715,1 -1,1 -0.552285,0 -1,-0.44772 -1,-1 0,-0.55228 0.447715,-1 1,-1 z m -6,3 c 0.552285,0 1,0.44772 1,1 0,0.55228 -0.447715,1 -1,1 -0.552285,0 -1,-0.44772 -1,-1 0,-0.55228 0.447715,-1 1,-1 z m 3,0 c 0.552285,0 1,0.44772 1,1 0,0.55228 -0.447715,1 -1,1 -0.552285,0 -1,-0.44772 -1,-1 0,-0.55228 0.447715,-1 1,-1 z m 3,0 c 0.552285,0 1,0.44772 1,1 0,0.55228 -0.447715,1 -1,1 -0.552285,0 -1,-0.44772 -1,-1 0,-0.55228 0.447715,-1 1,-1 z m -6,3 c 0.552285,0 1,0.44772 1,1 0,0.55228 -0.447715,1 -1,1 -0.552285,0 -1,-0.44772 -1,-1 0,-0.55228 0.447715,-1 1,-1 z m 3,0 c 0.552285,0 1,0.44772 1,1 0,0.55228 -0.447715,1 -1,1 -0.552285,0 -1,-0.44772 -1,-1 0,-0.55228 0.447715,-1 1,-1 z m 3,0 c 0.552285,0 1,0.44772 1,1 0,0.55228 -0.447715,1 -1,1 -0.552285,0 -1,-0.44772 -1,-1 0,-0.55228 0.447715,-1 1,-1 z"
         style="fill:#555753;fill-opacity:1;stroke:none" />
      <rect
         ry="1.0736192"
         transform="translate(20,-20.000008)"
         y="639"
         x="20"
         height="16"
         width="16"
         id="rect6678"
         style="opacity:0;fill:#555753;fill-opacity:1;fill-rule:evenodd;stroke:none" />
    </g>
  </g>
</svg>
