<?xml version="1.0" encoding="UTF-8" standalone="no"?>
<!-- Created with Inkscape (http://www.inkscape.org/) -->

<svg
   xmlns:dc="http://purl.org/dc/elements/1.1/"
   xmlns:cc="http://creativecommons.org/ns#"
   xmlns:rdf="http://www.w3.org/1999/02/22-rdf-syntax-ns#"
   xmlns:svg="http://www.w3.org/2000/svg"
   xmlns="http://www.w3.org/2000/svg"
   xmlns:sodipodi="http://sodipodi.sourceforge.net/DTD/sodipodi-0.dtd"
   xmlns:inkscape="http://www.inkscape.org/namespaces/inkscape"
   width="16"
   height="16"
   id="svg3991"
   version="1.1"
   inkscape:version="0.48.4 r9939"
   sodipodi:docname="transform-compute.svg">
  <title
     id="title4018">GNU PSPP flat icon set</title>
  <defs
     id="defs3993" />
  <sodipodi:namedview
     id="base"
     pagecolor="#ffffff"
     bordercolor="#666666"
     borderopacity="1.0"
     inkscape:pageopacity="0.0"
     inkscape:pageshadow="2"
     inkscape:zoom="22.4"
     inkscape:cx="8"
     inkscape:cy="6.1783041"
     inkscape:document-units="px"
     inkscape:current-layer="layer1"
     showgrid="true"
     inkscape:window-width="683"
     inkscape:window-height="709"
     inkscape:window-x="0"
     inkscape:window-y="27"
     inkscape:window-maximized="0"
     showborder="false"
     inkscape:snap-bbox="true">
    <inkscape:grid
       type="xygrid"
       id="grid2983"
       empspacing="5"
       visible="true"
       enabled="true"
       snapvisiblegridlinesonly="true" />
    <sodipodi:guide
       position="0,0"
       orientation="0,16"
       id="guide2985" />
    <sodipodi:guide
       position="16,0"
       orientation="-16,0"
       id="guide2987" />
    <sodipodi:guide
       position="16,16"
       orientation="0,-16"
       id="guide2989" />
    <sodipodi:guide
       position="0,16"
       orientation="16,0"
       id="guide2991" />
  </sodipodi:namedview>
  <metadata
     id="metadata3996">
    <rdf:RDF>
      <cc:Work
         rdf:about="">
        <dc:format>image/svg+xml</dc:format>
        <dc:type
           rdf:resource="http://purl.org/dc/dcmitype/StillImage" />
        <dc:title>GNU PSPP flat icon set</dc:title>
        <cc:license
           rdf:resource="http://creativecommons.org/licenses/by-sa/3.0/" />
        <dc:creator>
          <cc:Agent>
            <dc:title>Bastián Díaz</dc:title>
          </cc:Agent>
        </dc:creator>
        <dc:source>https://github.com/bedf/PSPPire-artwork</dc:source>
      </cc:Work>
      <cc:License
         rdf:about="http://creativecommons.org/licenses/by-sa/3.0/">
        <cc:permits
           rdf:resource="http://creativecommons.org/ns#Reproduction" />
        <cc:permits
           rdf:resource="http://creativecommons.org/ns#Distribution" />
        <cc:requires
           rdf:resource="http://creativecommons.org/ns#Notice" />
        <cc:requires
           rdf:resource="http://creativecommons.org/ns#Attribution" />
        <cc:permits
           rdf:resource="http://creativecommons.org/ns#DerivativeWorks" />
        <cc:requires
           rdf:resource="http://creativecommons.org/ns#ShareAlike" />
      </cc:License>
    </rdf:RDF>
  </metadata>
  <g
     inkscape:label="Layer 1"
     inkscape:groupmode="layer"
     id="layer1"
     transform="translate(0,-1036.3622)">
    <g
       transform="translate(575,805.00002)"
       style="display:inline"
       id="g4713">
      <rect
         ry="1.0736192"
         y="231.36218"
         x="-575"
         height="16"
         width="16"
         id="rect6694"
         style="opacity:0;fill:#555753;fill-opacity:1;fill-rule:evenodd;stroke:none" />
      <path
         inkscape:connector-curvature="0"
         id="rect4748"
         d="m -570,232.36218 c -2.216,0 -4,1.784 -4,4 l 0,6 c 0,2.216 1.784,4 4,4 l 6,0 c 2.216,0 4,-1.784 4,-4 l 0,-6 c 0,-2.216 -1.784,-4 -4,-4 l -6,0 z m 4.8125,2 c 1.64243,-0.092 3.0955,1.17008 3.1875,2.8125 -10e-5,1.40136 -0.37771,1.92177 -1.59375,2.84375 -0.19093,0.14364 -0.3256,0.2506 -0.375,0.3125 -0.0494,0.0621 -0.0313,0.0333 -0.0313,0.0313 0.007,0.52831 -0.47163,1 -1,1 -0.52837,0 -1.007,-0.47169 -1,-1 0,-0.50239 0.22424,-0.94342 0.46875,-1.25 0.24451,-0.30663 0.4913,-0.51638 0.71875,-0.6875 0.20405,-0.16056 0.46083,-0.38454 0.6875,-0.65625 0.0935,-0.1121 0.129,-0.30766 0.125,-0.4375 l 0,-0.0313 c -0.0316,-0.56324 -0.49926,-0.9691 -1.0625,-0.9375 -0.56324,0.0316 -0.9691,0.43676 -0.9375,1 l -2,0 c -0.092,-1.64243 1.17007,-2.9079 2.8125,-3 z m -6.8125,4.75 1,0 0,0.46875 c 0.66071,-0.27641 0.90505,-0.39625 1.4375,-0.34375 1.02012,0.10078 1.5625,0.9845 1.5625,1.78125 l 0,2.34375 -1,0 0,-2 c 0.0111,-0.27621 -0.10268,-1.09375 -0.90625,-1.09375 -0.38393,0 -0.86161,0.004 -1.09375,0.0937 l 0,3 -1,0 0,-3.9375 0,-0.3125 z m 7,3.25 c 0.55228,0 1,0.44772 1,1 0,0.55228 -0.44772,1 -1,1 -0.55228,0 -1,-0.44772 -1,-1 0,-0.55228 0.44772,-1 1,-1 z"
         style="fill:#555753;stroke:none" />
    </g>
  </g>
</svg>
