<?xml version="1.0" encoding="UTF-8" standalone="no"?>
<!-- Created with Inkscape (http://www.inkscape.org/) -->

<svg
   xmlns:dc="http://purl.org/dc/elements/1.1/"
   xmlns:cc="http://creativecommons.org/ns#"
   xmlns:rdf="http://www.w3.org/1999/02/22-rdf-syntax-ns#"
   xmlns:svg="http://www.w3.org/2000/svg"
   xmlns="http://www.w3.org/2000/svg"
   xmlns:sodipodi="http://sodipodi.sourceforge.net/DTD/sodipodi-0.dtd"
   xmlns:inkscape="http://www.inkscape.org/namespaces/inkscape"
   width="16"
   height="16"
   id="svg3991"
   version="1.1"
   inkscape:version="0.48.4 r9939"
   sodipodi:docname="transform-rank-cases.svg">
  <title
     id="title4018">GNU PSPP flat icon set</title>
  <defs
     id="defs3993" />
  <sodipodi:namedview
     id="base"
     pagecolor="#ffffff"
     bordercolor="#666666"
     borderopacity="1.0"
     inkscape:pageopacity="0.0"
     inkscape:pageshadow="2"
     inkscape:zoom="22.4"
     inkscape:cx="8"
     inkscape:cy="6.1783041"
     inkscape:document-units="px"
     inkscape:current-layer="layer1"
     showgrid="true"
     inkscape:window-width="683"
     inkscape:window-height="708"
     inkscape:window-x="0"
     inkscape:window-y="27"
     inkscape:window-maximized="0"
     showborder="false"
     inkscape:snap-bbox="true">
    <inkscape:grid
       type="xygrid"
       id="grid2983"
       empspacing="5"
       visible="true"
       enabled="true"
       snapvisiblegridlinesonly="true" />
    <sodipodi:guide
       position="0,0"
       orientation="0,16"
       id="guide2985" />
    <sodipodi:guide
       position="16,0"
       orientation="-16,0"
       id="guide2987" />
    <sodipodi:guide
       position="16,16"
       orientation="0,-16"
       id="guide2989" />
    <sodipodi:guide
       position="0,16"
       orientation="16,0"
       id="guide2991" />
  </sodipodi:namedview>
  <metadata
     id="metadata3996">
    <rdf:RDF>
      <cc:Work
         rdf:about="">
        <dc:format>image/svg+xml</dc:format>
        <dc:type
           rdf:resource="http://purl.org/dc/dcmitype/StillImage" />
        <dc:title>GNU PSPP flat icon set</dc:title>
        <cc:license
           rdf:resource="http://creativecommons.org/licenses/by-sa/3.0/" />
        <dc:creator>
          <cc:Agent>
            <dc:title>Bastián Díaz</dc:title>
          </cc:Agent>
        </dc:creator>
        <dc:source>https://github.com/bedf/PSPPire-artwork</dc:source>
      </cc:Work>
      <cc:License
         rdf:about="http://creativecommons.org/licenses/by-sa/3.0/">
        <cc:permits
           rdf:resource="http://creativecommons.org/ns#Reproduction" />
        <cc:permits
           rdf:resource="http://creativecommons.org/ns#Distribution" />
        <cc:requires
           rdf:resource="http://creativecommons.org/ns#Notice" />
        <cc:requires
           rdf:resource="http://creativecommons.org/ns#Attribution" />
        <cc:permits
           rdf:resource="http://creativecommons.org/ns#DerivativeWorks" />
        <cc:requires
           rdf:resource="http://creativecommons.org/ns#ShareAlike" />
      </cc:License>
    </rdf:RDF>
  </metadata>
  <g
     inkscape:label="Layer 1"
     inkscape:groupmode="layer"
     id="layer1"
     transform="translate(0,-1036.3622)">
    <g
       transform="translate(530,805.00002)"
       style="display:inline"
       id="g5195">
      <path
         inkscape:connector-curvature="0"
         id="path4625"
         d="m -526.25,241.58093 -2.75,2.78125 3,0 0,3 4,-4 c -1.64891,0 -3.13422,-0.70463 -4.21875,-1.78125 l -0.0313,0 z m 4.25,1.78125 4,4 0,-3 3,0 -2.75,-2.78125 c -0.005,0.005 -0.026,-0.005 -0.0313,0 -1.08453,1.07662 -2.56984,1.78125 -4.21875,1.78125 z"
         style="fill:#555753;stroke:none" />
      <g
         id="g4719">
        <rect
           style="fill:none;stroke:none"
           id="rect4717"
           width="16"
           height="16"
           x="-530"
           y="231.36218" />
      </g>
      <rect
         y="231.36218"
         x="-530"
         height="16"
         width="16"
         id="rect5344"
         style="fill:none;stroke:none" />
      <path
         inkscape:connector-curvature="0"
         id="path5185"
         d="m -522.5,232.375 c -2.52128,0.25605 -4.5,2.41116 -4.5,5 0,2.76143 2.23858,5 5,5 2.76142,0 5,-2.23857 5,-5 0,-2.76143 -2.23858,-5 -5,-5 -0.17259,0 -0.33191,-0.0171 -0.5,0 z m 0.5,1.5 c 0.92047,0 1.65625,0.78349 1.65625,1.75 0,0.96649 -0.73578,1.75 -1.65625,1.75 -0.92047,0 -1.65625,-0.78351 -1.65625,-1.75 0,-0.96651 0.73578,-1.75 1.65625,-1.75 z m -0.84375,3.5 0,0.875 1.6875,0 0,-0.875 c 0.92047,0 1.65625,0.7835 1.65625,1.75 0,0.96649 -1.11929,1.75 -2.5,1.75 -1.38071,0 -2.5,-0.78351 -2.5,-1.75 0,-0.9665 0.73578,-1.75 1.65625,-1.75 z"
         style="fill:#555753;fill-opacity:1;stroke:none" />
    </g>
  </g>
</svg>
