<?xml version="1.0" encoding="UTF-8" standalone="no"?>
<!-- Created with Inkscape (http://www.inkscape.org/) -->

<svg
   xmlns:dc="http://purl.org/dc/elements/1.1/"
   xmlns:cc="http://creativecommons.org/ns#"
   xmlns:rdf="http://www.w3.org/1999/02/22-rdf-syntax-ns#"
   xmlns:svg="http://www.w3.org/2000/svg"
   xmlns="http://www.w3.org/2000/svg"
   xmlns:sodipodi="http://sodipodi.sourceforge.net/DTD/sodipodi-0.dtd"
   xmlns:inkscape="http://www.inkscape.org/namespaces/inkscape"
   sodipodi:docname="transform-runpending-transforms.svg"
   height="16"
   id="svg7384"
   inkscape:version="0.48.4 r9939"
   version="1.1"
   width="16">
  <metadata
     id="metadata90">
    <rdf:RDF>
      <cc:Work
         rdf:about="">
        <dc:format>image/svg+xml</dc:format>
        <dc:type
           rdf:resource="http://purl.org/dc/dcmitype/StillImage" />
        <dc:title></dc:title>
        <dc:creator>
          <cc:Agent>
            <dc:title>GNU PSPP Community</dc:title>
          </cc:Agent>
        </dc:creator>
        <cc:license
           rdf:resource="http://creativecommons.org/licenses/by-sa/3.0/" />
      </cc:Work>
      <cc:License
         rdf:about="http://creativecommons.org/licenses/by-sa/3.0/">
        <cc:permits
           rdf:resource="http://creativecommons.org/ns#Reproduction" />
        <cc:permits
           rdf:resource="http://creativecommons.org/ns#Distribution" />
        <cc:requires
           rdf:resource="http://creativecommons.org/ns#Notice" />
        <cc:requires
           rdf:resource="http://creativecommons.org/ns#Attribution" />
        <cc:permits
           rdf:resource="http://creativecommons.org/ns#DerivativeWorks" />
        <cc:requires
           rdf:resource="http://creativecommons.org/ns#ShareAlike" />
      </cc:License>
    </rdf:RDF>
  </metadata>
  <sodipodi:namedview
     inkscape:bbox-paths="false"
     bordercolor="#666666"
     borderopacity="1"
     inkscape:current-layer="layer11"
     inkscape:cx="32.320424"
     inkscape:cy="10.198711"
     gridtolerance="10"
     inkscape:guide-bbox="true"
     guidetolerance="10"
     id="namedview88"
     inkscape:object-nodes="false"
     inkscape:object-paths="false"
     objecttolerance="10"
     pagecolor="#555753"
     inkscape:pageopacity="0"
     inkscape:pageshadow="2"
     showborder="false"
     showgrid="true"
     showguides="true"
     inkscape:snap-bbox="true"
     inkscape:snap-bbox-midpoints="true"
     inkscape:snap-global="true"
     inkscape:snap-grids="true"
     inkscape:snap-nodes="false"
     inkscape:snap-others="false"
     inkscape:snap-to-guides="true"
     inkscape:window-height="675"
     inkscape:window-maximized="1"
     inkscape:window-width="1366"
     inkscape:window-x="0"
     inkscape:window-y="28"
     inkscape:zoom="11.313709"
     inkscape:bbox-nodes="true"
     inkscape:snap-bbox-edge-midpoints="true">
    <inkscape:grid
       empspacing="2"
       enabled="true"
       id="grid4866"
       snapvisiblegridlinesonly="true"
       spacingx="1px"
       spacingy="1px"
       type="xygrid"
       visible="true" />
    <sodipodi:guide
       position="0,0"
       orientation="0,16"
       id="guide2996" />
    <sodipodi:guide
       position="16,0"
       orientation="-16,0"
       id="guide2998" />
    <sodipodi:guide
       position="13,16"
       orientation="0,-16"
       id="guide3000" />
    <sodipodi:guide
       position="0,12"
       orientation="16,0"
       id="guide3002" />
    <sodipodi:guide
       position="0,0"
       orientation="0,24"
       id="guide4287" />
    <sodipodi:guide
       position="24,0"
       orientation="-24,0"
       id="guide4289" />
    <sodipodi:guide
       position="24,24"
       orientation="0,-24"
       id="guide4291" />
    <sodipodi:guide
       position="0,24"
       orientation="24,0"
       id="guide4293" />
  </sodipodi:namedview>
  <defs
     id="defs7386" />
  <g
     inkscape:groupmode="layer"
     id="layer9"
     inkscape:label="status"
     style="display:inline"
     transform="translate(-283,-649)" />
  <g
     inkscape:groupmode="layer"
     id="layer10"
     inkscape:label="devices"
     transform="translate(-283,-649)" />
  <g
     inkscape:groupmode="layer"
     id="layer11"
     inkscape:label="apps"
     transform="translate(-283,-649)">
    <rect
       transform="matrix(0,1,1,0,0,0)"
       y="304.00003"
       x="647.99994"
       height="16"
       width="15.999999"
       id="rect7290"
       style="fill:none;stroke:none" />
    <g
       transform="matrix(0,1,1,0,-102.3622,591.99991)"
       style="fill:none;stroke:none"
       id="g7292">
      <path
         sodipodi:nodetypes="ccccssc"
         inkscape:connector-curvature="0"
         id="path7294"
         d="m 58.99296,408.86219 2.5,0 c 0.52709,0 1,0.49495 1,1 l 0,3 -3,0 c -1.30615,0 -1.34163,-2 0,-2 l 3,0"
         style="color:#000000;fill:none;stroke:none;stroke-width:1;marker:none;visibility:visible;display:inline;overflow:visible;enable-background:accumulate" />
      <path
         style="color:#000000;fill:none;stroke:none;stroke-width:1;marker:none;visibility:visible;display:inline;overflow:visible;enable-background:accumulate"
         d="m 64.5,407.36219 0,5.5 3,0 c 1.30615,0 1.34163,-3 0,-3 l -3,0"
         id="path7296"
         inkscape:connector-curvature="0"
         sodipodi:nodetypes="ccssc" />
      <g
         transform="matrix(-1,0,0,1,394.0627,-240.6378)"
         id="g7298"
         style="fill:none;stroke:none;display:inline">
        <path
           style="color:#000000;fill:none;stroke:none;stroke-width:2;marker:none;visibility:visible;display:inline;overflow:visible;enable-background:accumulate"
           d="m 337.0627,659 -13.0625,0"
           id="path7300"
           inkscape:connector-curvature="0"
           sodipodi:nodetypes="cc" />
      </g>
      <rect
         y="406.36221"
         x="56"
         height="16"
         width="15.999999"
         id="rect7302"
         style="fill:none;stroke:none" />
    </g>
    <path
       inkscape:connector-curvature="0"
       d="m 294.49058,649 c -0.24043,0.4417 -0.4686,1.02066 -0.72024,1.45878 -0.0941,-0.007 -0.1861,-0.0318 -0.28184,-0.0318 -0.33294,0 -0.66146,0.0494 -0.97077,0.12686 -0.30567,-0.38847 -0.63166,-0.91143 -0.93946,-1.30022 -0.28518,0.1066 -0.55342,0.22984 -0.81419,0.38055 0.0961,0.48977 0.27748,1.0869 0.37578,1.58563 -0.34371,0.2525 -0.62748,0.53988 -0.87682,0.88795 -0.49248,-0.0995 -1.08214,-0.28319 -1.56576,-0.38054 -0.14883,0.26407 -0.27052,0.53571 -0.37579,0.82452 0.38392,0.31171 0.90033,0.64185 1.28392,0.95139 -0.0765,0.31322 -0.12526,0.64591 -0.12526,0.98309 0,0.0969 0.0247,0.19015 0.0314,0.28541 -0.43264,0.25485 -1.00434,0.48589 -1.44051,0.72938 0.0513,0.27883 0.12857,0.56194 0.21922,0.82454 0.49242,-0.0101 1.10178,-0.096 1.59707,-0.0951 0.18751,0.39755 0.42141,0.76497 0.72025,1.07822 -0.1724,0.47476 -0.44906,1.02354 -0.62631,1.4905 0.21334,0.1783 0.45044,0.33106 0.68894,0.47569 0.36997,-0.32485 0.77703,-0.7829 1.15866,-1.10993 0.37883,0.1751 0.79027,0.2692 1.22129,0.31711 0.16489,0.48383 0.30492,1.10419 0.46973,1.58564 0.30217,-0.002 0.58802,-0.0143 0.87682,-0.0634 0.0808,-0.50021 0.11061,-1.13511 0.18789,-1.64905 0.41096,-0.11856 0.81304,-0.27093 1.15866,-0.50741 0.42522,0.26838 0.90074,0.6382 1.31525,0.88795 0.2242,-0.19349 0.43523,-0.40719 0.6263,-0.63424 -0.24662,-0.41976 -0.61182,-0.90132 -0.87683,-1.33193 0.23351,-0.35002 0.38396,-0.75722 0.50105,-1.17337 0.5075,-0.0782 1.13445,-0.10855 1.62839,-0.19028 0.0485,-0.29246 0.061,-0.58195 0.0626,-0.88794 -0.4754,-0.16692 -1.088,-0.30872 -1.56575,-0.4757 -0.0473,-0.43649 -0.14024,-0.85314 -0.31317,-1.23679 0.32296,-0.38647 0.77526,-0.7987 1.09604,-1.17337 -0.14282,-0.24153 -0.29366,-0.48163 -0.46973,-0.69769 -0.46111,0.1795 -1.003,0.45968 -1.47182,0.63427 -0.30932,-0.30264 -0.67214,-0.53949 -1.06471,-0.7294 -6.5e-4,-0.50157 0.0842,-1.11867 0.0939,-1.61733 -0.25931,-0.0918 -0.53886,-0.17 -0.8142,-0.222 z m -1.00208,3.45667 c 1.10687,0 2.00417,0.90869 2.00417,2.02962 0,1.12092 -0.8973,2.0296 -2.00417,2.0296 -1.10687,0 -2.00416,-0.90868 -2.00416,-2.0296 0,-1.12093 0.89729,-2.02962 2.00416,-2.02962 z"
       id="path42961"
       style="color:#000000;fill:#555753;fill-opacity:1;fill-rule:nonzero;stroke:none;stroke-width:1;marker:none;visibility:visible;display:inline;overflow:visible;enable-background:accumulate" />
    <path
       inkscape:connector-curvature="0"
       d="m 286.78705,656.61103 c -0.23062,0.0478 -0.44483,0.1329 -0.65762,0.22199 -0.0168,0.63357 0.0871,1.46311 -0.15658,1.68076 -0.23946,0.2139 -1.04051,0.0348 -1.6597,-0.0318 -0.13166,0.23999 -0.23575,0.49241 -0.31315,0.7611 0.47909,0.40173 1.14288,0.85144 1.15865,1.17338 0.016,0.32594 -0.62771,0.8168 -1.0647,1.2685 0.1036,0.26166 0.25065,0.50084 0.40709,0.72938 0.60959,-0.12827 1.36925,-0.37906 1.62839,-0.19027 0.26386,0.19222 0.26577,1.02024 0.34447,1.64906 0.25007,0.0762 0.51358,0.10604 0.78288,0.12685 0.28193,-0.56283 0.5686,-1.33934 0.87681,-1.42707 0.31643,-0.09 0.96556,0.46492 1.50314,0.79282 0.21917,-0.15385 0.4138,-0.34206 0.59499,-0.53913 -0.25437,-0.58078 -0.72258,-1.31103 -0.59499,-1.61733 0.12772,-0.30658 0.97743,-0.47659 1.56576,-0.69767 0.004,-0.0746 0.0314,-0.14628 0.0314,-0.222 0,-0.19421 -0.0345,-0.3846 -0.0626,-0.57082 -0.60736,-0.16321 -1.47026,-0.24487 -1.62839,-0.53912 -0.15707,-0.29227 0.2423,-1.0771 0.43841,-1.68076 -0.20158,-0.18123 -0.42028,-0.34215 -0.65761,-0.4757 -0.50194,0.38068 -1.08659,1.00908 -1.40918,0.95139 -0.31755,-0.0568 -0.66428,-0.83169 -1.00209,-1.36365 -0.0403,0.007 -0.0855,-0.008 -0.12527,0 z m 0.62631,1.90275 c 0.93392,0 1.69101,0.76671 1.69101,1.71249 0,0.94578 -0.75709,1.71248 -1.69101,1.71248 -0.93393,0 -1.69103,-0.7667 -1.69103,-1.71248 0,-0.94578 0.7571,-1.71249 1.69103,-1.71249 z"
       id="path42972"
       style="color:#000000;fill:#555753;fill-opacity:1;fill-rule:nonzero;stroke:none;stroke-width:1;marker:none;visibility:visible;display:inline;overflow:visible;enable-background:accumulate" />
  </g>
  <g
     inkscape:groupmode="layer"
     id="layer13"
     inkscape:label="places"
     transform="translate(-283,-649)" />
  <g
     inkscape:groupmode="layer"
     id="layer14"
     inkscape:label="mimetypes"
     transform="translate(-283,-649)" />
  <g
     inkscape:groupmode="layer"
     id="layer15"
     inkscape:label="emblems"
     style="display:inline"
     transform="translate(-283,-649)" />
  <g
     inkscape:groupmode="layer"
     id="g71291"
     inkscape:label="emotes"
     style="display:inline"
     transform="translate(-283,-649)" />
  <g
     inkscape:groupmode="layer"
     id="g4953"
     inkscape:label="categories"
     style="display:inline"
     transform="translate(-283,-649)" />
  <g
     inkscape:groupmode="layer"
     id="layer12"
     inkscape:label="actions"
     style="display:inline"
     transform="translate(-283,-649)" />
</svg>
