<?xml version="1.0" encoding="UTF-8" standalone="no"?>
<!-- Created with Inkscape (http://www.inkscape.org/) -->

<svg
   xmlns:dc="http://purl.org/dc/elements/1.1/"
   xmlns:cc="http://creativecommons.org/ns#"
   xmlns:rdf="http://www.w3.org/1999/02/22-rdf-syntax-ns#"
   xmlns:svg="http://www.w3.org/2000/svg"
   xmlns="http://www.w3.org/2000/svg"
   xmlns:sodipodi="http://sodipodi.sourceforge.net/DTD/sodipodi-0.dtd"
   xmlns:inkscape="http://www.inkscape.org/namespaces/inkscape"
   sodipodi:docname="compute.svg"
   height="16"
   id="svg7384"
   inkscape:version="0.48.4 r9939"
   version="1.1"
   width="16">
  <metadata
     id="metadata90">
    <rdf:RDF>
      <cc:Work
         rdf:about="">
        <dc:format>image/svg+xml</dc:format>
        <dc:type
           rdf:resource="http://purl.org/dc/dcmitype/StillImage" />
        <dc:title></dc:title>
        <dc:creator>
          <cc:Agent>
            <dc:title>GNU PSPP Community</dc:title>
          </cc:Agent>
        </dc:creator>
        <cc:license
           rdf:resource="http://creativecommons.org/licenses/by-sa/3.0/" />
      </cc:Work>
      <cc:License
         rdf:about="http://creativecommons.org/licenses/by-sa/3.0/">
        <cc:permits
           rdf:resource="http://creativecommons.org/ns#Reproduction" />
        <cc:permits
           rdf:resource="http://creativecommons.org/ns#Distribution" />
        <cc:requires
           rdf:resource="http://creativecommons.org/ns#Notice" />
        <cc:requires
           rdf:resource="http://creativecommons.org/ns#Attribution" />
        <cc:permits
           rdf:resource="http://creativecommons.org/ns#DerivativeWorks" />
        <cc:requires
           rdf:resource="http://creativecommons.org/ns#ShareAlike" />
      </cc:License>
    </rdf:RDF>
  </metadata>
  <sodipodi:namedview
     inkscape:bbox-paths="false"
     bordercolor="#666666"
     borderopacity="1"
     inkscape:current-layer="layer11"
     inkscape:cx="0.91932401"
     inkscape:cy="8.2617448"
     gridtolerance="10"
     inkscape:guide-bbox="true"
     guidetolerance="10"
     id="namedview88"
     inkscape:object-nodes="false"
     inkscape:object-paths="false"
     objecttolerance="10"
     pagecolor="#555753"
     inkscape:pageopacity="0"
     inkscape:pageshadow="2"
     showborder="false"
     showgrid="true"
     showguides="true"
     inkscape:snap-bbox="true"
     inkscape:snap-bbox-midpoints="false"
     inkscape:snap-global="true"
     inkscape:snap-grids="true"
     inkscape:snap-nodes="false"
     inkscape:snap-others="false"
     inkscape:snap-to-guides="true"
     inkscape:window-height="675"
     inkscape:window-maximized="1"
     inkscape:window-width="1366"
     inkscape:window-x="0"
     inkscape:window-y="28"
     inkscape:zoom="11.900006"
     inkscape:bbox-nodes="true"
     inkscape:snap-bbox-edge-midpoints="true">
    <inkscape:grid
       empspacing="2"
       enabled="true"
       id="grid4866"
       snapvisiblegridlinesonly="true"
       spacingx="1px"
       spacingy="1px"
       type="xygrid"
       visible="true" />
    <sodipodi:guide
       position="0,0"
       orientation="0,16"
       id="guide2996" />
    <sodipodi:guide
       position="16,0"
       orientation="-16,0"
       id="guide2998" />
    <sodipodi:guide
       position="13,16"
       orientation="0,-16"
       id="guide3000" />
    <sodipodi:guide
       position="0,12"
       orientation="16,0"
       id="guide3002" />
    <sodipodi:guide
       position="0,0"
       orientation="0,24"
       id="guide4287" />
    <sodipodi:guide
       position="24,0"
       orientation="-24,0"
       id="guide4289" />
    <sodipodi:guide
       position="24,24"
       orientation="0,-24"
       id="guide4291" />
    <sodipodi:guide
       position="0,24"
       orientation="24,0"
       id="guide4293" />
  </sodipodi:namedview>
  <defs
     id="defs7386" />
  <g
     inkscape:groupmode="layer"
     id="layer9"
     inkscape:label="status"
     style="display:inline"
     transform="translate(-283,-649)" />
  <g
     inkscape:groupmode="layer"
     id="layer10"
     inkscape:label="devices"
     transform="translate(-283,-649)" />
  <g
     inkscape:groupmode="layer"
     id="layer11"
     inkscape:label="apps"
     transform="translate(-283,-649)">
    <g
       inkscape:label="accessories-calculator"
       transform="translate(235,251)"
       id="g11525"
       style="fill:#555753;fill-opacity:1">
      <path
         inkscape:connector-curvature="0"
         d="m 50.03125,398 c -0.542165,0 -1,0.32904 -1,0.9375 l 0,14.125 c 0,0.58636 0.376673,0.9375 1,0.9375 l 13.03125,0 C 63.582568,414 64,413.64886 64,413.0625 l 0,-14.125 C 64,398.39533 63.604665,398 63.0625,398 l -13.03125,0 z M 51,400.03125 l 11.03125,0 0,2.96875 L 51,403 51,400.03125 z M 51.1875,404 l 1.625,0 C 52.9233,404 53,404.0767 53,404.1875 l 0,1.625 C 53,405.9233 52.9233,406 52.8125,406 l -1.625,0 C 51.0767,406 51,405.9233 51,405.8125 l 0,-1.625 C 51,404.0767 51.0767,404 51.1875,404 z m 3,0 1.625,0 C 55.9233,404 56,404.0767 56,404.1875 l 0,1.625 C 56,405.9233 55.9233,406 55.8125,406 l -1.625,0 C 54.0767,406 54,405.9233 54,405.8125 l 0,-1.625 C 54,404.0767 54.0767,404 54.1875,404 z m 3,0 1.625,0 C 58.9233,404 59,404.0767 59,404.1875 l 0,1.625 C 59,405.9233 58.9233,406 58.8125,406 l -1.625,0 C 57.0767,406 57,405.9233 57,405.8125 l 0,-1.625 C 57,404.0767 57.0767,404 57.1875,404 z m 3,0 1.625,0 C 61.9233,404 62,404.0767 62,404.1875 l 0,1.625 C 62,405.9233 61.9233,406 61.8125,406 l -1.625,0 C 60.0767,406 60,405.9233 60,405.8125 l 0,-1.625 C 60,404.0767 60.0767,404 60.1875,404 z m -9,3 1.625,0 C 52.9233,407 53,407.0767 53,407.1875 l 0,1.625 C 53,408.9233 52.9233,409 52.8125,409 l -1.625,0 C 51.0767,409 51,408.9233 51,408.8125 l 0,-1.625 C 51,407.0767 51.0767,407 51.1875,407 z m 3,0 1.625,0 C 55.9233,407 56,407.0767 56,407.1875 l 0,1.625 C 56,408.9233 55.9233,409 55.8125,409 l -1.625,0 C 54.0767,409 54,408.9233 54,408.8125 l 0,-1.625 C 54,407.0767 54.0767,407 54.1875,407 z m 3,0 1.625,0 C 58.9233,407 59,407.0767 59,407.1875 l 0,1.625 C 59,408.9233 58.9233,409 58.8125,409 l -1.625,0 C 57.0767,409 57,408.9233 57,408.8125 l 0,-1.625 C 57,407.0767 57.0767,407 57.1875,407 z m 3,0 1.625,0 C 61.9233,407 62,407.0767 62,407.1875 l 0,1.625 C 62,408.9233 61.9233,409 61.8125,409 l -1.625,0 C 60.0767,409 60,408.9233 60,408.8125 l 0,-1.625 C 60,407.0767 60.0767,407 60.1875,407 z m -9,3 1.625,0 C 52.9233,410 53,410.0767 53,410.1875 l 0,1.625 C 53,411.9233 52.9233,412 52.8125,412 l -1.625,0 C 51.0767,412 51,411.9233 51,411.8125 l 0,-1.625 C 51,410.0767 51.0767,410 51.1875,410 z m 3,0 1.625,0 C 55.9233,410 56,410.0767 56,410.1875 l 0,1.625 C 56,411.9233 55.9233,412 55.8125,412 l -1.625,0 C 54.0767,412 54,411.9233 54,411.8125 l 0,-1.625 C 54,410.0767 54.0767,410 54.1875,410 z m 3,0 1.625,0 C 58.9233,410 59,410.0767 59,410.1875 l 0,1.625 C 59,411.9233 58.9233,412 58.8125,412 l -1.625,0 C 57.0767,412 57,411.9233 57,411.8125 l 0,-1.625 C 57,410.0767 57.0767,410 57.1875,410 z m 3,0 1.625,0 C 61.9233,410 62,410.0767 62,410.1875 l 0,1.625 C 62,411.9233 61.9233,412 61.8125,412 l -1.625,0 C 60.0767,412 60,411.9233 60,411.8125 l 0,-1.625 C 60,410.0767 60.0767,410 60.1875,410 z"
         id="rect5122-3-5"
         style="fill:#555753;fill-opacity:1;stroke:none;display:inline" />
    </g>
  </g>
  <g
     inkscape:groupmode="layer"
     id="layer13"
     inkscape:label="places"
     transform="translate(-283,-649)" />
  <g
     inkscape:groupmode="layer"
     id="layer14"
     inkscape:label="mimetypes"
     transform="translate(-283,-649)" />
  <g
     inkscape:groupmode="layer"
     id="layer15"
     inkscape:label="emblems"
     style="display:inline"
     transform="translate(-283,-649)" />
  <g
     inkscape:groupmode="layer"
     id="g71291"
     inkscape:label="emotes"
     style="display:inline"
     transform="translate(-283,-649)" />
  <g
     inkscape:groupmode="layer"
     id="g4953"
     inkscape:label="categories"
     style="display:inline"
     transform="translate(-283,-649)" />
  <g
     inkscape:groupmode="layer"
     id="layer12"
     inkscape:label="actions"
     style="display:inline"
     transform="translate(-283,-649)" />
</svg>
