<?xml version="1.0" encoding="UTF-8" standalone="no"?>
<!-- Created with Inkscape (http://www.inkscape.org/) -->

<svg
   xmlns:dc="http://purl.org/dc/elements/1.1/"
   xmlns:cc="http://creativecommons.org/ns#"
   xmlns:rdf="http://www.w3.org/1999/02/22-rdf-syntax-ns#"
   xmlns:svg="http://www.w3.org/2000/svg"
   xmlns="http://www.w3.org/2000/svg"
   xmlns:sodipodi="http://sodipodi.sourceforge.net/DTD/sodipodi-0.dtd"
   xmlns:inkscape="http://www.inkscape.org/namespaces/inkscape"
   id="svg7384"
   sodipodi:docname="view-value-labels.svg"
   version="1.1"
   inkscape:version="0.48.4 r9939"
   height="16"
   width="16">
  <metadata
     id="metadata90">
    <rdf:RDF>
      <cc:Work
         rdf:about="">
        <dc:format>image/svg+xml</dc:format>
        <dc:type
           rdf:resource="http://purl.org/dc/dcmitype/StillImage" />
        <dc:title />
        <dc:creator>
          <cc:Agent>
            <dc:title>GNU PSPP Comunity</dc:title>
          </cc:Agent>
        </dc:creator>
        <cc:license
           rdf:resource="http://creativecommons.org/licenses/by-sa/3.0/" />
      </cc:Work>
      <cc:License
         rdf:about="http://creativecommons.org/licenses/by-sa/3.0/">
        <cc:permits
           rdf:resource="http://creativecommons.org/ns#Reproduction" />
        <cc:permits
           rdf:resource="http://creativecommons.org/ns#Distribution" />
        <cc:requires
           rdf:resource="http://creativecommons.org/ns#Notice" />
        <cc:requires
           rdf:resource="http://creativecommons.org/ns#Attribution" />
        <cc:permits
           rdf:resource="http://creativecommons.org/ns#DerivativeWorks" />
        <cc:requires
           rdf:resource="http://creativecommons.org/ns#ShareAlike" />
      </cc:License>
    </rdf:RDF>
  </metadata>
  <sodipodi:namedview
     inkscape:cy="7.6146393"
     pagecolor="#555753"
     borderopacity="1"
     showborder="false"
     inkscape:bbox-paths="false"
     guidetolerance="10"
     inkscape:window-width="1366"
     showguides="true"
     inkscape:object-nodes="true"
     inkscape:snap-bbox="true"
     inkscape:pageshadow="2"
     inkscape:guide-bbox="true"
     inkscape:snap-nodes="false"
     bordercolor="#666666"
     objecttolerance="10"
     id="namedview88"
     showgrid="true"
     inkscape:window-maximized="1"
     inkscape:window-x="0"
     inkscape:snap-global="true"
     inkscape:window-y="28"
     gridtolerance="10"
     inkscape:window-height="675"
     inkscape:snap-to-guides="true"
     inkscape:current-layer="layer12"
     inkscape:zoom="22.627418"
     inkscape:cx="6.1701675"
     inkscape:snap-grids="true"
     inkscape:pageopacity="0"
     inkscape:bbox-nodes="true"
     inkscape:snap-bbox-midpoints="false"
     inkscape:snap-bbox-edge-midpoints="false">
    <inkscape:grid
       spacingx="1px"
       spacingy="1px"
       id="grid4866"
       empspacing="2"
       enabled="true"
       type="xygrid"
       snapvisiblegridlinesonly="true"
       visible="true" />
    <sodipodi:guide
       position="0,0"
       orientation="0,24"
       id="guide2994" />
    <sodipodi:guide
       position="24,2"
       orientation="-24,0"
       id="guide2996" />
    <sodipodi:guide
       position="24,24"
       orientation="0,-24"
       id="guide2998" />
    <sodipodi:guide
       position="0,24"
       orientation="24,0"
       id="guide3000" />
    <sodipodi:guide
       position="0,0"
       orientation="0,16"
       id="guide3836" />
    <sodipodi:guide
       position="16,0"
       orientation="-16,0"
       id="guide3838" />
    <sodipodi:guide
       position="16,16"
       orientation="0,-16"
       id="guide3840" />
    <sodipodi:guide
       position="0,16"
       orientation="16,0"
       id="guide3842" />
  </sodipodi:namedview>
  <defs
     id="defs7386" />
  <g
     inkscape:label="GNU PSPP icon theme symbolic"
     transform="translate(-80,-648)"
     inkscape:groupmode="layer"
     id="layer12"
     style="display:inline">
    <text
       xml:space="preserve"
       style="font-size:40px;font-style:normal;font-weight:normal;line-height:125%;letter-spacing:0px;word-spacing:0px;fill:#000000;fill-opacity:1;stroke:none;font-family:Sans"
       x="2.875"
       y="9.9375"
       id="text3062"
       sodipodi:linespacing="125%"
       transform="translate(80,640)"><tspan
         sodipodi:role="line"
         id="tspan3064"
         x="2.875"
         y="9.9375" /></text>
    <rect
       transform="scale(-1,1)"
       style="color:#555753;fill:none;stroke:none;stroke-width:1;marker:none;visibility:visible;display:inline;overflow:visible;enable-background:new"
       id="rect4430"
       y="638.00964"
       x="-73.000008"
       height="23.990229"
       width="24" />
    <rect
       y="642.00964"
       x="62"
       height="23.990229"
       width="24"
       id="rect4993"
       style="fill:none;stroke:none" />
    <rect
       style="fill:#ff0000;fill-opacity:1;stroke:none"
       id="rect3979"
       width="7"
       height="0"
       x="54"
       y="651"
       ry="0" />
    <path
       inkscape:connector-curvature="0"
       style="fill:#555753;fill-opacity:1;stroke:none;display:inline"
       d="m 88,649 c -2.77,0 -5,2.54857 -5,5.71429 l 0,8.03571 0,0.17857 0.02232,0 C 83.111532,663.53236 83.620648,664 84.25,664 l 7.500002,0 c 0.62935,0 1.138464,-0.46764 1.227679,-1.07143 l 0.02236,0 0,-0.17857 0,-8.03571 C 93.000038,651.54857 90.770036,649 88.000036,649 z m 0,1.42857 c 0.788978,0 1.428571,0.63959 1.428571,1.42857 0,0.78898 -0.639593,1.42857 -1.428571,1.42857 -0.788978,0 -1.428571,-0.63959 -1.428571,-1.42857 0,-0.78898 0.639593,-1.42857 1.428571,-1.42857 z m 0.200893,5.71429 c 0.859718,0 1.505762,0.16951 1.964286,0.49107 0.458512,0.32156 0.691957,0.79465 0.691964,1.45089 l 0,3.68304 -1.227679,0 -0.334821,-0.75893 -0.04464,0 c -0.294221,0.31828 -0.601861,0.54496 -0.915179,0.66964 -0.309503,0.12141 -0.70481,0.17857 -1.205357,0.17857 -0.615181,0 -1.095542,-0.14455 -1.450893,-0.44643 -0.351531,-0.30187 -0.535715,-0.73682 -0.535714,-1.29464 -1e-6,-0.58406 0.240482,-1.01901 0.714286,-1.29464 0.477622,-0.2789 1.183786,-0.43922 2.142857,-0.46875 l 1.116071,-0.0224 0,-0.24553 c -4e-6,-0.55781 -0.317295,-0.82589 -0.982142,-0.8259 -0.512016,1e-5 -1.11644,0.13601 -1.808036,0.40179 l -0.580357,-1.02679 c 0.737449,-0.3314 1.557422,-0.49106 2.455357,-0.49107 z m 0.915178,3.05803 -0.669642,0.0224 c -0.508195,0.0131 -0.890032,0.10116 -1.138393,0.24554 -0.248367,0.14437 -0.379467,0.35201 -0.379465,0.64732 -2e-6,0.42328 0.282705,0.64732 0.848215,0.64732 0.405021,0 0.741416,-0.11234 0.982143,-0.3125 0.244539,-0.20016 0.357138,-0.44984 0.357142,-0.78125 l 0,-0.46875 z"
       id="rect2993" />
  </g>
</svg>
