<?xml version="1.0" encoding="UTF-8" standalone="no"?>
<!-- Created with Inkscape (http://www.inkscape.org/) -->

<svg
   xmlns:dc="http://purl.org/dc/elements/1.1/"
   xmlns:cc="http://creativecommons.org/ns#"
   xmlns:rdf="http://www.w3.org/1999/02/22-rdf-syntax-ns#"
   xmlns:svg="http://www.w3.org/2000/svg"
   xmlns="http://www.w3.org/2000/svg"
   xmlns:sodipodi="http://sodipodi.sourceforge.net/DTD/sodipodi-0.dtd"
   xmlns:inkscape="http://www.inkscape.org/namespaces/inkscape"
   id="svg7384"
   sodipodi:docname="view-fonts.svg"
   version="1.1"
   inkscape:version="0.48.4 r9939"
   height="16"
   width="16"
   inkscape:export-filename="/home/raizen/Escritorio/PSPP icon original/Carpeta sin título/goto-case.png"
   inkscape:export-xdpi="90"
   inkscape:export-ydpi="90">
  <metadata
     id="metadata90">
    <rdf:RDF>
      <cc:Work
         rdf:about="">
        <dc:format>image/svg+xml</dc:format>
        <dc:type
           rdf:resource="http://purl.org/dc/dcmitype/StillImage" />
        <dc:title />
        <dc:creator>
          <cc:Agent>
            <dc:title>GNU PSPP Community</dc:title>
          </cc:Agent>
        </dc:creator>
        <cc:license
           rdf:resource="http://creativecommons.org/licenses/by-sa/3.0/" />
      </cc:Work>
      <cc:License
         rdf:about="http://creativecommons.org/licenses/by-sa/3.0/">
        <cc:permits
           rdf:resource="http://creativecommons.org/ns#Reproduction" />
        <cc:permits
           rdf:resource="http://creativecommons.org/ns#Distribution" />
        <cc:requires
           rdf:resource="http://creativecommons.org/ns#Notice" />
        <cc:requires
           rdf:resource="http://creativecommons.org/ns#Attribution" />
        <cc:permits
           rdf:resource="http://creativecommons.org/ns#DerivativeWorks" />
        <cc:requires
           rdf:resource="http://creativecommons.org/ns#ShareAlike" />
      </cc:License>
    </rdf:RDF>
  </metadata>
  <sodipodi:namedview
     inkscape:cy="12.262347"
     pagecolor="#4d4d4d"
     borderopacity="1"
     showborder="false"
     inkscape:bbox-paths="false"
     guidetolerance="10"
     inkscape:object-paths="true"
     inkscape:window-width="1366"
     showguides="true"
     inkscape:object-nodes="true"
     inkscape:snap-bbox="true"
     inkscape:pageshadow="2"
     inkscape:guide-bbox="true"
     inkscape:snap-nodes="false"
     bordercolor="#666666"
     objecttolerance="10"
     id="namedview88"
     showgrid="true"
     inkscape:window-maximized="1"
     inkscape:window-x="0"
     inkscape:snap-global="true"
     inkscape:window-y="28"
     gridtolerance="10"
     inkscape:window-height="675"
     inkscape:snap-others="false"
     inkscape:snap-to-guides="true"
     inkscape:current-layer="layer12"
     inkscape:snap-bbox-midpoints="false"
     inkscape:zoom="14.852481"
     inkscape:cx="-6.4877438"
     inkscape:snap-grids="true"
     inkscape:pageopacity="0"
     inkscape:bbox-nodes="true"
     inkscape:snap-bbox-edge-midpoints="false">
    <inkscape:grid
       spacingx="1px"
       spacingy="1px"
       id="grid4866"
       empspacing="2"
       enabled="true"
       type="xygrid"
       snapvisiblegridlinesonly="true"
       visible="true" />
    <sodipodi:guide
       position="0,0"
       orientation="0,16.085251"
       id="guide3001" />
    <sodipodi:guide
       position="24,16.798541"
       orientation="-16.02426,0"
       id="guide3003" />
    <sodipodi:guide
       position="15.620287,24"
       orientation="0,-16.085251"
       id="guide3005" />
    <sodipodi:guide
       position="0,16.02426"
       orientation="16.02426,0"
       id="guide3007" />
    <sodipodi:guide
       position="0,0"
       orientation="0,24"
       id="guide3022" />
    <sodipodi:guide
       position="24,0"
       orientation="-24,0"
       id="guide3024" />
    <sodipodi:guide
       position="24,24"
       orientation="0,-24"
       id="guide3026" />
    <sodipodi:guide
       position="0,24"
       orientation="24,0"
       id="guide3028" />
    <sodipodi:guide
       position="0,0"
       orientation="0,16"
       id="guide3038" />
    <sodipodi:guide
       position="16,0"
       orientation="-16,0"
       id="guide3040" />
    <sodipodi:guide
       position="16,16"
       orientation="0,-16"
       id="guide3042" />
    <sodipodi:guide
       position="0,16"
       orientation="16,0"
       id="guide3044" />
  </sodipodi:namedview>
  <defs
     id="defs7386">
    <inkscape:path-effect
       effect="spiro"
       id="path-effect91806"
       is_visible="true" />
  </defs>
  <g
     inkscape:label="GNU PSPP Symbolic icon theme"
     transform="translate(-60.952227,-647)"
     inkscape:groupmode="layer"
     id="layer12"
     style="display:inline">
    <g
       transform="matrix(1.5,0,0,1.4993893,4.95223,514.16573)"
       inkscape:label="lc_togglemergecells"
       id="lc_mergecells"
       style="display:inline">
      <path
         sodipodi:nodetypes="ccccccccccccccccccccccccccccccccccccccccccccccccccccccc"
         inkscape:connector-curvature="0"
         id="path4419"
         d="m 482.6666,239.03523 -1.33332,-0.005 -2e-5,1.33839 1e-5,3.99635 10e-6,4.66987 0,1.33334 1.33332,0.005 5.33333,0 5.33333,0 1.33335,-0.005 0,-1.33331 0,-4.66987 -10e-6,-3.99635 10e-6,-1.33836 -1.33335,0.005 -5.33333,0 z m 0,1.33192 2,0 0.66666,0 0,2 -2.66666,0 z m 4,0 2.66666,0 0,2 -2.66666,0 z m 4,0 2.66666,0 0,2 -2.66666,0 z m -8,3.32968 10.66667,0 0,2 -10.66667,0 z m 0,3.33654 2.66667,0 0,2 -0.66667,0 -2,0 z m 4,0 2.66667,0 0,2 -2.66667,0 z m 4,0 2.66667,0 0,2 -2,0 -0.66667,0 z"
         style="font-size:medium;font-style:normal;font-variant:normal;font-weight:normal;font-stretch:normal;text-indent:0;text-align:start;text-decoration:none;line-height:normal;letter-spacing:normal;word-spacing:normal;text-transform:none;direction:ltr;block-progression:tb;writing-mode:lr-tb;text-anchor:start;baseline-shift:baseline;opacity:0.35;color:#000000;fill:#555753;fill-opacity:1;stroke:none;stroke-width:2;marker:none;visibility:visible;display:inline;overflow:visible;enable-background:new;font-family:Sans;-inkscape-font-specification:Sans" />
      <rect
         style="fill:none;stroke:none"
         id="rect4421"
         width="16"
         height="16"
         x="480"
         y="236.36221" />
      <g
         transform="matrix(0.66666667,0,0,0.6669382,378.66661,-113.36262)"
         style="display:inline"
         id="g4423">
        <rect
           y="533.37408"
           x="154"
           height="6.9999561"
           width="2"
           id="rect4425"
           style="fill:#555753;fill-opacity:1;fill-rule:nonzero;stroke:none" />
        <rect
           y="538.37408"
           x="154"
           height="2"
           width="20"
           id="rect4427"
           style="fill:#555753;fill-opacity:1;fill-rule:nonzero;stroke:none" />
        <rect
           y="533.37408"
           x="172"
           height="6.9999561"
           width="2"
           id="rect4429"
           style="fill:#555753;fill-opacity:1;fill-rule:nonzero;stroke:none" />
        <rect
           y="533.37408"
           x="154"
           height="2"
           width="20"
           id="rect4431"
           style="fill:#555753;fill-opacity:1;fill-rule:nonzero;stroke:none" />
      </g>
    </g>
    <g
       transform="matrix(1.5,0,0,1.4993893,4.95223,514.16573)"
       inkscape:label="lc_togglemergecells"
       id="lc_mergecells-7"
       style="display:inline">
      <path
         sodipodi:nodetypes="ccccccccccccccccccccccccccccccccccccccccccccccccccccccc"
         inkscape:connector-curvature="0"
         id="path4435"
         d="m 482.6666,239.03523 -1.33332,-0.005 -2e-5,1.33839 1e-5,3.99635 10e-6,4.66987 0,1.33334 1.33332,0.005 5.33333,0 5.33333,0 1.33335,-0.005 0,-1.33331 0,-4.66987 -10e-6,-3.99635 10e-6,-1.33836 -1.33335,0.005 -5.33333,0 z m 0,1.33192 2,0 0.66666,0 0,2 -2.66666,0 z m 4,0 2.66666,0 0,2 -2.66666,0 z m 4,0 2.66666,0 0,2 -2.66666,0 z m -8,3.32968 10.66667,0 0,2 -10.66667,0 z m 0,3.33654 2.66667,0 0,2 -0.66667,0 -2,0 z m 4,0 2.66667,0 0,2 -2.66667,0 z m 4,0 2.66667,0 0,2 -2,0 -0.66667,0 z"
         style="font-size:medium;font-style:normal;font-variant:normal;font-weight:normal;font-stretch:normal;text-indent:0;text-align:start;text-decoration:none;line-height:normal;letter-spacing:normal;word-spacing:normal;text-transform:none;direction:ltr;block-progression:tb;writing-mode:lr-tb;text-anchor:start;baseline-shift:baseline;opacity:0.35;color:#000000;fill:#555753;fill-opacity:1;stroke:none;stroke-width:2;marker:none;visibility:visible;display:inline;overflow:visible;enable-background:new;font-family:Sans;-inkscape-font-specification:Sans" />
      <rect
         style="fill:none;stroke:none"
         id="rect4437"
         width="16"
         height="16"
         x="480"
         y="236.36221" />
      <g
         transform="matrix(0.66666667,0,0,0.6669382,378.66661,-113.36262)"
         style="display:inline"
         id="g4439">
        <rect
           y="533.37408"
           x="154"
           height="6.9999561"
           width="2"
           id="rect4441"
           style="fill:#555753;fill-opacity:1;fill-rule:nonzero;stroke:none" />
        <rect
           y="538.37408"
           x="154"
           height="2"
           width="20"
           id="rect4443"
           style="fill:#555753;fill-opacity:1;fill-rule:nonzero;stroke:none" />
        <rect
           y="533.37408"
           x="172"
           height="6.9999561"
           width="2"
           id="rect4445"
           style="fill:#555753;fill-opacity:1;fill-rule:nonzero;stroke:none" />
        <rect
           y="533.37408"
           x="154"
           height="2"
           width="20"
           id="rect4447"
           style="fill:#555753;fill-opacity:1;fill-rule:nonzero;stroke:none" />
      </g>
    </g>
    <g
       id="g3030"
       transform="matrix(0.72405859,0,0,0.72727137,16.095187,181.54635)">
      <g
         id="text3010"
         style="font-size:19.0356102px;font-style:normal;font-variant:normal;font-weight:normal;font-stretch:normal;line-height:125%;letter-spacing:0px;word-spacing:0px;fill:#555753;fill-opacity:1;stroke:none;font-family:Open Sans;-inkscape-font-specification:Open Sans"
         transform="scale(1.0791155,0.92668486)">
        <path
           id="path3033"
           style="font-weight:bold;fill:#555753;-inkscape-font-specification:Open Sans Bold"
           d="m 64.69726,701.2392 -0.548389,-1.4128 -0.07436,0 c -0.477136,0.60106 -0.969757,1.01932 -1.477862,1.25479 -0.501921,0.22927 -1.158748,0.3439 -1.970483,0.3439 -0.997638,0 -1.784591,-0.28504 -2.360862,-0.85511 -0.570078,-0.57008 -0.855116,-1.38182 -0.855115,-2.43522 -1e-6,-1.10297 0.384181,-1.91471 1.152546,-2.43522 0.774559,-0.5267 1.939497,-0.81793 3.494819,-0.87371 l 1.803178,-0.0558 0,-0.45544 c -7e-6,-1.05339 -0.539101,-1.58009 -1.617283,-1.5801 -0.830334,10e-6 -1.80628,0.25096 -2.92784,0.75287 l -0.938768,-1.91471 c 1.195919,-0.62584 2.521966,-0.93876 3.978145,-0.93877 1.394202,10e-6 2.463095,0.30364 3.206682,0.91088 0.743569,0.60727 1.115358,1.53054 1.115368,2.76983 l 0,6.92458 -1.979778,0 m -0.836526,-4.81467 -1.096778,0.0372 c -0.824138,0.0248 -1.43759,0.17351 -1.840357,0.44615 -0.402776,0.27265 -0.604161,0.68782 -0.604157,1.2455 -4e-6,0.79935 0.458535,1.19902 1.37562,1.19902 0.656822,0 1.180424,-0.18899 1.570809,-0.56698 0.396569,-0.37799 0.594856,-0.8799 0.594863,-1.50575 l 0,-0.85511"
           inkscape:connector-curvature="0" />
      </g>
      <g
         id="text3018"
         style="font-size:17.96543312px;font-style:normal;font-variant:normal;font-weight:normal;font-stretch:normal;line-height:125%;letter-spacing:0px;word-spacing:0px;fill:#555753;fill-opacity:1;stroke:none;font-family:Open Sans;-inkscape-font-specification:Open Sans"
         transform="matrix(1.1437796,0,0,0.98358058,-7.8689831,-1.097925e-5)">
        <path
           inkscape:connector-curvature="0"
           id="path3030"
           style="font-weight:bold;fill:#555753;-inkscape-font-specification:Open Sans Bold"
           d="m 66.497663,673.05112 c -3.052723,-10e-6 -4.579081,-1.67549 -4.57908,-5.02647 -10e-7,-1.6667 0.415215,-2.93867 1.24565,-3.8159 0.83043,-0.88305 2.020522,-1.32459 3.570279,-1.3246 1.134529,10e-6 2.152101,0.22224 3.05272,0.66669 l -0.789497,2.07024 c -0.421072,-0.16959 -0.812896,-0.30702 -1.175472,-0.4123 -0.36259,-0.1111 -0.725174,-0.16666 -1.087751,-0.16667 -1.391858,10e-6 -2.087784,0.98834 -2.08778,2.965 -4e-6,1.91819 0.695922,2.87728 2.08778,2.87728 0.514628,0 0.99125,-0.0673 1.429866,-0.20176 0.438602,-0.14036 0.87721,-0.35674 1.315827,-0.64915 l 0,2.28954 c -0.432769,0.27487 -0.871377,0.46493 -1.315827,0.5702 -0.438616,0.10526 -0.994187,0.15789 -1.666715,0.1579" />
      </g>
      <g
         id="text3022"
         style="font-size:16.8270607px;font-style:normal;font-variant:normal;font-weight:normal;font-stretch:normal;line-height:125%;letter-spacing:0px;word-spacing:0px;fill:#555753;fill-opacity:1;stroke:none;font-family:Open Sans;-inkscape-font-specification:Open Sans"
         transform="scale(1.1771772,0.84948976)">
        <path
           id="path3027"
           style="font-weight:bold;fill:#555753;-inkscape-font-specification:Open Sans Bold"
           d="m 67.932222,763.88268 c 1.084549,10e-6 1.93357,0.42452 2.547065,1.27353 0.613477,0.84355 0.92022,2.00206 0.92023,3.47551 -1e-5,1.51729 -0.317708,2.69223 -0.953095,3.52481 -0.629928,0.83259 -1.489904,1.24889 -2.57993,1.24889 -1.079085,0 -1.925367,-0.39165 -2.538849,-1.17494 l -0.172543,0 -0.419033,1.01061 -1.914407,0 0,-12.78462 2.505983,0 0,2.97431 c -4e-6,0.37796 -0.03287,0.98323 -0.0986,1.81581 l 0.0986,0 c 0.586094,-0.90926 1.454287,-1.3639 2.604579,-1.36391 m -0.805201,2.00479 c -0.618969,0 -1.070867,0.19172 -1.355696,0.57514 -0.284837,0.37796 -0.432731,1.00514 -0.443682,1.88154 l 0,0.27114 c -4e-6,0.98596 0.145151,1.69257 0.435466,2.11982 0.295784,0.42725 0.761376,0.64087 1.396777,0.64087 0.514885,0 0.922963,-0.23553 1.224235,-0.7066 0.306736,-0.47655 0.460107,-1.16672 0.460115,-2.07052 -8e-6,-0.90379 -0.153379,-1.58027 -0.460115,-2.02944 -0.30675,-0.45463 -0.725783,-0.68195 -1.2571,-0.68195"
           inkscape:connector-curvature="0" />
      </g>
    </g>
  </g>
</svg>
