<?xml version="1.0" encoding="UTF-8" standalone="no"?>
<!-- Created with Inkscape (http://www.inkscape.org/) -->

<svg
   xmlns:dc="http://purl.org/dc/elements/1.1/"
   xmlns:cc="http://creativecommons.org/ns#"
   xmlns:rdf="http://www.w3.org/1999/02/22-rdf-syntax-ns#"
   xmlns:svg="http://www.w3.org/2000/svg"
   xmlns="http://www.w3.org/2000/svg"
   xmlns:sodipodi="http://sodipodi.sourceforge.net/DTD/sodipodi-0.dtd"
   xmlns:inkscape="http://www.inkscape.org/namespaces/inkscape"
   width="16"
   height="16"
   id="svg3991"
   version="1.1"
   inkscape:version="0.48.4 r9939"
   sodipodi:docname="edit-go-to-case.svg">
  <title
     id="title4018">GNU PSPP flat icon set</title>
  <defs
     id="defs3993" />
  <sodipodi:namedview
     id="base"
     pagecolor="#ffffff"
     bordercolor="#666666"
     borderopacity="1.0"
     inkscape:pageopacity="0.0"
     inkscape:pageshadow="2"
     inkscape:zoom="22.4"
     inkscape:cx="8"
     inkscape:cy="6.1783041"
     inkscape:document-units="px"
     inkscape:current-layer="layer1"
     showgrid="true"
     inkscape:window-width="683"
     inkscape:window-height="709"
     inkscape:window-x="0"
     inkscape:window-y="27"
     inkscape:window-maximized="0"
     showborder="false"
     inkscape:snap-bbox="true">
    <inkscape:grid
       type="xygrid"
       id="grid2983"
       empspacing="5"
       visible="true"
       enabled="true"
       snapvisiblegridlinesonly="true" />
    <sodipodi:guide
       position="0,0"
       orientation="0,16"
       id="guide2985" />
    <sodipodi:guide
       position="16,0"
       orientation="-16,0"
       id="guide2987" />
    <sodipodi:guide
       position="16,16"
       orientation="0,-16"
       id="guide2989" />
    <sodipodi:guide
       position="0,16"
       orientation="16,0"
       id="guide2991" />
  </sodipodi:namedview>
  <metadata
     id="metadata3996">
    <rdf:RDF>
      <cc:Work
         rdf:about="">
        <dc:format>image/svg+xml</dc:format>
        <dc:type
           rdf:resource="http://purl.org/dc/dcmitype/StillImage" />
        <dc:title>GNU PSPP flat icon set</dc:title>
        <cc:license
           rdf:resource="http://creativecommons.org/licenses/by-sa/3.0/" />
        <dc:creator>
          <cc:Agent>
            <dc:title>Bastián Díaz</dc:title>
          </cc:Agent>
        </dc:creator>
        <dc:source>https://github.com/bedf/PSPPire-artwork</dc:source>
      </cc:Work>
      <cc:License
         rdf:about="http://creativecommons.org/licenses/by-sa/3.0/">
        <cc:permits
           rdf:resource="http://creativecommons.org/ns#Reproduction" />
        <cc:permits
           rdf:resource="http://creativecommons.org/ns#Distribution" />
        <cc:requires
           rdf:resource="http://creativecommons.org/ns#Notice" />
        <cc:requires
           rdf:resource="http://creativecommons.org/ns#Attribution" />
        <cc:permits
           rdf:resource="http://creativecommons.org/ns#DerivativeWorks" />
        <cc:requires
           rdf:resource="http://creativecommons.org/ns#ShareAlike" />
      </cc:License>
    </rdf:RDF>
  </metadata>
  <g
     inkscape:label="Layer 1"
     inkscape:groupmode="layer"
     id="layer1"
     transform="translate(0,-1036.3622)">
    <g
       transform="translate(140,914.99847)"
       style="display:inline"
       id="g7342">
      <g
         transform="translate(-28,-178.99847)"
         inkscape:label="sc_designerdialog"
         id="g8828"
         style="display:inline">
        <rect
           style="fill:none;stroke:none"
           id="rect8830"
           width="16"
           height="16"
           x="-112"
           y="-736"
           transform="translate(0,1036.3622)" />
      </g>
      <path
         inkscape:connector-curvature="0"
         id="path7755-4"
         d="m -135.5,122.375 c -2.48527,0 -4.5,1.91432 -4.5,4.28125 l 0,5.71875 3,0 0,-2.875 3,0 0,2.875 1.125,0 0.96875,0 c -0.0587,-0.31716 -0.0937,-0.65709 -0.0937,-1 0,-1.00857 0.25785,-1.94927 0.75,-2.6875 0.0715,-0.10731 0.1659,-0.21338 0.25,-0.3125 l 0,-0.78125 0,-0.21875 0,-0.71875 c 0,-2.36693 -2.01472,-4.28125 -4.5,-4.28125 z m 0,2.84375 c 0.82842,0 1.5,0.64852 1.5,1.4375 l 0,0.71875 0,0.6875 -3,0 0,-1.40625 c 0,-0.78898 0.67158,-1.4375 1.5,-1.4375 z"
         style="fill:#555753;fill-opacity:1;stroke:none;display:inline" />
      <path
         inkscape:connector-curvature="0"
         id="rect6645-5-7"
         d="m -129,128.36218 c -1.10457,0 -2,1.34315 -2,3 0,1.65685 0.89543,3 2,3 l 0,3 3,0 0,-3 c 1.10457,0 2,-1.34315 2,-3 0,-1.65685 -0.89543,-3 -2,-3 l 0,3 c 0,0.554 -0.446,1 -1,1 l -1,0 c -0.554,0 -1,-0.446 -1,-1 l 0,-3 z"
         style="fill:#555753;fill-opacity:1;stroke:none;display:inline" />
    </g>
  </g>
</svg>
