<?xml version="1.0" encoding="UTF-8" standalone="no"?>
<!-- Created with Inkscape (http://www.inkscape.org/) -->

<svg
   xmlns:dc="http://purl.org/dc/elements/1.1/"
   xmlns:cc="http://creativecommons.org/ns#"
   xmlns:rdf="http://www.w3.org/1999/02/22-rdf-syntax-ns#"
   xmlns:svg="http://www.w3.org/2000/svg"
   xmlns="http://www.w3.org/2000/svg"
   xmlns:sodipodi="http://sodipodi.sourceforge.net/DTD/sodipodi-0.dtd"
   xmlns:inkscape="http://www.inkscape.org/namespaces/inkscape"
   sodipodi:docname="variable-date-scale.svg"
   height="24"
   id="svg7384"
   inkscape:version="0.48.4 r9939"
   version="1.1"
   width="24"
   inkscape:export-filename="/home/raizen/Escritorio/PSPP icon original/Carpeta sin título/date-scale.png"
   inkscape:export-xdpi="90"
   inkscape:export-ydpi="90">
  <metadata
     id="metadata90">
    <rdf:RDF>
      <cc:Work
         rdf:about="">
        <dc:format>image/svg+xml</dc:format>
        <dc:type
           rdf:resource="http://purl.org/dc/dcmitype/StillImage" />
        <dc:title />
        <dc:creator>
          <cc:Agent>
            <dc:title>GNU PSPP Community</dc:title>
          </cc:Agent>
        </dc:creator>
        <cc:license
           rdf:resource="http://www.gnu.org/licenses/gpl-3.0.html" />
      </cc:Work>
    </rdf:RDF>
  </metadata>
  <sodipodi:namedview
     inkscape:bbox-paths="false"
     bordercolor="#666666"
     borderopacity="1"
     inkscape:current-layer="layer12"
     inkscape:cx="-3.9315546"
     inkscape:cy="7.2346796"
     gridtolerance="10"
     inkscape:guide-bbox="true"
     guidetolerance="10"
     id="namedview88"
     inkscape:object-nodes="false"
     inkscape:object-paths="false"
     objecttolerance="10"
     pagecolor="#848484"
     inkscape:pageopacity="0"
     inkscape:pageshadow="2"
     showborder="false"
     showgrid="true"
     showguides="true"
     inkscape:snap-bbox="true"
     inkscape:snap-bbox-midpoints="false"
     inkscape:snap-global="true"
     inkscape:snap-grids="true"
     inkscape:snap-nodes="false"
     inkscape:snap-others="false"
     inkscape:snap-to-guides="true"
     inkscape:window-height="675"
     inkscape:window-maximized="1"
     inkscape:window-width="1366"
     inkscape:window-x="0"
     inkscape:window-y="28"
     inkscape:zoom="12.904699"
     inkscape:bbox-nodes="true"
     inkscape:snap-bbox-edge-midpoints="true">
    <inkscape:grid
       empspacing="2"
       enabled="true"
       id="grid4866"
       snapvisiblegridlinesonly="true"
       spacingx="1px"
       spacingy="1px"
       type="xygrid"
       visible="true" />
    <sodipodi:guide
       position="0,0"
       orientation="0,16"
       id="guide2994" />
    <sodipodi:guide
       position="16,0"
       orientation="-16,0"
       id="guide2996" />
    <sodipodi:guide
       position="16,16"
       orientation="0,-16"
       id="guide2998" />
    <sodipodi:guide
       position="0,16"
       orientation="16,0"
       id="guide3000" />
    <sodipodi:guide
       position="0,0"
       orientation="0,24"
       id="guide3004" />
    <sodipodi:guide
       position="24,0"
       orientation="-24,0"
       id="guide3006" />
    <sodipodi:guide
       position="24,24"
       orientation="0,-24"
       id="guide3008" />
    <sodipodi:guide
       position="0,24"
       orientation="24,0"
       id="guide3010" />
  </sodipodi:namedview>
  <defs
     id="defs7386" />
  <g
     inkscape:groupmode="layer"
     id="layer12"
     inkscape:label="actions"
     style="display:inline"
     transform="translate(-541.0002,-293)">
    <g
       id="g3804"
       transform="translate(-3.0001784,-1.0013833)">
      <rect
         y="310.375"
         x="563.00018"
         width="4.0000167"
         style="opacity:0.35;color:#000000;fill:#555753;fill-opacity:1;stroke:none;stroke-width:1;marker:none;visibility:visible;display:inline;overflow:visible;enable-background:accumulate"
         id="rect27810-3"
         height="3" />
      <path
         id="rect2994-2"
         d="m 557.09395,306 c -0.6094,0 -1.09375,0.57307 -1.09375,1.25 l 0,2.4375 0,6.75 c 0.007,0.0551 0.0125,0.13793 0.0313,0.1875 0.0445,0.14782 0.15293,0.28366 0.28125,0.34375 0.008,0.003 0.0233,-0.003 0.0313,0 0.0491,0.0183 0.0703,0.0313 0.125,0.0313 0.0239,0.003 0.069,0 0.0937,0 l 0.0625,0 9.8125,0 c 0.0855,0 0.17798,0.007 0.25,-0.0313 0.12395,-0.0581 0.229,-0.17482 0.28125,-0.3125 0.0345,-0.08 0.0313,-0.18633 0.0313,-0.28125 l 0,-8.59375 0,-0.53125 c -1e-4,-0.67693 -0.48435,-1.25 -1.09375,-1.25 l -2.21875,0 -1.09375,0 -2.1875,0 -1.09375,0 -2.21875,0 z m 0.25,2 1.8125,0 c 0.18975,0 0.34375,0.154 0.34375,0.34375 l 0,1.3125 c 0,0.18975 -0.154,0.34375 -0.34375,0.34375 l -1.8125,0 c -0.18975,0 -0.34375,-0.154 -0.34375,-0.34375 l 0,-1.3125 c 0,-0.18975 0.154,-0.34375 0.34375,-0.34375 z m 3.28125,0 1.84375,0 c 0.18975,0 0.34375,0.154 0.34375,0.34375 l 0,1.3125 c 0,0.18975 -0.154,0.34375 -0.34375,0.34375 l -1.84375,0 c -0.18975,0 -0.34375,-0.154 -0.34375,-0.34375 l 0,-1.3125 c 0,-0.18975 0.154,-0.34375 0.34375,-0.34375 z m 3.21875,0 1.8125,0 c 0.18975,0 0.34375,0.154 0.34375,0.34375 l 0,1.3125 c 0,0.18975 -0.154,0.34375 -0.34375,0.34375 l -1.8125,0 c -0.18975,0 -0.34375,-0.154 -0.34375,-0.34375 l 0,-1.3125 c 0,-0.18975 0.154,-0.34375 0.34375,-0.34375 z m -6.5,3 1.8125,0 c 0.18975,0 0.34375,0.154 0.34375,0.34375 l 0,1.3125 c 0,0.18975 -0.154,0.34375 -0.34375,0.34375 l -1.8125,0 c -0.18975,0 -0.34375,-0.154 -0.34375,-0.34375 l 0,-1.3125 c 0,-0.18975 0.154,-0.34375 0.34375,-0.34375 z m 3.28125,0 1.84375,0 c 0.18975,0 0.34375,0.154 0.34375,0.34375 l 0,1.3125 c 0,0.18975 -0.154,0.34375 -0.34375,0.34375 l -1.84375,0 c -0.18975,0 -0.34375,-0.154 -0.34375,-0.34375 l 0,-1.3125 c 0,-0.18975 0.154,-0.34375 0.34375,-0.34375 z m 3.21875,0 1.8125,0 c 0.18975,0 0.34375,0.154 0.34375,0.34375 l 0,1.3125 c 0,0.18975 -0.154,0.34375 -0.34375,0.34375 l -1.8125,0 c -0.18975,0 -0.34375,-0.154 -0.34375,-0.34375 l 0,-1.3125 c 0,-0.18975 0.154,-0.34375 0.34375,-0.34375 z m -6.5,3 1.8125,0 c 0.18975,0 0.34375,0.154 0.34375,0.34375 l 0,1.3125 c 0,0.18975 -0.154,0.34375 -0.34375,0.34375 l -1.8125,0 c -0.18975,0 -0.34375,-0.154 -0.34375,-0.34375 l 0,-1.3125 c 0,-0.18975 0.154,-0.34375 0.34375,-0.34375 z m 3.28125,0 1.84375,0 c 0.18975,0 0.34375,0.154 0.34375,0.34375 l 0,1.3125 c 0,0.18975 -0.154,0.34375 -0.34375,0.34375 l -1.84375,0 c -0.18975,0 -0.34375,-0.154 -0.34375,-0.34375 l 0,-1.3125 c 0,-0.18975 0.154,-0.34375 0.34375,-0.34375 z m 3.21875,0 1.8125,0 c 0.18975,0 0.34375,0.154 0.34375,0.34375 l 0,1.3125 c 0,0.18975 -0.154,0.34375 -0.34375,0.34375 l -1.8125,0 c -0.18975,0 -0.34375,-0.154 -0.34375,-0.34375 l 0,-1.3125 c 0,-0.18975 0.154,-0.34375 0.34375,-0.34375 z"
         style="fill:#555753;fill-opacity:1;stroke:none;display:inline"
         inkscape:connector-curvature="0" />
    </g>
    <path
       style="fill:#555753;fill-opacity:1;stroke:none;display:inline;opacity:0.35"
       d="M 17.28125 0 C 17.213228 0.0009921875 17.159497 0.01819375 17.09375 0.03125 C 16.962256 0.0573625 16.839195 0.1081 16.71875 0.1875 C 16.65845 0.2272 16.58337 0.22745 16.53125 0.28125 C 16.51625 0.29665 16.48245 0.32765 16.46875 0.34375 C 16.41005 0.38995 16.36647 0.41306 16.3125 0.46875 L 0.4375 16.84375 C 0.3836 16.89945 0.35636 16.97154 0.3125 17.03125 C 0.2968 17.04565 0.265 17.0471 0.25 17.0625 C 0.1979 17.1163 0.19351 17.22035 0.15625 17.28125 C 0.00719 17.52468 -0.05416 17.76894 0.03125 18.03125 C 0.03725 18.05905 0.02225 18.0983 0.03125 18.125 C 0.03425 18.133 0.0591 18.14875 0.0625 18.15625 C 0.1057 18.27221 0.18754 18.38254 0.28125 18.46875 C 0.28825 18.47575 0.3051 18.46195 0.3125 18.46875 L 6 23.71875 C 6.007 23.72575 6.02415 23.7435 6.03125 23.75 C 6.12495 23.8362 6.25372 23.9022 6.375 23.9375 C 6.7423 24.07129 7.15051 23.98365 7.4375 23.6875 C 7.4525 23.6721 7.4863 23.67235 7.5 23.65625 C 7.5587 23.61005 7.60228 23.58694 7.65625 23.53125 L 10.125 21 L 10 21 L 10 20.4375 L 10 20 L 10 18.21875 L 9.375 18.84375 L 6.96875 16.625 C 6.7256 16.4013 6.32334 16.41937 6.09375 16.65625 L 5.5625 17.21875 C 5.33291 17.45566 5.35058 17.8388 5.59375 18.0625 L 8 20.28125 L 6.65625 21.65625 L 2.40625 17.71875 L 17.3125 2.34375 L 21.5625 6.28125 L 20.25 7.625 L 17.84375 5.40625 C 17.6006 5.18256 17.19833 5.20054 16.96875 5.4375 L 16.4375 6 C 16.20792 6.2369 16.19434 6.62005 16.4375 6.84375 L 18.84375 9.0625 L 17.9375 10 L 19.90625 10 C 19.937411 10 19.969723 9.9964825 20 10 L 20.78125 10 L 23.5625 7.125 C 23.6164 7.0693 23.64366 7.02846 23.6875 6.96875 C 23.7032 6.95435 23.70375 6.92175 23.71875 6.90625 C 23.99931 6.61675 24.08248 6.21984 23.9375 5.875 C 23.8952 5.74767 23.78882 5.62445 23.6875 5.53125 C 23.6805 5.52425 23.6949 5.5068 23.6875 5.5 L 17.96875 0.25 C 17.96175 0.243 17.9446 0.22525 17.9375 0.21875 C 17.8438 0.13255 17.71503 0.06655 17.59375 0.03125 C 17.55635 0.02035 17.53924 0.03735 17.5 0.03125 C 17.431585 0.014225 17.349272 -0.0009921875 17.28125 0 z M 16.125 9.28125 C 16.022296 9.2841225 15.920275 9.32727 15.84375 9.40625 L 15.28125 10 L 16.59375 10 L 17.0625 10 L 16.40625 9.40625 C 16.3252 9.33168 16.227704 9.2783775 16.125 9.28125 z M 10 15.4375 L 9.5625 15.90625 C 9.40943 16.06419 9.43164 16.28837 9.59375 16.4375 L 10 16.8125 L 10 15.4375 z "
       transform="translate(541.0002,293)"
       id="rect4003" />
  </g>
</svg>
