<?xml version="1.0" encoding="UTF-8" standalone="no"?>
<!-- Created with Inkscape (http://www.inkscape.org/) -->

<svg
   xmlns:dc="http://purl.org/dc/elements/1.1/"
   xmlns:cc="http://creativecommons.org/ns#"
   xmlns:rdf="http://www.w3.org/1999/02/22-rdf-syntax-ns#"
   xmlns:svg="http://www.w3.org/2000/svg"
   xmlns="http://www.w3.org/2000/svg"
   xmlns:sodipodi="http://sodipodi.sourceforge.net/DTD/sodipodi-0.dtd"
   xmlns:inkscape="http://www.inkscape.org/namespaces/inkscape"
   sodipodi:docname="variable-date-nominal.svg"
   height="24"
   id="svg7384"
   inkscape:version="0.48.4 r9939"
   version="1.1"
   width="24">
  <metadata
     id="metadata90">
    <rdf:RDF>
      <cc:Work
         rdf:about="">
        <dc:format>image/svg+xml</dc:format>
        <dc:type
           rdf:resource="http://purl.org/dc/dcmitype/StillImage" />
        <dc:title />
        <dc:creator>
          <cc:Agent>
            <dc:title>GNU PSPP Community</dc:title>
          </cc:Agent>
        </dc:creator>
        <cc:license
           rdf:resource="http://creativecommons.org/licenses/by-sa/3.0/" />
      </cc:Work>
      <cc:License
         rdf:about="http://creativecommons.org/licenses/by-sa/3.0/">
        <cc:permits
           rdf:resource="http://creativecommons.org/ns#Reproduction" />
        <cc:permits
           rdf:resource="http://creativecommons.org/ns#Distribution" />
        <cc:requires
           rdf:resource="http://creativecommons.org/ns#Notice" />
        <cc:requires
           rdf:resource="http://creativecommons.org/ns#Attribution" />
        <cc:permits
           rdf:resource="http://creativecommons.org/ns#DerivativeWorks" />
        <cc:requires
           rdf:resource="http://creativecommons.org/ns#ShareAlike" />
      </cc:License>
    </rdf:RDF>
  </metadata>
  <sodipodi:namedview
     inkscape:bbox-paths="true"
     bordercolor="#666666"
     borderopacity="1"
     inkscape:current-layer="layer11"
     inkscape:cx="-26.003031"
     inkscape:cy="3.3315008"
     gridtolerance="10"
     inkscape:guide-bbox="true"
     guidetolerance="10"
     id="namedview88"
     inkscape:object-nodes="false"
     inkscape:object-paths="false"
     objecttolerance="10"
     pagecolor="#555753"
     inkscape:pageopacity="0"
     inkscape:pageshadow="2"
     showborder="false"
     showgrid="true"
     showguides="true"
     inkscape:snap-bbox="true"
     inkscape:snap-bbox-midpoints="false"
     inkscape:snap-global="true"
     inkscape:snap-grids="true"
     inkscape:snap-nodes="false"
     inkscape:snap-others="false"
     inkscape:snap-to-guides="true"
     inkscape:window-height="675"
     inkscape:window-maximized="1"
     inkscape:window-width="1366"
     inkscape:window-x="0"
     inkscape:window-y="28"
     inkscape:zoom="8"
     inkscape:bbox-nodes="true"
     inkscape:snap-bbox-edge-midpoints="false">
    <inkscape:grid
       empspacing="2"
       enabled="true"
       id="grid4866"
       snapvisiblegridlinesonly="true"
       spacingx="1px"
       spacingy="1px"
       type="xygrid"
       visible="true" />
    <sodipodi:guide
       position="0,0"
       orientation="0,16"
       id="guide2996" />
    <sodipodi:guide
       position="16,0"
       orientation="-16,0"
       id="guide2998" />
    <sodipodi:guide
       position="13,16"
       orientation="0,-16"
       id="guide3000" />
    <sodipodi:guide
       position="0,12"
       orientation="16,0"
       id="guide3002" />
    <sodipodi:guide
       position="0,0"
       orientation="0,24"
       id="guide4287" />
    <sodipodi:guide
       position="24,0"
       orientation="-24,0"
       id="guide4289" />
    <sodipodi:guide
       position="24,24"
       orientation="0,-24"
       id="guide4291" />
    <sodipodi:guide
       position="0,24"
       orientation="24,0"
       id="guide4293" />
  </sodipodi:namedview>
  <defs
     id="defs7386" />
  <g
     inkscape:groupmode="layer"
     id="layer9"
     inkscape:label="status"
     style="display:inline"
     transform="translate(-283,-641)" />
  <g
     inkscape:groupmode="layer"
     id="layer10"
     inkscape:label="devices"
     transform="translate(-283,-641)" />
  <g
     inkscape:groupmode="layer"
     id="layer11"
     inkscape:label="apps"
     transform="translate(-283,-641)">
    <path
       style="opacity:0.35;color:#000000;fill:#555753;fill-opacity:1;stroke:none;stroke-width:2.15384625999999990;marker:none;visibility:visible;display:inline;overflow:visible;enable-background:new"
       d="M 5.4375 10.34375 C 5.30393 10.37795 5.18956 10.3948 5.0625 10.4375 C 4.7635 10.53775 4.46313 10.66885 4.1875 10.8125 C 4.1661 10.8236 4.1461 10.83235 4.125 10.84375 C 3.86041 10.98574 3.64481 11.1341 3.40625 11.3125 C 3.18642 11.4769 2.94462 11.6515 2.75 11.84375 C 2.7392 11.85445 2.72965 11.864 2.71875 11.875 C 2.69695 11.8974 2.67775 11.9147 2.65625 11.9375 C 2.4462 12.15468 2.26859 12.3782 2.09375 12.625 C 1.41498 13.58307 1 14.77293 1 16.03125 C 1 18.55621 2.61707 20.65854 4.875 21.5 C 4.872 21.5212 4.878 21.5412 4.875 21.5625 C 5.52395 21.80088 6.23573 21.9375 6.96875 21.9375 C 8.1431647 21.9375 9.2326351 21.577932 10.15625 21 L 10 21 L 10 20.4375 L 10 20 L 10 13.78125 C 9.5849018 13.722456 9.1929883 13.639775 8.8125 13.5 C 8.8155 13.4787 8.8095 13.4588 8.8125 13.4375 C 7.32148 12.88185 6.09211 11.76118 5.4375 10.34375 z "
       transform="translate(283,641)"
       id="path8593-8-0-6-9-2-6-5" />
    <path
       style="opacity:0.7;color:#000000;fill:#555753;fill-opacity:1;stroke:none;stroke-width:2.15384626;marker:none;visibility:visible;display:inline;overflow:visible;enable-background:new"
       d="M 11.65625 1 C 11.44983 1 11.23229 1.01105 11.03125 1.03125 C 11.00945 1.03325 10.99045 1.02925 10.96875 1.03125 C 10.78822 1.05125 10.61251 1.0893 10.4375 1.125 C 10.3926 1.134 10.35709 1.14605 10.3125 1.15625 C 10.11232 1.20135 9.91071 1.27925 9.71875 1.34375 C 9.41974 1.44401 9.11938 1.54384 8.84375 1.6875 C 8.82235 1.6987 8.80235 1.70735 8.78125 1.71875 C 8.51666 1.86074 8.30107 2.04034 8.0625 2.21875 C 7.84266 2.38315 7.63211 2.55777 7.4375 2.75 C 7.4267 2.7607 7.41695 2.77045 7.40625 2.78125 C 7.38445 2.80355 7.3339 2.82105 7.3125 2.84375 C 7.10246 3.06092 6.92483 3.28444 6.75 3.53125 C 6.07117 4.48947 5.65625 5.64794 5.65625 6.90625 C 5.65625 9.43122 7.30457 11.53354 9.5625 12.375 C 9.5595 12.3962 9.5655 12.44735 9.5625 12.46875 C 9.7032649 12.52046 9.8537987 12.521755 10 12.5625 L 10 11.25 C 10 10.57307 10.48435 10 11.09375 10 L 13.3125 10 L 14.40625 10 L 16.59375 10 L 16.71875 10 C 16.929401 9.6636382 17.110265 9.314485 17.25 8.9375 C 17.35057 8.66607 17.44026 8.38215 17.5 8.09375 C 17.509 8.05045 17.52325 8.01234 17.53125 7.96875 C 17.54155 7.91575 17.52325 7.83473 17.53125 7.78125 C 17.57695 7.48708 17.625 7.21302 17.625 6.90625 C 17.625 3.64374 14.959 1 11.65625 1 z "
       transform="translate(283,641)"
       id="path8593-8-0-6-9-2" />
    <g
       id="g3003">
      <rect
         y="657.375"
         x="302"
         width="4.0000167"
         style="opacity:0.35;color:#000000;fill:#555753;fill-opacity:1;stroke:none;stroke-width:1;marker:none;visibility:visible;display:inline;overflow:visible;enable-background:accumulate"
         id="rect27810"
         height="3" />
      <path
         id="rect2994"
         transform="translate(283,641)"
         d="M 13.09375,12 C 12.48435,12 12,12.57307 12,13.25 l 0,2.4375 0,6.75 c 0.007,0.0551 0.01245,0.13793 0.03125,0.1875 0.0445,0.14782 0.15293,0.28366 0.28125,0.34375 0.008,0.003 0.02325,-0.003 0.03125,0 0.0491,0.0183 0.0703,0.03125 0.125,0.03125 0.0239,0.003 0.06895,0 0.09375,0 l 0.0625,0 9.8125,0 c 0.0855,0 0.17798,0.0071 0.25,-0.03125 0.12395,-0.0581 0.229,-0.17482 0.28125,-0.3125 C 23.00325,22.57625 23,22.46992 23,22.375 L 23,13.78125 23,13.25 C 22.9999,12.57307 22.51565,12 21.90625,12 l -2.21875,0 -1.09375,0 -2.1875,0 -1.09375,0 -2.21875,0 z m 0.25,2 1.8125,0 C 15.345998,14 15.5,14.154002 15.5,14.34375 l 0,1.3125 C 15.5,15.845998 15.345998,16 15.15625,16 l -1.8125,0 C 13.154002,16 13,15.845998 13,15.65625 l 0,-1.3125 C 13,14.154002 13.154002,14 13.34375,14 z m 3.28125,0 1.84375,0 c 0.189748,0 0.34375,0.154002 0.34375,0.34375 l 0,1.3125 C 18.8125,15.845998 18.658498,16 18.46875,16 L 16.625,16 c -0.189748,0 -0.34375,-0.154002 -0.34375,-0.34375 l 0,-1.3125 C 16.28125,14.154002 16.435252,14 16.625,14 z m 3.21875,0 1.8125,0 C 21.845998,14 22,14.154002 22,14.34375 l 0,1.3125 C 22,15.845998 21.845998,16 21.65625,16 l -1.8125,0 C 19.654002,16 19.5,15.845998 19.5,15.65625 l 0,-1.3125 C 19.5,14.154002 19.654002,14 19.84375,14 z m -6.5,3 1.8125,0 C 15.345998,17 15.5,17.154002 15.5,17.34375 l 0,1.3125 C 15.5,18.845998 15.345998,19 15.15625,19 l -1.8125,0 C 13.154002,19 13,18.845998 13,18.65625 l 0,-1.3125 C 13,17.154002 13.154002,17 13.34375,17 z m 3.28125,0 1.84375,0 c 0.189748,0 0.34375,0.154002 0.34375,0.34375 l 0,1.3125 C 18.8125,18.845998 18.658498,19 18.46875,19 L 16.625,19 c -0.189748,0 -0.34375,-0.154002 -0.34375,-0.34375 l 0,-1.3125 C 16.28125,17.154002 16.435252,17 16.625,17 z m 3.21875,0 1.8125,0 C 21.845998,17 22,17.154002 22,17.34375 l 0,1.3125 C 22,18.845998 21.845998,19 21.65625,19 l -1.8125,0 C 19.654002,19 19.5,18.845998 19.5,18.65625 l 0,-1.3125 C 19.5,17.154002 19.654002,17 19.84375,17 z m -6.5,3 1.8125,0 C 15.345998,20 15.5,20.154002 15.5,20.34375 l 0,1.3125 C 15.5,21.845998 15.345998,22 15.15625,22 l -1.8125,0 C 13.154002,22 13,21.845998 13,21.65625 l 0,-1.3125 C 13,20.154002 13.154002,20 13.34375,20 z m 3.28125,0 1.84375,0 c 0.189748,0 0.34375,0.154002 0.34375,0.34375 l 0,1.3125 C 18.8125,21.845998 18.658498,22 18.46875,22 L 16.625,22 c -0.189748,0 -0.34375,-0.154002 -0.34375,-0.34375 l 0,-1.3125 C 16.28125,20.154002 16.435252,20 16.625,20 z m 3.21875,0 1.8125,0 C 21.845998,20 22,20.154002 22,20.34375 l 0,1.3125 C 22,21.845998 21.845998,22 21.65625,22 l -1.8125,0 C 19.654002,22 19.5,21.845998 19.5,21.65625 l 0,-1.3125 C 19.5,20.154002 19.654002,20 19.84375,20 z"
         style="fill:#555753;fill-opacity:1;stroke:none;display:inline"
         inkscape:connector-curvature="0" />
    </g>
  </g>
  <g
     inkscape:groupmode="layer"
     id="layer13"
     inkscape:label="places"
     transform="translate(-283,-641)" />
  <g
     inkscape:groupmode="layer"
     id="layer14"
     inkscape:label="mimetypes"
     transform="translate(-283,-641)" />
  <g
     inkscape:groupmode="layer"
     id="layer15"
     inkscape:label="emblems"
     style="display:inline"
     transform="translate(-283,-641)" />
  <g
     inkscape:groupmode="layer"
     id="g71291"
     inkscape:label="emotes"
     style="display:inline"
     transform="translate(-283,-641)" />
  <g
     inkscape:groupmode="layer"
     id="g4953"
     inkscape:label="categories"
     style="display:inline"
     transform="translate(-283,-641)" />
  <g
     inkscape:groupmode="layer"
     id="layer12"
     inkscape:label="actions"
     style="display:inline"
     transform="translate(-283,-641)" />
</svg>
