<?xml version="1.0" encoding="UTF-8" standalone="no"?>
<!-- Created with Inkscape (http://www.inkscape.org/) -->

<svg
   xmlns:dc="http://purl.org/dc/elements/1.1/"
   xmlns:cc="http://creativecommons.org/ns#"
   xmlns:rdf="http://www.w3.org/1999/02/22-rdf-syntax-ns#"
   xmlns:svg="http://www.w3.org/2000/svg"
   xmlns="http://www.w3.org/2000/svg"
   xmlns:sodipodi="http://sodipodi.sourceforge.net/DTD/sodipodi-0.dtd"
   xmlns:inkscape="http://www.inkscape.org/namespaces/inkscape"
   sodipodi:docname="scale.svg"
   height="24"
   id="svg7384"
   inkscape:version="0.48.4 r9939"
   version="1.1"
   width="24">
  <metadata
     id="metadata90">
    <rdf:RDF>
      <cc:Work
         rdf:about="">
        <dc:format>image/svg+xml</dc:format>
        <dc:type
           rdf:resource="http://purl.org/dc/dcmitype/StillImage" />
        <dc:title />
        <dc:creator>
          <cc:Agent>
            <dc:title>GNU PSPP Community</dc:title>
          </cc:Agent>
        </dc:creator>
        <cc:license
           rdf:resource="http://creativecommons.org/licenses/by-sa/3.0/" />
      </cc:Work>
      <cc:License
         rdf:about="http://creativecommons.org/licenses/by-sa/3.0/">
        <cc:permits
           rdf:resource="http://creativecommons.org/ns#Reproduction" />
        <cc:permits
           rdf:resource="http://creativecommons.org/ns#Distribution" />
        <cc:requires
           rdf:resource="http://creativecommons.org/ns#Notice" />
        <cc:requires
           rdf:resource="http://creativecommons.org/ns#Attribution" />
        <cc:permits
           rdf:resource="http://creativecommons.org/ns#DerivativeWorks" />
        <cc:requires
           rdf:resource="http://creativecommons.org/ns#ShareAlike" />
      </cc:License>
    </rdf:RDF>
  </metadata>
  <sodipodi:namedview
     inkscape:bbox-nodes="true"
     inkscape:bbox-paths="true"
     bordercolor="#666666"
     borderopacity="1"
     inkscape:current-layer="layer12"
     inkscape:cx="25.971295"
     inkscape:cy="10.723306"
     gridtolerance="10"
     inkscape:guide-bbox="true"
     guidetolerance="10"
     id="namedview88"
     inkscape:object-nodes="false"
     inkscape:object-paths="false"
     objecttolerance="10"
     pagecolor="#3a3b39"
     inkscape:pageopacity="0"
     inkscape:pageshadow="2"
     showborder="false"
     showgrid="true"
     showguides="true"
     inkscape:snap-bbox="true"
     inkscape:snap-bbox-midpoints="false"
     inkscape:snap-global="true"
     inkscape:snap-grids="true"
     inkscape:snap-nodes="false"
     inkscape:snap-others="false"
     inkscape:snap-to-guides="true"
     inkscape:window-height="675"
     inkscape:window-maximized="1"
     inkscape:window-width="1366"
     inkscape:window-x="0"
     inkscape:window-y="28"
     inkscape:zoom="16.000001"
     inkscape:snap-bbox-edge-midpoints="true">
    <inkscape:grid
       empspacing="2"
       enabled="true"
       id="grid4866"
       originx="119.9998px"
       originy="650px"
       snapvisiblegridlinesonly="true"
       spacingx="1px"
       spacingy="1px"
       type="xygrid"
       visible="true" />
    <sodipodi:guide
       position="0,0"
       orientation="0,16"
       id="guide2995" />
    <sodipodi:guide
       position="16,0"
       orientation="-16,0"
       id="guide2997" />
    <sodipodi:guide
       position="16,16"
       orientation="0,-16"
       id="guide2999" />
    <sodipodi:guide
       position="0,16"
       orientation="16,0"
       id="guide3001" />
    <sodipodi:guide
       position="0,0"
       orientation="0,24"
       id="guide3995" />
    <sodipodi:guide
       position="24,0"
       orientation="-24,0"
       id="guide3997" />
    <sodipodi:guide
       position="24,24"
       orientation="0,-24"
       id="guide3999" />
    <sodipodi:guide
       position="0,24"
       orientation="24,0"
       id="guide4001" />
  </sodipodi:namedview>
  <defs
     id="defs7386" />
  <g
     inkscape:groupmode="layer"
     id="layer9"
     inkscape:label="status"
     style="display:inline"
     transform="translate(-121.0004,-859)" />
  <g
     inkscape:groupmode="layer"
     id="layer10"
     inkscape:label="devices"
     transform="translate(-121.0004,-859)" />
  <g
     inkscape:groupmode="layer"
     id="layer11"
     inkscape:label="apps"
     transform="translate(-121.0004,-859)" />
  <g
     inkscape:groupmode="layer"
     id="layer13"
     inkscape:label="places"
     transform="translate(-121.0004,-859)" />
  <g
     inkscape:groupmode="layer"
     id="layer14"
     inkscape:label="mimetypes"
     transform="translate(-121.0004,-859)" />
  <g
     inkscape:groupmode="layer"
     id="layer15"
     inkscape:label="emblems"
     style="display:inline"
     transform="translate(-121.0004,-859)" />
  <g
     inkscape:groupmode="layer"
     id="g71291"
     inkscape:label="emotes"
     style="display:inline"
     transform="translate(-121.0004,-859)" />
  <g
     inkscape:groupmode="layer"
     id="g4953"
     inkscape:label="categories"
     style="display:inline"
     transform="translate(-121.0004,-859)" />
  <g
     inkscape:groupmode="layer"
     id="layer12"
     inkscape:label="actions"
     style="display:inline"
     transform="translate(-121.0004,-859)">
    <rect
       y="863.99988"
       x="102.0004"
       height="24"
       width="24"
       id="rect18776"
       style="fill:none;stroke:none" />
    <path
       style="fill:#555753;fill-opacity:1;stroke:none"
       d="m 138.9416,859.22863 c -0.0937,-0.0862 -0.21228,-0.14723 -0.33356,-0.18253 -0.0374,-0.0109 -0.0707,-0.0121 -0.10994,-0.0182 -0.27366,-0.0681 -0.54236,-0.009 -0.78325,0.1498 -0.0603,0.0397 -0.14149,0.0582 -0.19361,0.112 -0.015,0.0154 -0.0288,0.0277 -0.0425,0.0438 -0.0587,0.0462 -0.11717,0.077 -0.17114,0.13269 l -15.88342,16.38952 c -0.0539,0.0557 -0.0823,0.11437 -0.12616,0.17408 -0.0157,0.0144 -0.0275,0.0284 -0.0425,0.0438 -0.0521,0.0538 -0.0664,0.13386 -0.10366,0.19476 -0.14906,0.24343 -0.19401,0.50817 -0.1086,0.77048 0.006,0.0278 -0.006,0.0584 0.003,0.0851 0.003,0.008 0.0191,0.0131 0.0225,0.0206 0.0432,0.11596 0.11244,0.2278 0.20615,0.31401 0.007,0.007 0.0151,0.0139 0.0225,0.0207 l 5.71211,5.25507 c 0.007,0.007 0.0154,0.0142 0.0225,0.0207 0.0937,0.0862 0.21228,0.14724 0.33356,0.18254 0.3673,0.13379 0.79983,0.0526 1.08682,-0.24355 0.015,-0.0154 0.0288,-0.0277 0.0425,-0.0438 0.0587,-0.0462 0.11715,-0.077 0.17112,-0.13269 l 15.88344,-16.38953 c 0.0539,-0.0557 0.0823,-0.11436 0.12614,-0.17407 0.0157,-0.0144 0.0275,-0.0283 0.0425,-0.0438 0.28056,-0.2895 0.35474,-0.70559 0.20976,-1.05043 -0.0423,-0.12733 -0.12734,-0.2415 -0.22866,-0.3347 -0.007,-0.007 -0.0151,-0.0139 -0.0225,-0.0207 l -5.7121,-5.25507 c -0.007,-0.007 -0.0154,-0.0142 -0.0225,-0.0207 z m -0.63811,2.10698 4.27283,3.93096 -1.31654,1.35848 -2.40628,-2.21375 c -0.24315,-0.22369 -0.64488,-0.21246 -0.87446,0.0245 l -0.55211,0.5697 c -0.22958,0.2369 -0.21806,0.62831 0.0251,0.85201 l 2.40628,2.21373 -1.31653,1.35851 -1.12444,-1.03447 c -0.1621,-0.14914 -0.41534,-0.14206 -0.56839,0.0159 l -0.84939,0.87645 c -0.15305,0.15793 -0.14578,0.40467 0.0163,0.55381 l 1.12443,1.03446 -1.33778,1.3804 -2.40627,-2.21375 c -0.24315,-0.2237 -0.64488,-0.21247 -0.87448,0.0244 l -0.55209,0.56969 c -0.22959,0.23689 -0.19683,0.6064 0.0464,0.83009 l 2.40629,2.21376 -1.31654,1.35848 -1.12444,-1.03446 c -0.16209,-0.14913 -0.41534,-0.14205 -0.56839,0.0159 l -0.84938,0.87645 c -0.15307,0.15794 -0.14581,0.40467 0.0163,0.5538 l 1.12443,1.03447 -1.31654,1.3585 -2.40628,-2.21376 c -0.24315,-0.2237 -0.64488,-0.21248 -0.87447,0.0244 l -0.55209,0.56969 c -0.22959,0.23691 -0.21807,0.62832 0.0251,0.85202 l 2.40627,2.21375 -1.31654,1.35849 -4.27282,-3.93096 14.90664,-15.38162 z"
       id="rect4003"
       inkscape:connector-curvature="0" />
  </g>
</svg>
