<?xml version="1.0" encoding="UTF-8" standalone="no"?>
<!-- Created with Inkscape (http://www.inkscape.org/) -->

<svg
   xmlns:dc="http://purl.org/dc/elements/1.1/"
   xmlns:cc="http://creativecommons.org/ns#"
   xmlns:rdf="http://www.w3.org/1999/02/22-rdf-syntax-ns#"
   xmlns:svg="http://www.w3.org/2000/svg"
   xmlns="http://www.w3.org/2000/svg"
   xmlns:sodipodi="http://sodipodi.sourceforge.net/DTD/sodipodi-0.dtd"
   xmlns:inkscape="http://www.inkscape.org/namespaces/inkscape"
   width="32"
   height="32"
   id="svg3991"
   version="1.1"
   inkscape:version="0.48.4 r9939"
   sodipodi:docname="edit-insert-case.svg">
  <title
     id="title4018">GNU PSPP flat icon set</title>
  <defs
     id="defs3993" />
  <sodipodi:namedview
     id="base"
     pagecolor="#ffffff"
     bordercolor="#666666"
     borderopacity="1.0"
     inkscape:pageopacity="0.0"
     inkscape:pageshadow="2"
     inkscape:zoom="11.2"
     inkscape:cx="12.257418"
     inkscape:cy="13.866184"
     inkscape:document-units="px"
     inkscape:current-layer="layer1"
     showgrid="true"
     inkscape:window-width="683"
     inkscape:window-height="708"
     inkscape:window-x="0"
     inkscape:window-y="27"
     inkscape:window-maximized="0"
     showborder="false"
     inkscape:snap-bbox="true">
    <inkscape:grid
       type="xygrid"
       id="grid2983"
       empspacing="5"
       visible="true"
       enabled="true"
       snapvisiblegridlinesonly="true" />
    <sodipodi:guide
       position="0,0"
       orientation="0,32"
       id="guide6413" />
    <sodipodi:guide
       position="32,0"
       orientation="-32,0"
       id="guide6415" />
    <sodipodi:guide
       position="32,32"
       orientation="0,-32"
       id="guide6417" />
    <sodipodi:guide
       position="0,32"
       orientation="32,0"
       id="guide6419" />
  </sodipodi:namedview>
  <metadata
     id="metadata3996">
    <rdf:RDF>
      <cc:Work
         rdf:about="">
        <dc:format>image/svg+xml</dc:format>
        <dc:type
           rdf:resource="http://purl.org/dc/dcmitype/StillImage" />
        <dc:title>GNU PSPP flat icon set</dc:title>
        <cc:license
           rdf:resource="http://creativecommons.org/licenses/by-sa/3.0/" />
        <dc:creator>
          <cc:Agent>
            <dc:title>Bastián Díaz</dc:title>
          </cc:Agent>
        </dc:creator>
        <dc:source>https://github.com/bedf/PSPPire-artwork</dc:source>
      </cc:Work>
      <cc:License
         rdf:about="http://creativecommons.org/licenses/by-sa/3.0/">
        <cc:permits
           rdf:resource="http://creativecommons.org/ns#Reproduction" />
        <cc:permits
           rdf:resource="http://creativecommons.org/ns#Distribution" />
        <cc:requires
           rdf:resource="http://creativecommons.org/ns#Notice" />
        <cc:requires
           rdf:resource="http://creativecommons.org/ns#Attribution" />
        <cc:permits
           rdf:resource="http://creativecommons.org/ns#DerivativeWorks" />
        <cc:requires
           rdf:resource="http://creativecommons.org/ns#ShareAlike" />
      </cc:License>
    </rdf:RDF>
  </metadata>
  <g
     inkscape:label="Layer 1"
     inkscape:groupmode="layer"
     id="layer1"
     transform="translate(0,-1020.3622)">
    <g
       transform="translate(140,540.00002)"
       style="display:inline"
       id="g5787">
      <rect
         style="opacity:0;fill:#ffffff;fill-opacity:1;stroke:none;display:inline"
         id="rect4893-90"
         width="32"
         height="31.99999"
         x="-140"
         y="480.36218" />
      <path
         style="font-size:medium;font-style:normal;font-variant:normal;font-weight:normal;font-stretch:normal;text-indent:0;text-align:start;text-decoration:none;line-height:normal;letter-spacing:normal;word-spacing:normal;text-transform:none;direction:ltr;block-progression:tb;writing-mode:lr-tb;text-anchor:start;color:#bebebe;fill:#555753;fill-opacity:1;stroke:none;stroke-width:2;marker:none;visibility:visible;display:inline;overflow:visible;enable-background:accumulate;font-family:Bitstream Vera Sans;-inkscape-font-specification:Bitstream Vera Sans"
         sodipodi:nodetypes="ccccccccccccc"
         id="path15265-7-3-4"
         d="m -118.00004,504.36233 -1.99998,0 c -0.5138,2e-5 -1.0569,0.23572 -1.4375,0.56738 l -2.56246,2.32618 -2.56246,-2.3262 c -0.38008,-0.33212 -0.9237,-0.56736 -1.43754,-0.56728 l -2,0 -2e-5,1.81558 c 0,0.56182 0.1804,1.00274 0.5626,1.36164 l 5.43748,4.82255 5.43742,-4.82255 c 0.38186,-0.35898 0.5625,-0.79986 0.5625,-1.36168 l 0,-1.81556 z"
         inkscape:connector-curvature="0" />
      <path
         inkscape:connector-curvature="0"
         id="path5531-0-5"
         d="m -124,482.36218 c -5.52285,0 -10,4.47715 -10,10 0,5.52286 4.47715,10 10,10 5.52285,0 10,-4.47714 10,-10 0,-5.52285 -4.47715,-10 -10,-10 z m 0,3.33333 c 1.96368,0 3.54167,1.49239 3.54167,3.33334 0,1.84094 -1.57799,3.33333 -3.54167,3.33333 -1.96368,0 -3.54167,-1.49239 -3.54167,-3.33333 0,-1.84095 1.57799,-3.33334 3.54167,-3.33334 z m -1.79167,6.66667 0,1.66667 3.58334,0 0,-1.66667 c 1.96368,0 3.54166,1.49239 3.54166,3.33334 0,1.84094 -2.38782,3.33333 -5.33333,3.33333 -2.94551,0 -5.33333,-1.49239 -5.33333,-3.33333 0,-1.84095 1.57798,-3.33334 3.54166,-3.33334 z"
         style="fill:#555753;fill-opacity:1;stroke:none;display:inline" />
    </g>
  </g>
</svg>
