<?xml version="1.0" encoding="UTF-8" standalone="no"?>
<!-- Created with Inkscape (http://www.inkscape.org/) -->

<svg
   xmlns:dc="http://purl.org/dc/elements/1.1/"
   xmlns:cc="http://creativecommons.org/ns#"
   xmlns:rdf="http://www.w3.org/1999/02/22-rdf-syntax-ns#"
   xmlns:svg="http://www.w3.org/2000/svg"
   xmlns="http://www.w3.org/2000/svg"
   xmlns:sodipodi="http://sodipodi.sourceforge.net/DTD/sodipodi-0.dtd"
   xmlns:inkscape="http://www.inkscape.org/namespaces/inkscape"
   width="32"
   height="32"
   id="svg3991"
   version="1.1"
   inkscape:version="0.48.4 r9939"
   sodipodi:docname="edit-go-to-case.svg">
  <title
     id="title4018">GNU PSPP flat icon set</title>
  <defs
     id="defs3993" />
  <sodipodi:namedview
     id="base"
     pagecolor="#ffffff"
     bordercolor="#666666"
     borderopacity="1.0"
     inkscape:pageopacity="0.0"
     inkscape:pageshadow="2"
     inkscape:zoom="11.2"
     inkscape:cx="12.257418"
     inkscape:cy="13.866184"
     inkscape:document-units="px"
     inkscape:current-layer="layer1"
     showgrid="true"
     inkscape:window-width="683"
     inkscape:window-height="708"
     inkscape:window-x="0"
     inkscape:window-y="27"
     inkscape:window-maximized="0"
     showborder="false"
     inkscape:snap-bbox="true">
    <inkscape:grid
       type="xygrid"
       id="grid2983"
       empspacing="5"
       visible="true"
       enabled="true"
       snapvisiblegridlinesonly="true" />
    <sodipodi:guide
       position="0,0"
       orientation="0,32"
       id="guide6413" />
    <sodipodi:guide
       position="32,0"
       orientation="-32,0"
       id="guide6415" />
    <sodipodi:guide
       position="32,32"
       orientation="0,-32"
       id="guide6417" />
    <sodipodi:guide
       position="0,32"
       orientation="32,0"
       id="guide6419" />
  </sodipodi:namedview>
  <metadata
     id="metadata3996">
    <rdf:RDF>
      <cc:Work
         rdf:about="">
        <dc:format>image/svg+xml</dc:format>
        <dc:type
           rdf:resource="http://purl.org/dc/dcmitype/StillImage" />
        <dc:title>GNU PSPP flat icon set</dc:title>
        <cc:license
           rdf:resource="http://creativecommons.org/licenses/by-sa/3.0/" />
        <dc:creator>
          <cc:Agent>
            <dc:title>Bastián Díaz</dc:title>
          </cc:Agent>
        </dc:creator>
        <dc:source>https://github.com/bedf/PSPPire-artwork</dc:source>
      </cc:Work>
      <cc:License
         rdf:about="http://creativecommons.org/licenses/by-sa/3.0/">
        <cc:permits
           rdf:resource="http://creativecommons.org/ns#Reproduction" />
        <cc:permits
           rdf:resource="http://creativecommons.org/ns#Distribution" />
        <cc:requires
           rdf:resource="http://creativecommons.org/ns#Notice" />
        <cc:requires
           rdf:resource="http://creativecommons.org/ns#Attribution" />
        <cc:permits
           rdf:resource="http://creativecommons.org/ns#DerivativeWorks" />
        <cc:requires
           rdf:resource="http://creativecommons.org/ns#ShareAlike" />
      </cc:License>
    </rdf:RDF>
  </metadata>
  <g
     inkscape:label="Layer 1"
     inkscape:groupmode="layer"
     id="layer1"
     transform="translate(0,-1020.3622)">
    <g
       transform="translate(365,540.00002)"
       style="display:inline"
       id="g5751">
      <path
         inkscape:connector-curvature="0"
         id="path5531-0"
         d="m -347,492.36218 c -5.52285,0 -10,4.47715 -10,10 0,5.52286 4.47715,10 10,10 5.52285,0 10,-4.47714 10,-10 0,-5.52285 -4.47715,-10 -10,-10 z m 0,3.33333 c 1.96368,0 3.54167,1.49239 3.54167,3.33334 0,1.84094 -1.57799,3.33333 -3.54167,3.33333 -1.96368,0 -3.54167,-1.49239 -3.54167,-3.33333 0,-1.84095 1.57799,-3.33334 3.54167,-3.33334 z m -1.79167,6.66667 0,1.66667 3.58334,0 0,-1.66667 c 1.96368,0 3.54166,1.49239 3.54166,3.33334 0,1.84094 -2.38782,3.33333 -5.33333,3.33333 -2.94551,0 -5.33333,-1.49239 -5.33333,-3.33333 0,-1.84095 1.57798,-3.33334 3.54166,-3.33334 z"
         style="fill:#555753;fill-opacity:1;stroke:none;display:inline" />
      <rect
         style="opacity:0;fill:#ffffff;fill-opacity:1;stroke:none;display:inline"
         id="rect4902-1-1"
         width="32"
         height="31.984814"
         x="-365"
         y="480.36218" />
      <rect
         y="480.36221"
         x="-365"
         height="31.984779"
         width="32"
         id="rect5357-0-8-1"
         style="fill:none;stroke:none;display:inline" />
      <path
         id="rect5382-3-4-2-4-5"
         d="m -357,480.36221 c -4.41828,0 -8,3.58001 -8,7.99619 0,1.10748 0.892,1.99905 2,1.99905 1.108,0 2,-0.89157 2,-1.99905 0,-2.20809 1.79084,-3.99809 4,-3.99809 l 2,0 c 1.62696,0 3.00006,0.98015 3.625,2.37387 l -3.625,3.62327 10,0 0,-9.99524 -3.4375,3.43586 c -1.44376,-2.08552 -3.83312,-3.43586 -6.5625,-3.43586 l -2,0 z"
         style="fill:#555753;fill-opacity:1;stroke:none;display:inline"
         inkscape:connector-curvature="0" />
    </g>
  </g>
</svg>
