<?xml version="1.0" encoding="UTF-8" standalone="no"?>
<!-- Created with Inkscape (http://www.inkscape.org/) -->

<svg
   xmlns:dc="http://purl.org/dc/elements/1.1/"
   xmlns:cc="http://creativecommons.org/ns#"
   xmlns:rdf="http://www.w3.org/1999/02/22-rdf-syntax-ns#"
   xmlns:svg="http://www.w3.org/2000/svg"
   xmlns="http://www.w3.org/2000/svg"
   xmlns:sodipodi="http://sodipodi.sourceforge.net/DTD/sodipodi-0.dtd"
   xmlns:inkscape="http://www.inkscape.org/namespaces/inkscape"
   width="24"
   height="24"
   id="svg3991"
   version="1.1"
   inkscape:version="0.48.4 r9939"
   sodipodi:docname="edit-insert-case.svg">
  <title
     id="title4018">GNU PSPP flat icon set</title>
  <defs
     id="defs3993" />
  <sodipodi:namedview
     id="base"
     pagecolor="#ffffff"
     bordercolor="#666666"
     borderopacity="1.0"
     inkscape:pageopacity="0.0"
     inkscape:pageshadow="2"
     inkscape:zoom="11.2"
     inkscape:cx="12.875286"
     inkscape:cy="9.6348948"
     inkscape:document-units="px"
     inkscape:current-layer="layer1"
     showgrid="true"
     inkscape:window-width="683"
     inkscape:window-height="709"
     inkscape:window-x="0"
     inkscape:window-y="27"
     inkscape:window-maximized="0"
     showborder="false"
     inkscape:snap-bbox="true">
    <inkscape:grid
       type="xygrid"
       id="grid2983"
       empspacing="5"
       visible="true"
       enabled="true"
       snapvisiblegridlinesonly="true" />
    <sodipodi:guide
       position="0,0"
       orientation="0,24"
       id="guide5959" />
    <sodipodi:guide
       position="24,0"
       orientation="-24,0"
       id="guide5961" />
    <sodipodi:guide
       position="24,24"
       orientation="0,-24"
       id="guide5963" />
    <sodipodi:guide
       position="0,24"
       orientation="24,0"
       id="guide5965" />
  </sodipodi:namedview>
  <metadata
     id="metadata3996">
    <rdf:RDF>
      <cc:Work
         rdf:about="">
        <dc:format>image/svg+xml</dc:format>
        <dc:type
           rdf:resource="http://purl.org/dc/dcmitype/StillImage" />
        <dc:title>GNU PSPP flat icon set</dc:title>
        <cc:license
           rdf:resource="http://creativecommons.org/licenses/by-sa/3.0/" />
        <dc:creator>
          <cc:Agent>
            <dc:title>Bastián Díaz</dc:title>
          </cc:Agent>
        </dc:creator>
        <dc:source>https://github.com/bedf/PSPPire-artwork</dc:source>
      </cc:Work>
      <cc:License
         rdf:about="http://creativecommons.org/licenses/by-sa/3.0/">
        <cc:permits
           rdf:resource="http://creativecommons.org/ns#Reproduction" />
        <cc:permits
           rdf:resource="http://creativecommons.org/ns#Distribution" />
        <cc:requires
           rdf:resource="http://creativecommons.org/ns#Notice" />
        <cc:requires
           rdf:resource="http://creativecommons.org/ns#Attribution" />
        <cc:permits
           rdf:resource="http://creativecommons.org/ns#DerivativeWorks" />
        <cc:requires
           rdf:resource="http://creativecommons.org/ns#ShareAlike" />
      </cc:License>
    </rdf:RDF>
  </metadata>
  <g
     inkscape:label="Layer 1"
     inkscape:groupmode="layer"
     id="layer1"
     transform="translate(0,-1028.3622)">
    <g
       transform="translate(95,540.00002)"
       style="display:inline"
       id="g6304">
      <path
         inkscape:connector-curvature="0"
         id="rect5694-733-8-5-0"
         d="m -93,501.36218 c -1.108,0 -2,0.892 -2,2 l 0,2 0,2 0,2 0,2 0,1 2,0 19,0 2,0 0,-9 c 0,-1.108 -0.892,-2 -2,-2 l -19,0 z m 0,4 5,0 0,2 -5,0 0,-2 z m 7,0 5,0 0,2 -5,0 0,-2 z m 7,0 5,0 0,2 -5,0 0,-2 z m -14,4 5,0 0,2 -5,0 0,-2 z m 7,0 5,0 0,2 -5,0 0,-2 z m 7,0 5,0 0,2 -5,0 0,-2 z"
         style="fill:#555753;display:inline" />
      <path
         inkscape:connector-curvature="0"
         id="rect5694-733-8-5-0-3"
         d="m -93,488.36218 c -1.108,0 -2,0.892 -2,2 l 0,2 0,2 0,2 0,2 0,1 2,0 19,0 2,0 0,-9 c 0,-1.108 -0.892,-2 -2,-2 l -19,0 z m 0,4 5,0 0,2 -5,0 0,-2 z m 7,0 5,0 0,2 -5,0 0,-2 z m 7,0 5,0 0,2 -5,0 0,-2 z m -14,4 5,0 0,2 -5,0 0,-2 z m 7,0 5,0 0,2 -5,0 0,-2 z m 7,0 5,0 0,2 -5,0 0,-2 z"
         style="fill:#555753;display:inline" />
      <rect
         y="488.36218"
         x="-95"
         height="24"
         width="24"
         id="rect6302"
         style="fill:none;stroke:none" />
    </g>
  </g>
</svg>
