<?xml version="1.0" encoding="UTF-8" standalone="no"?>
<!-- Created with Inkscape (http://www.inkscape.org/) -->

<svg
   xmlns:dc="http://purl.org/dc/elements/1.1/"
   xmlns:cc="http://creativecommons.org/ns#"
   xmlns:rdf="http://www.w3.org/1999/02/22-rdf-syntax-ns#"
   xmlns:svg="http://www.w3.org/2000/svg"
   xmlns="http://www.w3.org/2000/svg"
   xmlns:sodipodi="http://sodipodi.sourceforge.net/DTD/sodipodi-0.dtd"
   xmlns:inkscape="http://www.inkscape.org/namespaces/inkscape"
   id="svg7384"
   sodipodi:docname="split-file.svg"
   version="1.1"
   inkscape:version="0.48.4 r9939"
   height="24"
   width="24"
   inkscape:export-filename="/home/raizen/Escritorio/PSPP icon original/Carpeta sin título/goto-case.png"
   inkscape:export-xdpi="90"
   inkscape:export-ydpi="90">
  <metadata
     id="metadata90">
    <rdf:RDF>
      <cc:Work
         rdf:about="">
        <dc:format>image/svg+xml</dc:format>
        <dc:type
           rdf:resource="http://purl.org/dc/dcmitype/StillImage" />
        <dc:title />
        <dc:creator>
          <cc:Agent>
            <dc:title>GNU PSPP Community</dc:title>
          </cc:Agent>
        </dc:creator>
        <cc:license
           rdf:resource="http://creativecommons.org/licenses/by-sa/3.0/" />
      </cc:Work>
      <cc:License
         rdf:about="http://creativecommons.org/licenses/by-sa/3.0/">
        <cc:permits
           rdf:resource="http://creativecommons.org/ns#Reproduction" />
        <cc:permits
           rdf:resource="http://creativecommons.org/ns#Distribution" />
        <cc:requires
           rdf:resource="http://creativecommons.org/ns#Notice" />
        <cc:requires
           rdf:resource="http://creativecommons.org/ns#Attribution" />
        <cc:permits
           rdf:resource="http://creativecommons.org/ns#DerivativeWorks" />
        <cc:requires
           rdf:resource="http://creativecommons.org/ns#ShareAlike" />
      </cc:License>
    </rdf:RDF>
  </metadata>
  <sodipodi:namedview
     inkscape:cy="1.0073588"
     pagecolor="#4d4d4d"
     borderopacity="1"
     showborder="false"
     inkscape:bbox-paths="false"
     guidetolerance="10"
     inkscape:object-paths="true"
     inkscape:window-width="1366"
     showguides="true"
     inkscape:object-nodes="true"
     inkscape:snap-bbox="true"
     inkscape:pageshadow="2"
     inkscape:guide-bbox="true"
     inkscape:snap-nodes="false"
     bordercolor="#666666"
     objecttolerance="10"
     id="namedview88"
     showgrid="true"
     inkscape:window-maximized="1"
     inkscape:window-x="0"
     inkscape:snap-global="true"
     inkscape:window-y="28"
     gridtolerance="10"
     inkscape:window-height="675"
     inkscape:snap-others="false"
     inkscape:snap-to-guides="true"
     inkscape:current-layer="layer12"
     inkscape:snap-bbox-midpoints="false"
     inkscape:zoom="5.6568543"
     inkscape:cx="13.783949"
     inkscape:snap-grids="true"
     inkscape:pageopacity="0"
     inkscape:bbox-nodes="true"
     inkscape:snap-bbox-edge-midpoints="true">
    <inkscape:grid
       spacingx="1px"
       spacingy="1px"
       id="grid4866"
       empspacing="2"
       enabled="true"
       type="xygrid"
       snapvisiblegridlinesonly="true"
       visible="true" />
    <sodipodi:guide
       position="0,0"
       orientation="0,16.085251"
       id="guide3001" />
    <sodipodi:guide
       position="24,16.798541"
       orientation="-16.02426,0"
       id="guide3003" />
    <sodipodi:guide
       position="15.620287,24"
       orientation="0,-16.085251"
       id="guide3005" />
    <sodipodi:guide
       position="0,16.02426"
       orientation="16.02426,0"
       id="guide3007" />
    <sodipodi:guide
       position="0,0"
       orientation="0,24"
       id="guide3022" />
    <sodipodi:guide
       position="24,0"
       orientation="-24,0"
       id="guide3024" />
    <sodipodi:guide
       position="24,24"
       orientation="0,-24"
       id="guide3026" />
    <sodipodi:guide
       position="0,24"
       orientation="24,0"
       id="guide3028" />
  </sodipodi:namedview>
  <defs
     id="defs7386">
    <inkscape:path-effect
       effect="spiro"
       id="path-effect91806"
       is_visible="true" />
  </defs>
  <g
     inkscape:label="GNU PSPP Symbolic icon theme"
     transform="translate(-60.952227,-639)"
     inkscape:groupmode="layer"
     id="layer12"
     style="display:inline">
    <g
       transform="matrix(1.5,0,0,1.4993893,4.95223,514.16573)"
       inkscape:label="lc_togglemergecells"
       id="lc_mergecells"
       style="display:inline">
      <path
         sodipodi:nodetypes="ccccccccccccccccccccccccccccccccccccccccccccccccccccccc"
         inkscape:connector-curvature="0"
         id="path4419"
         d="m 482.6666,239.03523 -1.33332,-0.005 -2e-5,1.33839 1e-5,3.99635 10e-6,4.66987 0,1.33334 1.33332,0.005 5.33333,0 5.33333,0 1.33335,-0.005 0,-1.33331 0,-4.66987 -10e-6,-3.99635 10e-6,-1.33836 -1.33335,0.005 -5.33333,0 z m 0,1.33192 2,0 0.66666,0 0,2 -2.66666,0 z m 4,0 2.66666,0 0,2 -2.66666,0 z m 4,0 2.66666,0 0,2 -2.66666,0 z m -8,3.32968 10.66667,0 0,2 -10.66667,0 z m 0,3.33654 2.66667,0 0,2 -0.66667,0 -2,0 z m 4,0 2.66667,0 0,2 -2.66667,0 z m 4,0 2.66667,0 0,2 -2,0 -0.66667,0 z"
         style="font-size:medium;font-style:normal;font-variant:normal;font-weight:normal;font-stretch:normal;text-indent:0;text-align:start;text-decoration:none;line-height:normal;letter-spacing:normal;word-spacing:normal;text-transform:none;direction:ltr;block-progression:tb;writing-mode:lr-tb;text-anchor:start;baseline-shift:baseline;opacity:0.35;color:#000000;fill:#555753;fill-opacity:1;stroke:none;stroke-width:2;marker:none;visibility:visible;display:inline;overflow:visible;enable-background:new;font-family:Sans;-inkscape-font-specification:Sans" />
      <rect
         style="fill:none;stroke:none"
         id="rect4421"
         width="16"
         height="16"
         x="480"
         y="236.36221" />
      <g
         transform="matrix(0.66666667,0,0,0.6669382,378.66661,-113.36262)"
         style="display:inline"
         id="g4423">
        <rect
           y="533.37408"
           x="154"
           height="6.9999561"
           width="2"
           id="rect4425"
           style="fill:#555753;fill-opacity:1;fill-rule:nonzero;stroke:none" />
        <rect
           y="538.37408"
           x="154"
           height="2"
           width="20"
           id="rect4427"
           style="fill:#555753;fill-opacity:1;fill-rule:nonzero;stroke:none" />
        <rect
           y="533.37408"
           x="172"
           height="6.9999561"
           width="2"
           id="rect4429"
           style="fill:#555753;fill-opacity:1;fill-rule:nonzero;stroke:none" />
        <rect
           y="533.37408"
           x="154"
           height="2"
           width="20"
           id="rect4431"
           style="fill:#555753;fill-opacity:1;fill-rule:nonzero;stroke:none" />
      </g>
    </g>
    <g
       transform="matrix(1.5,0,0,1.4993893,4.95223,514.16573)"
       inkscape:label="lc_togglemergecells"
       id="lc_mergecells-7"
       style="display:inline">
      <path
         sodipodi:nodetypes="ccccccccccccccccccccccccccccccccccccccccccccccccccccccc"
         inkscape:connector-curvature="0"
         id="path4435"
         d="m 482.6666,239.03523 -1.33332,-0.005 -2e-5,1.33839 1e-5,3.99635 10e-6,4.66987 0,1.33334 1.33332,0.005 5.33333,0 5.33333,0 1.33335,-0.005 0,-1.33331 0,-4.66987 -10e-6,-3.99635 10e-6,-1.33836 -1.33335,0.005 -5.33333,0 z m 0,1.33192 2,0 0.66666,0 0,2 -2.66666,0 z m 4,0 2.66666,0 0,2 -2.66666,0 z m 4,0 2.66666,0 0,2 -2.66666,0 z m -8,3.32968 10.66667,0 0,2 -10.66667,0 z m 0,3.33654 2.66667,0 0,2 -0.66667,0 -2,0 z m 4,0 2.66667,0 0,2 -2.66667,0 z m 4,0 2.66667,0 0,2 -2,0 -0.66667,0 z"
         style="font-size:medium;font-style:normal;font-variant:normal;font-weight:normal;font-stretch:normal;text-indent:0;text-align:start;text-decoration:none;line-height:normal;letter-spacing:normal;word-spacing:normal;text-transform:none;direction:ltr;block-progression:tb;writing-mode:lr-tb;text-anchor:start;baseline-shift:baseline;opacity:0.35;color:#000000;fill:#555753;fill-opacity:1;stroke:none;stroke-width:2;marker:none;visibility:visible;display:inline;overflow:visible;enable-background:new;font-family:Sans;-inkscape-font-specification:Sans" />
      <rect
         style="fill:none;stroke:none"
         id="rect4437"
         width="16"
         height="16"
         x="480"
         y="236.36221" />
      <g
         transform="matrix(0.66666667,0,0,0.6669382,378.66661,-113.36262)"
         style="display:inline"
         id="g4439">
        <rect
           y="533.37408"
           x="154"
           height="6.9999561"
           width="2"
           id="rect4441"
           style="fill:#555753;fill-opacity:1;fill-rule:nonzero;stroke:none" />
        <rect
           y="538.37408"
           x="154"
           height="2"
           width="20"
           id="rect4443"
           style="fill:#555753;fill-opacity:1;fill-rule:nonzero;stroke:none" />
        <rect
           y="533.37408"
           x="172"
           height="6.9999561"
           width="2"
           id="rect4445"
           style="fill:#555753;fill-opacity:1;fill-rule:nonzero;stroke:none" />
        <rect
           y="533.37408"
           x="154"
           height="2"
           width="20"
           id="rect4447"
           style="fill:#555753;fill-opacity:1;fill-rule:nonzero;stroke:none" />
      </g>
    </g>
    <rect
       style="fill:none;stroke:none"
       id="rect6323"
       width="24"
       height="23.990229"
       x="60.952229"
       y="639.00977" />
    <path
       style="fill:#555753;fill-opacity:1;stroke:none;display:inline"
       d="M 5 0 C 3.338 0 2 1.338 2 3 L 2 11 L 22 11 L 22 3 C 22 1.338 20.662 0 19 0 L 5 0 z M 4.3125 4 L 7.6875 4 C 7.852764 4 8 4.14724 8 4.3125 L 8 5.6875 C 8 5.85276 7.852764 6 7.6875 6 L 4.3125 6 C 4.147236 6 4 5.85276 4 5.6875 L 4 4.3125 C 4 4.14724 4.147236 4 4.3125 4 z M 10.3125 4 L 13.6875 4 C 13.852764 4 14 4.14724 14 4.3125 L 14 5.6875 C 14 5.85276 13.852764 6 13.6875 6 L 10.3125 6 C 10.147236 6 10 5.85276 10 5.6875 L 10 4.3125 C 10 4.14724 10.147236 4 10.3125 4 z M 16.3125 4 L 19.6875 4 C 19.852764 4 20 4.14724 20 4.3125 L 20 5.6875 C 20 5.85276 19.852764 6 19.6875 6 L 16.3125 6 C 16.147236 6 16 5.85276 16 5.6875 L 16 4.3125 C 16 4.14724 16.147236 4 16.3125 4 z M 4.3125 8 L 7.6875 8 C 7.852764 8 8 8.14724 8 8.3125 L 8 9.6875 C 8 9.85276 7.852764 10 7.6875 10 L 4.3125 10 C 4.147236 10 4 9.85276 4 9.6875 L 4 8.3125 C 4 8.14724 4.147236 8 4.3125 8 z M 10.3125 8 L 13.6875 8 C 13.852764 8 14 8.14724 14 8.3125 L 14 9.6875 C 14 9.85276 13.852764 10 13.6875 10 L 10.3125 10 C 10.147236 10 10 9.85276 10 9.6875 L 10 8.3125 C 10 8.14724 10.147236 8 10.3125 8 z M 16.3125 8 L 19.6875 8 C 19.852764 8 20 8.14724 20 8.3125 L 20 9.6875 C 20 9.85276 19.852764 10 19.6875 10 L 16.3125 10 C 16.147236 10 16 9.85276 16 9.6875 L 16 8.3125 C 16 8.14724 16.147236 8 16.3125 8 z "
       transform="translate(60.952227,639)"
       id="rect3032-7" />
    <path
       inkscape:connector-curvature="0"
       style="fill:#555753;fill-opacity:1;stroke:none;display:inline"
       d="m 65.952227,652 c -1.662,0 -3,1.338 -3,3 l 0,8 20,0 0,-8 c 0,-1.662 -1.338,-3 -3,-3 l -14,0 z m -0.6875,4 3.375,0 c 0.165264,0 0.3125,0.14724 0.3125,0.3125 l 0,1.375 c 0,0.16526 -0.147236,0.3125 -0.3125,0.3125 l -3.375,0 c -0.165264,0 -0.3125,-0.14724 -0.3125,-0.3125 l 0,-1.375 c 0,-0.16526 0.147236,-0.3125 0.3125,-0.3125 z m 6,0 3.375,0 c 0.165264,0 0.3125,0.14724 0.3125,0.3125 l 0,1.375 c 0,0.16526 -0.147236,0.3125 -0.3125,0.3125 l -3.375,0 c -0.165264,0 -0.3125,-0.14724 -0.3125,-0.3125 l 0,-1.375 c 0,-0.16526 0.147236,-0.3125 0.3125,-0.3125 z m 6,0 3.375,0 c 0.165264,0 0.3125,0.14724 0.3125,0.3125 l 0,1.375 c 0,0.16526 -0.147236,0.3125 -0.3125,0.3125 l -3.375,0 c -0.165264,0 -0.3125,-0.14724 -0.3125,-0.3125 l 0,-1.375 c 0,-0.16526 0.147236,-0.3125 0.3125,-0.3125 z m -12,4 3.375,0 c 0.165264,0 0.3125,0.14724 0.3125,0.3125 l 0,1.375 c 0,0.16526 -0.147236,0.3125 -0.3125,0.3125 l -3.375,0 c -0.165264,0 -0.3125,-0.14724 -0.3125,-0.3125 l 0,-1.375 c 0,-0.16526 0.147236,-0.3125 0.3125,-0.3125 z m 6,0 3.375,0 c 0.165264,0 0.3125,0.14724 0.3125,0.3125 l 0,1.375 c 0,0.16526 -0.147236,0.3125 -0.3125,0.3125 l -3.375,0 c -0.165264,0 -0.3125,-0.14724 -0.3125,-0.3125 l 0,-1.375 c 0,-0.16526 0.147236,-0.3125 0.3125,-0.3125 z m 6,0 3.375,0 c 0.165264,0 0.3125,0.14724 0.3125,0.3125 l 0,1.375 c 0,0.16526 -0.147236,0.3125 -0.3125,0.3125 l -3.375,0 c -0.165264,0 -0.3125,-0.14724 -0.3125,-0.3125 l 0,-1.375 c 0,-0.16526 0.147236,-0.3125 0.3125,-0.3125 z"
       id="rect3032-7-6" />
  </g>
</svg>
