<?xml version="1.0" encoding="UTF-8" standalone="no"?>
<!-- Created with Inkscape (http://www.inkscape.org/) -->

<svg
   xmlns:dc="http://purl.org/dc/elements/1.1/"
   xmlns:cc="http://creativecommons.org/ns#"
   xmlns:rdf="http://www.w3.org/1999/02/22-rdf-syntax-ns#"
   xmlns:svg="http://www.w3.org/2000/svg"
   xmlns="http://www.w3.org/2000/svg"
   xmlns:sodipodi="http://sodipodi.sourceforge.net/DTD/sodipodi-0.dtd"
   xmlns:inkscape="http://www.inkscape.org/namespaces/inkscape"
   id="svg7384"
   sodipodi:docname="select-case.svg"
   version="1.1"
   inkscape:version="0.48.4 r9939"
   height="24"
   width="24"
   inkscape:export-filename="/home/raizen/Escritorio/PSPP icon original/Carpeta sin título/goto-case.png"
   inkscape:export-xdpi="90"
   inkscape:export-ydpi="90">
  <metadata
     id="metadata90">
    <rdf:RDF>
      <cc:Work
         rdf:about="">
        <dc:format>image/svg+xml</dc:format>
        <dc:type
           rdf:resource="http://purl.org/dc/dcmitype/StillImage" />
        <dc:title />
        <dc:creator>
          <cc:Agent>
            <dc:title>GNU PSPP Community</dc:title>
          </cc:Agent>
        </dc:creator>
        <cc:license
           rdf:resource="http://creativecommons.org/licenses/by-sa/3.0/" />
      </cc:Work>
      <cc:License
         rdf:about="http://creativecommons.org/licenses/by-sa/3.0/">
        <cc:permits
           rdf:resource="http://creativecommons.org/ns#Reproduction" />
        <cc:permits
           rdf:resource="http://creativecommons.org/ns#Distribution" />
        <cc:requires
           rdf:resource="http://creativecommons.org/ns#Notice" />
        <cc:requires
           rdf:resource="http://creativecommons.org/ns#Attribution" />
        <cc:permits
           rdf:resource="http://creativecommons.org/ns#DerivativeWorks" />
        <cc:requires
           rdf:resource="http://creativecommons.org/ns#ShareAlike" />
      </cc:License>
    </rdf:RDF>
  </metadata>
  <sodipodi:namedview
     inkscape:cy="7.2794329"
     pagecolor="#4d4d4d"
     borderopacity="1"
     showborder="false"
     inkscape:bbox-paths="false"
     guidetolerance="10"
     inkscape:object-paths="true"
     inkscape:window-width="1366"
     showguides="true"
     inkscape:object-nodes="true"
     inkscape:snap-bbox="true"
     inkscape:pageshadow="2"
     inkscape:guide-bbox="true"
     inkscape:snap-nodes="false"
     bordercolor="#666666"
     objecttolerance="10"
     id="namedview88"
     showgrid="true"
     inkscape:window-maximized="1"
     inkscape:window-x="0"
     inkscape:snap-global="true"
     inkscape:window-y="28"
     gridtolerance="10"
     inkscape:window-height="675"
     inkscape:snap-others="false"
     inkscape:snap-to-guides="true"
     inkscape:current-layer="layer12"
     inkscape:snap-bbox-midpoints="false"
     inkscape:zoom="16"
     inkscape:cx="9.0857225"
     inkscape:snap-grids="true"
     inkscape:pageopacity="0"
     inkscape:bbox-nodes="true"
     inkscape:snap-bbox-edge-midpoints="false">
    <inkscape:grid
       spacingx="1px"
       spacingy="1px"
       id="grid4866"
       empspacing="2"
       enabled="true"
       type="xygrid"
       snapvisiblegridlinesonly="true"
       visible="true" />
    <sodipodi:guide
       position="0,0"
       orientation="0,16.085251"
       id="guide3001" />
    <sodipodi:guide
       position="24,16.798541"
       orientation="-16.02426,0"
       id="guide3003" />
    <sodipodi:guide
       position="15.620287,24"
       orientation="0,-16.085251"
       id="guide3005" />
    <sodipodi:guide
       position="0,16.02426"
       orientation="16.02426,0"
       id="guide3007" />
    <sodipodi:guide
       position="0,0"
       orientation="0,24"
       id="guide3022" />
    <sodipodi:guide
       position="24,0"
       orientation="-24,0"
       id="guide3024" />
    <sodipodi:guide
       position="24,24"
       orientation="0,-24"
       id="guide3026" />
    <sodipodi:guide
       position="0,24"
       orientation="24,0"
       id="guide3028" />
  </sodipodi:namedview>
  <defs
     id="defs7386">
    <inkscape:path-effect
       effect="spiro"
       id="path-effect91806"
       is_visible="true" />
  </defs>
  <g
     inkscape:label="GNU PSPP Symbolic icon theme"
     transform="translate(-60.952227,-639)"
     inkscape:groupmode="layer"
     id="layer12"
     style="display:inline">
    <g
       transform="matrix(1.5,0,0,1.4993893,4.95223,514.16573)"
       inkscape:label="lc_togglemergecells"
       id="lc_mergecells"
       style="display:inline">
      <path
         sodipodi:nodetypes="ccccccccccccccccccccccccccccccccccccccccccccccccccccccc"
         inkscape:connector-curvature="0"
         id="path4419"
         d="m 482.6666,239.03523 -1.33332,-0.005 -2e-5,1.33839 1e-5,3.99635 10e-6,4.66987 0,1.33334 1.33332,0.005 5.33333,0 5.33333,0 1.33335,-0.005 0,-1.33331 0,-4.66987 -10e-6,-3.99635 10e-6,-1.33836 -1.33335,0.005 -5.33333,0 z m 0,1.33192 2,0 0.66666,0 0,2 -2.66666,0 z m 4,0 2.66666,0 0,2 -2.66666,0 z m 4,0 2.66666,0 0,2 -2.66666,0 z m -8,3.32968 10.66667,0 0,2 -10.66667,0 z m 0,3.33654 2.66667,0 0,2 -0.66667,0 -2,0 z m 4,0 2.66667,0 0,2 -2.66667,0 z m 4,0 2.66667,0 0,2 -2,0 -0.66667,0 z"
         style="font-size:medium;font-style:normal;font-variant:normal;font-weight:normal;font-stretch:normal;text-indent:0;text-align:start;text-decoration:none;line-height:normal;letter-spacing:normal;word-spacing:normal;text-transform:none;direction:ltr;block-progression:tb;writing-mode:lr-tb;text-anchor:start;baseline-shift:baseline;opacity:0.35;color:#000000;fill:#555753;fill-opacity:1;stroke:none;stroke-width:2;marker:none;visibility:visible;display:inline;overflow:visible;enable-background:new;font-family:Sans;-inkscape-font-specification:Sans" />
      <rect
         style="fill:none;stroke:none"
         id="rect4421"
         width="16"
         height="16"
         x="480"
         y="236.36221" />
      <g
         transform="matrix(0.66666667,0,0,0.6669382,378.66661,-113.36262)"
         style="display:inline"
         id="g4423">
        <rect
           y="533.37408"
           x="154"
           height="6.9999561"
           width="2"
           id="rect4425"
           style="fill:#555753;fill-opacity:1;fill-rule:nonzero;stroke:none" />
        <rect
           y="538.37408"
           x="154"
           height="2"
           width="20"
           id="rect4427"
           style="fill:#555753;fill-opacity:1;fill-rule:nonzero;stroke:none" />
        <rect
           y="533.37408"
           x="172"
           height="6.9999561"
           width="2"
           id="rect4429"
           style="fill:#555753;fill-opacity:1;fill-rule:nonzero;stroke:none" />
        <rect
           y="533.37408"
           x="154"
           height="2"
           width="20"
           id="rect4431"
           style="fill:#555753;fill-opacity:1;fill-rule:nonzero;stroke:none" />
      </g>
    </g>
    <g
       transform="matrix(1.5,0,0,1.4993893,4.95223,514.16573)"
       inkscape:label="lc_togglemergecells"
       id="lc_mergecells-7"
       style="display:inline">
      <path
         sodipodi:nodetypes="ccccccccccccccccccccccccccccccccccccccccccccccccccccccc"
         inkscape:connector-curvature="0"
         id="path4435"
         d="m 482.6666,239.03523 -1.33332,-0.005 -2e-5,1.33839 1e-5,3.99635 10e-6,4.66987 0,1.33334 1.33332,0.005 5.33333,0 5.33333,0 1.33335,-0.005 0,-1.33331 0,-4.66987 -10e-6,-3.99635 10e-6,-1.33836 -1.33335,0.005 -5.33333,0 z m 0,1.33192 2,0 0.66666,0 0,2 -2.66666,0 z m 4,0 2.66666,0 0,2 -2.66666,0 z m 4,0 2.66666,0 0,2 -2.66666,0 z m -8,3.32968 10.66667,0 0,2 -10.66667,0 z m 0,3.33654 2.66667,0 0,2 -0.66667,0 -2,0 z m 4,0 2.66667,0 0,2 -2.66667,0 z m 4,0 2.66667,0 0,2 -2,0 -0.66667,0 z"
         style="font-size:medium;font-style:normal;font-variant:normal;font-weight:normal;font-stretch:normal;text-indent:0;text-align:start;text-decoration:none;line-height:normal;letter-spacing:normal;word-spacing:normal;text-transform:none;direction:ltr;block-progression:tb;writing-mode:lr-tb;text-anchor:start;baseline-shift:baseline;opacity:0.35;color:#000000;fill:#555753;fill-opacity:1;stroke:none;stroke-width:2;marker:none;visibility:visible;display:inline;overflow:visible;enable-background:new;font-family:Sans;-inkscape-font-specification:Sans" />
      <rect
         style="fill:none;stroke:none"
         id="rect4437"
         width="16"
         height="16"
         x="480"
         y="236.36221" />
      <g
         transform="matrix(0.66666667,0,0,0.6669382,378.66661,-113.36262)"
         style="display:inline"
         id="g4439">
        <rect
           y="533.37408"
           x="154"
           height="6.9999561"
           width="2"
           id="rect4441"
           style="fill:#555753;fill-opacity:1;fill-rule:nonzero;stroke:none" />
        <rect
           y="538.37408"
           x="154"
           height="2"
           width="20"
           id="rect4443"
           style="fill:#555753;fill-opacity:1;fill-rule:nonzero;stroke:none" />
        <rect
           y="533.37408"
           x="172"
           height="6.9999561"
           width="2"
           id="rect4445"
           style="fill:#555753;fill-opacity:1;fill-rule:nonzero;stroke:none" />
        <rect
           y="533.37408"
           x="154"
           height="2"
           width="20"
           id="rect4447"
           style="fill:#555753;fill-opacity:1;fill-rule:nonzero;stroke:none" />
      </g>
    </g>
    <rect
       style="fill:none;stroke:none"
       id="rect6323"
       width="24"
       height="23.990229"
       x="60.952229"
       y="639.00977" />
    <path
       style="opacity:0.35;fill:#555753;fill-opacity:1;stroke:none;display:inline"
       d="M 4 2 C 2.892 2 2 2.892 2 4 L 2 8 L 2 9 L 2 10 L 3 10 L 3 9 L 5.0625 9 L 6.9375 9 L 11.0625 9 L 12.9375 9 L 17.0625 9 L 18.9375 9 L 21 9 L 21 10 L 22 10 L 22 9 L 22 8 L 22 4 C 22 2.892 21.108 2 20 2 L 4 2 z M 5.0625 5 L 6.9375 5 C 7.521935 5 8 5.47806 8 6.0625 L 8 6.9375 C 8 7.52194 7.521935 8 6.9375 8 L 5.0625 8 C 4.478065 8 4 7.52194 4 6.9375 L 4 6.0625 C 4 5.47806 4.478065 5 5.0625 5 z M 11.0625 5 L 12.9375 5 C 13.52193 5 14 5.47806 14 6.0625 L 14 6.9375 C 14 7.52194 13.52193 8 12.9375 8 L 11.0625 8 C 10.478062 8 10 7.52194 10 6.9375 L 10 6.0625 C 10 5.47806 10.478062 5 11.0625 5 z M 17.0625 5 L 18.9375 5 C 19.52194 5 20 5.47806 20 6.0625 L 20 6.9375 C 20 7.52194 19.52194 8 18.9375 8 L 17.0625 8 C 16.47807 8 16 7.52194 16 6.9375 L 16 6.0625 C 16 5.47806 16.47807 5 17.0625 5 z "
       transform="translate(60.952227,639)"
       id="rect4786-8-2-9" />
    <path
       style="fill:#555753;fill-opacity:1;stroke:none;opacity:0.35"
       d="M 2 15 L 2 16 L 2 17 L 2 21 L 2.03125 21 L 2.03125 22 L 22 22 L 22 21 L 22 17 L 22 16 L 22 15 L 21 15 L 21 16 L 3 16 L 3 15 L 2 15 z M 5.0625 17 L 6.9375 17 C 7.521935 17 8 17.47806 8 18.0625 L 8 18.9375 C 8 19.52194 7.521935 20 6.9375 20 L 5.0625 20 C 4.478065 20 4 19.52194 4 18.9375 L 4 18.0625 C 4 17.47806 4.478065 17 5.0625 17 z M 11.0625 17 L 12.9375 17 C 13.52193 17 14 17.47806 14 18.0625 L 14 18.9375 C 14 19.52194 13.52193 20 12.9375 20 L 11.0625 20 C 10.478062 20 10 19.52194 10 18.9375 L 10 18.0625 C 10 17.47806 10.478062 17 11.0625 17 z M 17.0625 17 L 18.9375 17 C 19.52194 17 20 17.47806 20 18.0625 L 20 18.9375 C 20 19.52194 19.52194 20 18.9375 20 L 17.0625 20 C 16.47807 20 16 19.52194 16 18.9375 L 16 18.0625 C 16 17.47806 16.47807 17 17.0625 17 z "
       transform="translate(60.952227,639)"
       id="rect5422" />
    <path
       style="fill:#555753;fill-opacity:1;stroke:none"
       d="m 63.952227,648.00039 c -0.267296,0 -0.50845,0.11156 -0.6875,0.28125 -0.09927,0.0941 -0.164745,0.21564 -0.21875,0.34375 -0.05313,0.11972 -0.09375,0.2365 -0.09375,0.375 l 0,5 c 0,0.554 0.446,1 1,1 l 18,0 c 0.554,0 1,-0.446 1,-1 l 0,-5 c 0,-0.1385 -0.04062,-0.25528 -0.09375,-0.375 -0.054,-0.12811 -0.119475,-0.24967 -0.21875,-0.34375 -0.08847,-0.084 -0.196985,-0.13765 -0.3125,-0.1875 -0.0094,-0.004 -0.02172,0.004 -0.03125,0 -0.12602,-0.0505 -0.260461,-0.0937 -0.40625,-0.0937 l -17.875,0 c -0.02137,-10e-4 -0.04078,0 -0.0625,0 z m 1,2 16,0 0,3 -16,0 0,-3 z"
       id="rect5508"
       inkscape:connector-curvature="0" />
  </g>
</svg>
