<?xml version="1.0" encoding="UTF-8" standalone="no"?>
<!-- Created with Inkscape (http://www.inkscape.org/) -->

<svg
   xmlns:dc="http://purl.org/dc/elements/1.1/"
   xmlns:cc="http://creativecommons.org/ns#"
   xmlns:rdf="http://www.w3.org/1999/02/22-rdf-syntax-ns#"
   xmlns:svg="http://www.w3.org/2000/svg"
   xmlns="http://www.w3.org/2000/svg"
   xmlns:sodipodi="http://sodipodi.sourceforge.net/DTD/sodipodi-0.dtd"
   xmlns:inkscape="http://www.inkscape.org/namespaces/inkscape"
   id="svg7384"
   sodipodi:docname="data-aggregate.svg"
   version="1.1"
   inkscape:version="0.48.4 r9939"
   height="24"
   width="24"
   inkscape:export-filename="/home/raizen/Escritorio/PSPP icon original/Carpeta sin título/goto-case.png"
   inkscape:export-xdpi="90"
   inkscape:export-ydpi="90">
  <metadata
     id="metadata90">
    <rdf:RDF>
      <cc:Work
         rdf:about="">
        <dc:format>image/svg+xml</dc:format>
        <dc:type
           rdf:resource="http://purl.org/dc/dcmitype/StillImage" />
        <dc:title />
        <dc:creator>
          <cc:Agent>
            <dc:title>GNU PSPP Community</dc:title>
          </cc:Agent>
        </dc:creator>
        <cc:license
           rdf:resource="http://creativecommons.org/licenses/by-sa/3.0/" />
      </cc:Work>
      <cc:License
         rdf:about="http://creativecommons.org/licenses/by-sa/3.0/">
        <cc:permits
           rdf:resource="http://creativecommons.org/ns#Reproduction" />
        <cc:permits
           rdf:resource="http://creativecommons.org/ns#Distribution" />
        <cc:requires
           rdf:resource="http://creativecommons.org/ns#Notice" />
        <cc:requires
           rdf:resource="http://creativecommons.org/ns#Attribution" />
        <cc:permits
           rdf:resource="http://creativecommons.org/ns#DerivativeWorks" />
        <cc:requires
           rdf:resource="http://creativecommons.org/ns#ShareAlike" />
      </cc:License>
    </rdf:RDF>
  </metadata>
  <sodipodi:namedview
     inkscape:cy="11.737629"
     pagecolor="#4d4d4d"
     borderopacity="1"
     showborder="false"
     inkscape:bbox-paths="false"
     guidetolerance="10"
     inkscape:object-paths="true"
     inkscape:window-width="1366"
     showguides="true"
     inkscape:object-nodes="true"
     inkscape:snap-bbox="true"
     inkscape:pageshadow="2"
     inkscape:guide-bbox="true"
     inkscape:snap-nodes="false"
     bordercolor="#666666"
     objecttolerance="10"
     id="namedview88"
     showgrid="true"
     inkscape:window-maximized="1"
     inkscape:window-x="0"
     inkscape:snap-global="true"
     inkscape:window-y="28"
     gridtolerance="10"
     inkscape:window-height="675"
     inkscape:snap-others="false"
     inkscape:snap-to-guides="true"
     inkscape:current-layer="layer12"
     inkscape:snap-bbox-midpoints="false"
     inkscape:zoom="16.000001"
     inkscape:cx="1.8956869"
     inkscape:snap-grids="true"
     inkscape:pageopacity="0"
     inkscape:bbox-nodes="true"
     inkscape:snap-bbox-edge-midpoints="true">
    <inkscape:grid
       spacingx="1px"
       spacingy="1px"
       id="grid4866"
       empspacing="2"
       enabled="true"
       type="xygrid"
       snapvisiblegridlinesonly="true"
       visible="true" />
    <sodipodi:guide
       position="0,0"
       orientation="0,16.085251"
       id="guide3001" />
    <sodipodi:guide
       position="24,16.798541"
       orientation="-16.02426,0"
       id="guide3003" />
    <sodipodi:guide
       position="15.620287,24"
       orientation="0,-16.085251"
       id="guide3005" />
    <sodipodi:guide
       position="0,16.02426"
       orientation="16.02426,0"
       id="guide3007" />
    <sodipodi:guide
       position="0,0"
       orientation="0,24"
       id="guide3022" />
    <sodipodi:guide
       position="24,0"
       orientation="-24,0"
       id="guide3024" />
    <sodipodi:guide
       position="24,24"
       orientation="0,-24"
       id="guide3026" />
    <sodipodi:guide
       position="0,24"
       orientation="24,0"
       id="guide3028" />
  </sodipodi:namedview>
  <defs
     id="defs7386">
    <inkscape:path-effect
       effect="spiro"
       id="path-effect91806"
       is_visible="true" />
  </defs>
  <g
     inkscape:label="GNU PSPP Symbolic icon theme"
     transform="translate(-60.952227,-639)"
     inkscape:groupmode="layer"
     id="layer12"
     style="display:inline">
    <g
       transform="matrix(1.5,0,0,1.4993893,4.95223,514.16573)"
       inkscape:label="lc_togglemergecells"
       id="lc_mergecells"
       style="display:inline">
      <path
         sodipodi:nodetypes="ccccccccccccccccccccccccccccccccccccccccccccccccccccccc"
         inkscape:connector-curvature="0"
         id="path4419"
         d="m 482.6666,239.03523 -1.33332,-0.005 -2e-5,1.33839 1e-5,3.99635 10e-6,4.66987 0,1.33334 1.33332,0.005 5.33333,0 5.33333,0 1.33335,-0.005 0,-1.33331 0,-4.66987 -10e-6,-3.99635 10e-6,-1.33836 -1.33335,0.005 -5.33333,0 z m 0,1.33192 2,0 0.66666,0 0,2 -2.66666,0 z m 4,0 2.66666,0 0,2 -2.66666,0 z m 4,0 2.66666,0 0,2 -2.66666,0 z m -8,3.32968 10.66667,0 0,2 -10.66667,0 z m 0,3.33654 2.66667,0 0,2 -0.66667,0 -2,0 z m 4,0 2.66667,0 0,2 -2.66667,0 z m 4,0 2.66667,0 0,2 -2,0 -0.66667,0 z"
         style="font-size:medium;font-style:normal;font-variant:normal;font-weight:normal;font-stretch:normal;text-indent:0;text-align:start;text-decoration:none;line-height:normal;letter-spacing:normal;word-spacing:normal;text-transform:none;direction:ltr;block-progression:tb;writing-mode:lr-tb;text-anchor:start;baseline-shift:baseline;opacity:0.35;color:#000000;fill:#555753;fill-opacity:1;stroke:none;stroke-width:2;marker:none;visibility:visible;display:inline;overflow:visible;enable-background:new;font-family:Sans;-inkscape-font-specification:Sans" />
      <rect
         style="fill:none;stroke:none"
         id="rect4421"
         width="16"
         height="16"
         x="480"
         y="236.36221" />
      <g
         transform="matrix(0.66666667,0,0,0.6669382,378.66661,-113.36262)"
         style="display:inline"
         id="g4423">
        <rect
           y="533.37408"
           x="154"
           height="6.9999561"
           width="2"
           id="rect4425"
           style="fill:#555753;fill-opacity:1;fill-rule:nonzero;stroke:none" />
        <rect
           y="538.37408"
           x="154"
           height="2"
           width="20"
           id="rect4427"
           style="fill:#555753;fill-opacity:1;fill-rule:nonzero;stroke:none" />
        <rect
           y="533.37408"
           x="172"
           height="6.9999561"
           width="2"
           id="rect4429"
           style="fill:#555753;fill-opacity:1;fill-rule:nonzero;stroke:none" />
        <rect
           y="533.37408"
           x="154"
           height="2"
           width="20"
           id="rect4431"
           style="fill:#555753;fill-opacity:1;fill-rule:nonzero;stroke:none" />
      </g>
    </g>
    <g
       transform="matrix(1.5,0,0,1.4993893,4.95223,514.16573)"
       inkscape:label="lc_togglemergecells"
       id="lc_mergecells-7"
       style="display:inline">
      <path
         sodipodi:nodetypes="ccccccccccccccccccccccccccccccccccccccccccccccccccccccc"
         inkscape:connector-curvature="0"
         id="path4435"
         d="m 482.6666,239.03523 -1.33332,-0.005 -2e-5,1.33839 1e-5,3.99635 10e-6,4.66987 0,1.33334 1.33332,0.005 5.33333,0 5.33333,0 1.33335,-0.005 0,-1.33331 0,-4.66987 -10e-6,-3.99635 10e-6,-1.33836 -1.33335,0.005 -5.33333,0 z m 0,1.33192 2,0 0.66666,0 0,2 -2.66666,0 z m 4,0 2.66666,0 0,2 -2.66666,0 z m 4,0 2.66666,0 0,2 -2.66666,0 z m -8,3.32968 10.66667,0 0,2 -10.66667,0 z m 0,3.33654 2.66667,0 0,2 -0.66667,0 -2,0 z m 4,0 2.66667,0 0,2 -2.66667,0 z m 4,0 2.66667,0 0,2 -2,0 -0.66667,0 z"
         style="font-size:medium;font-style:normal;font-variant:normal;font-weight:normal;font-stretch:normal;text-indent:0;text-align:start;text-decoration:none;line-height:normal;letter-spacing:normal;word-spacing:normal;text-transform:none;direction:ltr;block-progression:tb;writing-mode:lr-tb;text-anchor:start;baseline-shift:baseline;opacity:0.35;color:#000000;fill:#555753;fill-opacity:1;stroke:none;stroke-width:2;marker:none;visibility:visible;display:inline;overflow:visible;enable-background:new;font-family:Sans;-inkscape-font-specification:Sans" />
      <rect
         style="fill:none;stroke:none"
         id="rect4437"
         width="16"
         height="16"
         x="480"
         y="236.36221" />
      <g
         transform="matrix(0.66666667,0,0,0.6669382,378.66661,-113.36262)"
         style="display:inline"
         id="g4439">
        <rect
           y="533.37408"
           x="154"
           height="6.9999561"
           width="2"
           id="rect4441"
           style="fill:#555753;fill-opacity:1;fill-rule:nonzero;stroke:none" />
        <rect
           y="538.37408"
           x="154"
           height="2"
           width="20"
           id="rect4443"
           style="fill:#555753;fill-opacity:1;fill-rule:nonzero;stroke:none" />
        <rect
           y="533.37408"
           x="172"
           height="6.9999561"
           width="2"
           id="rect4445"
           style="fill:#555753;fill-opacity:1;fill-rule:nonzero;stroke:none" />
        <rect
           y="533.37408"
           x="154"
           height="2"
           width="20"
           id="rect4447"
           style="fill:#555753;fill-opacity:1;fill-rule:nonzero;stroke:none" />
      </g>
    </g>
    <path
       style="fill:#555753;fill-opacity:1;stroke:none;display:inline"
       d="M 5 2 C 3.338 2 2 3.338 2 5 L 2 22 L 22 22 L 22 5 C 22 3.338 20.662 2 19 2 L 5 2 z M 14 4 L 16 4 L 16 7 L 19 7 L 19 9 L 16 9 L 16 12 L 14 12 L 14 9 L 11 9 L 11 7 L 14 7 L 14 4 z M 4.3125 6 L 7.6875 6 C 7.8527641 6 8 6.1472359 8 6.3125 L 8 7.6875 C 8 7.8527641 7.8527641 8 7.6875 8 L 4.3125 8 C 4.1472359 8 4 7.8527641 4 7.6875 L 4 6.3125 C 4 6.1472359 4.1472359 6 4.3125 6 z M 4.3125 10 L 7.6875 10 C 7.8527641 10 8 10.147236 8 10.3125 L 8 11.6875 C 8 11.852764 7.8527641 12 7.6875 12 L 4.3125 12 C 4.1472359 12 4 11.852764 4 11.6875 L 4 10.3125 C 4 10.147236 4.1472359 10 4.3125 10 z M 4.3125 14 L 7.6875 14 C 7.8527641 14 8 14.147236 8 14.3125 L 8 15.6875 C 8 15.852764 7.8527641 16 7.6875 16 L 4.3125 16 C 4.1472359 16 4 15.852764 4 15.6875 L 4 14.3125 C 4 14.147236 4.1472359 14 4.3125 14 z M 10.3125 14 L 13.6875 14 C 13.852764 14 14 14.147236 14 14.3125 L 14 15.6875 C 14 15.852764 13.852764 16 13.6875 16 L 10.3125 16 C 10.147236 16 10 15.852764 10 15.6875 L 10 14.3125 C 10 14.147236 10.147236 14 10.3125 14 z M 16.3125 14 L 19.6875 14 C 19.852764 14 20 14.147236 20 14.3125 L 20 15.6875 C 20 15.852764 19.852764 16 19.6875 16 L 16.3125 16 C 16.147236 16 16 15.852764 16 15.6875 L 16 14.3125 C 16 14.147236 16.147236 14 16.3125 14 z M 4.3125 18 L 7.6875 18 C 7.8527641 18 8 18.147236 8 18.3125 L 8 19.6875 C 8 19.852764 7.8527641 20 7.6875 20 L 4.3125 20 C 4.1472359 20 4 19.852764 4 19.6875 L 4 18.3125 C 4 18.147236 4.1472359 18 4.3125 18 z M 10.3125 18 L 13.6875 18 C 13.852764 18 14 18.147236 14 18.3125 L 14 19.6875 C 14 19.852764 13.852764 20 13.6875 20 L 10.3125 20 C 10.147236 20 10 19.852764 10 19.6875 L 10 18.3125 C 10 18.147236 10.147236 18 10.3125 18 z M 16.3125 18 L 19.6875 18 C 19.852764 18 20 18.147236 20 18.3125 L 20 19.6875 C 20 19.852764 19.852764 20 19.6875 20 L 16.3125 20 C 16.147236 20 16 19.852764 16 19.6875 L 16 18.3125 C 16 18.147236 16.147236 18 16.3125 18 z "
       transform="translate(60.952227,639)"
       id="rect3032-7" />
  </g>
</svg>
