<?xml version="1.0" encoding="UTF-8" standalone="no"?>
<!-- Created with Inkscape (http://www.inkscape.org/) -->

<svg
   xmlns:dc="http://purl.org/dc/elements/1.1/"
   xmlns:cc="http://creativecommons.org/ns#"
   xmlns:rdf="http://www.w3.org/1999/02/22-rdf-syntax-ns#"
   xmlns:svg="http://www.w3.org/2000/svg"
   xmlns="http://www.w3.org/2000/svg"
   xmlns:sodipodi="http://sodipodi.sourceforge.net/DTD/sodipodi-0.dtd"
   xmlns:inkscape="http://www.inkscape.org/namespaces/inkscape"
   sodipodi:docname="edit-select-all.svg"
   height="24"
   id="svg7384"
   inkscape:version="0.48.4 r9939"
   version="1.1"
   width="24">
  <metadata
     id="metadata90">
    <rdf:RDF>
      <cc:Work
         rdf:about="">
        <dc:format>image/svg+xml</dc:format>
        <dc:type
           rdf:resource="http://purl.org/dc/dcmitype/StillImage" />
        <dc:title></dc:title>
        <dc:creator>
          <cc:Agent>
            <dc:title>GNU PSPP Community</dc:title>
          </cc:Agent>
        </dc:creator>
        <cc:license
           rdf:resource="http://creativecommons.org/licenses/by-sa/3.0/" />
      </cc:Work>
      <cc:License
         rdf:about="http://creativecommons.org/licenses/by-sa/3.0/">
        <cc:permits
           rdf:resource="http://creativecommons.org/ns#Reproduction" />
        <cc:permits
           rdf:resource="http://creativecommons.org/ns#Distribution" />
        <cc:requires
           rdf:resource="http://creativecommons.org/ns#Notice" />
        <cc:requires
           rdf:resource="http://creativecommons.org/ns#Attribution" />
        <cc:permits
           rdf:resource="http://creativecommons.org/ns#DerivativeWorks" />
        <cc:requires
           rdf:resource="http://creativecommons.org/ns#ShareAlike" />
      </cc:License>
    </rdf:RDF>
  </metadata>
  <sodipodi:namedview
     inkscape:bbox-paths="false"
     bordercolor="#666666"
     borderopacity="1"
     inkscape:current-layer="layer11"
     inkscape:cx="3.639094"
     inkscape:cy="11.713791"
     gridtolerance="10"
     inkscape:guide-bbox="true"
     guidetolerance="10"
     id="namedview88"
     inkscape:object-nodes="false"
     inkscape:object-paths="false"
     objecttolerance="10"
     pagecolor="#555753"
     inkscape:pageopacity="0"
     inkscape:pageshadow="2"
     showborder="false"
     showgrid="true"
     showguides="true"
     inkscape:snap-bbox="true"
     inkscape:snap-bbox-midpoints="false"
     inkscape:snap-global="true"
     inkscape:snap-grids="true"
     inkscape:snap-nodes="false"
     inkscape:snap-others="false"
     inkscape:snap-to-guides="true"
     inkscape:window-height="675"
     inkscape:window-maximized="1"
     inkscape:window-width="1366"
     inkscape:window-x="0"
     inkscape:window-y="28"
     inkscape:zoom="16.82915"
     inkscape:bbox-nodes="true"
     inkscape:snap-bbox-edge-midpoints="true">
    <inkscape:grid
       empspacing="2"
       enabled="true"
       id="grid4866"
       snapvisiblegridlinesonly="true"
       spacingx="1px"
       spacingy="1px"
       type="xygrid"
       visible="true" />
    <sodipodi:guide
       position="0,0"
       orientation="0,16"
       id="guide2996" />
    <sodipodi:guide
       position="16,0"
       orientation="-16,0"
       id="guide2998" />
    <sodipodi:guide
       position="13,16"
       orientation="0,-16"
       id="guide3000" />
    <sodipodi:guide
       position="0,12"
       orientation="16,0"
       id="guide3002" />
    <sodipodi:guide
       position="0,0"
       orientation="0,24"
       id="guide4287" />
    <sodipodi:guide
       position="24,0"
       orientation="-24,0"
       id="guide4289" />
    <sodipodi:guide
       position="24,24"
       orientation="0,-24"
       id="guide4291" />
    <sodipodi:guide
       position="0,24"
       orientation="24,0"
       id="guide4293" />
  </sodipodi:namedview>
  <defs
     id="defs7386" />
  <g
     inkscape:groupmode="layer"
     id="layer11"
     inkscape:label="GNU PSPP Icon Set"
     transform="translate(-283,-641)">
    <rect
       style="fill:none;stroke:none;display:inline"
       id="rect6323"
       width="24"
       height="23.990229"
       x="249"
       y="642.00977" />
    <path
       style="fill:#555753;fill-opacity:1;stroke:none"
       d="m 286,648 c -0.15429,0 -0.27578,0.0323 -0.40625,0.0937 -0.1206,0.0508 -0.22146,0.0965 -0.3125,0.1875 -0.091,0.091 -0.13666,0.1919 -0.1875,0.3125 -0.0615,0.13051 -0.0937,0.25201 -0.0937,0.4063 l 0,10 c 0,0.41854 0.23197,0.75373 0.59375,0.90625 0.13047,0.0615 0.25196,0.0937 0.40625,0.0937 l 18,0 c 0.27903,0 0.53668,-0.0992 0.71875,-0.28125 0.0847,-0.0847 0.13728,-0.20196 0.1875,-0.3125 0.004,-0.009 -0.003,-0.0223 0,-0.0313 0.0508,-0.12055 0.0937,-0.23544 0.0937,-0.37495 l 0,-10 c 0,-0.14929 -0.036,-0.27905 -0.0937,-0.40625 -0.0508,-0.1206 -0.0965,-0.22146 -0.1875,-0.3125 C 304.53668,648.09918 304.27903,648 304,648 l -18,0 z m 1,2 16,0 0,8 -16,0 0,-8 z"
       id="rect3777"
       inkscape:connector-curvature="0" />
    <path
       style="fill:#555753;fill-opacity:1;stroke:none;display:inline;opacity:0.35"
       d="M 5 2 C 3.338 2 2 3.338 2 5 L 2 22 L 22 22 L 22 5 C 22 3.338 20.662 2 19 2 L 5 2 z M 4.3125 6 L 7.6875 6 C 7.85276 6 8 6.14724 8 6.3125 L 8 7 L 10 7 L 10 6.3125 C 10 6.14724 10.14724 6 10.3125 6 L 13.6875 6 C 13.85276 6 14 6.14724 14 6.3125 L 14 7 L 16 7 L 16 6.3125 C 16 6.14724 16.14724 6 16.3125 6 L 19.6875 6 C 19.85276 6 20 6.14724 20 6.3125 L 20 7 L 21 7 L 21 19 L 20 19 L 20 19.6875 C 20 19.85276 19.85276 20 19.6875 20 L 16.3125 20 C 16.14724 20 16 19.85276 16 19.6875 L 16 19 L 14 19 L 14 19.6875 C 14 19.85276 13.85276 20 13.6875 20 L 10.3125 20 C 10.14724 20 10 19.85276 10 19.6875 L 10 19 L 8 19 L 8 19.6875 C 8 19.85276 7.85276 20 7.6875 20 L 4.3125 20 C 4.14724 20 4 19.85276 4 19.6875 L 4 19 L 3 19 L 3 7 L 4 7 L 4 6.3125 C 4 6.14724 4.14724 6 4.3125 6 z "
       transform="translate(283,641)"
       id="rect3032-7" />
  </g>
</svg>
