<?xml version="1.0" encoding="UTF-8" standalone="no"?>
<!-- Created with Inkscape (http://www.inkscape.org/) -->

<svg
   xmlns:dc="http://purl.org/dc/elements/1.1/"
   xmlns:cc="http://creativecommons.org/ns#"
   xmlns:rdf="http://www.w3.org/1999/02/22-rdf-syntax-ns#"
   xmlns:svg="http://www.w3.org/2000/svg"
   xmlns="http://www.w3.org/2000/svg"
   xmlns:sodipodi="http://sodipodi.sourceforge.net/DTD/sodipodi-0.dtd"
   xmlns:inkscape="http://www.inkscape.org/namespaces/inkscape"
   sodipodi:docname="edit-add-variable.svg"
   height="24"
   id="svg7384"
   inkscape:version="0.48.4 r9939"
   version="1.1"
   width="24">
  <metadata
     id="metadata90">
    <rdf:RDF>
      <cc:Work
         rdf:about="">
        <dc:format>image/svg+xml</dc:format>
        <dc:type
           rdf:resource="http://purl.org/dc/dcmitype/StillImage" />
        <dc:title />
        <dc:creator>
          <cc:Agent>
            <dc:title>GNU PSPP Community</dc:title>
          </cc:Agent>
        </dc:creator>
        <cc:license
           rdf:resource="http://creativecommons.org/licenses/by-sa/3.0/" />
      </cc:Work>
      <cc:License
         rdf:about="http://creativecommons.org/licenses/by-sa/3.0/">
        <cc:permits
           rdf:resource="http://creativecommons.org/ns#Reproduction" />
        <cc:permits
           rdf:resource="http://creativecommons.org/ns#Distribution" />
        <cc:requires
           rdf:resource="http://creativecommons.org/ns#Notice" />
        <cc:requires
           rdf:resource="http://creativecommons.org/ns#Attribution" />
        <cc:permits
           rdf:resource="http://creativecommons.org/ns#DerivativeWorks" />
        <cc:requires
           rdf:resource="http://creativecommons.org/ns#ShareAlike" />
      </cc:License>
    </rdf:RDF>
  </metadata>
  <sodipodi:namedview
     inkscape:bbox-paths="false"
     bordercolor="#666666"
     borderopacity="1"
     inkscape:current-layer="layer11"
     inkscape:cx="-11.245381"
     inkscape:cy="10.530498"
     gridtolerance="10"
     inkscape:guide-bbox="true"
     guidetolerance="10"
     id="namedview88"
     inkscape:object-nodes="false"
     inkscape:object-paths="false"
     objecttolerance="10"
     pagecolor="#555753"
     inkscape:pageopacity="0"
     inkscape:pageshadow="2"
     showborder="false"
     showgrid="true"
     showguides="true"
     inkscape:snap-bbox="true"
     inkscape:snap-bbox-midpoints="true"
     inkscape:snap-global="true"
     inkscape:snap-grids="true"
     inkscape:snap-nodes="false"
     inkscape:snap-others="false"
     inkscape:snap-to-guides="true"
     inkscape:window-height="675"
     inkscape:window-maximized="1"
     inkscape:window-width="1366"
     inkscape:window-x="0"
     inkscape:window-y="28"
     inkscape:zoom="16"
     inkscape:bbox-nodes="true"
     inkscape:snap-bbox-edge-midpoints="true">
    <inkscape:grid
       empspacing="2"
       enabled="true"
       id="grid4866"
       snapvisiblegridlinesonly="true"
       spacingx="1px"
       spacingy="1px"
       type="xygrid"
       visible="true" />
    <sodipodi:guide
       position="0,0"
       orientation="0,16"
       id="guide2996" />
    <sodipodi:guide
       position="16,0"
       orientation="-16,0"
       id="guide2998" />
    <sodipodi:guide
       position="13,16"
       orientation="0,-16"
       id="guide3000" />
    <sodipodi:guide
       position="0,12"
       orientation="16,0"
       id="guide3002" />
    <sodipodi:guide
       position="0,0"
       orientation="0,24"
       id="guide4287" />
    <sodipodi:guide
       position="24,0"
       orientation="-24,0"
       id="guide4289" />
    <sodipodi:guide
       position="24,24"
       orientation="0,-24"
       id="guide4291" />
    <sodipodi:guide
       position="0,24"
       orientation="24,0"
       id="guide4293" />
  </sodipodi:namedview>
  <defs
     id="defs7386" />
  <g
     inkscape:groupmode="layer"
     id="layer9"
     inkscape:label="status"
     style="display:inline"
     transform="translate(-283,-641)" />
  <g
     inkscape:groupmode="layer"
     id="layer10"
     inkscape:label="devices"
     transform="translate(-283,-641)" />
  <g
     inkscape:groupmode="layer"
     id="layer11"
     inkscape:label="apps"
     transform="translate(-283,-641)">
    <g
       style="fill:#555753;fill-opacity:1;display:inline"
       transform="translate(141,251)"
       inkscape:label="sc_zoomplus"
       id="g8166">
      <rect
         style="fill:none;stroke:none"
         id="rect8168"
         width="24"
         height="23.999996"
         x="142"
         y="390"
         rx="0"
         ry="0" />
    </g>
    <rect
       transform="matrix(0,1,1,0,0,0)"
       y="304.00003"
       x="647.99994"
       height="16"
       width="15.999999"
       id="rect7290"
       style="fill:none;stroke:none" />
    <g
       transform="matrix(0,1,1,0,-102.3622,591.99991)"
       style="fill:none;stroke:none"
       id="g7292">
      <path
         sodipodi:nodetypes="ccccssc"
         inkscape:connector-curvature="0"
         id="path7294"
         d="m 58.99296,408.86219 2.5,0 c 0.52709,0 1,0.49495 1,1 l 0,3 -3,0 c -1.30615,0 -1.34163,-2 0,-2 l 3,0"
         style="color:#000000;fill:none;stroke:none;stroke-width:1;marker:none;visibility:visible;display:inline;overflow:visible;enable-background:accumulate" />
      <path
         style="color:#000000;fill:none;stroke:none;stroke-width:1;marker:none;visibility:visible;display:inline;overflow:visible;enable-background:accumulate"
         d="m 64.5,407.36219 0,5.5 3,0 c 1.30615,0 1.34163,-3 0,-3 l -3,0"
         id="path7296"
         inkscape:connector-curvature="0"
         sodipodi:nodetypes="ccssc" />
      <g
         transform="matrix(-1,0,0,1,394.0627,-240.6378)"
         id="g7298"
         style="fill:none;stroke:none;display:inline">
        <path
           style="color:#000000;fill:none;stroke:none;stroke-width:2;marker:none;visibility:visible;display:inline;overflow:visible;enable-background:accumulate"
           d="m 337.0627,659 -13.0625,0"
           id="path7300"
           inkscape:connector-curvature="0"
           sodipodi:nodetypes="cc" />
      </g>
      <rect
         y="406.36221"
         x="56"
         height="16"
         width="15.999999"
         id="rect7302"
         style="fill:none;stroke:none" />
    </g>
    <path
       style="fill:#555753;fill-opacity:1;stroke:none"
       d="m 301,642 0,2.96875 -3,0 0,2.0625 3,0 0,2.96875 2,0 0,-2.96875 3,0 0,-2.0625 -3,0 0,-2.96875 -2,0 z"
       id="rect3010"
       inkscape:connector-curvature="0" />
    <path
       style="fill:#555753;fill-opacity:1;stroke:none"
       d="M 2 8 C 1.446 8 1 8.446 1 9 L 1 9.5 L 1 10 L 1 10.25 L 1 11.125 L 1 20 L 1 20.75 L 1 21 L 1 21.625 L 1 22 C 0.99907295 22.010329 1 22.02079 1 22.03125 C 1 22.598234 1.4642656 23.0625 2.03125 23.0625 L 14.96875 23.0625 C 15.535734 23.0625 16 22.598234 16 22.03125 C 16 22.02079 16.000927 22.010329 16 22 L 16 21.5 L 16 21 L 16 20.75 L 16 20 L 16 11.125 L 16 10.25 L 16 10 L 16 9.5 L 16 9 C 16 8.446 15.554 8 15 8 L 14.5 8 L 2.5 8 L 2 8 z M 3.1875 11 L 6.4375 11 L 8.5 13.875 L 10.5625 11 L 13.84375 11 L 10.40625 15.40625 L 14 20 L 10.71875 20 L 8.5 16.90625 L 6.28125 20 L 3 20 L 6.59375 15.40625 L 3.1875 11 z "
       transform="translate(283,641)"
       id="rect3002" />
  </g>
  <g
     inkscape:groupmode="layer"
     id="layer13"
     inkscape:label="places"
     transform="translate(-283,-641)" />
  <g
     inkscape:groupmode="layer"
     id="layer14"
     inkscape:label="mimetypes"
     transform="translate(-283,-641)" />
  <g
     inkscape:groupmode="layer"
     id="layer15"
     inkscape:label="emblems"
     style="display:inline"
     transform="translate(-283,-641)" />
  <g
     inkscape:groupmode="layer"
     id="g71291"
     inkscape:label="emotes"
     style="display:inline"
     transform="translate(-283,-641)" />
  <g
     inkscape:groupmode="layer"
     id="g4953"
     inkscape:label="categories"
     style="display:inline"
     transform="translate(-283,-641)" />
  <g
     inkscape:groupmode="layer"
     id="layer12"
     inkscape:label="actions"
     style="display:inline"
     transform="translate(-283,-641)" />
</svg>
