<?xml version="1.0" encoding="UTF-8" standalone="no"?>
<!-- Created with Inkscape (http://www.inkscape.org/) -->

<svg
   xmlns:dc="http://purl.org/dc/elements/1.1/"
   xmlns:cc="http://creativecommons.org/ns#"
   xmlns:rdf="http://www.w3.org/1999/02/22-rdf-syntax-ns#"
   xmlns:svg="http://www.w3.org/2000/svg"
   xmlns="http://www.w3.org/2000/svg"
   xmlns:sodipodi="http://sodipodi.sourceforge.net/DTD/sodipodi-0.dtd"
   xmlns:inkscape="http://www.inkscape.org/namespaces/inkscape"
   id="svg7384"
   sodipodi:docname="edit-goto-case.svg"
   version="1.1"
   inkscape:version="0.48.4 r9939"
   height="24"
   width="24"
   inkscape:export-filename="/home/raizen/Escritorio/PSPP icon original/Carpeta sin título/goto-case.png"
   inkscape:export-xdpi="90"
   inkscape:export-ydpi="90">
  <metadata
     id="metadata90">
    <rdf:RDF>
      <cc:Work
         rdf:about="">
        <dc:format>image/svg+xml</dc:format>
        <dc:type
           rdf:resource="http://purl.org/dc/dcmitype/StillImage" />
        <dc:title />
        <dc:creator>
          <cc:Agent>
            <dc:title>GNU PSPP Community</dc:title>
          </cc:Agent>
        </dc:creator>
        <cc:license
           rdf:resource="http://creativecommons.org/licenses/by-sa/3.0/" />
      </cc:Work>
      <cc:License
         rdf:about="http://creativecommons.org/licenses/by-sa/3.0/">
        <cc:permits
           rdf:resource="http://creativecommons.org/ns#Reproduction" />
        <cc:permits
           rdf:resource="http://creativecommons.org/ns#Distribution" />
        <cc:requires
           rdf:resource="http://creativecommons.org/ns#Notice" />
        <cc:requires
           rdf:resource="http://creativecommons.org/ns#Attribution" />
        <cc:permits
           rdf:resource="http://creativecommons.org/ns#DerivativeWorks" />
        <cc:requires
           rdf:resource="http://creativecommons.org/ns#ShareAlike" />
      </cc:License>
    </rdf:RDF>
  </metadata>
  <sodipodi:namedview
     inkscape:cy="11.883432"
     pagecolor="#4d4d4d"
     borderopacity="1"
     showborder="false"
     inkscape:bbox-paths="false"
     guidetolerance="10"
     inkscape:object-paths="true"
     inkscape:window-width="1366"
     showguides="true"
     inkscape:object-nodes="true"
     inkscape:snap-bbox="true"
     inkscape:pageshadow="2"
     inkscape:guide-bbox="true"
     inkscape:snap-nodes="false"
     bordercolor="#666666"
     objecttolerance="10"
     id="namedview88"
     showgrid="true"
     inkscape:window-maximized="1"
     inkscape:window-x="0"
     inkscape:snap-global="true"
     inkscape:window-y="28"
     gridtolerance="10"
     inkscape:window-height="675"
     inkscape:snap-others="false"
     inkscape:snap-to-guides="true"
     inkscape:current-layer="layer12"
     inkscape:snap-bbox-midpoints="false"
     inkscape:zoom="22.627418"
     inkscape:cx="19.620001"
     inkscape:snap-grids="true"
     inkscape:pageopacity="0"
     inkscape:bbox-nodes="true"
     inkscape:snap-bbox-edge-midpoints="true">
    <inkscape:grid
       spacingx="1px"
       spacingy="1px"
       id="grid4866"
       empspacing="2"
       enabled="true"
       type="xygrid"
       snapvisiblegridlinesonly="true"
       visible="true" />
    <sodipodi:guide
       position="0,0"
       orientation="0,16.085251"
       id="guide3001" />
    <sodipodi:guide
       position="24.000002,5.7220459e-06"
       orientation="-16.02426,0"
       id="guide3003" />
    <sodipodi:guide
       position="15.620287,24"
       orientation="0,-16.085251"
       id="guide3005" />
    <sodipodi:guide
       position="0,16.02426"
       orientation="16.02426,0"
       id="guide3007" />
    <sodipodi:guide
       position="0,0"
       orientation="0,24"
       id="guide3022" />
    <sodipodi:guide
       position="24,0"
       orientation="-24,0"
       id="guide3024" />
    <sodipodi:guide
       position="24,24"
       orientation="0,-24"
       id="guide3026" />
    <sodipodi:guide
       position="0,24"
       orientation="24,0"
       id="guide3028" />
  </sodipodi:namedview>
  <defs
     id="defs7386">
    <inkscape:path-effect
       effect="spiro"
       id="path-effect91806"
       is_visible="true" />
  </defs>
  <g
     inkscape:label="GNU PSPP Symbolic icon theme"
     transform="translate(-60.952227,-639)"
     inkscape:groupmode="layer"
     id="layer12"
     style="display:inline">
    <g
       transform="matrix(1.5,0,0,1.4993893,4.95223,514.16573)"
       inkscape:label="lc_togglemergecells"
       id="lc_mergecells"
       style="display:inline">
      <path
         sodipodi:nodetypes="ccccccccccccccccccccccccccccccccccccccccccccccccccccccc"
         inkscape:connector-curvature="0"
         id="path4419"
         d="m 482.6666,239.03523 -1.33332,-0.005 -2e-5,1.33839 1e-5,3.99635 10e-6,4.66987 0,1.33334 1.33332,0.005 5.33333,0 5.33333,0 1.33335,-0.005 0,-1.33331 0,-4.66987 -10e-6,-3.99635 10e-6,-1.33836 -1.33335,0.005 -5.33333,0 z m 0,1.33192 2,0 0.66666,0 0,2 -2.66666,0 z m 4,0 2.66666,0 0,2 -2.66666,0 z m 4,0 2.66666,0 0,2 -2.66666,0 z m -8,3.32968 10.66667,0 0,2 -10.66667,0 z m 0,3.33654 2.66667,0 0,2 -0.66667,0 -2,0 z m 4,0 2.66667,0 0,2 -2.66667,0 z m 4,0 2.66667,0 0,2 -2,0 -0.66667,0 z"
         style="font-size:medium;font-style:normal;font-variant:normal;font-weight:normal;font-stretch:normal;text-indent:0;text-align:start;text-decoration:none;line-height:normal;letter-spacing:normal;word-spacing:normal;text-transform:none;direction:ltr;block-progression:tb;writing-mode:lr-tb;text-anchor:start;baseline-shift:baseline;opacity:0.35;color:#000000;fill:#555753;fill-opacity:1;stroke:none;stroke-width:2;marker:none;visibility:visible;display:inline;overflow:visible;enable-background:new;font-family:Sans;-inkscape-font-specification:Sans" />
      <rect
         style="fill:none;stroke:none"
         id="rect4421"
         width="16"
         height="16"
         x="480"
         y="236.36221" />
      <g
         transform="matrix(0.66666667,0,0,0.6669382,378.66661,-113.36262)"
         style="display:inline"
         id="g4423">
        <rect
           y="533.37408"
           x="154"
           height="6.9999561"
           width="2"
           id="rect4425"
           style="fill:#555753;fill-opacity:1;fill-rule:nonzero;stroke:none" />
        <rect
           y="538.37408"
           x="154"
           height="2"
           width="20"
           id="rect4427"
           style="fill:#555753;fill-opacity:1;fill-rule:nonzero;stroke:none" />
        <rect
           y="533.37408"
           x="172"
           height="6.9999561"
           width="2"
           id="rect4429"
           style="fill:#555753;fill-opacity:1;fill-rule:nonzero;stroke:none" />
        <rect
           y="533.37408"
           x="154"
           height="2"
           width="20"
           id="rect4431"
           style="fill:#555753;fill-opacity:1;fill-rule:nonzero;stroke:none" />
      </g>
    </g>
    <g
       transform="matrix(1.5,0,0,1.4993893,4.95223,514.16573)"
       inkscape:label="lc_togglemergecells"
       id="lc_mergecells-7"
       style="display:inline">
      <path
         sodipodi:nodetypes="ccccccccccccccccccccccccccccccccccccccccccccccccccccccc"
         inkscape:connector-curvature="0"
         id="path4435"
         d="m 482.6666,239.03523 -1.33332,-0.005 -2e-5,1.33839 1e-5,3.99635 10e-6,4.66987 0,1.33334 1.33332,0.005 5.33333,0 5.33333,0 1.33335,-0.005 0,-1.33331 0,-4.66987 -10e-6,-3.99635 10e-6,-1.33836 -1.33335,0.005 -5.33333,0 z m 0,1.33192 2,0 0.66666,0 0,2 -2.66666,0 z m 4,0 2.66666,0 0,2 -2.66666,0 z m 4,0 2.66666,0 0,2 -2.66666,0 z m -8,3.32968 10.66667,0 0,2 -10.66667,0 z m 0,3.33654 2.66667,0 0,2 -0.66667,0 -2,0 z m 4,0 2.66667,0 0,2 -2.66667,0 z m 4,0 2.66667,0 0,2 -2,0 -0.66667,0 z"
         style="font-size:medium;font-style:normal;font-variant:normal;font-weight:normal;font-stretch:normal;text-indent:0;text-align:start;text-decoration:none;line-height:normal;letter-spacing:normal;word-spacing:normal;text-transform:none;direction:ltr;block-progression:tb;writing-mode:lr-tb;text-anchor:start;baseline-shift:baseline;opacity:0.35;color:#000000;fill:#555753;fill-opacity:1;stroke:none;stroke-width:2;marker:none;visibility:visible;display:inline;overflow:visible;enable-background:new;font-family:Sans;-inkscape-font-specification:Sans" />
      <rect
         style="fill:none;stroke:none"
         id="rect4437"
         width="16"
         height="16"
         x="480"
         y="236.36221" />
      <g
         transform="matrix(0.66666667,0,0,0.6669382,378.66661,-113.36262)"
         style="display:inline"
         id="g4439">
        <rect
           y="533.37408"
           x="154"
           height="6.9999561"
           width="2"
           id="rect4441"
           style="fill:#555753;fill-opacity:1;fill-rule:nonzero;stroke:none" />
        <rect
           y="538.37408"
           x="154"
           height="2"
           width="20"
           id="rect4443"
           style="fill:#555753;fill-opacity:1;fill-rule:nonzero;stroke:none" />
        <rect
           y="533.37408"
           x="172"
           height="6.9999561"
           width="2"
           id="rect4445"
           style="fill:#555753;fill-opacity:1;fill-rule:nonzero;stroke:none" />
        <rect
           y="533.37408"
           x="154"
           height="2"
           width="20"
           id="rect4447"
           style="fill:#555753;fill-opacity:1;fill-rule:nonzero;stroke:none" />
      </g>
    </g>
    <rect
       style="fill:none;stroke:none"
       id="rect6323"
       width="24"
       height="23.990229"
       x="60.952229"
       y="639.00977" />
    <path
       style="font-size:medium;font-style:normal;font-variant:normal;font-weight:normal;font-stretch:normal;text-indent:0;text-align:start;text-decoration:none;line-height:normal;letter-spacing:normal;word-spacing:normal;text-transform:none;direction:ltr;block-progression:tb;writing-mode:lr-tb;text-anchor:start;baseline-shift:baseline;color:#000000;fill:#555753;fill-opacity:1;stroke:none;stroke-width:2;marker:none;visibility:visible;display:inline;overflow:visible;enable-background:new;font-family:Sans;-inkscape-font-specification:Sans"
       d="m 60.971261,640.43202 a 1.2226672,1.2178751 0 0 0 0.34913,0.7237 l 3.303312,3.27003 -2.094783,0 a 1.2840139,1.2835428 0 0 0 -1.315954,1.34017 l 0,0.0804 0,1.15256 1.208529,0 a 1.2840139,1.2835428 0 0 0 0.107425,0 l 0.295418,0 4.780403,0 0.05371,0 a 1.2426767,1.2378061 0 0 0 0.05372,0 1.2840139,1.2835428 0 0 0 0.08057,0 1.2426767,1.2378061 0 0 0 0.05371,0 l 1.101105,0 0,-1.17936 a 1.2840139,1.2835428 0 0 0 0,-0.0268 1.2426767,1.2378061 0 0 0 0,-0.21444 l 0,-4.69061 0,-0.29483 0,-0.13402 0,-1.17936 -1.181674,0 a 1.2840139,1.2835428 0 0 0 -0.05371,0 1.2840139,1.2835428 0 0 0 -1.34281,1.31338 l 0,2.09066 -3.276456,-3.27002 a 1.2226672,1.2178751 0 0 0 -2.121639,1.01853 z"
       id="path12113"
       inkscape:connector-curvature="0" />
    <path
       inkscape:connector-curvature="0"
       style="fill:#555753;fill-opacity:1;stroke:none"
       d="m 76.452226,646 c -4.694408,0 -8.499999,3.80559 -8.499999,8.5 0,4.69441 3.805591,8.5 8.499999,8.5 4.694407,0 8.500001,-3.80559 8.500001,-8.5 0,-4.69441 -3.805594,-8.5 -8.500001,-8.5 z m 0,2.31819 c 1.707064,0 3.090911,1.29735 3.090911,2.89772 0,1.60037 -1.383847,2.89773 -3.090911,2.89773 -1.707064,0 -3.090912,-1.29736 -3.090912,-2.89773 0,-1.60037 1.383848,-2.89772 3.090912,-2.89772 z m -1.811085,6.15766 -0.04836,0.79688 3.718749,0 0,-0.77273 c 2.185104,0.0358 2.463073,1.87784 2.463073,3.09091 l 0,2.31818 -8.644886,0 0,-2.31818 c 0,-1.20489 0.554899,-3.05324 2.511363,-3.11506 z"
       id="path3006-3" />
  </g>
</svg>
