<?xml version="1.0" encoding="UTF-8" standalone="no"?>
<!-- Created with Inkscape (http://www.inkscape.org/) -->

<svg
   xmlns:dc="http://purl.org/dc/elements/1.1/"
   xmlns:cc="http://creativecommons.org/ns#"
   xmlns:rdf="http://www.w3.org/1999/02/22-rdf-syntax-ns#"
   xmlns:svg="http://www.w3.org/2000/svg"
   xmlns="http://www.w3.org/2000/svg"
   xmlns:sodipodi="http://sodipodi.sourceforge.net/DTD/sodipodi-0.dtd"
   xmlns:inkscape="http://www.inkscape.org/namespaces/inkscape"
   width="24"
   height="24"
   id="svg3991"
   version="1.1"
   inkscape:version="0.48.4 r9939"
   sodipodi:docname="edit-go-to-variable.svg">
  <title
     id="title4018">GNU PSPP flat icon set</title>
  <defs
     id="defs3993" />
  <sodipodi:namedview
     id="base"
     pagecolor="#ffffff"
     bordercolor="#666666"
     borderopacity="1.0"
     inkscape:pageopacity="0.0"
     inkscape:pageshadow="2"
     inkscape:zoom="11.2"
     inkscape:cx="12.875286"
     inkscape:cy="9.6348948"
     inkscape:document-units="px"
     inkscape:current-layer="layer1"
     showgrid="true"
     inkscape:window-width="683"
     inkscape:window-height="708"
     inkscape:window-x="0"
     inkscape:window-y="27"
     inkscape:window-maximized="0"
     showborder="false"
     inkscape:snap-bbox="true">
    <inkscape:grid
       type="xygrid"
       id="grid2983"
       empspacing="5"
       visible="true"
       enabled="true"
       snapvisiblegridlinesonly="true" />
    <sodipodi:guide
       position="0,0"
       orientation="0,24"
       id="guide5959" />
    <sodipodi:guide
       position="24,0"
       orientation="-24,0"
       id="guide5961" />
    <sodipodi:guide
       position="24,24"
       orientation="0,-24"
       id="guide5963" />
    <sodipodi:guide
       position="0,24"
       orientation="24,0"
       id="guide5965" />
  </sodipodi:namedview>
  <metadata
     id="metadata3996">
    <rdf:RDF>
      <cc:Work
         rdf:about="">
        <dc:format>image/svg+xml</dc:format>
        <dc:type
           rdf:resource="http://purl.org/dc/dcmitype/StillImage" />
        <dc:title>GNU PSPP flat icon set</dc:title>
        <cc:license
           rdf:resource="http://creativecommons.org/licenses/by-sa/3.0/" />
        <dc:creator>
          <cc:Agent>
            <dc:title>Bastián Díaz</dc:title>
          </cc:Agent>
        </dc:creator>
        <dc:source>https://github.com/bedf/PSPPire-artwork</dc:source>
      </cc:Work>
      <cc:License
         rdf:about="http://creativecommons.org/licenses/by-sa/3.0/">
        <cc:permits
           rdf:resource="http://creativecommons.org/ns#Reproduction" />
        <cc:permits
           rdf:resource="http://creativecommons.org/ns#Distribution" />
        <cc:requires
           rdf:resource="http://creativecommons.org/ns#Notice" />
        <cc:requires
           rdf:resource="http://creativecommons.org/ns#Attribution" />
        <cc:permits
           rdf:resource="http://creativecommons.org/ns#DerivativeWorks" />
        <cc:requires
           rdf:resource="http://creativecommons.org/ns#ShareAlike" />
      </cc:License>
    </rdf:RDF>
  </metadata>
  <g
     inkscape:label="Layer 1"
     inkscape:groupmode="layer"
     id="layer1"
     transform="translate(0,-1028.3622)">
    <g
       transform="translate(470,540.00002)"
       style="display:inline"
       id="g5888">
      <rect
         style="opacity:0;fill:#ffffff;fill-opacity:1;stroke:none;display:inline"
         id="rect4898-0"
         width="23.991945"
         height="23.999992"
         x="-469.99194"
         y="488.36218" />
      <rect
         y="488.36221"
         x="-470"
         height="23.999966"
         width="23.991945"
         id="rect5357-05"
         style="fill:none;stroke:none" />
      <path
         inkscape:connector-curvature="0"
         id="rect5340-3-4"
         d="m -459.5,497.375 c -2.49216,0 -4.5,2.007 -4.5,4.5 l 0,6 c 0,2.49299 2.00784,4.5 4.5,4.5 l 6,0 c 2.49216,0 4.5,-2.00701 4.5,-4.5 l 0,-6 c 0,-2.493 -2.00784,-4.5 -4.5,-4.5 l -6,0 z m -0.5,2 3.625,3.625 3.625,-3.625 1.75,1.78125 -3.625,3.625 3.625,3.59375 -1.75,1.78125 -3.625,-3.625 -3.625,3.625 -1.75,-1.78125 3.625,-3.59375 -3.625,-3.625 1.75,-1.78125 z"
         style="fill:#555753;fill-opacity:1;stroke:none;display:inline" />
      <path
         inkscape:connector-curvature="0"
         id="path6429-5-2-9-5-8-8"
         d="m -464,488.36218 c -3.3137,0 -6,2.6863 -6,6 0,0.55228 0.67157,1 1.5,1 0.82843,0 1.5,-0.44772 1.5,-1 0,-1.65685 1.34314,-3 3,-3 l 2,0 c 1.08731,0 2.03634,0.57155 2.5625,1.4375 l -2.5625,2.5625 7,0 0,-7 -2.28125,2.28125 c -1.09827,-1.40272 -2.79913,-2.28125 -4.71875,-2.28125 l -2,0 z"
         style="fill:#555753;fill-opacity:1;stroke:none;display:inline" />
    </g>
  </g>
</svg>
