<?xml version="1.0" encoding="UTF-8" standalone="no"?>
<!-- Created with Inkscape (http://www.inkscape.org/) -->

<svg
   xmlns:dc="http://purl.org/dc/elements/1.1/"
   xmlns:cc="http://creativecommons.org/ns#"
   xmlns:rdf="http://www.w3.org/1999/02/22-rdf-syntax-ns#"
   xmlns:svg="http://www.w3.org/2000/svg"
   xmlns="http://www.w3.org/2000/svg"
   xmlns:sodipodi="http://sodipodi.sourceforge.net/DTD/sodipodi-0.dtd"
   xmlns:inkscape="http://www.inkscape.org/namespaces/inkscape"
   sodipodi:docname="quit.svg"
   height="24"
   id="svg7384"
   inkscape:version="0.48.4 r9939"
   version="1.1"
   width="24">
  <metadata
     id="metadata90">
    <rdf:RDF>
      <cc:Work
         rdf:about="">
        <dc:format>image/svg+xml</dc:format>
        <dc:type
           rdf:resource="http://purl.org/dc/dcmitype/StillImage" />
        <dc:title />
        <dc:creator>
          <cc:Agent>
            <dc:title>GNU PSPP Community</dc:title>
          </cc:Agent>
        </dc:creator>
        <cc:license
           rdf:resource="http://creativecommons.org/licenses/by-sa/3.0/" />
      </cc:Work>
      <cc:License
         rdf:about="http://creativecommons.org/licenses/by-sa/3.0/">
        <cc:permits
           rdf:resource="http://creativecommons.org/ns#Reproduction" />
        <cc:permits
           rdf:resource="http://creativecommons.org/ns#Distribution" />
        <cc:requires
           rdf:resource="http://creativecommons.org/ns#Notice" />
        <cc:requires
           rdf:resource="http://creativecommons.org/ns#Attribution" />
        <cc:permits
           rdf:resource="http://creativecommons.org/ns#DerivativeWorks" />
        <cc:requires
           rdf:resource="http://creativecommons.org/ns#ShareAlike" />
      </cc:License>
    </rdf:RDF>
  </metadata>
  <sodipodi:namedview
     inkscape:bbox-paths="false"
     bordercolor="#666666"
     borderopacity="1"
     inkscape:current-layer="layer11"
     inkscape:cx="1.2113543"
     inkscape:cy="8.0436035"
     gridtolerance="10"
     inkscape:guide-bbox="true"
     guidetolerance="10"
     id="namedview88"
     inkscape:object-nodes="false"
     inkscape:object-paths="false"
     objecttolerance="10"
     pagecolor="#555753"
     inkscape:pageopacity="0"
     inkscape:pageshadow="2"
     showborder="false"
     showgrid="true"
     showguides="true"
     inkscape:snap-bbox="true"
     inkscape:snap-bbox-midpoints="false"
     inkscape:snap-global="true"
     inkscape:snap-grids="true"
     inkscape:snap-nodes="false"
     inkscape:snap-others="false"
     inkscape:snap-to-guides="true"
     inkscape:window-height="675"
     inkscape:window-maximized="1"
     inkscape:window-width="1366"
     inkscape:window-x="0"
     inkscape:window-y="28"
     inkscape:zoom="16.82915"
     inkscape:bbox-nodes="true"
     inkscape:snap-bbox-edge-midpoints="true">
    <inkscape:grid
       empspacing="2"
       enabled="true"
       id="grid4866"
       snapvisiblegridlinesonly="true"
       spacingx="1px"
       spacingy="1px"
       type="xygrid"
       visible="true" />
    <sodipodi:guide
       position="0,0"
       orientation="0,16"
       id="guide2996" />
    <sodipodi:guide
       position="16,0"
       orientation="-16,0"
       id="guide2998" />
    <sodipodi:guide
       position="13,16"
       orientation="0,-16"
       id="guide3000" />
    <sodipodi:guide
       position="0,12"
       orientation="16,0"
       id="guide3002" />
    <sodipodi:guide
       position="0,0"
       orientation="0,24"
       id="guide4287" />
    <sodipodi:guide
       position="24,0"
       orientation="-24,0"
       id="guide4289" />
    <sodipodi:guide
       position="24,24"
       orientation="0,-24"
       id="guide4291" />
    <sodipodi:guide
       position="0,24"
       orientation="24,0"
       id="guide4293" />
  </sodipodi:namedview>
  <defs
     id="defs7386" />
  <g
     inkscape:groupmode="layer"
     id="layer9"
     inkscape:label="status"
     style="display:inline"
     transform="translate(-283,-641)" />
  <g
     inkscape:groupmode="layer"
     id="layer10"
     inkscape:label="devices"
     transform="translate(-283,-641)" />
  <g
     inkscape:groupmode="layer"
     id="layer11"
     inkscape:label="apps"
     transform="translate(-283,-641)">
    <path
       style="fill:#555753;fill-opacity:1;stroke:none"
       d="m 286.00015,645 c -0.1385,0 -0.25528,0.0433 -0.375,0.0937 -0.12811,0.054 -0.24967,0.11947 -0.34375,0.21875 -0.0818,0.0863 -0.14057,0.20117 -0.1875,0.3125 -0.004,0.009 0.004,0.0223 0,0.0313 -0.0432,0.11204 -0.0937,0.21611 -0.0937,0.34375 0,0.0109 -3.4e-4,0.0205 0,0.0313 -2.9e-4,0.0107 0,0.0205 0,0.0313 l 0,13.875 c 0,0.0108 -2.9e-4,0.0205 0,0.0313 -3.4e-4,0.0108 0,0.0204 0,0.0313 0.007,0.12426 0.0506,0.2347 0.0937,0.34375 0.0296,0.0768 0.0784,0.15258 0.125,0.21875 0.0276,0.0388 0.0303,0.0906 0.0625,0.125 0.18248,0.19791 0.42709,0.3125 0.71875,0.3125 l 10,0 c 0.1385,0 0.25528,-0.0433 0.375,-0.0937 0.11972,-0.0505 0.22213,-0.0971 0.3125,-0.1875 0.0993,-0.0941 0.16475,-0.21564 0.21875,-0.34375 0.0505,-0.11972 0.0937,-0.2365 0.0937,-0.375 l 0,-2 c 0,-0.554 -0.446,-1 -1,-1 -0.53227,0 -0.96689,0.41386 -1,0.9375 l 0,0.0625 c -0.0325,0.55224 -0.50182,1 -1.0625,1 l -5.875,0 c -0.58193,0 -1.0625,-0.48057 -1.0625,-1.0625 l 0,-9.875 c 0,-0.58193 0.48057,-1.0625 1.0625,-1.0625 l 5.875,0 c 0.58193,0 1.0625,0.48057 1.0625,1.0625 0.0331,0.52364 0.46773,0.9375 1,0.9375 0.554,0 1,-0.446 1,-1 l 0,-2 c 0,-0.1385 -0.0433,-0.25528 -0.0937,-0.375 -0.054,-0.12811 -0.11947,-0.24967 -0.21875,-0.34375 C 296.5069,645.1005 296.27715,645 296.00015,645 l -10,0 z"
       id="rect3776"
       inkscape:connector-curvature="0" />
    <g
       transform="matrix(-0.55556675,0,0,0.66664042,480.81628,214.6839)"
       id="g4532"
       style="display:inline">
      <path
         inkscape:connector-curvature="0"
         id="path4534"
         d="m 320.0625,656 0,3.00006 18,0 0,-3.00006 -18,0 z"
         style="font-size:medium;font-style:normal;font-variant:normal;font-weight:normal;font-stretch:normal;text-indent:0;text-align:start;text-decoration:none;line-height:normal;letter-spacing:normal;word-spacing:normal;text-transform:none;direction:ltr;block-progression:tb;writing-mode:lr-tb;text-anchor:start;baseline-shift:baseline;color:#000000;fill:#555753;fill-opacity:1;stroke:none;stroke-width:2;marker:none;visibility:visible;display:inline;overflow:visible;enable-background:accumulate;font-family:Sans;-inkscape-font-specification:Sans" />
    </g>
    <path
       inkscape:connector-curvature="0"
       style="font-size:medium;font-style:normal;font-variant:normal;font-weight:normal;font-stretch:normal;text-indent:0;text-align:start;text-decoration:none;line-height:normal;letter-spacing:normal;word-spacing:normal;text-transform:none;direction:ltr;block-progression:tb;writing-mode:lr-tb;text-anchor:start;color:#555753;fill:#555753;fill-opacity:1;stroke:none;stroke-width:2;marker:none;visibility:visible;display:inline;overflow:visible;enable-background:accumulate;font-family:Bitstream Vera Sans;-inkscape-font-specification:Bitstream Vera Sans"
       d="m 298.99999,648.99996 0,1 c 0,0.25689 0.12983,0.52846 0.3125,0.71875 l 2.6875,2.28125 -2.6875,2.28149 c -0.18267,0.19029 -0.3125,0.46186 -0.3125,0.71875 l 0,1 0.41322,0 0.58678,-1.1e-4 c 0.30945,0 0.55232,-0.0903 0.75,-0.28125 1.41667,-1.07301 2.83333,-2.64587 4.25,-3.71888 l -4.25,-3.71886 c -0.19768,-0.19095 -0.44055,-0.28125 -0.75,-0.28125 l -0.58678,1.1e-4 z"
       id="path4538"
       sodipodi:nodetypes="ccccccccccccccc" />
  </g>
  <g
     inkscape:groupmode="layer"
     id="layer13"
     inkscape:label="places"
     transform="translate(-283,-641)" />
  <g
     inkscape:groupmode="layer"
     id="layer14"
     inkscape:label="mimetypes"
     transform="translate(-283,-641)" />
  <g
     inkscape:groupmode="layer"
     id="layer15"
     inkscape:label="emblems"
     style="display:inline"
     transform="translate(-283,-641)" />
  <g
     inkscape:groupmode="layer"
     id="g71291"
     inkscape:label="emotes"
     style="display:inline"
     transform="translate(-283,-641)" />
  <g
     inkscape:groupmode="layer"
     id="g4953"
     inkscape:label="categories"
     style="display:inline"
     transform="translate(-283,-641)" />
  <g
     inkscape:groupmode="layer"
     id="layer12"
     inkscape:label="actions"
     style="display:inline"
     transform="translate(-283,-641)" />
</svg>
