<?xml version="1.0" encoding="UTF-8" standalone="no"?>
<!-- Created with Inkscape (http://www.inkscape.org/) -->

<svg
   xmlns:dc="http://purl.org/dc/elements/1.1/"
   xmlns:cc="http://creativecommons.org/ns#"
   xmlns:rdf="http://www.w3.org/1999/02/22-rdf-syntax-ns#"
   xmlns:svg="http://www.w3.org/2000/svg"
   xmlns="http://www.w3.org/2000/svg"
   xmlns:sodipodi="http://sodipodi.sourceforge.net/DTD/sodipodi-0.dtd"
   xmlns:inkscape="http://www.inkscape.org/namespaces/inkscape"
   id="svg7384"
   sodipodi:docname="file-saveas-document.svg"
   version="1.1"
   inkscape:version="0.48.4 r9939"
   height="24"
   width="24"
   inkscape:export-filename="/home/raizen/Escritorio/PSPP icon original/Carpeta sin título/goto-case.png"
   inkscape:export-xdpi="90"
   inkscape:export-ydpi="90">
  <metadata
     id="metadata90">
    <rdf:RDF>
      <cc:Work
         rdf:about="">
        <dc:format>image/svg+xml</dc:format>
        <dc:type
           rdf:resource="http://purl.org/dc/dcmitype/StillImage" />
        <dc:title />
        <dc:creator>
          <cc:Agent>
            <dc:title>GNU PSPP Community</dc:title>
          </cc:Agent>
        </dc:creator>
        <cc:license
           rdf:resource="http://creativecommons.org/licenses/by-sa/3.0/" />
      </cc:Work>
      <cc:License
         rdf:about="http://creativecommons.org/licenses/by-sa/3.0/">
        <cc:permits
           rdf:resource="http://creativecommons.org/ns#Reproduction" />
        <cc:permits
           rdf:resource="http://creativecommons.org/ns#Distribution" />
        <cc:requires
           rdf:resource="http://creativecommons.org/ns#Notice" />
        <cc:requires
           rdf:resource="http://creativecommons.org/ns#Attribution" />
        <cc:permits
           rdf:resource="http://creativecommons.org/ns#DerivativeWorks" />
        <cc:requires
           rdf:resource="http://creativecommons.org/ns#ShareAlike" />
      </cc:License>
    </rdf:RDF>
  </metadata>
  <sodipodi:namedview
     inkscape:cy="9.7933304"
     pagecolor="#555753"
     borderopacity="1"
     showborder="false"
     inkscape:bbox-paths="false"
     guidetolerance="10"
     inkscape:object-paths="true"
     inkscape:window-width="1366"
     showguides="true"
     inkscape:object-nodes="true"
     inkscape:snap-bbox="true"
     inkscape:pageshadow="2"
     inkscape:guide-bbox="true"
     inkscape:snap-nodes="false"
     bordercolor="#666666"
     objecttolerance="10"
     id="namedview88"
     showgrid="true"
     inkscape:window-maximized="1"
     inkscape:window-x="0"
     inkscape:snap-global="true"
     inkscape:window-y="28"
     gridtolerance="10"
     inkscape:window-height="675"
     inkscape:snap-others="false"
     inkscape:snap-to-guides="true"
     inkscape:current-layer="layer12"
     inkscape:snap-bbox-midpoints="true"
     inkscape:zoom="14.852481"
     inkscape:cx="16.864504"
     inkscape:snap-grids="true"
     inkscape:pageopacity="0"
     inkscape:bbox-nodes="true">
    <inkscape:grid
       spacingx="1px"
       spacingy="1px"
       id="grid4866"
       empspacing="2"
       enabled="true"
       type="xygrid"
       snapvisiblegridlinesonly="true"
       visible="true" />
    <sodipodi:guide
       position="0,0"
       orientation="0,16.085251"
       id="guide3001" />
    <sodipodi:guide
       position="24,16.798541"
       orientation="-16.02426,0"
       id="guide3003" />
    <sodipodi:guide
       position="15.620287,24"
       orientation="0,-16.085251"
       id="guide3005" />
    <sodipodi:guide
       position="0,16.02426"
       orientation="16.02426,0"
       id="guide3007" />
    <sodipodi:guide
       position="0,0"
       orientation="0,24"
       id="guide3022" />
    <sodipodi:guide
       position="24,0"
       orientation="-24,0"
       id="guide3024" />
    <sodipodi:guide
       position="24,24"
       orientation="0,-24"
       id="guide3026" />
    <sodipodi:guide
       position="0,24"
       orientation="24,0"
       id="guide3028" />
  </sodipodi:namedview>
  <defs
     id="defs7386" />
  <g
     inkscape:label="open-document"
     transform="translate(-60.952227,-639)"
     inkscape:groupmode="layer"
     id="layer12"
     style="display:inline">
    <path
       sodipodi:nodetypes="sssscccccssssssssssssscccccccccccc"
       inkscape:connector-curvature="0"
       id="path3316-7-8"
       d="m 79.35223,646.00184 c 0.886396,0 1.599997,0.71351 1.599997,1.59981 l 0,12.79672 c 0,0.88629 -0.713601,1.5998 -1.600001,1.5998 l -0.8,0 0,-7.19911 -11.199999,0 0,7.19911 -0.8,0 c -0.8864,0 -1.6,-0.71351 -1.6,-1.5998 l 4e-6,-12.79672 c 0,-0.8863 0.7136,-1.59981 1.6,-1.59981 z m -2.399999,2.40125 -8.000001,0 c -0.8864,0 -1.6,0.71352 -1.6,1.59981 l 0,0.79836 c 0,0.88628 0.7136,1.59979 1.6,1.59979 l 8.000001,0 c 0.886399,0 1.599999,-0.71351 1.599999,-1.59979 l 0,-0.79836 c 0,-0.88629 -0.7136,-1.59981 -1.599999,-1.59981 z m -4e-6,7.99576 0,5.59932 -8,0 0,-5.59932 1.6,0 2.4,0 z m -4.8,1.59981 -1.6,0 0,2.39971 1.6,0 z"
       style="font-size:medium;font-style:normal;font-variant:normal;font-weight:normal;font-stretch:normal;text-indent:0;text-align:start;text-decoration:none;line-height:normal;letter-spacing:normal;word-spacing:normal;text-transform:none;direction:ltr;block-progression:tb;writing-mode:lr-tb;text-anchor:start;baseline-shift:baseline;color:#000000;fill:#555753;fill-opacity:1;stroke:none;stroke-width:1.99999988;marker:none;visibility:visible;display:inline;overflow:visible;enable-background:accumulate;font-family:Sans;-inkscape-font-specification:Sans" />
    <path
       style="fill:#555753;fill-opacity:1;stroke:none"
       d="m 64.295977,640 c -0.751995,0 -1.34375,0.59175 -1.34375,1.34375 l 0,2.3125 c 0,0.752 0.591755,1.34375 1.34375,1.34375 l 17.3125,0 c 0.751995,0 1.34375,-0.59175 1.34375,-1.34375 l 0,-2.3125 c 0,-0.752 -0.591755,-1.34375 -1.34375,-1.34375 l -17.3125,0 z m 0.78125,1 15.75,0 c 0.630963,0 1.125,0.49404 1.125,1.125 l 0,0.8125 c 0,0.63096 -0.494037,1.15625 -1.125,1.15625 l -15.75,0 c -0.630963,0 -1.125,-0.52529 -1.125,-1.15625 l 0,-0.8125 c 0,-0.63096 0.494037,-1.125 1.125,-1.125 z m -0.125,0.5 0,1 0,1 0.625,0 6.28125,0 2.46875,0 c 0.34625,0 0.625,-0.446 0.625,-1 0,-0.554 -0.27875,-1 -0.625,-1 l -2.46875,0 -6.28125,0 -0.625,0 z"
       id="rect3036"
       inkscape:connector-curvature="0" />
  </g>
</svg>
