<?xml version="1.0" encoding="UTF-8" standalone="no"?>
<!-- Created with Inkscape (http://www.inkscape.org/) -->

<svg
   xmlns:dc="http://purl.org/dc/elements/1.1/"
   xmlns:cc="http://creativecommons.org/ns#"
   xmlns:rdf="http://www.w3.org/1999/02/22-rdf-syntax-ns#"
   xmlns:svg="http://www.w3.org/2000/svg"
   xmlns="http://www.w3.org/2000/svg"
   xmlns:sodipodi="http://sodipodi.sourceforge.net/DTD/sodipodi-0.dtd"
   xmlns:inkscape="http://www.inkscape.org/namespaces/inkscape"
   sodipodi:docname="transform-runpending-transforms.svg"
   height="24"
   id="svg7384"
   inkscape:version="0.48.4 r9939"
   version="1.1"
   width="24">
  <metadata
     id="metadata90">
    <rdf:RDF>
      <cc:Work
         rdf:about="">
        <dc:format>image/svg+xml</dc:format>
        <dc:type
           rdf:resource="http://purl.org/dc/dcmitype/StillImage" />
        <dc:title />
        <dc:creator>
          <cc:Agent>
            <dc:title>GNU PSPP Community</dc:title>
          </cc:Agent>
        </dc:creator>
        <cc:license
           rdf:resource="http://creativecommons.org/licenses/by-sa/3.0/" />
      </cc:Work>
      <cc:License
         rdf:about="http://creativecommons.org/licenses/by-sa/3.0/">
        <cc:permits
           rdf:resource="http://creativecommons.org/ns#Reproduction" />
        <cc:permits
           rdf:resource="http://creativecommons.org/ns#Distribution" />
        <cc:requires
           rdf:resource="http://creativecommons.org/ns#Notice" />
        <cc:requires
           rdf:resource="http://creativecommons.org/ns#Attribution" />
        <cc:permits
           rdf:resource="http://creativecommons.org/ns#DerivativeWorks" />
        <cc:requires
           rdf:resource="http://creativecommons.org/ns#ShareAlike" />
      </cc:License>
    </rdf:RDF>
  </metadata>
  <sodipodi:namedview
     inkscape:bbox-paths="false"
     bordercolor="#666666"
     borderopacity="1"
     inkscape:current-layer="layer11"
     inkscape:cx="33.86722"
     inkscape:cy="10.198711"
     gridtolerance="10"
     inkscape:guide-bbox="true"
     guidetolerance="10"
     id="namedview88"
     inkscape:object-nodes="false"
     inkscape:object-paths="false"
     objecttolerance="10"
     pagecolor="#555753"
     inkscape:pageopacity="0"
     inkscape:pageshadow="2"
     showborder="false"
     showgrid="true"
     showguides="true"
     inkscape:snap-bbox="true"
     inkscape:snap-bbox-midpoints="true"
     inkscape:snap-global="true"
     inkscape:snap-grids="true"
     inkscape:snap-nodes="false"
     inkscape:snap-others="false"
     inkscape:snap-to-guides="true"
     inkscape:window-height="675"
     inkscape:window-maximized="1"
     inkscape:window-width="1366"
     inkscape:window-x="0"
     inkscape:window-y="28"
     inkscape:zoom="11.313709"
     inkscape:bbox-nodes="true"
     inkscape:snap-bbox-edge-midpoints="true">
    <inkscape:grid
       empspacing="2"
       enabled="true"
       id="grid4866"
       snapvisiblegridlinesonly="true"
       spacingx="1px"
       spacingy="1px"
       type="xygrid"
       visible="true" />
    <sodipodi:guide
       position="0,0"
       orientation="0,16"
       id="guide2996" />
    <sodipodi:guide
       position="16,0"
       orientation="-16,0"
       id="guide2998" />
    <sodipodi:guide
       position="13,16"
       orientation="0,-16"
       id="guide3000" />
    <sodipodi:guide
       position="0,12"
       orientation="16,0"
       id="guide3002" />
    <sodipodi:guide
       position="0,0"
       orientation="0,24"
       id="guide4287" />
    <sodipodi:guide
       position="24,0"
       orientation="-24,0"
       id="guide4289" />
    <sodipodi:guide
       position="24,24"
       orientation="0,-24"
       id="guide4291" />
    <sodipodi:guide
       position="0,24"
       orientation="24,0"
       id="guide4293" />
  </sodipodi:namedview>
  <defs
     id="defs7386" />
  <g
     inkscape:groupmode="layer"
     id="layer9"
     inkscape:label="status"
     style="display:inline"
     transform="translate(-283,-641)" />
  <g
     inkscape:groupmode="layer"
     id="layer10"
     inkscape:label="devices"
     transform="translate(-283,-641)" />
  <g
     inkscape:groupmode="layer"
     id="layer11"
     inkscape:label="apps"
     transform="translate(-283,-641)">
    <rect
       transform="matrix(0,1,1,0,0,0)"
       y="304.00003"
       x="647.99994"
       height="16"
       width="15.999999"
       id="rect7290"
       style="fill:none;stroke:none" />
    <g
       transform="matrix(0,1,1,0,-102.3622,591.99991)"
       style="fill:none;stroke:none"
       id="g7292">
      <path
         sodipodi:nodetypes="ccccssc"
         inkscape:connector-curvature="0"
         id="path7294"
         d="m 58.99296,408.86219 2.5,0 c 0.52709,0 1,0.49495 1,1 l 0,3 -3,0 c -1.30615,0 -1.34163,-2 0,-2 l 3,0"
         style="color:#000000;fill:none;stroke:none;stroke-width:1;marker:none;visibility:visible;display:inline;overflow:visible;enable-background:accumulate" />
      <path
         style="color:#000000;fill:none;stroke:none;stroke-width:1;marker:none;visibility:visible;display:inline;overflow:visible;enable-background:accumulate"
         d="m 64.5,407.36219 0,5.5 3,0 c 1.30615,0 1.34163,-3 0,-3 l -3,0"
         id="path7296"
         inkscape:connector-curvature="0"
         sodipodi:nodetypes="ccssc" />
      <g
         transform="matrix(-1,0,0,1,394.0627,-240.6378)"
         id="g7298"
         style="fill:none;stroke:none;display:inline">
        <path
           style="color:#000000;fill:none;stroke:none;stroke-width:2;marker:none;visibility:visible;display:inline;overflow:visible;enable-background:accumulate"
           d="m 337.0627,659 -13.0625,0"
           id="path7300"
           inkscape:connector-curvature="0"
           sodipodi:nodetypes="cc" />
      </g>
      <rect
         y="406.36221"
         x="56"
         height="16"
         width="15.999999"
         id="rect7302"
         style="fill:none;stroke:none" />
    </g>
    <path
       inkscape:connector-curvature="0"
       d="m 300.38617,641.00001 c -0.35264,0.64782 -0.68728,1.49697 -1.05636,2.13955 -0.13801,-0.0101 -0.27294,-0.0466 -0.41336,-0.0466 -0.48832,0 -0.97015,0.0725 -1.4238,0.18605 -0.44831,-0.56975 -0.92643,-1.33676 -1.37787,-1.90698 -0.41827,0.15634 -0.81168,0.33709 -1.19415,0.55813 0.14096,0.71833 0.40698,1.59413 0.55115,2.32559 -0.50411,0.37034 -0.92031,0.79182 -1.28601,1.30233 -0.72229,-0.146 -1.58712,-0.41535 -2.29644,-0.55813 -0.21828,0.38731 -0.39676,0.78571 -0.55115,1.20931 0.56308,0.45717 1.32048,0.94137 1.88308,1.39536 -0.11213,0.45939 -0.18371,0.94734 -0.18371,1.44186 0,0.14207 0.0362,0.27888 0.046,0.4186 -0.63454,0.37378 -1.47303,0.71264 -2.11274,1.06977 0.0753,0.40894 0.18857,0.82418 0.32151,1.20931 0.72222,-0.0148 1.61595,-0.14078 2.34237,-0.13949 0.27502,0.58308 0.61807,1.12195 1.05637,1.58139 -0.25286,0.69632 -0.65862,1.50119 -0.91858,2.18606 0.3129,0.26151 0.66063,0.48555 1.01043,0.69768 0.54264,-0.47644 1.13965,-1.14825 1.69937,-1.6279 0.55561,0.25682 1.15906,0.39484 1.79123,0.4651 0.24183,0.70961 0.44721,1.61948 0.68893,2.3256 0.44318,-0.003 0.86243,-0.021 1.28601,-0.093 0.11846,-0.73364 0.16221,-1.66482 0.27557,-2.4186 0.60273,-0.1739 1.19245,-0.39736 1.69937,-0.7442 0.62365,0.39362 1.32108,0.93602 1.92902,1.30233 0.32883,-0.28379 0.63834,-0.59722 0.91857,-0.93023 -0.36171,-0.61564 -0.89733,-1.32193 -1.28601,-1.95349 0.34248,-0.51337 0.56314,-1.11058 0.73487,-1.72095 0.74433,-0.11472 1.66385,-0.15919 2.3883,-0.27906 0.0711,-0.42896 0.0894,-0.85354 0.0918,-1.30233 -0.69726,-0.2448 -1.59573,-0.45278 -2.29644,-0.69768 -0.0694,-0.64019 -0.20568,-1.25128 -0.4593,-1.81396 0.47367,-0.56682 1.13705,-1.17142 1.60752,-1.72095 -0.20947,-0.35423 -0.4307,-0.70638 -0.68894,-1.02326 -0.67629,0.26326 -1.47106,0.67418 -2.15866,0.93025 -0.45368,-0.44387 -0.9858,-0.79125 -1.56157,-1.06978 -0.001,-0.73564 0.12345,-1.64071 0.13771,-2.37209 -0.38031,-0.13459 -0.79033,-0.24933 -1.19415,-0.32559 z m -1.46972,5.06978 c 1.62341,0 2.93944,1.33274 2.93944,2.97677 0,1.64401 -1.31603,2.97675 -2.93944,2.97675 -1.62341,0 -2.93944,-1.33274 -2.93944,-2.97675 0,-1.64403 1.31603,-2.97677 2.93944,-2.97677 z"
       id="path42961"
       style="color:#000000;fill:#555753;fill-opacity:1;fill-rule:nonzero;stroke:none;stroke-width:1;marker:none;visibility:visible;display:inline;overflow:visible;enable-background:accumulate" />
    <path
       inkscape:connector-curvature="0"
       d="m 289.08767,652.16284 c -0.33824,0.0701 -0.65242,0.19493 -0.96451,0.32559 -0.0246,0.92923 0.12772,2.1459 -0.22965,2.46511 -0.35121,0.31372 -1.52609,0.0511 -2.43422,-0.0466 -0.19311,0.35199 -0.34577,0.7222 -0.45929,1.11628 0.70266,0.5892 1.67623,1.24877 1.69936,1.72095 0.0234,0.47805 -0.92065,1.19798 -1.56157,1.86047 0.15195,0.38376 0.36763,0.73457 0.59707,1.06976 0.89406,-0.18814 2.00822,-0.55595 2.3883,-0.27907 0.387,0.28193 0.38979,1.49635 0.50522,2.41862 0.36677,0.1117 0.75325,0.15553 1.14822,0.18605 0.41351,-0.82548 0.83394,-1.96437 1.286,-2.09303 0.46408,-0.132 1.41615,0.68187 2.2046,1.16279 0.32144,-0.22564 0.60689,-0.50167 0.87264,-0.79071 -0.37307,-0.85182 -1.05978,-1.92284 -0.87264,-2.37208 0.18731,-0.44966 1.43356,-0.699 2.29644,-1.02326 0.006,-0.1094 0.046,-0.21454 0.046,-0.32559 0,-0.28484 -0.0506,-0.56408 -0.0918,-0.83721 -0.89079,-0.23937 -2.15638,-0.35914 -2.3883,-0.79071 -0.23037,-0.42866 0.35537,-1.57975 0.64301,-2.46511 -0.29565,-0.2658 -0.61642,-0.50182 -0.9645,-0.69769 -0.73618,0.55833 -1.59367,1.47998 -2.0668,1.39536 -0.46574,-0.0833 -0.97427,-1.2198 -1.46973,-2.00001 -0.0591,0.0101 -0.12536,-0.0115 -0.18372,0 z m 0.91858,2.7907 c 1.36975,0 2.48015,1.12451 2.48015,2.51165 0,1.38714 -1.1104,2.51164 -2.48015,2.51164 -1.36976,0 -2.48016,-1.1245 -2.48016,-2.51164 0,-1.38714 1.1104,-2.51165 2.48016,-2.51165 z"
       id="path42972"
       style="color:#000000;fill:#555753;fill-opacity:1;fill-rule:nonzero;stroke:none;stroke-width:1;marker:none;visibility:visible;display:inline;overflow:visible;enable-background:accumulate" />
  </g>
  <g
     inkscape:groupmode="layer"
     id="layer13"
     inkscape:label="places"
     transform="translate(-283,-641)" />
  <g
     inkscape:groupmode="layer"
     id="layer14"
     inkscape:label="mimetypes"
     transform="translate(-283,-641)" />
  <g
     inkscape:groupmode="layer"
     id="layer15"
     inkscape:label="emblems"
     style="display:inline"
     transform="translate(-283,-641)" />
  <g
     inkscape:groupmode="layer"
     id="g71291"
     inkscape:label="emotes"
     style="display:inline"
     transform="translate(-283,-641)" />
  <g
     inkscape:groupmode="layer"
     id="g4953"
     inkscape:label="categories"
     style="display:inline"
     transform="translate(-283,-641)" />
  <g
     inkscape:groupmode="layer"
     id="layer12"
     inkscape:label="actions"
     style="display:inline"
     transform="translate(-283,-641)" />
</svg>
