<?xml version="1.0" encoding="UTF-8" standalone="no"?>
<!-- Created with Inkscape (http://www.inkscape.org/) -->

<svg
   xmlns:dc="http://purl.org/dc/elements/1.1/"
   xmlns:cc="http://creativecommons.org/ns#"
   xmlns:rdf="http://www.w3.org/1999/02/22-rdf-syntax-ns#"
   xmlns:svg="http://www.w3.org/2000/svg"
   xmlns="http://www.w3.org/2000/svg"
   xmlns:sodipodi="http://sodipodi.sourceforge.net/DTD/sodipodi-0.dtd"
   xmlns:inkscape="http://www.inkscape.org/namespaces/inkscape"
   sodipodi:docname="transform-count.svg"
   height="24"
   id="svg7384"
   inkscape:version="0.48.4 r9939"
   version="1.1"
   width="24">
  <metadata
     id="metadata90">
    <rdf:RDF>
      <cc:Work
         rdf:about="">
        <dc:format>image/svg+xml</dc:format>
        <dc:type
           rdf:resource="http://purl.org/dc/dcmitype/StillImage" />
        <dc:title />
        <dc:creator>
          <cc:Agent>
            <dc:title>GNU PSPP Community</dc:title>
          </cc:Agent>
        </dc:creator>
        <cc:license
           rdf:resource="http://creativecommons.org/licenses/by-sa/3.0/" />
      </cc:Work>
      <cc:License
         rdf:about="http://creativecommons.org/licenses/by-sa/3.0/">
        <cc:permits
           rdf:resource="http://creativecommons.org/ns#Reproduction" />
        <cc:permits
           rdf:resource="http://creativecommons.org/ns#Distribution" />
        <cc:requires
           rdf:resource="http://creativecommons.org/ns#Notice" />
        <cc:requires
           rdf:resource="http://creativecommons.org/ns#Attribution" />
        <cc:permits
           rdf:resource="http://creativecommons.org/ns#DerivativeWorks" />
        <cc:requires
           rdf:resource="http://creativecommons.org/ns#ShareAlike" />
      </cc:License>
    </rdf:RDF>
  </metadata>
  <sodipodi:namedview
     inkscape:bbox-paths="false"
     bordercolor="#666666"
     borderopacity="1"
     inkscape:current-layer="layer11"
     inkscape:cx="13.960102"
     inkscape:cy="8.9058555"
     gridtolerance="10"
     inkscape:guide-bbox="true"
     guidetolerance="10"
     id="namedview88"
     inkscape:object-nodes="false"
     inkscape:object-paths="false"
     objecttolerance="10"
     pagecolor="#555753"
     inkscape:pageopacity="0"
     inkscape:pageshadow="2"
     showborder="false"
     showgrid="true"
     showguides="true"
     inkscape:snap-bbox="true"
     inkscape:snap-bbox-midpoints="false"
     inkscape:snap-global="true"
     inkscape:snap-grids="true"
     inkscape:snap-nodes="false"
     inkscape:snap-others="false"
     inkscape:snap-to-guides="true"
     inkscape:window-height="675"
     inkscape:window-maximized="1"
     inkscape:window-width="1366"
     inkscape:window-x="0"
     inkscape:window-y="28"
     inkscape:zoom="16.82915"
     inkscape:bbox-nodes="true"
     inkscape:snap-bbox-edge-midpoints="true">
    <inkscape:grid
       empspacing="2"
       enabled="true"
       id="grid4866"
       snapvisiblegridlinesonly="true"
       spacingx="1px"
       spacingy="1px"
       type="xygrid"
       visible="true" />
    <sodipodi:guide
       position="0,0"
       orientation="0,16"
       id="guide2996" />
    <sodipodi:guide
       position="16,2"
       orientation="-16,0"
       id="guide2998" />
    <sodipodi:guide
       position="13,16"
       orientation="0,-16"
       id="guide3000" />
    <sodipodi:guide
       position="0,12"
       orientation="16,0"
       id="guide3002" />
    <sodipodi:guide
       position="0,0"
       orientation="0,24"
       id="guide4287" />
    <sodipodi:guide
       position="24,0"
       orientation="-24,0"
       id="guide4289" />
    <sodipodi:guide
       position="24,24"
       orientation="0,-24"
       id="guide4291" />
    <sodipodi:guide
       position="0,24"
       orientation="24,0"
       id="guide4293" />
  </sodipodi:namedview>
  <defs
     id="defs7386" />
  <g
     inkscape:groupmode="layer"
     id="layer9"
     inkscape:label="status"
     style="display:inline"
     transform="translate(-283,-641)" />
  <g
     inkscape:groupmode="layer"
     id="layer10"
     inkscape:label="devices"
     transform="translate(-283,-641)" />
  <g
     inkscape:groupmode="layer"
     id="layer11"
     inkscape:label="apps"
     transform="translate(-283,-641)">
    <path
       style="fill:#555753;fill-opacity:1;stroke:none"
       d="M 4 2 C 2.892 2 2 2.892 2 4 L 2 5 L 2 6.15625 L 2 18 L 2 19 L 2 20.15625 C 2.0797192 21.190163 2.9449559 22 4 22 L 5 22 L 19 22 L 20 22 C 21.108 22 22 21.108 22 20 L 22 19 L 22 18 L 22 6.15625 L 22 5 L 22 4 C 22 2.892 21.108 2 20 2 L 19 2 L 5 2 L 4 2 z M 15.625 4 C 16.958815 4.0000118 18.029035 4.256757 18.8125 4.78125 C 19.602424 5.305765 19.999991 6.0008356 20 6.875 C 19.999991 7.4577911 19.823734 7.9824158 19.5 8.40625 C 19.176249 8.830099 18.562722 9.282704 17.65625 9.8125 C 17.034658 10.188665 16.637091 10.491478 16.46875 10.6875 C 16.306873 10.883532 16.249995 11.150873 16.25 11.46875 L 16.25 11.9375 L 13.65625 11.9375 L 13.65625 11.34375 C 13.656247 10.835145 13.797028 10.407415 14.0625 10.03125 C 14.327966 9.6550964 14.825487 9.2363486 15.53125 8.8125 C 16.211105 8.4151555 16.661324 8.0927649 16.875 7.84375 C 17.095139 7.594751 17.187494 7.3072939 17.1875 7 C 17.187494 6.6556375 17.029537 6.3988922 16.71875 6.21875 C 16.407951 6.0386269 15.994333 5.9687598 15.4375 5.96875 C 14.466268 5.9687598 13.33692 6.1995531 12.09375 6.71875 L 11.03125 5 C 12.475142 4.3377583 14.006283 4.0000118 15.625 4 z M 4.1875 12 L 6.1875 12 L 8.03125 14.875 L 9.84375 12 L 11.78125 12 L 9.09375 15.96875 L 12 20 L 9.9375 20 L 7.9375 16.96875 L 5.9375 20 L 4 20 L 6.84375 15.875 L 4.1875 12 z M 15.0625 13.3125 C 15.599909 13.312502 16.021126 13.423139 16.3125 13.65625 C 16.610338 13.889365 16.749994 14.221814 16.75 14.65625 C 16.749994 15.074795 16.610338 15.412541 16.3125 15.65625 C 16.014652 15.894661 15.593434 16 15.0625 16 C 14.518608 16 14.11034 15.889363 13.8125 15.65625 C 13.514654 15.417839 13.343748 15.085391 13.34375 14.65625 C 13.343748 14.211217 13.489879 13.852817 13.78125 13.625 C 14.072615 13.397187 14.505659 13.312502 15.0625 13.3125 z "
       transform="translate(283,641)"
       id="rect3002" />
  </g>
  <g
     inkscape:groupmode="layer"
     id="layer13"
     inkscape:label="places"
     transform="translate(-283,-641)" />
  <g
     inkscape:groupmode="layer"
     id="layer14"
     inkscape:label="mimetypes"
     transform="translate(-283,-641)" />
  <g
     inkscape:groupmode="layer"
     id="layer15"
     inkscape:label="emblems"
     style="display:inline"
     transform="translate(-283,-641)" />
  <g
     inkscape:groupmode="layer"
     id="g71291"
     inkscape:label="emotes"
     style="display:inline"
     transform="translate(-283,-641)" />
  <g
     inkscape:groupmode="layer"
     id="g4953"
     inkscape:label="categories"
     style="display:inline"
     transform="translate(-283,-641)" />
  <g
     inkscape:groupmode="layer"
     id="layer12"
     inkscape:label="actions"
     style="display:inline"
     transform="translate(-283,-641)" />
</svg>
