<?xml version="1.0" encoding="UTF-8" standalone="no"?>
<!-- Created with Inkscape (http://www.inkscape.org/) -->

<svg
   xmlns:dc="http://purl.org/dc/elements/1.1/"
   xmlns:cc="http://creativecommons.org/ns#"
   xmlns:rdf="http://www.w3.org/1999/02/22-rdf-syntax-ns#"
   xmlns:svg="http://www.w3.org/2000/svg"
   xmlns="http://www.w3.org/2000/svg"
   xmlns:sodipodi="http://sodipodi.sourceforge.net/DTD/sodipodi-0.dtd"
   xmlns:inkscape="http://www.inkscape.org/namespaces/inkscape"
   id="svg7384"
   sodipodi:docname="view-value-labels.svg"
   version="1.1"
   inkscape:version="0.48.4 r9939"
   height="24"
   width="24">
  <metadata
     id="metadata90">
    <rdf:RDF>
      <cc:Work
         rdf:about="">
        <dc:format>image/svg+xml</dc:format>
        <dc:type
           rdf:resource="http://purl.org/dc/dcmitype/StillImage" />
        <dc:title></dc:title>
        <dc:creator>
          <cc:Agent>
            <dc:title>GNU PSPP Comunity</dc:title>
          </cc:Agent>
        </dc:creator>
        <cc:license
           rdf:resource="http://creativecommons.org/licenses/by-sa/3.0/" />
      </cc:Work>
      <cc:License
         rdf:about="http://creativecommons.org/licenses/by-sa/3.0/">
        <cc:permits
           rdf:resource="http://creativecommons.org/ns#Reproduction" />
        <cc:permits
           rdf:resource="http://creativecommons.org/ns#Distribution" />
        <cc:requires
           rdf:resource="http://creativecommons.org/ns#Notice" />
        <cc:requires
           rdf:resource="http://creativecommons.org/ns#Attribution" />
        <cc:permits
           rdf:resource="http://creativecommons.org/ns#DerivativeWorks" />
        <cc:requires
           rdf:resource="http://creativecommons.org/ns#ShareAlike" />
      </cc:License>
    </rdf:RDF>
  </metadata>
  <sodipodi:namedview
     inkscape:cy="10.414211"
     pagecolor="#555753"
     borderopacity="1"
     showborder="false"
     inkscape:bbox-paths="false"
     guidetolerance="10"
     inkscape:window-width="1366"
     showguides="true"
     inkscape:object-nodes="true"
     inkscape:snap-bbox="true"
     inkscape:pageshadow="2"
     inkscape:guide-bbox="true"
     inkscape:snap-nodes="true"
     bordercolor="#666666"
     objecttolerance="10"
     id="namedview88"
     showgrid="true"
     inkscape:window-maximized="1"
     inkscape:window-x="0"
     inkscape:snap-global="true"
     inkscape:window-y="28"
     gridtolerance="10"
     inkscape:window-height="675"
     inkscape:snap-to-guides="true"
     inkscape:current-layer="layer12"
     inkscape:zoom="17.148376"
     inkscape:cx="13.189231"
     inkscape:snap-grids="true"
     inkscape:pageopacity="0"
     inkscape:bbox-nodes="true"
     inkscape:snap-bbox-midpoints="false"
     inkscape:snap-bbox-edge-midpoints="true">
    <inkscape:grid
       spacingx="1px"
       spacingy="1px"
       id="grid4866"
       empspacing="2"
       enabled="true"
       type="xygrid"
       snapvisiblegridlinesonly="true"
       visible="true" />
    <sodipodi:guide
       position="0,0"
       orientation="0,24"
       id="guide2994" />
    <sodipodi:guide
       position="24,2"
       orientation="-24,0"
       id="guide2996" />
    <sodipodi:guide
       position="24,24"
       orientation="0,-24"
       id="guide2998" />
    <sodipodi:guide
       position="0,24"
       orientation="24,0"
       id="guide3000" />
  </sodipodi:namedview>
  <defs
     id="defs7386" />
  <g
     inkscape:label="GNU PSPP icon theme symbolic"
     transform="translate(-80,-640)"
     inkscape:groupmode="layer"
     id="layer12"
     style="display:inline">
    <text
       xml:space="preserve"
       style="font-size:40px;font-style:normal;font-weight:normal;line-height:125%;letter-spacing:0px;word-spacing:0px;fill:#000000;fill-opacity:1;stroke:none;font-family:Sans"
       x="2.875"
       y="9.9375"
       id="text3062"
       sodipodi:linespacing="125%"
       transform="translate(80,640)"><tspan
         sodipodi:role="line"
         id="tspan3064"
         x="2.875"
         y="9.9375" /></text>
    <rect
       transform="scale(-1,1)"
       style="color:#555753;fill:none;stroke:none;stroke-width:1;marker:none;visibility:visible;display:inline;overflow:visible;enable-background:new"
       id="rect4430"
       y="638.00964"
       x="-73.000008"
       height="23.990229"
       width="24" />
    <rect
       y="642.00964"
       x="62"
       height="23.990229"
       width="24"
       id="rect4993"
       style="fill:none;stroke:none" />
    <rect
       style="fill:#ff0000;fill-opacity:1;stroke:none"
       id="rect3979"
       width="7"
       height="0"
       x="54"
       y="651"
       ry="0" />
    <path
       style="fill:#555753;fill-opacity:1;stroke:none"
       d="m 92,640.90476 c -4.155,0 -7.5,3.7379 -7.5,8.38095 l 0,11.78572 0,0.2619 0.03348,0 c 0.133818,0.88555 0.897492,1.57143 1.84152,1.57143 l 11.25,0 c 0.944028,0 1.707702,-0.68588 1.841518,-1.57143 l 0.03348,0 0,-0.2619 0,-11.78572 C 99.5,644.64266 96.155,640.90476 92,640.90476 z M 92,643 c 1.183467,0 2.142857,0.93807 2.142857,2.09524 0,1.15716 -0.95939,2.09523 -2.142857,2.09523 -1.183467,0 -2.142857,-0.93807 -2.142857,-2.09523 C 89.857143,643.93807 90.816533,643 92,643 z m 0.301339,8.38095 c 1.289578,10e-6 2.258643,0.24862 2.946429,0.72024 0.687769,0.47163 1.037937,1.16548 1.037946,2.12797 l 0,5.40179 -1.841518,0 -0.502232,-1.11309 -0.06696,0 c -0.441331,0.46681 -0.902792,0.79926 -1.372768,0.98214 -0.464255,0.17806 -1.057216,0.2619 -1.808036,0.2619 -0.922771,0 -1.643313,-0.21201 -2.176339,-0.65476 -0.527297,-0.44275 -0.803572,-1.08068 -0.803571,-1.89881 -1e-6,-0.85662 0.360723,-1.49455 1.071428,-1.89881 0.716433,-0.40906 1.77568,-0.64418 3.214286,-0.6875 l 1.674107,-0.0327 0,-0.36012 c -6e-6,-0.81811 -0.475942,-1.2113 -1.473214,-1.2113 -0.768024,0 -1.674659,0.19948 -2.712054,0.58928 l -0.870535,-1.50595 c 1.106173,-0.48606 2.336133,-0.72023 3.683035,-0.72024 z m 1.372768,4.48512 -1.004464,0.0327 c -0.762293,0.0192 -1.335047,0.14837 -1.707589,0.36012 -0.37255,0.21175 -0.5692,0.51628 -0.569197,0.9494 -3e-6,0.62082 0.424058,0.94941 1.272322,0.94941 0.607532,0 1.112124,-0.16477 1.473214,-0.45834 0.366809,-0.29356 0.535708,-0.65977 0.535714,-1.14583 l 0,-0.6875 z"
       id="rect2993"
       inkscape:connector-curvature="0"
       inkscape:export-filename="/home/raizen/Escritorio/PSPP icon set/PSPP icon original/Carpeta sin título/value-labels.png"
       inkscape:export-xdpi="90"
       inkscape:export-ydpi="90" />
  </g>
</svg>
