<?xml version="1.0" encoding="UTF-8" standalone="no"?>
<!-- Created with Inkscape (http://www.inkscape.org/) -->

<svg
   xmlns:dc="http://purl.org/dc/elements/1.1/"
   xmlns:cc="http://creativecommons.org/ns#"
   xmlns:rdf="http://www.w3.org/1999/02/22-rdf-syntax-ns#"
   xmlns:svg="http://www.w3.org/2000/svg"
   xmlns="http://www.w3.org/2000/svg"
   xmlns:sodipodi="http://sodipodi.sourceforge.net/DTD/sodipodi-0.dtd"
   xmlns:inkscape="http://www.inkscape.org/namespaces/inkscape"
   width="24"
   height="24"
   id="svg3991"
   version="1.1"
   inkscape:version="0.48.4 r9939"
   sodipodi:docname="view-value-labels.svg">
  <title
     id="title4018">GNU PSPP flat icon set</title>
  <defs
     id="defs3993" />
  <sodipodi:namedview
     id="base"
     pagecolor="#ffffff"
     bordercolor="#666666"
     borderopacity="1.0"
     inkscape:pageopacity="0.0"
     inkscape:pageshadow="2"
     inkscape:zoom="11.2"
     inkscape:cx="12.875286"
     inkscape:cy="9.6348948"
     inkscape:document-units="px"
     inkscape:current-layer="layer1"
     showgrid="true"
     inkscape:window-width="683"
     inkscape:window-height="708"
     inkscape:window-x="0"
     inkscape:window-y="27"
     inkscape:window-maximized="0"
     showborder="false"
     inkscape:snap-bbox="true">
    <inkscape:grid
       type="xygrid"
       id="grid2983"
       empspacing="5"
       visible="true"
       enabled="true"
       snapvisiblegridlinesonly="true" />
    <sodipodi:guide
       position="0,0"
       orientation="0,24"
       id="guide5959" />
    <sodipodi:guide
       position="24,0"
       orientation="-24,0"
       id="guide5961" />
    <sodipodi:guide
       position="24,24"
       orientation="0,-24"
       id="guide5963" />
    <sodipodi:guide
       position="0,24"
       orientation="24,0"
       id="guide5965" />
  </sodipodi:namedview>
  <metadata
     id="metadata3996">
    <rdf:RDF>
      <cc:Work
         rdf:about="">
        <dc:format>image/svg+xml</dc:format>
        <dc:type
           rdf:resource="http://purl.org/dc/dcmitype/StillImage" />
        <dc:title>GNU PSPP flat icon set</dc:title>
        <cc:license
           rdf:resource="http://creativecommons.org/licenses/by-sa/3.0/" />
        <dc:creator>
          <cc:Agent>
            <dc:title>Bastián Díaz</dc:title>
          </cc:Agent>
        </dc:creator>
        <dc:source>https://github.com/bedf/PSPPire-artwork</dc:source>
      </cc:Work>
      <cc:License
         rdf:about="http://creativecommons.org/licenses/by-sa/3.0/">
        <cc:permits
           rdf:resource="http://creativecommons.org/ns#Reproduction" />
        <cc:permits
           rdf:resource="http://creativecommons.org/ns#Distribution" />
        <cc:requires
           rdf:resource="http://creativecommons.org/ns#Notice" />
        <cc:requires
           rdf:resource="http://creativecommons.org/ns#Attribution" />
        <cc:permits
           rdf:resource="http://creativecommons.org/ns#DerivativeWorks" />
        <cc:requires
           rdf:resource="http://creativecommons.org/ns#ShareAlike" />
      </cc:License>
    </rdf:RDF>
  </metadata>
  <g
     inkscape:label="Layer 1"
     inkscape:groupmode="layer"
     id="layer1"
     transform="translate(0,-1028.3622)">
    <g
       id="g3007">
      <rect
         y="1028.3622"
         x="0"
         height="23.999996"
         width="24"
         id="rect5559-7-4"
         style="fill:none;stroke:none" />
      <rect
         y="1028.3622"
         x="0"
         height="23.999996"
         width="24"
         id="rect5744-3-9"
         style="fill:none;stroke:none" />
      <path
         inkscape:connector-curvature="0"
         id="rect6314-8-8"
         d="m 12.5,1028.3622 c -4.14213,0 -7.5,4.0294 -7.5,9 l 0,2.4844 0,0.5156 0,9.4687 c 0,1.385 1.09938,2.5313 2.484375,2.5313 l 10.03125,0 c 1.384999,0 2.484375,-1.1463 2.484375,-2.5313 l 0,-9.4687 0,-0.5156 0,-2.4844 c 0,-4.9706 -3.357864,-9 -7.5,-9 z m 0,3 c 1.242641,0 2.25,1.0074 2.25,2.25 0,1.2426 -1.007359,2.25 -2.25,2.25 -1.242645,0 -2.25,-1.0074 -2.25,-2.25 0,-1.2426 1.007355,-2.25 2.25,-2.25 z m 0,7.5 c 2.485275,0 4.5,2.0147 4.5,4.5 l 0,6 -3,0 0,-3 -3,0 0,3 -3,0 0,-6 c 0,-2.4853 2.014725,-4.5 4.5,-4.5 z m 0,3 c -0.82842,0 -1.5,0.6716 -1.5,1.5 l 0,1.5 3,0 0,-1.5 c 0,-0.8284 -0.67158,-1.5 -1.5,-1.5 z"
         style="fill:#555753;fill-opacity:1;stroke:none" />
    </g>
  </g>
</svg>
